<?xml version="1.0" encoding="UTF-8"?><!DOCTYPE score-partwise PUBLIC "-//Recordare//DTD MusicXML 3.1 Partwise//EN" "http://www.musicxml.org/dtds/partwise.dtd"><score-partwise version="3.1">
  <movement-title>131장 다 나와 찬송부르세</movement-title>
  <identification>
    <creator type="composer">Anonymous</creator>
    <creator type="poet">Scottish Psalter</creator>
    <encoding>
      <software>MuseScore 3.6.2</software>
      <encoding-date>2022-03-15</encoding-date>
      <supports element="accidental" type="yes"/>
      <supports element="beam" type="yes"/>
      <supports element="print" attribute="new-page" type="yes" value="yes"/>
      <supports element="print" attribute="new-system" type="yes" value="yes"/>
      <supports element="stem" type="yes"/>
      </encoding>
    </identification>
  <defaults>
    <scaling>
      <millimeters>6.99911</millimeters>
      <tenths>40</tenths>
      </scaling>
    <page-layout>
      <page-height>1697.36</page-height>
      <page-width>1200.15</page-width>
      <page-margins type="even">
        <left-margin>85.7252</left-margin>
        <right-margin>85.7252</right-margin>
        <top-margin>85.7252</top-margin>
        <bottom-margin>85.7252</bottom-margin>
        </page-margins>
      <page-margins type="odd">
        <left-margin>85.7252</left-margin>
        <right-margin>85.7252</right-margin>
        <top-margin>85.7252</top-margin>
        <bottom-margin>85.7252</bottom-margin>
        </page-margins>
      </page-layout>
    <word-font font-family="Edwin" font-size="10"/>
    <lyric-font font-family="Edwin" font-size="10"/>
    </defaults>
  <credit page="1">
    <credit-type>title</credit-type>
    <credit-words default-x="600.076" default-y="1611.63" justify="center" valign="top" font-size="22">131장 다 나와 찬송부르세</credit-words>
    </credit>
  <credit page="1">
    <credit-type>composer</credit-type>
    <credit-words default-x="1114.43" default-y="1511.63" justify="right" valign="bottom">Anonymous</credit-words>
    </credit>
  <credit page="1">
    <credit-type>lyricist</credit-type>
    <credit-words default-x="85.7252" default-y="1511.63" justify="left" valign="bottom">Scottish Psalter</credit-words>
    </credit>
  <credit page="1">
    <credit-type>rights</credit-type>
    <credit-words default-x="600.076" default-y="85.7252" justify="center" valign="bottom" font-size="9">Copyright 2022 David Sung</credit-words>
    </credit>
  <part-list>
    <score-part id="P1">
      <part-name/>
      <score-instrument id="P1-I1">
        <instrument-name/>
        </score-instrument>
      <midi-device id="P1-I1" port="1"/>
      <midi-instrument id="P1-I1">
        <midi-channel>1</midi-channel>
        <midi-program>1</midi-program>
        <volume>78.7402</volume>
        <pan>0</pan>
        </midi-instrument>
      </score-part>
    <score-part id="P3">
      <part-name/>
      <score-instrument id="P3-I1">
        <instrument-name/>
        </score-instrument>
      <midi-device id="P3-I1" port="1"/>
      <midi-instrument id="P3-I1">
        <midi-channel>3</midi-channel>
        <midi-program>1</midi-program>
        <volume>78.7402</volume>
        <pan>0</pan>
        </midi-instrument>
      </score-part>
    </part-list>
  <part id="P1">
    <measure number="1" width="162.94">
      <print>
        <system-layout>
          <system-margins>
            <left-margin>50.00</left-margin>
            <right-margin>-0.00</right-margin>
            </system-margins>
          <top-system-distance>170.00</top-system-distance>
          </system-layout>
        </print>
      <attributes>
        <divisions>2</divisions>
        <key>
          <fifths>-3</fifths>
          <mode>major</mode>
          </key>
        <time>
          <beats>3</beats>
          <beat-type>4</beat-type>
          </time>
        <clef>
          <sign>G</sign>
          <line>2</line>
          </clef>
        </attributes>
      <direction placement="above">
        <direction-type>
          <metronome parentheses="no" default-x="-41.18" relative-y="20.00">
            <beat-unit>quarter</beat-unit>
            <per-minute>104</per-minute>
            </metronome>
          </direction-type>
        <sound tempo="104"/>
        </direction>
      <note default-x="125.11" default-y="-40.00">
        <pitch>
          <step>E</step>
          <alter>-1</alter>
          <octave>4</octave>
          </pitch>
        <duration>2</duration>
        <voice>1</voice>
        <type>quarter</type>
        <stem>up</stem>
        <lyric number="1" default-x="-14.79" default-y="-56.60" relative-y="-30.00">
          <syllabic>single</syllabic>
          <text>1.다</text>
          </lyric>
        <lyric number="2" default-x="-16.10" default-y="-78.34" relative-y="-30.00">
          <syllabic>single</syllabic>
          <text>2.그</text>
          </lyric>
        <lyric number="3" default-x="-15.97" default-y="-100.08" relative-y="-30.00">
          <syllabic>single</syllabic>
          <text>3.참</text>
          </lyric>
        <lyric number="4" default-x="-16.25" default-y="-121.81" relative-y="-30.00">
          <syllabic>single</syllabic>
          <text>4.다</text>
          </lyric>
        </note>
      <backup><duration>2</duration></backup><note default-x="125.11" default-y="-233.81">
        <pitch>
          <step>B</step>
          <alter>-1</alter>
          <octave>3</octave>
          </pitch>
        <duration>2</duration>
        <voice>2</voice>
        <type>quarter</type>
        <stem>down</stem>
        </note>
      </measure>
    <measure number="2" width="82.07">
      <note default-x="16.50" default-y="-40.00">
        <pitch>
          <step>E</step>
          <alter>-1</alter>
          <octave>4</octave>
          </pitch>
        <duration>4</duration>
        <voice>1</voice>
        <type>half</type>
        <stem>up</stem>
        <lyric number="1" default-x="6.50" default-y="-56.60" relative-y="-30.00">
          <syllabic>single</syllabic>
          <text>나</text>
          </lyric>
        <lyric number="2" default-x="6.50" default-y="-78.34" relative-y="-30.00">
          <syllabic>single</syllabic>
          <text>보</text>
          </lyric>
        <lyric number="3" default-x="6.50" default-y="-100.08" relative-y="-30.00">
          <syllabic>single</syllabic>
          <text>되</text>
          </lyric>
        <lyric number="4" default-x="6.50" default-y="-121.81" relative-y="-30.00">
          <syllabic>single</syllabic>
          <text>나</text>
          </lyric>
        </note>
      <note default-x="49.16" default-y="-55.00">
        <pitch>
          <step>B</step>
          <alter>-1</alter>
          <octave>3</octave>
          </pitch>
        <duration>2</duration>
        <voice>1</voice>
        <type>quarter</type>
        <stem>up</stem>
        <lyric number="1" default-x="6.50" default-y="-56.60" relative-y="-30.00">
          <syllabic>single</syllabic>
          <text>와</text>
          </lyric>
        <lyric number="2" default-x="6.50" default-y="-78.34" relative-y="-30.00">
          <syllabic>single</syllabic>
          <text>좌</text>
          </lyric>
        <lyric number="3" default-x="6.50" default-y="-100.08" relative-y="-30.00">
          <syllabic>single</syllabic>
          <text>고</text>
          </lyric>
        <lyric number="4" default-x="6.50" default-y="-121.81" relative-y="-30.00">
          <syllabic>single</syllabic>
          <text>와</text>
          </lyric>
        </note>
      <backup><duration>6</duration></backup><note default-x="16.50" default-y="-233.81">
        <pitch>
          <step>B</step>
          <alter>-1</alter>
          <octave>3</octave>
          </pitch>
        <duration>4</duration>
        <voice>2</voice>
        <type>half</type>
        <stem>down</stem>
        </note>
      <note default-x="49.16" default-y="-233.81">
        <pitch>
          <step>B</step>
          <alter>-1</alter>
          <octave>3</octave>
          </pitch>
        <duration>2</duration>
        <voice>2</voice>
        <type>quarter</type>
        <stem>down</stem>
        </note>
      </measure>
    <measure number="3" width="94.82">
      <note default-x="16.50" default-y="-40.00">
        <pitch>
          <step>E</step>
          <alter>-1</alter>
          <octave>4</octave>
          </pitch>
        <duration>2</duration>
        <voice>1</voice>
        <type>quarter</type>
        <stem>up</stem>
        <notations>
          <slur type="start" placement="above" number="1"/>
          </notations>
        <lyric number="1" default-x="6.50" default-y="-56.60" relative-y="-30.00">
          <syllabic>single</syllabic>
          <text>찬</text>
          </lyric>
        <lyric number="2" default-x="6.50" default-y="-78.34" relative-y="-30.00">
          <syllabic>single</syllabic>
          <text>앞</text>
          </lyric>
        <lyric number="3" default-x="6.50" default-y="-100.08" relative-y="-30.00">
          <syllabic>single</syllabic>
          <text>높</text>
          </lyric>
        <lyric number="4" default-x="6.50" default-y="-121.81" relative-y="-30.00">
          <syllabic>single</syllabic>
          <text>찬</text>
          </lyric>
        </note>
      <note default-x="39.41" default-y="-35.00">
        <pitch>
          <step>F</step>
          <octave>4</octave>
          </pitch>
        <duration>2</duration>
        <voice>1</voice>
        <type>quarter</type>
        <stem>up</stem>
        <notations>
          <slur type="stop" number="1"/>
          </notations>
        </note>
      <note default-x="62.32" default-y="-30.00">
        <pitch>
          <step>G</step>
          <octave>4</octave>
          </pitch>
        <duration>2</duration>
        <voice>1</voice>
        <type>quarter</type>
        <stem>up</stem>
        <lyric number="1" default-x="6.50" default-y="-56.60" relative-y="-30.00">
          <syllabic>single</syllabic>
          <text>송</text>
          </lyric>
        <lyric number="2" default-x="6.50" default-y="-78.34" relative-y="-30.00">
          <syllabic>single</syllabic>
          <text>에</text>
          </lyric>
        <lyric number="3" default-x="6.50" default-y="-100.08" relative-y="-30.00">
          <syllabic>single</syllabic>
          <text>은</text>
          </lyric>
        <lyric number="4" default-x="6.50" default-y="-121.81" relative-y="-30.00">
          <syllabic>single</syllabic>
          <text>송</text>
          </lyric>
        </note>
      <backup><duration>6</duration></backup><note default-x="16.50" default-y="-228.81">
        <pitch>
          <step>C</step>
          <octave>4</octave>
          </pitch>
        <duration>2</duration>
        <voice>2</voice>
        <type>quarter</type>
        <stem>down</stem>
        <notations>
          <slur type="start" placement="below" number="1"/>
          </notations>
        </note>
      <note default-x="39.41" default-y="-223.81">
        <pitch>
          <step>D</step>
          <octave>4</octave>
          </pitch>
        <duration>2</duration>
        <voice>2</voice>
        <type>quarter</type>
        <stem>down</stem>
        <notations>
          <slur type="stop" number="1"/>
          </notations>
        </note>
      <note default-x="62.32" default-y="-218.81">
        <pitch>
          <step>E</step>
          <alter>-1</alter>
          <octave>4</octave>
          </pitch>
        <duration>2</duration>
        <voice>2</voice>
        <type>quarter</type>
        <stem>down</stem>
        </note>
      </measure>
    <measure number="4" width="94.82">
      <note default-x="16.50" default-y="-25.00">
        <pitch>
          <step>A</step>
          <alter>-1</alter>
          <octave>4</octave>
          </pitch>
        <duration>2</duration>
        <voice>1</voice>
        <type>quarter</type>
        <stem>up</stem>
        <notations>
          <slur type="start" placement="above" number="1"/>
          </notations>
        <lyric number="1" default-x="6.50" default-y="-56.60" relative-y="-30.00">
          <syllabic>single</syllabic>
          <text>부</text>
          </lyric>
        <lyric number="2" default-x="6.50" default-y="-78.34" relative-y="-30.00">
          <syllabic>single</syllabic>
          <text>엎</text>
          </lyric>
        <lyric number="3" default-x="6.50" default-y="-100.08" relative-y="-30.00">
          <syllabic>single</syllabic>
          <text>하</text>
          </lyric>
        <lyric number="4" default-x="6.50" default-y="-121.81" relative-y="-30.00">
          <syllabic>single</syllabic>
          <text>드</text>
          </lyric>
        </note>
      <note default-x="39.41" default-y="-30.00">
        <pitch>
          <step>G</step>
          <octave>4</octave>
          </pitch>
        <duration>2</duration>
        <voice>1</voice>
        <type>quarter</type>
        <stem>up</stem>
        <notations>
          <slur type="stop" number="1"/>
          </notations>
        </note>
      <note default-x="62.32" default-y="-35.00">
        <pitch>
          <step>F</step>
          <octave>4</octave>
          </pitch>
        <duration>2</duration>
        <voice>1</voice>
        <type>quarter</type>
        <stem>up</stem>
        <lyric number="1" default-x="6.50" default-y="-56.60" relative-y="-30.00">
          <syllabic>single</syllabic>
          <text>르</text>
          </lyric>
        <lyric number="2" default-x="6.50" default-y="-78.34" relative-y="-30.00">
          <syllabic>single</syllabic>
          <text>드</text>
          </lyric>
        <lyric number="3" default-x="6.50" default-y="-100.08" relative-y="-30.00">
          <syllabic>single</syllabic>
          <text>나</text>
          </lyric>
        <lyric number="4" default-x="6.50" default-y="-121.81" relative-y="-30.00">
          <syllabic>single</syllabic>
          <text>리</text>
          </lyric>
        </note>
      <backup><duration>6</duration></backup><note default-x="16.50" default-y="-218.81">
        <pitch>
          <step>E</step>
          <alter>-1</alter>
          <octave>4</octave>
          </pitch>
        <duration>4</duration>
        <voice>2</voice>
        <type>half</type>
        <stem>down</stem>
        </note>
      <note default-x="62.32" default-y="-223.81">
        <pitch>
          <step>D</step>
          <octave>4</octave>
          </pitch>
        <duration>2</duration>
        <voice>2</voice>
        <type>quarter</type>
        <stem>down</stem>
        </note>
      </measure>
    <measure number="5" width="78.78">
      <note default-x="15.40" default-y="-30.00">
        <pitch>
          <step>G</step>
          <octave>4</octave>
          </pitch>
        <duration>4</duration>
        <voice>1</voice>
        <type>half</type>
        <stem>up</stem>
        <lyric number="1" default-x="6.50" default-y="-56.60" relative-y="-30.00">
          <syllabic>single</syllabic>
          <text>세</text>
          </lyric>
        <lyric number="2" default-x="6.50" default-y="-78.34" relative-y="-30.00">
          <syllabic>single</syllabic>
          <text>려</text>
          </lyric>
        <lyric number="3" default-x="6.50" default-y="-100.08" relative-y="-30.00">
          <syllabic>single</syllabic>
          <text>님</text>
          </lyric>
        <lyric number="4" default-x="6.50" default-y="-121.81" relative-y="-30.00">
          <syllabic>single</syllabic>
          <text>세</text>
          </lyric>
        </note>
      <note default-x="46.08" default-y="-20.00">
        <pitch>
          <step>B</step>
          <alter>-1</alter>
          <octave>4</octave>
          </pitch>
        <duration>2</duration>
        <voice>1</voice>
        <type>quarter</type>
        <stem>up</stem>
        <lyric number="1" default-x="6.50" default-y="-56.60" relative-y="-30.00">
          <syllabic>single</syllabic>
          <text>한</text>
          </lyric>
        <lyric number="2" default-x="6.50" default-y="-78.34" relative-y="-30.00">
          <syllabic>single</syllabic>
          <text>한</text>
          </lyric>
        <lyric number="3" default-x="6.50" default-y="-100.08" relative-y="-30.00">
          <syllabic>single</syllabic>
          <text>만</text>
          </lyric>
        <lyric number="4" default-x="6.50" default-y="-121.81" relative-y="-30.00">
          <syllabic>single</syllabic>
          <text>다</text>
          </lyric>
        </note>
      <backup><duration>6</duration></backup><note default-x="15.40" default-y="-218.81">
        <pitch>
          <step>E</step>
          <alter>-1</alter>
          <octave>4</octave>
          </pitch>
        <duration>4</duration>
        <voice>2</voice>
        <type>half</type>
        <stem>down</stem>
        </note>
      <note default-x="46.08" default-y="-213.81">
        <pitch>
          <step>F</step>
          <octave>4</octave>
          </pitch>
        <duration>2</duration>
        <voice>2</voice>
        <type>quarter</type>
        <stem>down</stem>
        </note>
      </measure>
    <measure number="6" width="98.38">
      <note default-x="16.03" default-y="-30.00">
        <pitch>
          <step>G</step>
          <octave>4</octave>
          </pitch>
        <duration>2</duration>
        <voice>1</voice>
        <type>quarter</type>
        <stem>up</stem>
        <notations>
          <slur type="start" placement="above" number="1"/>
          </notations>
        <lyric number="1" default-x="6.50" default-y="-56.60" relative-y="-30.00">
          <syllabic>single</syllabic>
          <text>소</text>
          </lyric>
        <lyric number="2" default-x="6.50" default-y="-78.34" relative-y="-30.00">
          <syllabic>single</syllabic>
          <text>없</text>
          </lyric>
        <lyric number="3" default-x="6.50" default-y="-100.08" relative-y="-30.00">
          <syllabic>single</syllabic>
          <text>왕</text>
          </lyric>
        <lyric number="4" default-x="6.50" default-y="-121.81" relative-y="-30.00">
          <syllabic>single</syllabic>
          <text>같</text>
          </lyric>
        </note>
      <note default-x="40.95" default-y="-25.00">
        <pitch>
          <step>A</step>
          <alter>-1</alter>
          <octave>4</octave>
          </pitch>
        <duration>2</duration>
        <voice>1</voice>
        <type>quarter</type>
        <stem>up</stem>
        <notations>
          <slur type="stop" number="1"/>
          </notations>
        </note>
      <note default-x="65.88" default-y="-20.00">
        <pitch>
          <step>B</step>
          <alter>-1</alter>
          <octave>4</octave>
          </pitch>
        <duration>2</duration>
        <voice>1</voice>
        <type>quarter</type>
        <stem>up</stem>
        <lyric number="1" default-x="6.50" default-y="-56.60" relative-y="-30.00">
          <syllabic>single</syllabic>
          <text>리</text>
          </lyric>
        <lyric number="2" default-x="6.50" default-y="-78.34" relative-y="-30.00">
          <syllabic>single</syllabic>
          <text>는</text>
          </lyric>
        <lyric number="3" default-x="6.50" default-y="-100.08" relative-y="-30.00">
          <syllabic>single</syllabic>
          <text>의</text>
          </lyric>
        <lyric number="4" default-x="6.50" default-y="-121.81" relative-y="-30.00">
          <syllabic>single</syllabic>
          <text>이</text>
          </lyric>
        </note>
      <backup><duration>6</duration></backup><note default-x="16.03" default-y="-218.81">
        <pitch>
          <step>E</step>
          <alter>-1</alter>
          <octave>4</octave>
          </pitch>
        <duration>4</duration>
        <voice>2</voice>
        <type>half</type>
        <stem>down</stem>
        </note>
      <note default-x="65.88" default-y="-218.81">
        <pitch>
          <step>E</step>
          <alter>-1</alter>
          <octave>4</octave>
          </pitch>
        <duration>2</duration>
        <voice>2</voice>
        <type>quarter</type>
        <stem>down</stem>
        </note>
      </measure>
    <measure number="7" width="91.38">
      <note default-x="16.50" default-y="-40.00">
        <pitch>
          <step>E</step>
          <alter>-1</alter>
          <octave>4</octave>
          </pitch>
        <duration>2</duration>
        <voice>1</voice>
        <type>quarter</type>
        <stem>up</stem>
        <notations>
          <slur type="start" placement="above" number="1"/>
          </notations>
        <lyric number="1" default-x="6.50" default-y="-56.60" relative-y="-30.00">
          <syllabic>single</syllabic>
          <text>높</text>
          </lyric>
        <lyric number="2" default-x="6.50" default-y="-78.34" relative-y="-30.00">
          <syllabic>single</syllabic>
          <text>감</text>
          </lyric>
        <lyric number="3" default-x="6.50" default-y="-100.08" relative-y="-30.00">
          <syllabic>single</syllabic>
          <text>왕</text>
          </lyric>
        <lyric number="4" default-x="6.50" default-y="-121.81" relative-y="-30.00">
          <syllabic>single</syllabic>
          <text>엎</text>
          </lyric>
        </note>
      <note default-x="37.44" default-y="-35.00">
        <pitch>
          <step>F</step>
          <octave>4</octave>
          </pitch>
        <duration>2</duration>
        <voice>1</voice>
        <type>quarter</type>
        <stem>up</stem>
        <notations>
          <slur type="stop" number="1"/>
          </notations>
        </note>
      <note default-x="58.37" default-y="-45.00">
        <pitch>
          <step>D</step>
          <octave>4</octave>
          </pitch>
        <duration>2</duration>
        <voice>1</voice>
        <type>quarter</type>
        <stem>up</stem>
        <lyric number="1" default-x="6.50" default-y="-56.60" relative-y="-30.00">
          <syllabic>single</syllabic>
          <text>여</text>
          </lyric>
        <lyric number="2" default-x="6.50" default-y="-78.34" relative-y="-30.00">
          <syllabic>single</syllabic>
          <text>사</text>
          </lyric>
        <lyric number="3" default-x="6.50" default-y="-100.08" relative-y="-30.00">
          <syllabic>single</syllabic>
          <text>께</text>
          </lyric>
        <lyric number="4" default-x="6.50" default-y="-121.81" relative-y="-30.00">
          <syllabic>single</syllabic>
          <text>드</text>
          </lyric>
        </note>
      <backup><duration>6</duration></backup><note default-x="16.50" default-y="-228.81">
        <pitch>
          <step>C</step>
          <octave>4</octave>
          </pitch>
        <duration>4</duration>
        <voice>2</voice>
        <type>half</type>
        <stem>down</stem>
        </note>
      <note default-x="58.37" default-y="-233.81">
        <pitch>
          <step>B</step>
          <alter>-1</alter>
          <octave>3</octave>
          </pitch>
        <duration>2</duration>
        <voice>2</voice>
        <type>quarter</type>
        <stem>down</stem>
        </note>
      </measure>
    <measure number="8" width="94.37">
      <note default-x="16.50" default-y="-40.00">
        <pitch>
          <step>E</step>
          <alter>-1</alter>
          <octave>4</octave>
          </pitch>
        <duration>4</duration>
        <voice>1</voice>
        <type>half</type>
        <stem>up</stem>
        <lyric number="1" default-x="6.50" default-y="-56.60" relative-y="-30.00">
          <syllabic>single</syllabic>
          <text>서</text>
          </lyric>
        <lyric number="2" default-x="6.50" default-y="-78.34" relative-y="-30.00">
          <syllabic>single</syllabic>
          <text>와</text>
          </lyric>
        <lyric number="3" default-x="6.50" default-y="-100.08" relative-y="-30.00">
          <syllabic>single</syllabic>
          <text>서</text>
          </lyric>
        <lyric number="4" default-x="6.50" default-y="-121.81" relative-y="-30.00">
          <syllabic>single</syllabic>
          <text>려</text>
          </lyric>
        </note>
      <note default-x="49.55" default-y="-20.00">
        <pitch>
          <step>B</step>
          <alter>-1</alter>
          <octave>4</octave>
          </pitch>
        <duration>2</duration>
        <voice>1</voice>
        <type>quarter</type>
        <stem>up</stem>
        <lyric number="1" default-x="6.50" default-y="-56.60" relative-y="-30.00">
          <syllabic>single</syllabic>
          <text>넘</text>
          </lyric>
        <lyric number="2" default-x="6.50" default-y="-78.34" relative-y="-30.00">
          <syllabic>single</syllabic>
          <text>무</text>
          </lyric>
        <lyric number="3" default-x="6.50" default-y="-100.08" relative-y="-30.00">
          <syllabic>single</syllabic>
          <text>저</text>
          </lyric>
        <lyric number="4" default-x="6.50" default-y="-121.81" relative-y="-30.00">
          <syllabic>single</syllabic>
          <text>주</text>
          </lyric>
        </note>
      <backup><duration>6</duration></backup><note default-x="16.50" default-y="-233.81">
        <pitch>
          <step>B</step>
          <alter>-1</alter>
          <octave>3</octave>
          </pitch>
        <duration>4</duration>
        <voice>2</voice>
        <type>half</type>
        <stem>down</stem>
        </note>
      <note default-x="49.55" default-y="-218.81">
        <pitch>
          <step>E</step>
          <alter>-1</alter>
          <octave>4</octave>
          </pitch>
        <duration>2</duration>
        <voice>2</voice>
        <type>quarter</type>
        <stem>down</stem>
        </note>
      </measure>
    <measure number="9" width="90.31">
      <note default-x="15.78" default-y="-5.00">
        <pitch>
          <step>E</step>
          <alter>-1</alter>
          <octave>5</octave>
          </pitch>
        <duration>2</duration>
        <voice>1</voice>
        <type>quarter</type>
        <stem>up</stem>
        <notations>
          <slur type="start" placement="above" number="1"/>
          </notations>
        <lyric number="1" default-x="6.50" default-y="-56.60" relative-y="-30.00">
          <syllabic>single</syllabic>
          <text>치</text>
          </lyric>
        <lyric number="2" default-x="6.50" default-y="-78.34" relative-y="-30.00">
          <syllabic>single</syllabic>
          <text>궁</text>
          </lyric>
        <lyric number="3" default-x="6.50" default-y="-100.08" relative-y="-30.00">
          <syllabic>single</syllabic>
          <text>깊</text>
          </lyric>
        <lyric number="4" default-x="6.50" default-y="-121.81" relative-y="-30.00">
          <syllabic>single</syllabic>
          <text>앞</text>
          </lyric>
        </note>
      <note default-x="36.69" default-y="-20.00">
        <pitch>
          <step>B</step>
          <alter>-1</alter>
          <octave>4</octave>
          </pitch>
        <duration>2</duration>
        <voice>1</voice>
        <type>quarter</type>
        <stem>up</stem>
        <notations>
          <slur type="stop" number="1"/>
          </notations>
        </note>
      <note default-x="57.60" default-y="-15.00">
        <pitch>
          <step>C</step>
          <octave>5</octave>
          </pitch>
        <duration>2</duration>
        <voice>1</voice>
        <type>quarter</type>
        <stem>up</stem>
        <lyric number="1" default-x="6.50" default-y="-56.60" relative-y="-30.00">
          <syllabic>single</syllabic>
          <text>는</text>
          </lyric>
        <lyric number="2" default-x="6.50" default-y="-78.34" relative-y="-30.00">
          <syllabic>single</syllabic>
          <text>한</text>
          </lyric>
        <lyric number="3" default-x="6.50" default-y="-100.08" relative-y="-30.00">
          <syllabic>single</syllabic>
          <text>은</text>
          </lyric>
        <lyric number="4" default-x="6.50" default-y="-121.81" relative-y="-30.00">
          <syllabic>single</syllabic>
          <text>에</text>
          </lyric>
        </note>
      <backup><duration>6</duration></backup><note default-x="15.78" default-y="-218.81">
        <pitch>
          <step>E</step>
          <alter>-1</alter>
          <octave>4</octave>
          </pitch>
        <duration>2</duration>
        <voice>2</voice>
        <type>quarter</type>
        <stem>down</stem>
        <notations>
          <slur type="start" placement="below" number="1"/>
          </notations>
        </note>
      <note default-x="36.69" default-y="-208.81">
        <pitch>
          <step>G</step>
          <octave>4</octave>
          </pitch>
        <duration>2</duration>
        <voice>2</voice>
        <type>quarter</type>
        <stem>down</stem>
        <notations>
          <slur type="stop" number="1"/>
          </notations>
        </note>
      <note default-x="57.60" default-y="-218.81">
        <pitch>
          <step>E</step>
          <alter>-1</alter>
          <octave>4</octave>
          </pitch>
        <duration>2</duration>
        <voice>2</voice>
        <type>quarter</type>
        <stem>down</stem>
        </note>
      </measure>
    <measure number="10" width="90.83">
      <note default-x="16.00" default-y="-20.00">
        <pitch>
          <step>B</step>
          <alter>-1</alter>
          <octave>4</octave>
          </pitch>
        <duration>2</duration>
        <voice>1</voice>
        <type>quarter</type>
        <stem>up</stem>
        <notations>
          <slur type="start" placement="above" number="1"/>
          </notations>
        <lyric number="1" default-x="6.50" default-y="-56.60" relative-y="-30.00">
          <syllabic>single</syllabic>
          <text>기</text>
          </lyric>
        <lyric number="2" default-x="6.50" default-y="-78.34" relative-y="-30.00">
          <syllabic>single</syllabic>
          <text>찬</text>
          </lyric>
        <lyric number="3" default-x="6.50" default-y="-100.08" relative-y="-30.00">
          <syllabic>single</syllabic>
          <text>물</text>
          </lyric>
        <lyric number="4" default-x="6.50" default-y="-121.81" relative-y="-30.00">
          <syllabic>single</syllabic>
          <text>무</text>
          </lyric>
        </note>
      <note default-x="36.93" default-y="-25.00">
        <pitch>
          <step>A</step>
          <alter>-1</alter>
          <octave>4</octave>
          </pitch>
        <duration>2</duration>
        <voice>1</voice>
        <type>quarter</type>
        <stem>up</stem>
        <notations>
          <slur type="stop" number="1"/>
          </notations>
        </note>
      <note default-x="57.86" default-y="-30.00">
        <pitch>
          <step>G</step>
          <octave>4</octave>
          </pitch>
        <duration>2</duration>
        <voice>1</voice>
        <type>quarter</type>
        <stem>up</stem>
        <lyric number="1" default-x="6.50" default-y="-56.60" relative-y="-30.00">
          <syllabic>single</syllabic>
          <text>쁜</text>
          </lyric>
        <lyric number="2" default-x="6.50" default-y="-78.34" relative-y="-30.00">
          <syllabic>single</syllabic>
          <text>송</text>
          </lyric>
        <lyric number="3" default-x="6.50" default-y="-100.08" relative-y="-30.00">
          <syllabic>single</syllabic>
          <text>과</text>
          </lyric>
        <lyric number="4" default-x="6.50" default-y="-121.81" relative-y="-30.00">
          <syllabic>single</syllabic>
          <text>릎</text>
          </lyric>
        </note>
      <backup><duration>6</duration></backup><note default-x="16.00" default-y="-218.81">
        <pitch>
          <step>E</step>
          <alter>-1</alter>
          <octave>4</octave>
          </pitch>
        <duration>2</duration>
        <voice>2</voice>
        <type>quarter</type>
        <stem>down</stem>
        <notations>
          <slur type="start" placement="below" number="1"/>
          </notations>
        </note>
      <note default-x="36.93" default-y="-213.81">
        <pitch>
          <step>F</step>
          <octave>4</octave>
          </pitch>
        <duration>2</duration>
        <voice>2</voice>
        <type>quarter</type>
        <stem>down</stem>
        <notations>
          <slur type="stop" number="1"/>
          </notations>
        </note>
      <note default-x="57.86" default-y="-218.81">
        <pitch>
          <step>E</step>
          <alter>-1</alter>
          <octave>4</octave>
          </pitch>
        <duration>2</duration>
        <voice>2</voice>
        <type>quarter</type>
        <stem>down</stem>
        </note>
      </measure>
    <measure number="11" width="274.96">
      <print new-system="yes">
        <system-layout>
          <system-margins>
            <left-margin>0.00</left-margin>
            <right-margin>0.00</right-margin>
            </system-margins>
          <system-distance>150.00</system-distance>
          </system-layout>
        </print>
      <note default-x="99.48" default-y="-15.00">
        <pitch>
          <step>C</step>
          <octave>5</octave>
          </pitch>
        <duration>1</duration>
        <voice>1</voice>
        <type>eighth</type>
        <stem>up</stem>
        <beam number="1">begin</beam>
        <notations>
          <slur type="start" placement="above" number="1"/>
          </notations>
        <lyric number="1" default-x="6.50" default-y="-48.01" relative-y="-30.00">
          <syllabic>single</syllabic>
          <text>맘</text>
          </lyric>
        <lyric number="2" default-x="6.50" default-y="-69.75" relative-y="-30.00">
          <syllabic>single</syllabic>
          <text>드</text>
          </lyric>
        <lyric number="3" default-x="6.50" default-y="-91.48" relative-y="-30.00">
          <syllabic>single</syllabic>
          <text>높</text>
          </lyric>
        <lyric number="4" default-x="6.50" default-y="-113.22" relative-y="-30.00">
          <syllabic>single</syllabic>
          <text>꿇</text>
          </lyric>
        </note>
      <note default-x="130.49" default-y="-20.00">
        <pitch>
          <step>B</step>
          <alter>-1</alter>
          <octave>4</octave>
          </pitch>
        <duration>1</duration>
        <voice>1</voice>
        <type>eighth</type>
        <stem>up</stem>
        <beam number="1">end</beam>
        </note>
      <note default-x="161.51" default-y="-25.00">
        <pitch>
          <step>A</step>
          <alter>-1</alter>
          <octave>4</octave>
          </pitch>
        <duration>2</duration>
        <voice>1</voice>
        <type>quarter</type>
        <stem>up</stem>
        <notations>
          <slur type="stop" number="1"/>
          </notations>
        </note>
      <note default-x="223.54" default-y="-30.00">
        <pitch>
          <step>G</step>
          <octave>4</octave>
          </pitch>
        <duration>2</duration>
        <voice>1</voice>
        <type>quarter</type>
        <stem>up</stem>
        <lyric number="1" default-x="6.50" default-y="-48.01" relative-y="-30.00">
          <syllabic>single</syllabic>
          <text>으</text>
          </lyric>
        <lyric number="2" default-x="6.50" default-y="-69.75" relative-y="-30.00">
          <syllabic>single</syllabic>
          <text>려</text>
          </lyric>
        <lyric number="3" default-x="6.50" default-y="-91.48" relative-y="-30.00">
          <syllabic>single</syllabic>
          <text>은</text>
          </lyric>
        <lyric number="4" default-x="6.50" default-y="-113.22" relative-y="-30.00">
          <syllabic>single</syllabic>
          <text>고</text>
          </lyric>
        </note>
      <backup><duration>6</duration></backup><note default-x="99.48" default-y="-210.34">
        <pitch>
          <step>E</step>
          <alter>-1</alter>
          <octave>4</octave>
          </pitch>
        <duration>2</duration>
        <voice>2</voice>
        <type>quarter</type>
        <stem>down</stem>
        <notations>
          <slur type="start" placement="below" number="1"/>
          </notations>
        </note>
      <note default-x="161.51" default-y="-205.34">
        <pitch>
          <step>F</step>
          <octave>4</octave>
          </pitch>
        <duration>2</duration>
        <voice>2</voice>
        <type>quarter</type>
        <stem>down</stem>
        <notations>
          <slur type="stop" number="1"/>
          </notations>
        </note>
      <note default-x="223.54" default-y="-225.34">
        <pitch>
          <step>B</step>
          <alter>-1</alter>
          <octave>3</octave>
          </pitch>
        <duration>2</duration>
        <voice>2</voice>
        <type>quarter</type>
        <stem>down</stem>
        </note>
      </measure>
    <measure number="12" width="141.22">
      <note default-x="16.50" default-y="-35.00">
        <pitch>
          <step>F</step>
          <octave>4</octave>
          </pitch>
        <duration>4</duration>
        <voice>1</voice>
        <type>half</type>
        <stem>up</stem>
        <lyric number="1" default-x="6.50" default-y="-48.01" relative-y="-30.00">
          <syllabic>single</syllabic>
          <text>로</text>
          </lyric>
        <lyric number="2" default-x="6.50" default-y="-69.75" relative-y="-30.00">
          <syllabic>single</syllabic>
          <text>서</text>
          </lyric>
        <lyric number="3" default-x="6.50" default-y="-91.48" relative-y="-30.00">
          <syllabic>single</syllabic>
          <text>산</text>
          </lyric>
        <lyric number="4" default-x="6.50" default-y="-113.22" relative-y="-30.00">
          <syllabic>single</syllabic>
          <text>서</text>
          </lyric>
        </note>
      <note default-x="80.89" default-y="-20.00">
        <pitch>
          <step>B</step>
          <alter>-1</alter>
          <octave>4</octave>
          </pitch>
        <duration>2</duration>
        <voice>1</voice>
        <type>quarter</type>
        <stem>up</stem>
        <lyric number="1" default-x="6.50" default-y="-48.01" relative-y="-30.00">
          <syllabic>single</syllabic>
          <text>하</text>
          </lyric>
        <lyric number="2" default-x="6.50" default-y="-69.75" relative-y="-30.00">
          <syllabic>single</syllabic>
          <text>구</text>
          </lyric>
        <lyric number="3" default-x="6.50" default-y="-91.48" relative-y="-30.00">
          <syllabic>single</syllabic>
          <text>다</text>
          </lyric>
        <lyric number="4" default-x="6.50" default-y="-113.22" relative-y="-30.00">
          <syllabic>single</syllabic>
          <text>창</text>
          </lyric>
        </note>
      <backup><duration>6</duration></backup><note default-x="16.50" default-y="-225.34">
        <pitch>
          <step>B</step>
          <alter>-1</alter>
          <octave>3</octave>
          </pitch>
        <duration>4</duration>
        <voice>2</voice>
        <type>half</type>
        <stem>down</stem>
        </note>
      <note default-x="80.89" default-y="-215.34">
        <pitch>
          <step>D</step>
          <octave>4</octave>
          </pitch>
        <duration>2</duration>
        <voice>2</voice>
        <type>quarter</type>
        <stem>down</stem>
        </note>
      </measure>
    <measure number="13" width="153.81">
      <note default-x="15.70" default-y="-5.00">
        <pitch>
          <step>E</step>
          <alter>-1</alter>
          <octave>5</octave>
          </pitch>
        <duration>1</duration>
        <voice>1</voice>
        <type>eighth</type>
        <stem>up</stem>
        <beam number="1">begin</beam>
        <notations>
          <slur type="start" placement="above" number="1"/>
          </notations>
        <lyric number="1" default-x="6.50" default-y="-48.01" relative-y="-30.00">
          <syllabic>single</syllabic>
          <text>나</text>
          </lyric>
        <lyric number="2" default-x="6.50" default-y="-69.75" relative-y="-30.00">
          <syllabic>single</syllabic>
          <text>세</text>
          </lyric>
        <lyric number="3" default-x="6.50" default-y="-91.48" relative-y="-30.00">
          <syllabic>single</syllabic>
          <text>다</text>
          </lyric>
        <lyric number="4" default-x="6.50" default-y="-113.22" relative-y="-30.00">
          <syllabic>single</syllabic>
          <text>조</text>
          </lyric>
        </note>
      <note default-x="41.92" default-y="-10.00">
        <pitch>
          <step>D</step>
          <octave>5</octave>
          </pitch>
        <duration>1</duration>
        <voice>1</voice>
        <type>eighth</type>
        <stem>up</stem>
        <beam number="1">end</beam>
        </note>
      <note default-x="68.13" default-y="-15.00">
        <pitch>
          <step>C</step>
          <octave>5</octave>
          </pitch>
        <duration>2</duration>
        <voice>1</voice>
        <type>quarter</type>
        <stem>up</stem>
        <notations>
          <slur type="stop" number="1"/>
          </notations>
        </note>
      <note default-x="110.07" default-y="-20.00">
        <pitch>
          <step>B</step>
          <alter>-1</alter>
          <octave>4</octave>
          </pitch>
        <duration>2</duration>
        <voice>1</voice>
        <type>quarter</type>
        <stem>up</stem>
        <lyric number="1" default-x="6.50" default-y="-48.01" relative-y="-30.00">
          <syllabic>single</syllabic>
          <text>님</text>
          </lyric>
        <lyric number="2" default-x="6.50" default-y="-69.75" relative-y="-30.00">
          <syllabic>single</syllabic>
          <text>주</text>
          </lyric>
        <lyric number="3" default-x="6.50" default-y="-91.48" relative-y="-30.00">
          <syllabic>single</syllabic>
          <text>스</text>
          </lyric>
        <lyric number="4" default-x="6.50" default-y="-113.22" relative-y="-30.00">
          <syllabic>single</syllabic>
          <text>주</text>
          </lyric>
        </note>
      <backup><duration>6</duration></backup><note default-x="15.70" default-y="-210.34">
        <pitch>
          <step>E</step>
          <alter>-1</alter>
          <octave>4</octave>
          </pitch>
        <duration>4</duration>
        <voice>2</voice>
        <type>half</type>
        <stem>down</stem>
        </note>
      <note default-x="110.07" default-y="-210.34">
        <pitch>
          <step>E</step>
          <alter>-1</alter>
          <octave>4</octave>
          </pitch>
        <duration>2</duration>
        <voice>2</voice>
        <type>quarter</type>
        <stem>down</stem>
        </note>
      </measure>
    <measure number="14" width="140.65">
      <note default-x="16.50" default-y="-25.00">
        <pitch>
          <step>A</step>
          <alter>-1</alter>
          <octave>4</octave>
          </pitch>
        <duration>2</duration>
        <voice>1</voice>
        <type>quarter</type>
        <stem>up</stem>
        <notations>
          <slur type="start" placement="above" number="1"/>
          </notations>
        <lyric number="1" default-x="6.50" default-y="-48.01" relative-y="-30.00">
          <syllabic>single</syllabic>
          <text>기</text>
          </lyric>
        <lyric number="2" default-x="6.50" default-y="-69.75" relative-y="-30.00">
          <syllabic>single</syllabic>
          <text>기</text>
          </lyric>
        <lyric number="3" default-x="6.50" default-y="-91.48" relative-y="-30.00">
          <syllabic>single</syllabic>
          <text>리</text>
          </lyric>
        <lyric number="4" default-x="6.50" default-y="-113.22" relative-y="-30.00">
          <syllabic>single</syllabic>
          <text>기</text>
          </lyric>
        </note>
      <note default-x="57.28" default-y="-30.00">
        <pitch>
          <step>G</step>
          <octave>4</octave>
          </pitch>
        <duration>2</duration>
        <voice>1</voice>
        <type>quarter</type>
        <stem>up</stem>
        <notations>
          <slur type="stop" number="1"/>
          </notations>
        </note>
      <note default-x="98.07" default-y="-35.00">
        <pitch>
          <step>F</step>
          <octave>4</octave>
          </pitch>
        <duration>2</duration>
        <voice>1</voice>
        <type>quarter</type>
        <stem>up</stem>
        <lyric number="1" default-x="6.50" default-y="-48.01" relative-y="-30.00">
          <syllabic>single</syllabic>
          <text>리</text>
          </lyric>
        <lyric number="2" default-x="6.50" default-y="-69.75" relative-y="-30.00">
          <syllabic>single</syllabic>
          <text>리</text>
          </lyric>
        <lyric number="3" default-x="6.50" default-y="-91.48" relative-y="-30.00">
          <syllabic>single</syllabic>
          <text>시</text>
          </lyric>
        <lyric number="4" default-x="6.50" default-y="-113.22" relative-y="-30.00">
          <syllabic>single</syllabic>
          <text>리</text>
          </lyric>
        </note>
      <backup><duration>6</duration></backup><note default-x="16.50" default-y="-210.34">
        <pitch>
          <step>E</step>
          <alter>-1</alter>
          <octave>4</octave>
          </pitch>
        <duration>4</duration>
        <voice>2</voice>
        <type>half</type>
        <stem>down</stem>
        </note>
      <note default-x="98.07" default-y="-215.34">
        <pitch>
          <step>D</step>
          <octave>4</octave>
          </pitch>
        <duration>2</duration>
        <voice>2</voice>
        <type>quarter</type>
        <stem>down</stem>
        </note>
      </measure>
    <measure number="15" width="88.98">
      <note default-x="15.40" default-y="-40.00">
        <pitch>
          <step>E</step>
          <alter>-1</alter>
          <octave>4</octave>
          </pitch>
        <duration>4</duration>
        <voice>1</voice>
        <type>half</type>
        <stem>up</stem>
        <lyric number="1" default-x="6.50" default-y="-48.01" relative-y="-30.00">
          <syllabic>single</syllabic>
          <text>세</text>
          </lyric>
        <lyric number="2" default-x="6.50" default-y="-69.75" relative-y="-30.00">
          <syllabic>single</syllabic>
          <text>세</text>
          </lyric>
        <lyric number="3" default-x="6.50" default-y="-91.48" relative-y="-30.00">
          <syllabic>single</syllabic>
          <text>네</text>
          </lyric>
        <lyric number="4" default-x="6.50" default-y="-113.22" relative-y="-30.00">
          <syllabic>single</syllabic>
          <text>세</text>
          </lyric>
        </note>
      <barline location="right">
        <bar-style>light-light</bar-style>
        </barline>
      <backup><duration>4</duration></backup><note default-x="15.40" default-y="-210.34">
        <pitch>
          <step>E</step>
          <alter>-1</alter>
          <octave>4</octave>
          </pitch>
        <duration>4</duration>
        <voice>2</voice>
        <type>half</type>
        <stem>down</stem>
        </note>
      </measure>
    <measure number="16" width="110.11">
      <note default-x="16.50" default-y="-40.00">
        <pitch>
          <step>E</step>
          <alter>-1</alter>
          <octave>4</octave>
          </pitch>
        <duration>6</duration>
        <voice>1</voice>
        <type>half</type>
        <dot/>
        <stem>up</stem>
        <lyric number="4" default-x="6.50" default-y="-113.22" relative-y="-30.00">
          <syllabic>single</syllabic>
          <text>아</text>
          </lyric>
        </note>
      <backup><duration>6</duration></backup><note default-x="16.50" default-y="-220.34">
        <pitch>
          <step>C</step>
          <octave>4</octave>
          </pitch>
        <duration>6</duration>
        <voice>2</voice>
        <type>half</type>
        <dot/>
        <stem>down</stem>
        </note>
      </measure>
    <measure number="17" width="118.96">
      <note default-x="16.50" default-y="-40.00">
        <pitch>
          <step>E</step>
          <alter>-1</alter>
          <octave>4</octave>
          </pitch>
        <duration>6</duration>
        <voice>1</voice>
        <type>half</type>
        <dot/>
        <stem>up</stem>
        <lyric number="4" default-x="6.50" default-y="-113.22" relative-y="-30.00">
          <syllabic>single</syllabic>
          <text>멘</text>
          </lyric>
        </note>
      <barline location="right">
        <bar-style>light-heavy</bar-style>
        </barline>
      <backup><duration>6</duration></backup><note default-x="16.50" default-y="-225.34">
        <pitch>
          <step>B</step>
          <alter>-1</alter>
          <octave>3</octave>
          </pitch>
        <duration>6</duration>
        <voice>2</voice>
        <type>half</type>
        <dot/>
        <stem>down</stem>
        </note>
      </measure>
    </part>
  <part id="P3">
    <measure number="1" width="162.94">
      <print>
        <staff-layout number="1">
          <staff-distance>65.00</staff-distance>
          </staff-layout>
        </print>
      <attributes>
        <divisions>2</divisions>
        <key>
          <fifths>-3</fifths>
          <mode>major</mode>
          </key>
        <time>
          <beats>3</beats>
          <beat-type>4</beat-type>
          </time>
        <clef>
          <sign>F</sign>
          <line>4</line>
          </clef>
        </attributes>
      <note default-x="125.11" default-y="-288.81">
        <pitch>
          <step>G</step>
          <octave>3</octave>
          </pitch>
        <duration>2</duration>
        <voice>1</voice>
        <type>quarter</type>
        <stem>up</stem>
        </note>
      <backup><duration>2</duration></backup><note default-x="125.11" default-y="-403.81">
        <pitch>
          <step>E</step>
          <alter>-1</alter>
          <octave>3</octave>
          </pitch>
        <duration>2</duration>
        <voice>2</voice>
        <type>quarter</type>
        <stem>down</stem>
        </note>
      </measure>
    <measure number="2" width="82.07">
      <note default-x="16.50" default-y="-288.81">
        <pitch>
          <step>G</step>
          <octave>3</octave>
          </pitch>
        <duration>4</duration>
        <voice>1</voice>
        <type>half</type>
        <stem>up</stem>
        </note>
      <note default-x="49.16" default-y="-293.81">
        <pitch>
          <step>F</step>
          <octave>3</octave>
          </pitch>
        <duration>2</duration>
        <voice>1</voice>
        <type>quarter</type>
        <stem>up</stem>
        </note>
      <backup><duration>6</duration></backup><note default-x="16.50" default-y="-403.81">
        <pitch>
          <step>E</step>
          <alter>-1</alter>
          <octave>3</octave>
          </pitch>
        <duration>4</duration>
        <voice>2</voice>
        <type>half</type>
        <stem>down</stem>
        </note>
      <note default-x="49.16" default-y="-408.81">
        <pitch>
          <step>D</step>
          <octave>3</octave>
          </pitch>
        <duration>2</duration>
        <voice>2</voice>
        <type>quarter</type>
        <stem>down</stem>
        </note>
      </measure>
    <measure number="3" width="94.82">
      <note default-x="16.50" default-y="-288.81">
        <pitch>
          <step>G</step>
          <octave>3</octave>
          </pitch>
        <duration>2</duration>
        <voice>1</voice>
        <type>quarter</type>
        <stem>up</stem>
        <notations>
          <slur type="start" placement="above" number="1"/>
          </notations>
        </note>
      <note default-x="39.41" default-y="-278.81">
        <pitch>
          <step>B</step>
          <alter>-1</alter>
          <octave>3</octave>
          </pitch>
        <duration>2</duration>
        <voice>1</voice>
        <type>quarter</type>
        <stem>up</stem>
        <notations>
          <slur type="stop" number="1"/>
          </notations>
        </note>
      <note default-x="62.32" default-y="-278.81">
        <pitch>
          <step>B</step>
          <alter>-1</alter>
          <octave>3</octave>
          </pitch>
        <duration>2</duration>
        <voice>1</voice>
        <type>quarter</type>
        <stem>up</stem>
        </note>
      <backup><duration>6</duration></backup><note default-x="16.50" default-y="-413.81">
        <pitch>
          <step>C</step>
          <octave>3</octave>
          </pitch>
        <duration>2</duration>
        <voice>2</voice>
        <type>quarter</type>
        <stem>down</stem>
        </note>
      <note default-x="39.41" default-y="-418.81">
        <pitch>
          <step>B</step>
          <alter>-1</alter>
          <octave>2</octave>
          </pitch>
        <duration>2</duration>
        <voice>2</voice>
        <type>quarter</type>
        <stem>down</stem>
        </note>
      <note default-x="62.32" default-y="-403.81">
        <pitch>
          <step>E</step>
          <alter>-1</alter>
          <octave>3</octave>
          </pitch>
        <duration>2</duration>
        <voice>2</voice>
        <type>quarter</type>
        <stem>down</stem>
        </note>
      </measure>
    <measure number="4" width="94.82">
      <note default-x="16.50" default-y="-273.81">
        <pitch>
          <step>C</step>
          <octave>4</octave>
          </pitch>
        <duration>2</duration>
        <voice>1</voice>
        <type>quarter</type>
        <stem>up</stem>
        </note>
      <note default-x="39.41" default-y="-278.81">
        <pitch>
          <step>B</step>
          <alter>-1</alter>
          <octave>3</octave>
          </pitch>
        <duration>2</duration>
        <voice>1</voice>
        <type>quarter</type>
        <stem>up</stem>
        </note>
      <note default-x="62.32" default-y="-278.81">
        <pitch>
          <step>B</step>
          <alter>-1</alter>
          <octave>3</octave>
          </pitch>
        <duration>2</duration>
        <voice>1</voice>
        <type>quarter</type>
        <stem>up</stem>
        </note>
      <backup><duration>6</duration></backup><note default-x="16.50" default-y="-423.81">
        <pitch>
          <step>A</step>
          <alter>-1</alter>
          <octave>2</octave>
          </pitch>
        <duration>2</duration>
        <voice>2</voice>
        <type>quarter</type>
        <stem>down</stem>
        </note>
      <note default-x="39.41" default-y="-418.81">
        <pitch>
          <step>B</step>
          <alter>-1</alter>
          <octave>2</octave>
          </pitch>
        <duration>2</duration>
        <voice>2</voice>
        <type>quarter</type>
        <stem>down</stem>
        </note>
      <note default-x="62.32" default-y="-418.81">
        <pitch>
          <step>B</step>
          <alter>-1</alter>
          <octave>2</octave>
          </pitch>
        <duration>2</duration>
        <voice>2</voice>
        <type>quarter</type>
        <stem>down</stem>
        </note>
      </measure>
    <measure number="5" width="78.78">
      <note default-x="15.40" default-y="-278.81">
        <pitch>
          <step>B</step>
          <alter>-1</alter>
          <octave>3</octave>
          </pitch>
        <duration>4</duration>
        <voice>1</voice>
        <type>half</type>
        <stem>up</stem>
        </note>
      <note default-x="46.08" default-y="-278.81">
        <pitch>
          <step>B</step>
          <alter>-1</alter>
          <octave>3</octave>
          </pitch>
        <duration>2</duration>
        <voice>1</voice>
        <type>quarter</type>
        <stem>up</stem>
        </note>
      <backup><duration>6</duration></backup><note default-x="15.40" default-y="-403.81">
        <pitch>
          <step>E</step>
          <alter>-1</alter>
          <octave>3</octave>
          </pitch>
        <duration>4</duration>
        <voice>2</voice>
        <type>half</type>
        <stem>down</stem>
        </note>
      <note default-x="46.08" default-y="-408.81">
        <pitch>
          <step>D</step>
          <octave>3</octave>
          </pitch>
        <duration>2</duration>
        <voice>2</voice>
        <type>quarter</type>
        <stem>down</stem>
        </note>
      </measure>
    <measure number="6" width="98.38">
      <note default-x="16.03" default-y="-278.81">
        <pitch>
          <step>B</step>
          <alter>-1</alter>
          <octave>3</octave>
          </pitch>
        <duration>2</duration>
        <voice>1</voice>
        <type>quarter</type>
        <stem>up</stem>
        <notations>
          <slur type="start" placement="above" number="1"/>
          </notations>
        </note>
      <note default-x="40.95" default-y="-273.81">
        <pitch>
          <step>C</step>
          <octave>4</octave>
          </pitch>
        <duration>2</duration>
        <voice>1</voice>
        <type>quarter</type>
        <stem>up</stem>
        <notations>
          <slur type="stop" number="1"/>
          </notations>
        </note>
      <note default-x="65.88" default-y="-278.81">
        <pitch>
          <step>B</step>
          <alter>-1</alter>
          <octave>3</octave>
          </pitch>
        <duration>2</duration>
        <voice>1</voice>
        <type>quarter</type>
        <stem>up</stem>
        </note>
      <backup><duration>6</duration></backup><note default-x="16.03" default-y="-403.81">
        <pitch>
          <step>E</step>
          <alter>-1</alter>
          <octave>3</octave>
          </pitch>
        <duration>2</duration>
        <voice>2</voice>
        <type>quarter</type>
        <stem>down</stem>
        </note>
      <note default-x="40.95" default-y="-413.81">
        <pitch>
          <step>C</step>
          <octave>3</octave>
          </pitch>
        <duration>2</duration>
        <voice>2</voice>
        <type>quarter</type>
        <stem>down</stem>
        </note>
      <note default-x="65.88" default-y="-428.81">
        <pitch>
          <step>G</step>
          <octave>2</octave>
          </pitch>
        <duration>2</duration>
        <voice>2</voice>
        <type>quarter</type>
        <stem>down</stem>
        </note>
      </measure>
    <measure number="7" width="91.38">
      <note default-x="16.50" default-y="-288.81">
        <pitch>
          <step>G</step>
          <octave>3</octave>
          </pitch>
        <duration>2</duration>
        <voice>1</voice>
        <type>quarter</type>
        <stem>up</stem>
        <notations>
          <slur type="start" placement="above" number="1"/>
          </notations>
        </note>
      <note default-x="37.44" default-y="-283.81">
        <pitch>
          <step>A</step>
          <alter>-1</alter>
          <octave>3</octave>
          </pitch>
        <duration>2</duration>
        <voice>1</voice>
        <type>quarter</type>
        <stem>up</stem>
        <notations>
          <slur type="stop" number="1"/>
          </notations>
        </note>
      <note default-x="58.37" default-y="-293.81">
        <pitch>
          <step>F</step>
          <octave>3</octave>
          </pitch>
        <duration>2</duration>
        <voice>1</voice>
        <type>quarter</type>
        <stem>up</stem>
        </note>
      <backup><duration>6</duration></backup><note default-x="16.50" default-y="-413.81">
        <pitch>
          <step>C</step>
          <octave>3</octave>
          </pitch>
        <duration>2</duration>
        <voice>2</voice>
        <type>quarter</type>
        <stem>down</stem>
        </note>
      <note default-x="37.44" default-y="-423.81">
        <pitch>
          <step>A</step>
          <alter>-1</alter>
          <octave>2</octave>
          </pitch>
        <duration>2</duration>
        <voice>2</voice>
        <type>quarter</type>
        <stem>down</stem>
        </note>
      <note default-x="58.37" default-y="-418.81">
        <pitch>
          <step>B</step>
          <alter>-1</alter>
          <octave>2</octave>
          </pitch>
        <duration>2</duration>
        <voice>2</voice>
        <type>quarter</type>
        <stem>down</stem>
        </note>
      </measure>
    <measure number="8" width="94.37">
      <note default-x="16.50" default-y="-288.81">
        <pitch>
          <step>G</step>
          <octave>3</octave>
          </pitch>
        <duration>4</duration>
        <voice>1</voice>
        <type>half</type>
        <stem>up</stem>
        </note>
      <note default-x="49.55" default-y="-288.81">
        <pitch>
          <step>G</step>
          <octave>3</octave>
          </pitch>
        <duration>1</duration>
        <voice>1</voice>
        <type>eighth</type>
        <stem>up</stem>
        <beam number="1">begin</beam>
        </note>
      <note default-x="64.57" default-y="-283.81">
        <pitch>
          <step>A</step>
          <alter>-1</alter>
          <octave>3</octave>
          </pitch>
        <duration>1</duration>
        <voice>1</voice>
        <type>eighth</type>
        <stem>up</stem>
        <beam number="1">end</beam>
        </note>
      <backup><duration>6</duration></backup><note default-x="16.50" default-y="-403.81">
        <pitch>
          <step>E</step>
          <alter>-1</alter>
          <octave>3</octave>
          </pitch>
        <duration>4</duration>
        <voice>2</voice>
        <type>half</type>
        <stem>down</stem>
        </note>
      <note default-x="49.55" default-y="-403.81">
        <pitch>
          <step>E</step>
          <alter>-1</alter>
          <octave>3</octave>
          </pitch>
        <duration>1</duration>
        <voice>2</voice>
        <type>eighth</type>
        <stem>down</stem>
        </note>
      <note default-x="64.57" default-y="-398.81">
        <pitch>
          <step>F</step>
          <octave>3</octave>
          </pitch>
        <duration>1</duration>
        <voice>2</voice>
        <type>eighth</type>
        <stem>down</stem>
        </note>
      </measure>
    <measure number="9" width="90.31">
      <note default-x="15.78" default-y="-278.81">
        <pitch>
          <step>B</step>
          <alter>-1</alter>
          <octave>3</octave>
          </pitch>
        <duration>4</duration>
        <voice>1</voice>
        <type>half</type>
        <stem>up</stem>
        </note>
      <note default-x="57.60" default-y="-283.81">
        <pitch>
          <step>A</step>
          <alter>-1</alter>
          <octave>3</octave>
          </pitch>
        <duration>2</duration>
        <voice>1</voice>
        <type>quarter</type>
        <stem>up</stem>
        </note>
      <backup><duration>6</duration></backup><note default-x="15.78" default-y="-393.81">
        <pitch>
          <step>G</step>
          <octave>3</octave>
          </pitch>
        <duration>2</duration>
        <voice>2</voice>
        <type>quarter</type>
        <stem>down</stem>
        </note>
      <note default-x="36.69" default-y="-403.81">
        <pitch>
          <step>E</step>
          <alter>-1</alter>
          <octave>3</octave>
          </pitch>
        <duration>2</duration>
        <voice>2</voice>
        <type>quarter</type>
        <stem>down</stem>
        </note>
      <note default-x="57.60" default-y="-388.81">
        <pitch>
          <step>A</step>
          <alter>-1</alter>
          <octave>3</octave>
          </pitch>
        <duration>2</duration>
        <voice>2</voice>
        <type>quarter</type>
        <stem>down</stem>
        </note>
      </measure>
    <measure number="10" width="90.83">
      <note default-x="16.00" default-y="-278.81">
        <pitch>
          <step>B</step>
          <alter>-1</alter>
          <octave>3</octave>
          </pitch>
        <duration>4</duration>
        <voice>1</voice>
        <type>half</type>
        <stem>up</stem>
        </note>
      <note default-x="57.86" default-y="-278.81">
        <pitch>
          <step>B</step>
          <alter>-1</alter>
          <octave>3</octave>
          </pitch>
        <duration>2</duration>
        <voice>1</voice>
        <type>quarter</type>
        <stem>up</stem>
        </note>
      <backup><duration>6</duration></backup><note default-x="16.00" default-y="-393.81">
        <pitch>
          <step>G</step>
          <octave>3</octave>
          </pitch>
        <duration>2</duration>
        <voice>2</voice>
        <type>quarter</type>
        <stem>down</stem>
        </note>
      <note default-x="36.93" default-y="-408.81">
        <pitch>
          <step>D</step>
          <octave>3</octave>
          </pitch>
        <duration>2</duration>
        <voice>2</voice>
        <type>quarter</type>
        <stem>down</stem>
        </note>
      <note default-x="57.86" default-y="-403.81">
        <pitch>
          <step>E</step>
          <alter>-1</alter>
          <octave>3</octave>
          </pitch>
        <duration>2</duration>
        <voice>2</voice>
        <type>quarter</type>
        <stem>down</stem>
        </note>
      </measure>
    <measure number="11" width="274.96">
      <print new-system="yes">
        <staff-layout number="1">
          <staff-distance>65.00</staff-distance>
          </staff-layout>
        </print>
      <note default-x="99.48" default-y="-275.34">
        <pitch>
          <step>A</step>
          <alter>-1</alter>
          <octave>3</octave>
          </pitch>
        <duration>1</duration>
        <voice>1</voice>
        <type>eighth</type>
        <stem>up</stem>
        <beam number="1">begin</beam>
        <notations>
          <slur type="start" placement="above" number="1"/>
          </notations>
        </note>
      <note default-x="130.49" default-y="-270.34">
        <pitch>
          <step>B</step>
          <alter>-1</alter>
          <octave>3</octave>
          </pitch>
        <duration>1</duration>
        <voice>1</voice>
        <type>eighth</type>
        <stem>up</stem>
        <beam number="1">end</beam>
        </note>
      <note default-x="161.51" default-y="-265.34">
        <pitch>
          <step>C</step>
          <octave>4</octave>
          </pitch>
        <duration>1</duration>
        <voice>1</voice>
        <type>eighth</type>
        <stem>up</stem>
        <beam number="1">begin</beam>
        </note>
      <note default-x="192.52" default-y="-260.34">
        <pitch>
          <step>D</step>
          <octave>4</octave>
          </pitch>
        <duration>1</duration>
        <voice>1</voice>
        <type>eighth</type>
        <stem>up</stem>
        <beam number="1">end</beam>
        <notations>
          <slur type="stop" number="1"/>
          </notations>
        </note>
      <note default-x="223.54" default-y="-255.34">
        <pitch>
          <step>E</step>
          <alter>-1</alter>
          <octave>4</octave>
          </pitch>
        <duration>2</duration>
        <voice>1</voice>
        <type>quarter</type>
        <stem>up</stem>
        </note>
      <backup><duration>6</duration></backup><note default-x="99.48" default-y="-380.34">
        <pitch>
          <step>A</step>
          <alter>-1</alter>
          <octave>3</octave>
          </pitch>
        <duration>1</duration>
        <voice>2</voice>
        <type>eighth</type>
        <stem>down</stem>
        </note>
      <note default-x="130.49" default-y="-385.34">
        <pitch>
          <step>G</step>
          <octave>3</octave>
          </pitch>
        <duration>1</duration>
        <voice>2</voice>
        <type>eighth</type>
        <stem>down</stem>
        </note>
      <note default-x="161.51" default-y="-390.34">
        <pitch>
          <step>F</step>
          <octave>3</octave>
          </pitch>
        <duration>2</duration>
        <voice>2</voice>
        <type>quarter</type>
        <stem>down</stem>
        </note>
      <note default-x="223.54" default-y="-395.34">
        <pitch>
          <step>E</step>
          <alter>-1</alter>
          <octave>3</octave>
          </pitch>
        <duration>2</duration>
        <voice>2</voice>
        <type>quarter</type>
        <stem>down</stem>
        </note>
      </measure>
    <measure number="12" width="141.22">
      <note default-x="16.50" default-y="-260.34">
        <pitch>
          <step>D</step>
          <octave>4</octave>
          </pitch>
        <duration>4</duration>
        <voice>1</voice>
        <type>half</type>
        <stem>up</stem>
        </note>
      <note default-x="80.89" default-y="-270.34">
        <pitch>
          <step>B</step>
          <alter>-1</alter>
          <octave>3</octave>
          </pitch>
        <duration>1</duration>
        <voice>1</voice>
        <type>eighth</type>
        <stem>up</stem>
        <beam number="1">begin</beam>
        </note>
      <note default-x="110.15" default-y="-275.34">
        <pitch>
          <step>A</step>
          <alter>-1</alter>
          <octave>3</octave>
          </pitch>
        <duration>1</duration>
        <voice>1</voice>
        <type>eighth</type>
        <stem>up</stem>
        <beam number="1">end</beam>
        </note>
      <backup><duration>6</duration></backup><note default-x="16.50" default-y="-410.34">
        <pitch>
          <step>B</step>
          <alter>-1</alter>
          <octave>2</octave>
          </pitch>
        <duration>4</duration>
        <voice>2</voice>
        <type>half</type>
        <stem>down</stem>
        </note>
      <note default-x="80.89" default-y="-410.34">
        <pitch>
          <step>B</step>
          <alter>-1</alter>
          <octave>2</octave>
          </pitch>
        <duration>2</duration>
        <voice>2</voice>
        <type>quarter</type>
        <stem>down</stem>
        </note>
      </measure>
    <measure number="13" width="153.81">
      <note default-x="15.70" default-y="-280.34">
        <pitch>
          <step>G</step>
          <octave>3</octave>
          </pitch>
        <duration>2</duration>
        <voice>1</voice>
        <type>quarter</type>
        <stem>up</stem>
        <notations>
          <slur type="start" placement="above" number="1"/>
          </notations>
        </note>
      <note default-x="68.13" default-y="-275.34">
        <pitch>
          <step>A</step>
          <alter>-1</alter>
          <octave>3</octave>
          </pitch>
        <duration>2</duration>
        <voice>1</voice>
        <type>quarter</type>
        <stem>up</stem>
        <notations>
          <slur type="stop" number="1"/>
          </notations>
        </note>
      <note default-x="110.07" default-y="-270.34">
        <pitch>
          <step>B</step>
          <alter>-1</alter>
          <octave>3</octave>
          </pitch>
        <duration>2</duration>
        <voice>1</voice>
        <type>quarter</type>
        <stem>up</stem>
        </note>
      <backup><duration>6</duration></backup><note default-x="15.70" default-y="-405.34">
        <pitch>
          <step>C</step>
          <octave>3</octave>
          </pitch>
        <duration>2</duration>
        <voice>2</voice>
        <type>quarter</type>
        <stem>down</stem>
        </note>
      <note default-x="68.13" default-y="-415.34">
        <pitch>
          <step>A</step>
          <alter>-1</alter>
          <octave>2</octave>
          </pitch>
        <duration>2</duration>
        <voice>2</voice>
        <type>quarter</type>
        <stem>down</stem>
        </note>
      <note default-x="110.07" default-y="-420.34">
        <pitch>
          <step>G</step>
          <octave>2</octave>
          </pitch>
        <duration>2</duration>
        <voice>2</voice>
        <type>quarter</type>
        <stem>down</stem>
        </note>
      </measure>
    <measure number="14" width="140.65">
      <note default-x="16.50" default-y="-265.34">
        <pitch>
          <step>C</step>
          <octave>4</octave>
          </pitch>
        <duration>2</duration>
        <voice>1</voice>
        <type>quarter</type>
        <stem>up</stem>
        </note>
      <note default-x="57.28" default-y="-270.34">
        <pitch>
          <step>B</step>
          <alter>-1</alter>
          <octave>3</octave>
          </pitch>
        <duration>2</duration>
        <voice>1</voice>
        <type>quarter</type>
        <stem>up</stem>
        </note>
      <note default-x="98.07" default-y="-275.34">
        <pitch>
          <step>A</step>
          <alter>-1</alter>
          <octave>3</octave>
          </pitch>
        <duration>2</duration>
        <voice>1</voice>
        <type>quarter</type>
        <stem>up</stem>
        </note>
      <backup><duration>6</duration></backup><note default-x="16.50" default-y="-415.34">
        <pitch>
          <step>A</step>
          <alter>-1</alter>
          <octave>2</octave>
          </pitch>
        <duration>2</duration>
        <voice>2</voice>
        <type>quarter</type>
        <stem>down</stem>
        </note>
      <note default-x="57.28" default-y="-410.34">
        <pitch>
          <step>B</step>
          <alter>-1</alter>
          <octave>2</octave>
          </pitch>
        <duration>2</duration>
        <voice>2</voice>
        <type>quarter</type>
        <stem>down</stem>
        </note>
      <note default-x="98.07" default-y="-410.34">
        <pitch>
          <step>B</step>
          <alter>-1</alter>
          <octave>2</octave>
          </pitch>
        <duration>2</duration>
        <voice>2</voice>
        <type>quarter</type>
        <stem>down</stem>
        </note>
      </measure>
    <measure number="15" width="88.98">
      <note default-x="15.40" default-y="-280.34">
        <pitch>
          <step>G</step>
          <octave>3</octave>
          </pitch>
        <duration>4</duration>
        <voice>1</voice>
        <type>half</type>
        <stem>up</stem>
        </note>
      <barline location="right">
        <bar-style>light-light</bar-style>
        </barline>
      <backup><duration>4</duration></backup><note default-x="15.40" default-y="-395.34">
        <pitch>
          <step>E</step>
          <alter>-1</alter>
          <octave>3</octave>
          </pitch>
        <duration>4</duration>
        <voice>2</voice>
        <type>half</type>
        <stem>down</stem>
        </note>
      </measure>
    <measure number="16" width="110.11">
      <note default-x="16.50" default-y="-275.34">
        <pitch>
          <step>A</step>
          <alter>-1</alter>
          <octave>3</octave>
          </pitch>
        <duration>6</duration>
        <voice>1</voice>
        <type>half</type>
        <dot/>
        <stem>up</stem>
        </note>
      <backup><duration>6</duration></backup><note default-x="16.50" default-y="-415.34">
        <pitch>
          <step>A</step>
          <alter>-1</alter>
          <octave>2</octave>
          </pitch>
        <duration>6</duration>
        <voice>2</voice>
        <type>half</type>
        <dot/>
        <stem>down</stem>
        </note>
      </measure>
    <measure number="17" width="118.96">
      <note default-x="16.50" default-y="-280.34">
        <pitch>
          <step>G</step>
          <octave>3</octave>
          </pitch>
        <duration>6</duration>
        <voice>1</voice>
        <type>half</type>
        <dot/>
        <stem>up</stem>
        </note>
      <barline location="right">
        <bar-style>light-heavy</bar-style>
        </barline>
      <backup><duration>6</duration></backup><note default-x="16.50" default-y="-395.34">
        <pitch>
          <step>E</step>
          <alter>-1</alter>
          <octave>3</octave>
          </pitch>
        <duration>6</duration>
        <voice>2</voice>
        <type>half</type>
        <dot/>
        <stem>down</stem>
        </note>
      </measure>
    </part>
  </score-partwise>