<?xml version="1.0" encoding="UTF-8"?><!DOCTYPE score-partwise PUBLIC "-//Recordare//DTD MusicXML 3.1 Partwise//EN" "http://www.musicxml.org/dtds/partwise.dtd"><score-partwise version="3.1">
  <movement-title>143장 웬말인가 날 위하여</movement-title>
  <identification>
    <creator type="composer">H.Willson/R.Smith</creator>
    <creator type="poet">I.Watts</creator>
    <encoding>
      <software>MuseScore 3.6.2</software>
      <encoding-date>2022-03-15</encoding-date>
      <supports element="accidental" type="yes"/>
      <supports element="beam" type="yes"/>
      <supports element="print" attribute="new-page" type="yes" value="yes"/>
      <supports element="print" attribute="new-system" type="yes" value="yes"/>
      <supports element="stem" type="yes"/>
      </encoding>
    </identification>
  <defaults>
    <scaling>
      <millimeters>6.99911</millimeters>
      <tenths>40</tenths>
      </scaling>
    <page-layout>
      <page-height>1697.36</page-height>
      <page-width>1200.15</page-width>
      <page-margins type="even">
        <left-margin>85.7252</left-margin>
        <right-margin>85.7252</right-margin>
        <top-margin>85.7252</top-margin>
        <bottom-margin>85.7252</bottom-margin>
        </page-margins>
      <page-margins type="odd">
        <left-margin>85.7252</left-margin>
        <right-margin>85.7252</right-margin>
        <top-margin>85.7252</top-margin>
        <bottom-margin>85.7252</bottom-margin>
        </page-margins>
      </page-layout>
    <word-font font-family="Edwin" font-size="10"/>
    <lyric-font font-family="Edwin" font-size="10"/>
    </defaults>
  <credit page="1">
    <credit-type>title</credit-type>
    <credit-words default-x="600.076" default-y="1611.63" justify="center" valign="top" font-size="22">143장 웬말인가 날 위하여</credit-words>
    </credit>
  <credit page="1">
    <credit-type>composer</credit-type>
    <credit-words default-x="1114.43" default-y="1511.63" justify="right" valign="bottom">H.Willson/R.Smith</credit-words>
    </credit>
  <credit page="1">
    <credit-type>lyricist</credit-type>
    <credit-words default-x="85.7252" default-y="1511.63" justify="left" valign="bottom">I.Watts</credit-words>
    </credit>
  <credit page="1">
    <credit-type>rights</credit-type>
    <credit-words default-x="600.076" default-y="85.7252" justify="center" valign="bottom" font-size="9">Copyright 2022 David Sung</credit-words>
    </credit>
  <part-list>
    <score-part id="P1">
      <part-name/>
      <score-instrument id="P1-I1">
        <instrument-name/>
        </score-instrument>
      <midi-device id="P1-I1" port="1"/>
      <midi-instrument id="P1-I1">
        <midi-channel>1</midi-channel>
        <midi-program>1</midi-program>
        <volume>78.7402</volume>
        <pan>0</pan>
        </midi-instrument>
      </score-part>
    <score-part id="P3">
      <part-name/>
      <score-instrument id="P3-I1">
        <instrument-name/>
        </score-instrument>
      <midi-device id="P3-I1" port="1"/>
      <midi-instrument id="P3-I1">
        <midi-channel>3</midi-channel>
        <midi-program>1</midi-program>
        <volume>78.7402</volume>
        <pan>0</pan>
        </midi-instrument>
      </score-part>
    </part-list>
  <part id="P1">
    <measure number="1" width="174.63">
      <print>
        <system-layout>
          <system-margins>
            <left-margin>50.00</left-margin>
            <right-margin>0.00</right-margin>
            </system-margins>
          <top-system-distance>170.00</top-system-distance>
          </system-layout>
        </print>
      <attributes>
        <divisions>2</divisions>
        <key>
          <fifths>-4</fifths>
          <mode>major</mode>
          </key>
        <time>
          <beats>3</beats>
          <beat-type>4</beat-type>
          </time>
        <clef>
          <sign>G</sign>
          <line>2</line>
          </clef>
        </attributes>
      <direction placement="above">
        <direction-type>
          <metronome parentheses="no" default-x="-41.18" relative-y="20.00">
            <beat-unit>quarter</beat-unit>
            <per-minute>88</per-minute>
            </metronome>
          </direction-type>
        <sound tempo="88"/>
        </direction>
      <note default-x="135.11" default-y="-40.00">
        <pitch>
          <step>E</step>
          <alter>-1</alter>
          <octave>4</octave>
          </pitch>
        <duration>2</duration>
        <voice>1</voice>
        <type>quarter</type>
        <stem>up</stem>
        <lyric number="1" default-x="-14.79" default-y="-48.90" relative-y="-30.00">
          <syllabic>single</syllabic>
          <text>1.웬</text>
          </lyric>
        <lyric number="2" default-x="-16.10" default-y="-70.63" relative-y="-30.00">
          <syllabic>single</syllabic>
          <text>2.내</text>
          </lyric>
        <lyric number="3" default-x="-15.97" default-y="-92.37" relative-y="-30.00">
          <syllabic>single</syllabic>
          <text>3.주</text>
          </lyric>
        <lyric number="4" default-x="-16.25" default-y="-114.11" relative-y="-30.00">
          <syllabic>single</syllabic>
          <text>4.나</text>
          </lyric>
        <lyric number="5" default-x="-15.90" default-y="-135.84" relative-y="-30.00">
          <syllabic>single</syllabic>
          <text>5.늘</text>
          </lyric>
        </note>
      <backup><duration>2</duration></backup><note default-x="135.11" default-y="-250.30">
        <pitch>
          <step>C</step>
          <octave>4</octave>
          </pitch>
        <duration>2</duration>
        <voice>2</voice>
        <type>quarter</type>
        <stem>down</stem>
        </note>
      </measure>
    <measure number="2" width="85.14">
      <note default-x="15.70" default-y="-25.00">
        <pitch>
          <step>A</step>
          <alter>-1</alter>
          <octave>4</octave>
          </pitch>
        <duration>4</duration>
        <voice>1</voice>
        <type>half</type>
        <stem>up</stem>
        <lyric number="1" default-x="6.50" default-y="-48.90" relative-y="-30.00">
          <syllabic>single</syllabic>
          <text>말</text>
          </lyric>
        <lyric number="2" default-x="6.50" default-y="-70.63" relative-y="-30.00">
          <syllabic>single</syllabic>
          <text>지</text>
          </lyric>
        <lyric number="3" default-x="6.50" default-y="-92.37" relative-y="-30.00">
          <syllabic>single</syllabic>
          <text>십</text>
          </lyric>
        <lyric number="4" default-x="6.50" default-y="-114.11" relative-y="-30.00">
          <syllabic>single</syllabic>
          <text>십</text>
          </lyric>
        <lyric number="5" default-x="6.50" default-y="-135.84" relative-y="-30.00">
          <syllabic>single</syllabic>
          <text>울</text>
          </lyric>
        </note>
      <note default-x="52.21" default-y="-35.00">
        <pitch>
          <step>F</step>
          <octave>4</octave>
          </pitch>
        <duration>2</duration>
        <voice>1</voice>
        <type>quarter</type>
        <stem>up</stem>
        <lyric number="1" default-x="6.50" default-y="-48.90" relative-y="-30.00">
          <syllabic>single</syllabic>
          <text>인</text>
          </lyric>
        <lyric number="2" default-x="6.50" default-y="-70.63" relative-y="-30.00">
          <syllabic>single</syllabic>
          <text>은</text>
          </lyric>
        <lyric number="3" default-x="6.50" default-y="-92.37" relative-y="-30.00">
          <syllabic>single</syllabic>
          <text>자</text>
          </lyric>
        <lyric number="4" default-x="6.50" default-y="-114.11" relative-y="-30.00">
          <syllabic>single</syllabic>
          <text>자</text>
          </lyric>
        <lyric number="5" default-x="6.50" default-y="-135.84" relative-y="-30.00">
          <syllabic>single</syllabic>
          <text>어</text>
          </lyric>
        </note>
      <backup><duration>6</duration></backup><note default-x="15.70" default-y="-240.30">
        <pitch>
          <step>E</step>
          <alter>-1</alter>
          <octave>4</octave>
          </pitch>
        <duration>4</duration>
        <voice>2</voice>
        <type>half</type>
        <stem>down</stem>
        </note>
      <note default-x="52.21" default-y="-245.30">
        <pitch>
          <step>D</step>
          <alter>-1</alter>
          <octave>4</octave>
          </pitch>
        <duration>2</duration>
        <voice>2</voice>
        <type>quarter</type>
        <stem>down</stem>
        </note>
      </measure>
    <measure number="3" width="99.34">
      <note default-x="16.50" default-y="-40.00">
        <pitch>
          <step>E</step>
          <alter>-1</alter>
          <octave>4</octave>
          </pitch>
        <duration>4</duration>
        <voice>1</voice>
        <type>half</type>
        <stem>up</stem>
        <lyric number="1" default-x="6.50" default-y="-48.90" relative-y="-30.00">
          <syllabic>single</syllabic>
          <text>가</text>
          </lyric>
        <lyric number="2" default-x="6.50" default-y="-70.63" relative-y="-30.00">
          <syllabic>single</syllabic>
          <text>죄</text>
          </lyric>
        <lyric number="3" default-x="6.50" default-y="-92.37" relative-y="-30.00">
          <syllabic>single</syllabic>
          <text>가</text>
          </lyric>
        <lyric number="4" default-x="6.50" default-y="-114.11" relative-y="-30.00">
          <syllabic>single</syllabic>
          <text>가</text>
          </lyric>
        <lyric number="5" default-x="6.50" default-y="-135.84" relative-y="-30.00">
          <syllabic>single</syllabic>
          <text>도</text>
          </lyric>
        </note>
      <note default-x="52.97" default-y="-25.00">
        <pitch>
          <step>A</step>
          <alter>-1</alter>
          <octave>4</octave>
          </pitch>
        <duration>1</duration>
        <voice>1</voice>
        <type>eighth</type>
        <stem>up</stem>
        <beam number="1">begin</beam>
        <lyric number="1" default-x="6.50" default-y="-48.90" relative-y="-30.00">
          <syllabic>single</syllabic>
          <text>날</text>
          </lyric>
        <lyric number="2" default-x="6.50" default-y="-70.63" relative-y="-30.00">
          <syllabic>single</syllabic>
          <text>다</text>
          </lyric>
        <lyric number="3" default-x="6.50" default-y="-92.37" relative-y="-30.00">
          <syllabic>single</syllabic>
          <text>못</text>
          </lyric>
        <lyric number="4" default-x="6.50" default-y="-114.11" relative-y="-30.00">
          <syllabic>single</syllabic>
          <text>대</text>
          </lyric>
        <lyric number="5" default-x="6.50" default-y="-135.84" relative-y="-30.00">
          <syllabic>single</syllabic>
          <text>눈</text>
          </lyric>
        </note>
      <note default-x="69.54" default-y="-20.00">
        <pitch>
          <step>B</step>
          <alter>-1</alter>
          <octave>4</octave>
          </pitch>
        <duration>1</duration>
        <voice>1</voice>
        <type>eighth</type>
        <stem>up</stem>
        <beam number="1">end</beam>
        </note>
      <backup><duration>6</duration></backup><note default-x="16.50" default-y="-250.30">
        <pitch>
          <step>C</step>
          <octave>4</octave>
          </pitch>
        <duration>4</duration>
        <voice>2</voice>
        <type>half</type>
        <stem>down</stem>
        </note>
      <note default-x="52.97" default-y="-240.30">
        <pitch>
          <step>E</step>
          <alter>-1</alter>
          <octave>4</octave>
          </pitch>
        <duration>1</duration>
        <voice>2</voice>
        <type>eighth</type>
        <stem>down</stem>
        <beam number="1">begin</beam>
        </note>
      <note default-x="69.54" default-y="-235.30">
        <pitch>
          <step>F</step>
          <octave>4</octave>
          </pitch>
        <duration>1</duration>
        <voice>2</voice>
        <type>eighth</type>
        <stem>down</stem>
        <beam number="1">end</beam>
        </note>
      </measure>
    <measure number="4" width="85.25">
      <note default-x="15.90" default-y="-15.00">
        <pitch>
          <step>C</step>
          <octave>5</octave>
          </pitch>
        <duration>4</duration>
        <voice>1</voice>
        <type>half</type>
        <stem>up</stem>
        <lyric number="1" default-x="6.50" default-y="-48.90" relative-y="-30.00">
          <syllabic>single</syllabic>
          <text>위</text>
          </lyric>
        <lyric number="2" default-x="6.50" default-y="-70.63" relative-y="-30.00">
          <syllabic>single</syllabic>
          <text>지</text>
          </lyric>
        <lyric number="3" default-x="6.50" default-y="-92.37" relative-y="-30.00">
          <syllabic>single</syllabic>
          <text>박</text>
          </lyric>
        <lyric number="4" default-x="6.50" default-y="-114.11" relative-y="-30.00">
          <syllabic>single</syllabic>
          <text>할</text>
          </lyric>
        <lyric number="5" default-x="6.50" default-y="-135.84" relative-y="-30.00">
          <syllabic>single</syllabic>
          <text>물</text>
          </lyric>
        </note>
      <note default-x="52.46" default-y="-20.00">
        <pitch>
          <step>B</step>
          <alter>-1</alter>
          <octave>4</octave>
          </pitch>
        <duration>2</duration>
        <voice>1</voice>
        <type>quarter</type>
        <stem>up</stem>
        <lyric number="1" default-x="6.50" default-y="-48.90" relative-y="-30.00">
          <syllabic>single</syllabic>
          <text>하</text>
          </lyric>
        <lyric number="2" default-x="6.50" default-y="-70.63" relative-y="-30.00">
          <syllabic>single</syllabic>
          <text>시</text>
          </lyric>
        <lyric number="3" default-x="6.50" default-y="-92.37" relative-y="-30.00">
          <syllabic>single</syllabic>
          <text>힐</text>
          </lyric>
        <lyric number="4" default-x="6.50" default-y="-114.11" relative-y="-30.00">
          <syllabic>single</syllabic>
          <text>때</text>
          </lyric>
        <lyric number="5" default-x="6.50" default-y="-135.84" relative-y="-30.00">
          <syllabic>single</syllabic>
          <text>로</text>
          </lyric>
        </note>
      <backup><duration>6</duration></backup><note default-x="15.90" default-y="-240.30">
        <pitch>
          <step>E</step>
          <alter>-1</alter>
          <octave>4</octave>
          </pitch>
        <duration>4</duration>
        <voice>2</voice>
        <type>half</type>
        <stem>down</stem>
        </note>
      <note default-x="52.46" default-y="-230.30">
        <pitch>
          <step>G</step>
          <octave>4</octave>
          </pitch>
        <duration>2</duration>
        <voice>2</voice>
        <type>quarter</type>
        <stem>down</stem>
        </note>
      </measure>
    <measure number="5" width="84.94">
      <note default-x="16.50" default-y="-25.00">
        <pitch>
          <step>A</step>
          <alter>-1</alter>
          <octave>4</octave>
          </pitch>
        <duration>4</duration>
        <voice>1</voice>
        <type>half</type>
        <stem>up</stem>
        <lyric number="1" default-x="6.50" default-y="-48.90" relative-y="-30.00">
          <syllabic>single</syllabic>
          <text>여</text>
          </lyric>
        <lyric number="2" default-x="6.50" default-y="-70.63" relative-y="-30.00">
          <syllabic>single</syllabic>
          <text>고</text>
          </lyric>
        <lyric number="3" default-x="6.50" default-y="-92.37" relative-y="-30.00">
          <syllabic>single</syllabic>
          <text>때</text>
          </lyric>
        <lyric number="4" default-x="6.50" default-y="-114.11" relative-y="-30.00">
          <syllabic>single</syllabic>
          <text>에</text>
          </lyric>
        <lyric number="5" default-x="6.50" default-y="-135.84" relative-y="-30.00">
          <syllabic>single</syllabic>
          <text>써</text>
          </lyric>
        </note>
      <note default-x="52.44" default-y="-15.00">
        <pitch>
          <step>C</step>
          <octave>5</octave>
          </pitch>
        <duration>2</duration>
        <voice>1</voice>
        <type>quarter</type>
        <stem>up</stem>
        <lyric number="1" default-x="6.50" default-y="-48.90" relative-y="-30.00">
          <syllabic>single</syllabic>
          <text>주</text>
          </lyric>
        <lyric number="2" default-x="6.50" default-y="-70.63" relative-y="-30.00">
          <syllabic>single</syllabic>
          <text>못</text>
          </lyric>
        <lyric number="3" default-x="6.50" default-y="-92.37" relative-y="-30.00">
          <syllabic>single</syllabic>
          <text>그</text>
          </lyric>
        <lyric number="4" default-x="6.50" default-y="-114.11" relative-y="-30.00">
          <syllabic>single</syllabic>
          <text>그</text>
          </lyric>
        <lyric number="5" default-x="6.50" default-y="-135.84" relative-y="-30.00">
          <syllabic>single</syllabic>
          <text>못</text>
          </lyric>
        </note>
      <backup><duration>6</duration></backup><note default-x="16.50" default-y="-225.30">
        <pitch>
          <step>A</step>
          <alter>-1</alter>
          <octave>4</octave>
          </pitch>
        <duration>4</duration>
        <voice>2</voice>
        <type>half</type>
        <stem>down</stem>
        </note>
      <note default-x="52.44" default-y="-240.30">
        <pitch>
          <step>E</step>
          <alter>-1</alter>
          <octave>4</octave>
          </pitch>
        <duration>2</duration>
        <voice>2</voice>
        <type>quarter</type>
        <stem>down</stem>
        </note>
      </measure>
    <measure number="6" width="99.50">
      <note default-x="16.50" default-y="-5.00">
        <pitch>
          <step>E</step>
          <alter>-1</alter>
          <octave>5</octave>
          </pitch>
        <duration>4</duration>
        <voice>1</voice>
        <type>half</type>
        <stem>up</stem>
        <lyric number="1" default-x="6.50" default-y="-48.90" relative-y="-30.00">
          <syllabic>single</syllabic>
          <text>돌</text>
          </lyric>
        <lyric number="2" default-x="6.50" default-y="-70.63" relative-y="-30.00">
          <syllabic>single</syllabic>
          <text>박</text>
          </lyric>
        <lyric number="3" default-x="6.50" default-y="-92.37" relative-y="-30.00">
          <syllabic>single</syllabic>
          <text>해</text>
          </lyric>
        <lyric number="4" default-x="6.50" default-y="-114.11" relative-y="-30.00">
          <syllabic>single</syllabic>
          <text>일</text>
          </lyric>
        <lyric number="5" default-x="6.50" default-y="-135.84" relative-y="-30.00">
          <syllabic>single</syllabic>
          <text>갚</text>
          </lyric>
        </note>
      <note default-x="53.08" default-y="-15.00">
        <pitch>
          <step>C</step>
          <octave>5</octave>
          </pitch>
        <duration>1</duration>
        <voice>1</voice>
        <type>eighth</type>
        <stem>up</stem>
        <beam number="1">begin</beam>
        <lyric number="1" default-x="6.50" default-y="-48.90" relative-y="-30.00">
          <syllabic>single</syllabic>
          <text>아</text>
          </lyric>
        <lyric number="2" default-x="6.50" default-y="-70.63" relative-y="-30.00">
          <syllabic>single</syllabic>
          <text>히</text>
          </lyric>
        <lyric number="3" default-x="6.50" default-y="-92.37" relative-y="-30.00">
          <syllabic>single</syllabic>
          <text>도</text>
          </lyric>
        <lyric number="4" default-x="6.50" default-y="-114.11" relative-y="-30.00">
          <syllabic>single</syllabic>
          <text>이</text>
          </lyric>
        <lyric number="5" default-x="6.50" default-y="-135.84" relative-y="-30.00">
          <syllabic>single</syllabic>
          <text>을</text>
          </lyric>
        </note>
      <note default-x="69.70" default-y="-20.00">
        <pitch>
          <step>B</step>
          <alter>-1</alter>
          <octave>4</octave>
          </pitch>
        <duration>1</duration>
        <voice>1</voice>
        <type>eighth</type>
        <stem>up</stem>
        <beam number="1">end</beam>
        </note>
      <backup><duration>6</duration></backup><note default-x="16.50" default-y="-240.30">
        <pitch>
          <step>E</step>
          <alter>-1</alter>
          <octave>4</octave>
          </pitch>
        <duration>4</duration>
        <voice>2</voice>
        <type>half</type>
        <stem>down</stem>
        </note>
      <note default-x="53.08" default-y="-240.30">
        <pitch>
          <step>E</step>
          <alter>-1</alter>
          <octave>4</octave>
          </pitch>
        <duration>2</duration>
        <voice>2</voice>
        <type>quarter</type>
        <stem>down</stem>
        </note>
      </measure>
    <measure number="7" width="84.95">
      <note default-x="15.93" default-y="-25.00">
        <pitch>
          <step>A</step>
          <alter>-1</alter>
          <octave>4</octave>
          </pitch>
        <duration>4</duration>
        <voice>1</voice>
        <type>half</type>
        <stem>up</stem>
        <lyric number="1" default-x="6.50" default-y="-48.90" relative-y="-30.00">
          <syllabic>single</syllabic>
          <text>가</text>
          </lyric>
        <lyric number="2" default-x="6.50" default-y="-70.63" relative-y="-30.00">
          <syllabic>single</syllabic>
          <text>셨</text>
          </lyric>
        <lyric number="3" default-x="6.50" default-y="-92.37" relative-y="-30.00">
          <syllabic>single</syllabic>
          <text>빛</text>
          </lyric>
        <lyric number="4" default-x="6.50" default-y="-114.11" relative-y="-30.00">
          <syllabic>single</syllabic>
          <text>고</text>
          </lyric>
        <lyric number="5" default-x="6.50" default-y="-135.84" relative-y="-30.00">
          <syllabic>single</syllabic>
          <text>줄</text>
          </lyric>
        </note>
      <note default-x="52.31" default-y="-15.00">
        <pitch>
          <step>C</step>
          <octave>5</octave>
          </pitch>
        <duration>2</duration>
        <voice>1</voice>
        <type>quarter</type>
        <stem>up</stem>
        <lyric number="1" default-x="6.50" default-y="-48.90" relative-y="-30.00">
          <syllabic>single</syllabic>
          <text>셨</text>
          </lyric>
        <lyric number="2" default-x="6.50" default-y="-70.63" relative-y="-30.00">
          <syllabic>single</syllabic>
          <text>으</text>
          </lyric>
        <lyric number="3" default-x="6.50" default-y="-92.37" relative-y="-30.00">
          <syllabic>single</syllabic>
          <text>잃</text>
          </lyric>
        <lyric number="4" default-x="6.50" default-y="-114.11" relative-y="-30.00">
          <syllabic>single</syllabic>
          <text>마</text>
          </lyric>
        <lyric number="5" default-x="6.50" default-y="-135.84" relative-y="-30.00">
          <syllabic>single</syllabic>
          <text>알</text>
          </lyric>
        </note>
      <backup><duration>6</duration></backup><note default-x="15.93" default-y="-240.30">
        <pitch>
          <step>E</step>
          <alter>-1</alter>
          <octave>4</octave>
          </pitch>
        <duration>4</duration>
        <voice>2</voice>
        <type>half</type>
        <stem>down</stem>
        </note>
      <note default-x="52.31" default-y="-240.30">
        <pitch>
          <step>E</step>
          <alter>-1</alter>
          <octave>4</octave>
          </pitch>
        <duration>2</duration>
        <voice>2</voice>
        <type>quarter</type>
        <stem>down</stem>
        </note>
      </measure>
    <measure number="8" width="84.45">
      <note default-x="15.84" default-y="-20.00">
        <pitch>
          <step>B</step>
          <alter>-1</alter>
          <octave>4</octave>
          </pitch>
        <duration>4</duration>
        <voice>1</voice>
        <type>half</type>
        <stem>up</stem>
        <lyric number="1" default-x="6.50" default-y="-48.90" relative-y="-30.00">
          <syllabic>single</syllabic>
          <text>나</text>
          </lyric>
        <lyric number="2" default-x="6.50" default-y="-70.63" relative-y="-30.00">
          <syllabic>single</syllabic>
          <text>니</text>
          </lyric>
        <lyric number="3" default-x="6.50" default-y="-92.37" relative-y="-30.00">
          <syllabic>single</syllabic>
          <text>고</text>
          </lyric>
        <lyric number="4" default-x="6.50" default-y="-114.11" relative-y="-30.00">
          <syllabic>single</syllabic>
          <text>워</text>
          </lyric>
        <lyric number="5" default-x="6.50" default-y="-135.84" relative-y="-30.00">
          <syllabic>single</syllabic>
          <text>아</text>
          </lyric>
        </note>
      <note default-x="51.95" default-y="-5.00">
        <pitch>
          <step>E</step>
          <alter>-1</alter>
          <octave>5</octave>
          </pitch>
        <duration>2</duration>
        <voice>1</voice>
        <type>quarter</type>
        <stem>up</stem>
        <lyric number="1" default-x="6.50" default-y="-48.90" relative-y="-30.00">
          <syllabic>single</syllabic>
          <text>이</text>
          </lyric>
        <lyric number="2" default-x="6.50" default-y="-70.63" relative-y="-30.00">
          <syllabic>single</syllabic>
          <text>웬</text>
          </lyric>
        <lyric number="3" default-x="6.50" default-y="-92.37" relative-y="-30.00">
          <syllabic>single</syllabic>
          <text>그</text>
          </lyric>
        <lyric number="4" default-x="6.50" default-y="-114.11" relative-y="-30.00">
          <syllabic>single</syllabic>
          <text>내</text>
          </lyric>
        <lyric number="5" default-x="6.50" default-y="-135.84" relative-y="-30.00">
          <syllabic>single</syllabic>
          <text>몸</text>
          </lyric>
        </note>
      <backup><duration>6</duration></backup><note default-x="15.84" default-y="-240.30">
        <pitch>
          <step>E</step>
          <alter>-1</alter>
          <octave>4</octave>
          </pitch>
        <duration>4</duration>
        <voice>2</voice>
        <type>half</type>
        <stem>down</stem>
        </note>
      <note default-x="51.95" default-y="-240.30">
        <pitch>
          <step>E</step>
          <alter>-1</alter>
          <octave>4</octave>
          </pitch>
        <duration>2</duration>
        <voice>2</voice>
        <type>quarter</type>
        <stem>down</stem>
        </note>
      </measure>
    <measure number="9" width="86.78">
      <note default-x="16.50" default-y="-15.00">
        <pitch>
          <step>C</step>
          <octave>5</octave>
          </pitch>
        <duration>4</duration>
        <voice>1</voice>
        <type>half</type>
        <stem>up</stem>
        <lyric number="1" default-x="6.50" default-y="-48.90" relative-y="-30.00">
          <syllabic>single</syllabic>
          <text>벌</text>
          </lyric>
        <lyric number="2" default-x="6.50" default-y="-70.63" relative-y="-30.00">
          <syllabic>single</syllabic>
          <text>일</text>
          </lyric>
        <lyric number="3" default-x="6.50" default-y="-92.37" relative-y="-30.00">
          <syllabic>single</syllabic>
          <text>밝</text>
          </lyric>
        <lyric number="4" default-x="6.50" default-y="-114.11" relative-y="-30.00">
          <syllabic>single</syllabic>
          <text>얼</text>
          </lyric>
        <lyric number="5" default-x="6.50" default-y="-135.84" relative-y="-30.00">
          <syllabic>single</syllabic>
          <text>밖</text>
          </lyric>
        </note>
      <note default-x="54.28" default-y="-20.00">
        <pitch>
          <step>B</step>
          <alter>-1</alter>
          <octave>4</octave>
          </pitch>
        <duration>2</duration>
        <voice>1</voice>
        <type>quarter</type>
        <stem>up</stem>
        <lyric number="1" default-x="6.50" default-y="-48.90" relative-y="-30.00">
          <syllabic>single</syllabic>
          <text>레</text>
          </lyric>
        <lyric number="2" default-x="6.50" default-y="-70.63" relative-y="-30.00">
          <syllabic>single</syllabic>
          <text>인</text>
          </lyric>
        <lyric number="3" default-x="6.50" default-y="-92.37" relative-y="-30.00">
          <syllabic>single</syllabic>
          <text>은</text>
          </lyric>
        <lyric number="4" default-x="6.50" default-y="-114.11" relative-y="-30.00">
          <syllabic>single</syllabic>
          <text>굴</text>
          </lyric>
        <lyric number="5" default-x="6.50" default-y="-135.84" relative-y="-30.00">
          <syllabic>single</syllabic>
          <text>에</text>
          </lyric>
        </note>
      <backup><duration>6</duration></backup><note default-x="16.50" default-y="-240.30">
        <pitch>
          <step>E</step>
          <alter>-1</alter>
          <octave>4</octave>
          </pitch>
        <duration>4</duration>
        <voice>2</voice>
        <type>half</type>
        <stem>down</stem>
        </note>
      <note default-x="54.28" default-y="-230.30">
        <pitch>
          <step>G</step>
          <octave>4</octave>
          </pitch>
        <duration>2</duration>
        <voice>2</voice>
        <type>quarter</type>
        <stem>down</stem>
        </note>
      </measure>
    <measure number="10" width="93.72">
      <note default-x="16.50" default-y="-25.00">
        <pitch>
          <step>A</step>
          <alter>-1</alter>
          <octave>4</octave>
          </pitch>
        <duration>4</duration>
        <voice>1</voice>
        <type>half</type>
        <stem>up</stem>
        <lyric number="1" default-x="6.50" default-y="-48.90" relative-y="-30.00">
          <syllabic>single</syllabic>
          <text>같</text>
          </lyric>
        <lyric number="2" default-x="6.50" default-y="-70.63" relative-y="-30.00">
          <syllabic>single</syllabic>
          <text>가</text>
          </lyric>
        <lyric number="3" default-x="6.50" default-y="-92.37" relative-y="-30.00">
          <syllabic>single</syllabic>
          <text>빛</text>
          </lyric>
        <lyric number="4" default-x="6.50" default-y="-114.11" relative-y="-30.00">
          <syllabic>single</syllabic>
          <text>감</text>
          </lyric>
        <lyric number="5" default-x="6.50" default-y="-135.84" relative-y="-30.00">
          <syllabic>single</syllabic>
          <text>드</text>
          </lyric>
        </note>
      <note default-x="61.00" default-y="-15.00">
        <pitch>
          <step>C</step>
          <octave>5</octave>
          </pitch>
        <duration>2</duration>
        <voice>1</voice>
        <type>quarter</type>
        <stem>up</stem>
        <lyric number="1" default-x="6.50" default-y="-48.90" relative-y="-30.00">
          <syllabic>single</syllabic>
          <text>은</text>
          </lyric>
        <lyric number="2" default-x="6.50" default-y="-70.63" relative-y="-30.00">
          <syllabic>single</syllabic>
          <text>웬</text>
          </lyric>
        <lyric number="3" default-x="6.50" default-y="-92.37" relative-y="-30.00">
          <syllabic>single</syllabic>
          <text>가</text>
          </lyric>
        <lyric number="4" default-x="6.50" default-y="-114.11" relative-y="-30.00">
          <syllabic>single</syllabic>
          <text>히</text>
          </lyric>
        <lyric number="5" default-x="6.50" default-y="-135.84" relative-y="-30.00">
          <syllabic>single</syllabic>
          <text>릴</text>
          </lyric>
        </note>
      <backup><duration>6</duration></backup><note default-x="16.50" default-y="-225.30">
        <pitch>
          <step>A</step>
          <alter>-1</alter>
          <octave>4</octave>
          </pitch>
        <duration>4</duration>
        <voice>2</voice>
        <type>half</type>
        <stem>down</stem>
        </note>
      <note default-x="61.00" default-y="-230.30">
        <pitch>
          <step>G</step>
          <alter>-1</alter>
          <octave>4</octave>
          </pitch>
        <duration>2</duration>
        <voice>2</voice>
        <type>quarter</type>
        <accidental>flat</accidental>
        <stem>down</stem>
        </note>
      </measure>
    <measure number="11" width="231.26">
      <print new-system="yes">
        <system-layout>
          <system-margins>
            <left-margin>0.00</left-margin>
            <right-margin>0.00</right-margin>
            </system-margins>
          <system-distance>150.00</system-distance>
          </system-layout>
        </print>
      <note default-x="109.48" default-y="-10.00">
        <pitch>
          <step>D</step>
          <alter>-1</alter>
          <octave>5</octave>
          </pitch>
        <duration>4</duration>
        <voice>1</voice>
        <type>half</type>
        <stem>up</stem>
        <lyric number="1" default-x="6.50" default-y="-51.86" relative-y="-30.00">
          <syllabic>single</syllabic>
          <text>날</text>
          </lyric>
        <lyric number="2" default-x="6.50" default-y="-73.59" relative-y="-30.00">
          <syllabic>single</syllabic>
          <text>은</text>
          </lyric>
        <lyric number="3" default-x="6.50" default-y="-95.33" relative-y="-30.00">
          <syllabic>single</syllabic>
          <text>리</text>
          </lyric>
        <lyric number="4" default-x="6.50" default-y="-117.07" relative-y="-30.00">
          <syllabic>single</syllabic>
          <text>못</text>
          </lyric>
        <lyric number="5" default-x="6.50" default-y="-138.80" relative-y="-30.00">
          <syllabic>single</syllabic>
          <text>것</text>
          </lyric>
        </note>
      <note default-x="183.31" default-y="-15.00">
        <pitch>
          <step>C</step>
          <octave>5</octave>
          </pitch>
        <duration>2</duration>
        <voice>1</voice>
        <type>quarter</type>
        <stem>up</stem>
        <lyric number="1" default-x="6.50" default-y="-51.86" relative-y="-30.00">
          <syllabic>single</syllabic>
          <text>위</text>
          </lyric>
        <lyric number="2" default-x="6.50" default-y="-73.59" relative-y="-30.00">
          <syllabic>single</syllabic>
          <text>혠</text>
          </lyric>
        <lyric number="3" default-x="6.50" default-y="-95.33" relative-y="-30.00">
          <syllabic>single</syllabic>
          <text>워</text>
          </lyric>
        <lyric number="4" default-x="6.50" default-y="-117.07" relative-y="-30.00">
          <syllabic>single</syllabic>
          <text>들</text>
          </lyric>
        <lyric number="5" default-x="6.50" default-y="-138.80" relative-y="-30.00">
          <syllabic>single</syllabic>
          <text>없</text>
          </lyric>
        </note>
      <backup><duration>6</duration></backup><note default-x="109.48" default-y="-230.82">
        <pitch>
          <step>F</step>
          <octave>4</octave>
          </pitch>
        <duration>4</duration>
        <voice>2</voice>
        <type>half</type>
        <stem>down</stem>
        </note>
      <note default-x="183.31" default-y="-235.82">
        <pitch>
          <step>E</step>
          <alter>-1</alter>
          <octave>4</octave>
          </pitch>
        <duration>2</duration>
        <voice>2</voice>
        <type>quarter</type>
        <stem>down</stem>
        </note>
      </measure>
    <measure number="12" width="138.20">
      <note default-x="15.93" default-y="-20.00">
        <pitch>
          <step>B</step>
          <alter>-1</alter>
          <octave>4</octave>
          </pitch>
        <duration>4</duration>
        <voice>1</voice>
        <type>half</type>
        <stem>up</stem>
        <lyric number="1" default-x="6.50" default-y="-51.86" relative-y="-30.00">
          <syllabic>single</syllabic>
          <text>해</text>
          </lyric>
        <lyric number="2" default-x="6.50" default-y="-73.59" relative-y="-30.00">
          <syllabic>single</syllabic>
          <text>가</text>
          </lyric>
        <lyric number="3" default-x="6.50" default-y="-95.33" relative-y="-30.00">
          <syllabic>single</syllabic>
          <text>서</text>
          </lyric>
        <lyric number="4" default-x="6.50" default-y="-117.07" relative-y="-30.00">
          <syllabic>single</syllabic>
          <text>고</text>
          </lyric>
        <lyric number="5" default-x="6.50" default-y="-138.80" relative-y="-30.00">
          <syllabic>single</syllabic>
          <text>어</text>
          </lyric>
        </note>
      <note default-x="90.06" default-y="-15.00">
        <pitch>
          <step>C</step>
          <octave>5</octave>
          </pitch>
        <duration>2</duration>
        <voice>1</voice>
        <type>quarter</type>
        <stem>up</stem>
        <lyric number="1" default-x="6.50" default-y="-51.86" relative-y="-30.00">
          <syllabic>single</syllabic>
          <text>큰</text>
          </lyric>
        <lyric number="2" default-x="6.50" default-y="-73.59" relative-y="-30.00">
          <syllabic>single</syllabic>
          <text>그</text>
          </lyric>
        <lyric number="3" default-x="6.50" default-y="-95.33" relative-y="-30.00">
          <syllabic>single</syllabic>
          <text>캄</text>
          </lyric>
        <lyric number="4" default-x="6.50" default-y="-117.07" relative-y="-30.00">
          <syllabic>single</syllabic>
          <text>눈</text>
          </lyric>
        <lyric number="5" default-x="6.50" default-y="-138.80" relative-y="-30.00">
          <syllabic>single</syllabic>
          <text>이</text>
          </lyric>
        </note>
      <backup><duration>6</duration></backup><note default-x="15.93" default-y="-235.82">
        <pitch>
          <step>E</step>
          <alter>-1</alter>
          <octave>4</octave>
          </pitch>
        <duration>4</duration>
        <voice>2</voice>
        <type>half</type>
        <stem>down</stem>
        </note>
      <note default-x="90.06" default-y="-235.82">
        <pitch>
          <step>E</step>
          <alter>-1</alter>
          <octave>4</octave>
          </pitch>
        <duration>2</duration>
        <voice>2</voice>
        <type>quarter</type>
        <stem>down</stem>
        </note>
      </measure>
    <measure number="13" width="171.12">
      <note default-x="16.21" default-y="-40.00">
        <pitch>
          <step>E</step>
          <alter>-1</alter>
          <octave>4</octave>
          </pitch>
        <duration>2</duration>
        <voice>1</voice>
        <type>quarter</type>
        <stem>up</stem>
        <notations>
          <slur type="start" placement="above" number="1"/>
          </notations>
        <lyric number="1" default-x="6.50" default-y="-51.86" relative-y="-30.00">
          <syllabic>single</syllabic>
          <text>해</text>
          </lyric>
        <lyric number="2" default-x="6.50" default-y="-73.59" relative-y="-30.00">
          <syllabic>single</syllabic>
          <text>사</text>
          </lyric>
        <lyric number="3" default-x="6.50" default-y="-95.33" relative-y="-30.00">
          <syllabic>single</syllabic>
          <text>캄</text>
          </lyric>
        <lyric number="4" default-x="6.50" default-y="-117.07" relative-y="-30.00">
          <syllabic>single</syllabic>
          <text>물</text>
          </lyric>
        <lyric number="5" default-x="6.50" default-y="-138.80" relative-y="-30.00">
          <syllabic>single</syllabic>
          <text>몸</text>
          </lyric>
        </note>
      <note default-x="63.32" default-y="-35.00">
        <pitch>
          <step>F</step>
          <octave>4</octave>
          </pitch>
        <duration>2</duration>
        <voice>1</voice>
        <type>quarter</type>
        <stem>up</stem>
        <notations>
          <slur type="stop" number="1"/>
          </notations>
        </note>
      <note default-x="110.43" default-y="-25.00">
        <pitch>
          <step>A</step>
          <alter>-1</alter>
          <octave>4</octave>
          </pitch>
        <duration>1</duration>
        <voice>1</voice>
        <type>eighth</type>
        <stem>up</stem>
        <beam number="1">begin</beam>
        <lyric number="1" default-x="6.50" default-y="-51.86" relative-y="-30.00">
          <syllabic>single</syllabic>
          <text>받</text>
          </lyric>
        <lyric number="2" default-x="6.50" default-y="-73.59" relative-y="-30.00">
          <syllabic>single</syllabic>
          <text>랑</text>
          </lyric>
        <lyric number="3" default-x="6.50" default-y="-95.33" relative-y="-30.00">
          <syllabic>single</syllabic>
          <text>케</text>
          </lyric>
        <lyric number="4" default-x="6.50" default-y="-117.07" relative-y="-30.00">
          <syllabic>single</syllabic>
          <text>흘</text>
          </lyric>
        <lyric number="5" default-x="6.50" default-y="-138.80" relative-y="-30.00">
          <syllabic>single</syllabic>
          <text>바</text>
          </lyric>
        </note>
      <note default-x="139.87" default-y="-20.00">
        <pitch>
          <step>B</step>
          <alter>-1</alter>
          <octave>4</octave>
          </pitch>
        <duration>1</duration>
        <voice>1</voice>
        <type>eighth</type>
        <stem>up</stem>
        <beam number="1">end</beam>
        </note>
      <backup><duration>6</duration></backup><note default-x="16.21" default-y="-235.82">
        <pitch>
          <step>E</step>
          <alter>-1</alter>
          <octave>4</octave>
          </pitch>
        <duration>2</duration>
        <voice>2</voice>
        <type>quarter</type>
        <stem>down</stem>
        <notations>
          <slur type="start" placement="below" number="1"/>
          </notations>
        </note>
      <note default-x="63.32" default-y="-240.82">
        <pitch>
          <step>D</step>
          <alter>-1</alter>
          <octave>4</octave>
          </pitch>
        <duration>2</duration>
        <voice>2</voice>
        <type>quarter</type>
        <stem>down</stem>
        <notations>
          <slur type="stop" number="1"/>
          </notations>
        </note>
      <note default-x="110.43" default-y="-245.82">
        <pitch>
          <step>C</step>
          <octave>4</octave>
          </pitch>
        <duration>1</duration>
        <voice>2</voice>
        <type>eighth</type>
        <stem>down</stem>
        <beam number="1">begin</beam>
        </note>
      <note default-x="139.87" default-y="-240.82">
        <pitch>
          <step>D</step>
          <alter>-1</alter>
          <octave>4</octave>
          </pitch>
        <duration>1</duration>
        <voice>2</voice>
        <type>eighth</type>
        <stem>down</stem>
        <beam number="1">end</beam>
        </note>
      </measure>
    <measure number="14" width="137.72">
      <note default-x="15.70" default-y="-15.00">
        <pitch>
          <step>C</step>
          <octave>5</octave>
          </pitch>
        <duration>4</duration>
        <voice>1</voice>
        <type>half</type>
        <stem>up</stem>
        <lyric number="1" default-x="6.50" default-y="-51.86" relative-y="-30.00">
          <syllabic>single</syllabic>
          <text>으</text>
          </lyric>
        <lyric number="2" default-x="6.50" default-y="-73.59" relative-y="-30.00">
          <syllabic>single</syllabic>
          <text>크</text>
          </lyric>
        <lyric number="3" default-x="6.50" default-y="-95.33" relative-y="-30.00">
          <syllabic>single</syllabic>
          <text>되</text>
          </lyric>
        <lyric number="4" default-x="6.50" default-y="-117.07" relative-y="-30.00">
          <syllabic>single</syllabic>
          <text>리</text>
          </lyric>
        <lyric number="5" default-x="6.50" default-y="-138.80" relative-y="-30.00">
          <syllabic>single</syllabic>
          <text>칩</text>
          </lyric>
        </note>
      <note default-x="89.68" default-y="-20.00">
        <pitch>
          <step>B</step>
          <alter>-1</alter>
          <octave>4</octave>
          </pitch>
        <duration>2</duration>
        <voice>1</voice>
        <type>quarter</type>
        <stem>up</stem>
        <lyric number="1" default-x="6.50" default-y="-51.86" relative-y="-30.00">
          <syllabic>single</syllabic>
          <text>셨</text>
          </lyric>
        <lyric number="2" default-x="6.50" default-y="-73.59" relative-y="-30.00">
          <syllabic>single</syllabic>
          <text>셔</text>
          </lyric>
        <lyric number="3" default-x="6.50" default-y="-95.33" relative-y="-30.00">
          <syllabic>single</syllabic>
          <text>었</text>
          </lyric>
        <lyric number="4" default-x="6.50" default-y="-117.07" relative-y="-30.00">
          <syllabic>single</syllabic>
          <text>도</text>
          </lyric>
        <lyric number="5" default-x="6.50" default-y="-138.80" relative-y="-30.00">
          <syllabic>single</syllabic>
          <text>니</text>
          </lyric>
        </note>
      <backup><duration>6</duration></backup><note default-x="15.70" default-y="-235.82">
        <pitch>
          <step>E</step>
          <alter>-1</alter>
          <octave>4</octave>
          </pitch>
        <duration>4</duration>
        <voice>2</voice>
        <type>half</type>
        <stem>down</stem>
        </note>
      <note default-x="89.68" default-y="-240.82">
        <pitch>
          <step>D</step>
          <alter>-1</alter>
          <octave>4</octave>
          </pitch>
        <duration>2</duration>
        <voice>2</voice>
        <type>quarter</type>
        <stem>down</stem>
        </note>
      </measure>
    <measure number="15" width="98.28">
      <note default-x="16.50" default-y="-25.00">
        <pitch>
          <step>A</step>
          <alter>-1</alter>
          <octave>4</octave>
          </pitch>
        <duration>4</duration>
        <voice>1</voice>
        <type>half</type>
        <stem>up</stem>
        <lyric number="1" default-x="6.50" default-y="-51.86" relative-y="-30.00">
          <syllabic>single</syllabic>
          <text>나</text>
          </lyric>
        <lyric number="2" default-x="6.50" default-y="-73.59" relative-y="-30.00">
          <syllabic>single</syllabic>
          <text>라</text>
          </lyric>
        <lyric number="3" default-x="6.50" default-y="-95.33" relative-y="-30.00">
          <syllabic>single</syllabic>
          <text>네</text>
          </lyric>
        <lyric number="4" default-x="6.50" default-y="-117.07" relative-y="-30.00">
          <syllabic>single</syllabic>
          <text>다</text>
          </lyric>
        <lyric number="5" default-x="6.50" default-y="-138.80" relative-y="-30.00">
          <syllabic>single</syllabic>
          <text>다</text>
          </lyric>
        </note>
      <barline location="right">
        <bar-style>light-light</bar-style>
        </barline>
      <backup><duration>4</duration></backup><note default-x="16.50" default-y="-245.82">
        <pitch>
          <step>C</step>
          <octave>4</octave>
          </pitch>
        <duration>4</duration>
        <voice>2</voice>
        <type>half</type>
        <stem>down</stem>
        </note>
      </measure>
    <measure number="16" width="121.31">
      <note default-x="15.84" default-y="-25.00">
        <pitch>
          <step>A</step>
          <alter>-1</alter>
          <octave>4</octave>
          </pitch>
        <duration>6</duration>
        <voice>1</voice>
        <type>half</type>
        <dot/>
        <stem>up</stem>
        <lyric number="5" default-x="6.50" default-y="-138.80" relative-y="-30.00">
          <syllabic>single</syllabic>
          <text>아</text>
          </lyric>
        </note>
      <backup><duration>6</duration></backup><note default-x="15.84" default-y="-240.82">
        <pitch>
          <step>D</step>
          <alter>-1</alter>
          <octave>4</octave>
          </pitch>
        <duration>6</duration>
        <voice>2</voice>
        <type>half</type>
        <dot/>
        <stem>down</stem>
        </note>
      </measure>
    <measure number="17" width="130.82">
      <note default-x="16.50" default-y="-25.00">
        <pitch>
          <step>A</step>
          <alter>-1</alter>
          <octave>4</octave>
          </pitch>
        <duration>6</duration>
        <voice>1</voice>
        <type>half</type>
        <dot/>
        <stem>up</stem>
        <lyric number="5" default-x="6.50" default-y="-138.80" relative-y="-30.00">
          <syllabic>single</syllabic>
          <text>멘</text>
          </lyric>
        </note>
      <barline location="right">
        <bar-style>light-heavy</bar-style>
        </barline>
      <backup><duration>6</duration></backup><note default-x="16.50" default-y="-245.82">
        <pitch>
          <step>C</step>
          <octave>4</octave>
          </pitch>
        <duration>6</duration>
        <voice>2</voice>
        <type>half</type>
        <dot/>
        <stem>down</stem>
        </note>
      </measure>
    </part>
  <part id="P3">
    <measure number="1" width="174.63">
      <print>
        <staff-layout number="1">
          <staff-distance>65.00</staff-distance>
          </staff-layout>
        </print>
      <attributes>
        <divisions>2</divisions>
        <key>
          <fifths>-4</fifths>
          <mode>major</mode>
          </key>
        <time>
          <beats>3</beats>
          <beat-type>4</beat-type>
          </time>
        <clef>
          <sign>F</sign>
          <line>4</line>
          </clef>
        </attributes>
      <note default-x="135.11" default-y="-305.30">
        <pitch>
          <step>A</step>
          <alter>-1</alter>
          <octave>3</octave>
          </pitch>
        <duration>2</duration>
        <voice>1</voice>
        <type>quarter</type>
        <stem>up</stem>
        </note>
      <backup><duration>2</duration></backup><note default-x="135.11" default-y="-445.30">
        <pitch>
          <step>A</step>
          <alter>-1</alter>
          <octave>2</octave>
          </pitch>
        <duration>2</duration>
        <voice>2</voice>
        <type>quarter</type>
        <stem>down</stem>
        </note>
      </measure>
    <measure number="2" width="85.14">
      <note default-x="15.70" default-y="-305.30">
        <pitch>
          <step>A</step>
          <alter>-1</alter>
          <octave>3</octave>
          </pitch>
        <duration>4</duration>
        <voice>1</voice>
        <type>half</type>
        <stem>up</stem>
        </note>
      <note default-x="52.21" default-y="-305.30">
        <pitch>
          <step>A</step>
          <alter>-1</alter>
          <octave>3</octave>
          </pitch>
        <duration>2</duration>
        <voice>1</voice>
        <type>quarter</type>
        <stem>up</stem>
        </note>
      <backup><duration>6</duration></backup><note default-x="15.70" default-y="-435.30">
        <pitch>
          <step>C</step>
          <octave>3</octave>
          </pitch>
        <duration>4</duration>
        <voice>2</voice>
        <type>half</type>
        <stem>down</stem>
        </note>
      <note default-x="52.21" default-y="-430.30">
        <pitch>
          <step>D</step>
          <alter>-1</alter>
          <octave>3</octave>
          </pitch>
        <duration>2</duration>
        <voice>2</voice>
        <type>quarter</type>
        <stem>down</stem>
        </note>
      </measure>
    <measure number="3" width="99.34">
      <note default-x="16.50" default-y="-305.30">
        <pitch>
          <step>A</step>
          <alter>-1</alter>
          <octave>3</octave>
          </pitch>
        <duration>4</duration>
        <voice>1</voice>
        <type>half</type>
        <stem>up</stem>
        </note>
      <note default-x="52.97" default-y="-305.30">
        <pitch>
          <step>A</step>
          <alter>-1</alter>
          <octave>3</octave>
          </pitch>
        <duration>2</duration>
        <voice>1</voice>
        <type>quarter</type>
        <stem>up</stem>
        </note>
      <backup><duration>6</duration></backup><note default-x="16.50" default-y="-445.30">
        <pitch>
          <step>A</step>
          <alter>-1</alter>
          <octave>2</octave>
          </pitch>
        <duration>4</duration>
        <voice>2</voice>
        <type>half</type>
        <stem>down</stem>
        </note>
      <note default-x="52.97" default-y="-435.30">
        <pitch>
          <step>C</step>
          <octave>3</octave>
          </pitch>
        <duration>1</duration>
        <voice>2</voice>
        <type>eighth</type>
        <stem>down</stem>
        <beam number="1">begin</beam>
        </note>
      <note default-x="69.54" default-y="-430.30">
        <pitch>
          <step>D</step>
          <alter>-1</alter>
          <octave>3</octave>
          </pitch>
        <duration>1</duration>
        <voice>2</voice>
        <type>eighth</type>
        <stem>down</stem>
        <beam number="1">end</beam>
        </note>
      </measure>
    <measure number="4" width="85.25">
      <note default-x="15.90" default-y="-305.30">
        <pitch>
          <step>A</step>
          <alter>-1</alter>
          <octave>3</octave>
          </pitch>
        <duration>4</duration>
        <voice>1</voice>
        <type>half</type>
        <stem>up</stem>
        </note>
      <note default-x="52.46" default-y="-290.30">
        <pitch>
          <step>D</step>
          <alter>-1</alter>
          <octave>4</octave>
          </pitch>
        <duration>2</duration>
        <voice>1</voice>
        <type>quarter</type>
        <stem>up</stem>
        </note>
      <backup><duration>6</duration></backup><note default-x="15.90" default-y="-425.30">
        <pitch>
          <step>E</step>
          <alter>-1</alter>
          <octave>3</octave>
          </pitch>
        <duration>4</duration>
        <voice>2</voice>
        <type>half</type>
        <stem>down</stem>
        </note>
      <note default-x="52.46" default-y="-425.30">
        <pitch>
          <step>E</step>
          <alter>-1</alter>
          <octave>3</octave>
          </pitch>
        <duration>2</duration>
        <voice>2</voice>
        <type>quarter</type>
        <stem>down</stem>
        </note>
      </measure>
    <measure number="5" width="84.94">
      <note default-x="16.50" default-y="-295.30">
        <pitch>
          <step>C</step>
          <octave>4</octave>
          </pitch>
        <duration>4</duration>
        <voice>1</voice>
        <type>half</type>
        <stem>up</stem>
        </note>
      <note default-x="52.44" default-y="-305.30">
        <pitch>
          <step>A</step>
          <alter>-1</alter>
          <octave>3</octave>
          </pitch>
        <duration>2</duration>
        <voice>1</voice>
        <type>quarter</type>
        <stem>up</stem>
        </note>
      <backup><duration>6</duration></backup><note default-x="16.50" default-y="-445.30">
        <pitch>
          <step>A</step>
          <alter>-1</alter>
          <octave>2</octave>
          </pitch>
        <duration>4</duration>
        <voice>2</voice>
        <type>half</type>
        <stem>down</stem>
        </note>
      <note default-x="52.44" default-y="-410.30">
        <pitch>
          <step>A</step>
          <alter>-1</alter>
          <octave>3</octave>
          </pitch>
        <duration>2</duration>
        <voice>2</voice>
        <type>quarter</type>
        <stem>down</stem>
        </note>
      </measure>
    <measure number="6" width="99.50">
      <note default-x="16.50" default-y="-295.30">
        <pitch>
          <step>C</step>
          <octave>4</octave>
          </pitch>
        <duration>4</duration>
        <voice>1</voice>
        <type>half</type>
        <stem>up</stem>
        </note>
      <note default-x="53.08" default-y="-305.30">
        <pitch>
          <step>A</step>
          <alter>-1</alter>
          <octave>3</octave>
          </pitch>
        <duration>1</duration>
        <voice>1</voice>
        <type>eighth</type>
        <stem>up</stem>
        <beam number="1">begin</beam>
        </note>
      <note default-x="69.70" default-y="-310.30">
        <pitch>
          <step>G</step>
          <octave>3</octave>
          </pitch>
        <duration>1</duration>
        <voice>1</voice>
        <type>eighth</type>
        <stem>up</stem>
        <beam number="1">end</beam>
        </note>
      <backup><duration>6</duration></backup><note default-x="16.50" default-y="-410.30">
        <pitch>
          <step>A</step>
          <alter>-1</alter>
          <octave>3</octave>
          </pitch>
        <duration>4</duration>
        <voice>2</voice>
        <type>half</type>
        <stem>down</stem>
        </note>
      <note default-x="53.08" default-y="-445.30">
        <pitch>
          <step>A</step>
          <alter>-1</alter>
          <octave>2</octave>
          </pitch>
        <duration>1</duration>
        <voice>2</voice>
        <type>eighth</type>
        <stem>down</stem>
        <beam number="1">begin</beam>
        </note>
      <note default-x="69.70" default-y="-440.30">
        <pitch>
          <step>B</step>
          <alter>-1</alter>
          <octave>2</octave>
          </pitch>
        <duration>1</duration>
        <voice>2</voice>
        <type>eighth</type>
        <stem>down</stem>
        <beam number="1">end</beam>
        </note>
      </measure>
    <measure number="7" width="84.95">
      <note default-x="15.93" default-y="-305.30">
        <pitch>
          <step>A</step>
          <alter>-1</alter>
          <octave>3</octave>
          </pitch>
        <duration>4</duration>
        <voice>1</voice>
        <type>half</type>
        <stem>up</stem>
        </note>
      <note default-x="52.31" default-y="-305.30">
        <pitch>
          <step>A</step>
          <alter>-1</alter>
          <octave>3</octave>
          </pitch>
        <duration>2</duration>
        <voice>1</voice>
        <type>quarter</type>
        <stem>up</stem>
        </note>
      <backup><duration>6</duration></backup><note default-x="15.93" default-y="-435.30">
        <pitch>
          <step>C</step>
          <octave>3</octave>
          </pitch>
        <duration>4</duration>
        <voice>2</voice>
        <type>half</type>
        <stem>down</stem>
        </note>
      <note default-x="52.31" default-y="-445.30">
        <pitch>
          <step>A</step>
          <alter>-1</alter>
          <octave>2</octave>
          </pitch>
        <duration>2</duration>
        <voice>2</voice>
        <type>quarter</type>
        <stem>down</stem>
        </note>
      </measure>
    <measure number="8" width="84.45">
      <note default-x="15.84" default-y="-310.30">
        <pitch>
          <step>G</step>
          <octave>3</octave>
          </pitch>
        <duration>4</duration>
        <voice>1</voice>
        <type>half</type>
        <stem>up</stem>
        </note>
      <note default-x="51.95" default-y="-300.30">
        <pitch>
          <step>B</step>
          <alter>-1</alter>
          <octave>3</octave>
          </pitch>
        <duration>2</duration>
        <voice>1</voice>
        <type>quarter</type>
        <stem>up</stem>
        </note>
      <backup><duration>6</duration></backup><note default-x="15.84" default-y="-425.30">
        <pitch>
          <step>E</step>
          <alter>-1</alter>
          <octave>3</octave>
          </pitch>
        <duration>4</duration>
        <voice>2</voice>
        <type>half</type>
        <stem>down</stem>
        </note>
      <note default-x="51.95" default-y="-415.30">
        <pitch>
          <step>G</step>
          <octave>3</octave>
          </pitch>
        <duration>2</duration>
        <voice>2</voice>
        <type>quarter</type>
        <stem>down</stem>
        </note>
      </measure>
    <measure number="9" width="86.78">
      <note default-x="16.50" default-y="-295.30">
        <pitch>
          <step>C</step>
          <octave>4</octave>
          </pitch>
        <duration>4</duration>
        <voice>1</voice>
        <type>half</type>
        <stem>up</stem>
        </note>
      <note default-x="54.28" default-y="-290.30">
        <pitch>
          <step>D</step>
          <alter>-1</alter>
          <octave>4</octave>
          </pitch>
        <duration>2</duration>
        <voice>1</voice>
        <type>quarter</type>
        <stem>up</stem>
        </note>
      <backup><duration>6</duration></backup><note default-x="16.50" default-y="-410.30">
        <pitch>
          <step>A</step>
          <alter>-1</alter>
          <octave>3</octave>
          </pitch>
        <duration>4</duration>
        <voice>2</voice>
        <type>half</type>
        <stem>down</stem>
        </note>
      <note default-x="54.28" default-y="-425.30">
        <pitch>
          <step>E</step>
          <alter>-1</alter>
          <octave>3</octave>
          </pitch>
        <duration>2</duration>
        <voice>2</voice>
        <type>quarter</type>
        <stem>down</stem>
        </note>
      </measure>
    <measure number="10" width="93.72">
      <note default-x="16.50" default-y="-295.30">
        <pitch>
          <step>C</step>
          <octave>4</octave>
          </pitch>
        <duration>4</duration>
        <voice>1</voice>
        <type>half</type>
        <stem>up</stem>
        </note>
      <note default-x="61.00" default-y="-305.30">
        <pitch>
          <step>A</step>
          <alter>-1</alter>
          <octave>3</octave>
          </pitch>
        <duration>2</duration>
        <voice>1</voice>
        <type>quarter</type>
        <stem>up</stem>
        </note>
      <backup><duration>6</duration></backup><note default-x="16.50" default-y="-420.30">
        <pitch>
          <step>F</step>
          <octave>3</octave>
          </pitch>
        <duration>4</duration>
        <voice>2</voice>
        <type>half</type>
        <stem>down</stem>
        </note>
      <note default-x="61.00" default-y="-425.30">
        <pitch>
          <step>E</step>
          <alter>-1</alter>
          <octave>3</octave>
          </pitch>
        <duration>2</duration>
        <voice>2</voice>
        <type>quarter</type>
        <stem>down</stem>
        </note>
      </measure>
    <measure number="11" width="231.26">
      <print new-system="yes">
        <staff-layout number="1">
          <staff-distance>65.00</staff-distance>
          </staff-layout>
        </print>
      <note default-x="109.48" default-y="-300.82">
        <pitch>
          <step>A</step>
          <alter>-1</alter>
          <octave>3</octave>
          </pitch>
        <duration>4</duration>
        <voice>1</voice>
        <type>half</type>
        <stem>up</stem>
        </note>
      <note default-x="183.31" default-y="-300.82">
        <pitch>
          <step>A</step>
          <alter>-1</alter>
          <octave>3</octave>
          </pitch>
        <duration>2</duration>
        <voice>1</voice>
        <type>quarter</type>
        <stem>up</stem>
        </note>
      <backup><duration>6</duration></backup><note default-x="109.48" default-y="-425.82">
        <pitch>
          <step>D</step>
          <alter>-1</alter>
          <octave>3</octave>
          </pitch>
        <duration>4</duration>
        <voice>2</voice>
        <type>half</type>
        <stem>down</stem>
        </note>
      <note default-x="183.31" default-y="-440.82">
        <pitch>
          <step>A</step>
          <alter>-1</alter>
          <octave>2</octave>
          </pitch>
        <duration>2</duration>
        <voice>2</voice>
        <type>quarter</type>
        <stem>down</stem>
        </note>
      </measure>
    <measure number="12" width="138.20">
      <note default-x="15.93" default-y="-305.82">
        <pitch>
          <step>G</step>
          <octave>3</octave>
          </pitch>
        <duration>4</duration>
        <voice>1</voice>
        <type>half</type>
        <stem>up</stem>
        </note>
      <note default-x="90.06" default-y="-300.82">
        <pitch>
          <step>A</step>
          <alter>-1</alter>
          <octave>3</octave>
          </pitch>
        <duration>2</duration>
        <voice>1</voice>
        <type>quarter</type>
        <stem>up</stem>
        </note>
      <backup><duration>6</duration></backup><note default-x="15.93" default-y="-420.82">
        <pitch>
          <step>E</step>
          <alter>-1</alter>
          <octave>3</octave>
          </pitch>
        <duration>4</duration>
        <voice>2</voice>
        <type>half</type>
        <stem>down</stem>
        </note>
      <note default-x="90.06" default-y="-440.82">
        <pitch>
          <step>A</step>
          <alter>-1</alter>
          <octave>2</octave>
          </pitch>
        <duration>2</duration>
        <voice>2</voice>
        <type>quarter</type>
        <stem>down</stem>
        </note>
      </measure>
    <measure number="13" width="171.12">
      <note default-x="16.21" default-y="-300.82">
        <pitch>
          <step>A</step>
          <alter>-1</alter>
          <octave>3</octave>
          </pitch>
        <duration>4</duration>
        <voice>1</voice>
        <type>half</type>
        <stem>up</stem>
        </note>
      <note default-x="110.43" default-y="-300.82">
        <pitch>
          <step>A</step>
          <alter>-1</alter>
          <octave>3</octave>
          </pitch>
        <duration>2</duration>
        <voice>1</voice>
        <type>quarter</type>
        <stem>up</stem>
        </note>
      <backup><duration>6</duration></backup><note default-x="16.21" default-y="-430.82">
        <pitch>
          <step>C</step>
          <octave>3</octave>
          </pitch>
        <duration>2</duration>
        <voice>2</voice>
        <type>quarter</type>
        <stem>down</stem>
        <notations>
          <slur type="start" placement="below" number="1"/>
          </notations>
        </note>
      <note default-x="63.32" default-y="-425.82">
        <pitch>
          <step>D</step>
          <alter>-1</alter>
          <octave>3</octave>
          </pitch>
        <duration>2</duration>
        <voice>2</voice>
        <type>quarter</type>
        <stem>down</stem>
        <notations>
          <slur type="stop" number="1"/>
          </notations>
        </note>
      <note default-x="110.43" default-y="-415.82">
        <pitch>
          <step>F</step>
          <octave>3</octave>
          </pitch>
        <duration>2</duration>
        <voice>2</voice>
        <type>quarter</type>
        <stem>down</stem>
        </note>
      </measure>
    <measure number="14" width="137.72">
      <note default-x="15.70" default-y="-300.82">
        <pitch>
          <step>A</step>
          <alter>-1</alter>
          <octave>3</octave>
          </pitch>
        <duration>4</duration>
        <voice>1</voice>
        <type>half</type>
        <stem>up</stem>
        </note>
      <note default-x="89.68" default-y="-305.82">
        <pitch>
          <step>G</step>
          <octave>3</octave>
          </pitch>
        <duration>2</duration>
        <voice>1</voice>
        <type>quarter</type>
        <stem>up</stem>
        </note>
      <backup><duration>6</duration></backup><note default-x="15.70" default-y="-420.82">
        <pitch>
          <step>E</step>
          <alter>-1</alter>
          <octave>3</octave>
          </pitch>
        <duration>4</duration>
        <voice>2</voice>
        <type>half</type>
        <stem>down</stem>
        </note>
      <note default-x="89.68" default-y="-420.82">
        <pitch>
          <step>E</step>
          <alter>-1</alter>
          <octave>3</octave>
          </pitch>
        <duration>2</duration>
        <voice>2</voice>
        <type>quarter</type>
        <stem>down</stem>
        </note>
      </measure>
    <measure number="15" width="98.28">
      <note default-x="16.50" default-y="-300.82">
        <pitch>
          <step>A</step>
          <alter>-1</alter>
          <octave>3</octave>
          </pitch>
        <duration>4</duration>
        <voice>1</voice>
        <type>half</type>
        <stem>up</stem>
        </note>
      <barline location="right">
        <bar-style>light-light</bar-style>
        </barline>
      <backup><duration>4</duration></backup><note default-x="16.50" default-y="-440.82">
        <pitch>
          <step>A</step>
          <alter>-1</alter>
          <octave>2</octave>
          </pitch>
        <duration>4</duration>
        <voice>2</voice>
        <type>half</type>
        <stem>down</stem>
        </note>
      </measure>
    <measure number="16" width="121.31">
      <note default-x="15.84" default-y="-310.82">
        <pitch>
          <step>F</step>
          <octave>3</octave>
          </pitch>
        <duration>6</duration>
        <voice>1</voice>
        <type>half</type>
        <dot/>
        <stem>up</stem>
        </note>
      <backup><duration>6</duration></backup><note default-x="15.84" default-y="-425.82">
        <pitch>
          <step>D</step>
          <alter>-1</alter>
          <octave>3</octave>
          </pitch>
        <duration>6</duration>
        <voice>2</voice>
        <type>half</type>
        <dot/>
        <stem>down</stem>
        </note>
      </measure>
    <measure number="17" width="130.82">
      <note default-x="16.50" default-y="-315.82">
        <pitch>
          <step>E</step>
          <alter>-1</alter>
          <octave>3</octave>
          </pitch>
        <duration>6</duration>
        <voice>1</voice>
        <type>half</type>
        <dot/>
        <stem>up</stem>
        </note>
      <barline location="right">
        <bar-style>light-heavy</bar-style>
        </barline>
      <backup><duration>6</duration></backup><note default-x="16.50" default-y="-440.82">
        <pitch>
          <step>A</step>
          <alter>-1</alter>
          <octave>2</octave>
          </pitch>
        <duration>6</duration>
        <voice>2</voice>
        <type>half</type>
        <dot/>
        <stem>down</stem>
        </note>
      </measure>
    </part>
  </score-partwise>