<?xml version="1.0" encoding="UTF-8"?><!DOCTYPE score-partwise PUBLIC "-//Recordare//DTD MusicXML 3.1 Partwise//EN" "http://www.musicxml.org/dtds/partwise.dtd"><score-partwise version="3.1">
  <movement-title>208장 내 주의 나라와</movement-title>
  <identification>
    <creator type="composer">A.Williams</creator>
    <creator type="poet">T.Dwight</creator>
    <encoding>
      <software>MuseScore 3.6.2</software>
      <encoding-date>2022-03-15</encoding-date>
      <supports element="accidental" type="yes"/>
      <supports element="beam" type="yes"/>
      <supports element="print" attribute="new-page" type="yes" value="yes"/>
      <supports element="print" attribute="new-system" type="yes" value="yes"/>
      <supports element="stem" type="yes"/>
      </encoding>
    </identification>
  <defaults>
    <scaling>
      <millimeters>6.99911</millimeters>
      <tenths>40</tenths>
      </scaling>
    <page-layout>
      <page-height>1697.36</page-height>
      <page-width>1200.15</page-width>
      <page-margins type="even">
        <left-margin>85.7252</left-margin>
        <right-margin>85.7252</right-margin>
        <top-margin>85.7252</top-margin>
        <bottom-margin>85.7252</bottom-margin>
        </page-margins>
      <page-margins type="odd">
        <left-margin>85.7252</left-margin>
        <right-margin>85.7252</right-margin>
        <top-margin>85.7252</top-margin>
        <bottom-margin>85.7252</bottom-margin>
        </page-margins>
      </page-layout>
    <word-font font-family="Edwin" font-size="10"/>
    <lyric-font font-family="Edwin" font-size="10"/>
    </defaults>
  <credit page="1">
    <credit-type>title</credit-type>
    <credit-words default-x="600.076" default-y="1611.63" justify="center" valign="top" font-size="22">208장 내 주의 나라와</credit-words>
    </credit>
  <credit page="1">
    <credit-type>composer</credit-type>
    <credit-words default-x="1114.43" default-y="1511.63" justify="right" valign="bottom">A.Williams</credit-words>
    </credit>
  <credit page="1">
    <credit-type>lyricist</credit-type>
    <credit-words default-x="85.7252" default-y="1511.63" justify="left" valign="bottom">T.Dwight</credit-words>
    </credit>
  <credit page="1">
    <credit-type>rights</credit-type>
    <credit-words default-x="600.076" default-y="85.7252" justify="center" valign="bottom" font-size="9">Copyright 2022 David Sung</credit-words>
    </credit>
  <part-list>
    <score-part id="P1">
      <part-name/>
      <score-instrument id="P1-I1">
        <instrument-name/>
        </score-instrument>
      <midi-device id="P1-I1" port="1"/>
      <midi-instrument id="P1-I1">
        <midi-channel>1</midi-channel>
        <midi-program>1</midi-program>
        <volume>78.7402</volume>
        <pan>0</pan>
        </midi-instrument>
      </score-part>
    <score-part id="P3">
      <part-name/>
      <score-instrument id="P3-I1">
        <instrument-name/>
        </score-instrument>
      <midi-device id="P3-I1" port="1"/>
      <midi-instrument id="P3-I1">
        <midi-channel>3</midi-channel>
        <midi-program>1</midi-program>
        <volume>78.7402</volume>
        <pan>0</pan>
        </midi-instrument>
      </score-part>
    </part-list>
  <part id="P1">
    <measure number="1" width="145.96">
      <print>
        <system-layout>
          <system-margins>
            <left-margin>50.00</left-margin>
            <right-margin>0.00</right-margin>
            </system-margins>
          <top-system-distance>170.00</top-system-distance>
          </system-layout>
        </print>
      <attributes>
        <divisions>2</divisions>
        <key>
          <fifths>1</fifths>
          <mode>major</mode>
          </key>
        <time>
          <beats>4</beats>
          <beat-type>4</beat-type>
          </time>
        <clef>
          <sign>G</sign>
          <line>2</line>
          </clef>
        </attributes>
      <direction placement="above">
        <direction-type>
          <metronome parentheses="no" default-x="-41.18" relative-y="20.00">
            <beat-unit>quarter</beat-unit>
            <per-minute>100</per-minute>
            </metronome>
          </direction-type>
        <sound tempo="100"/>
        </direction>
      <note default-x="106.75" default-y="-45.00">
        <pitch>
          <step>D</step>
          <octave>4</octave>
          </pitch>
        <duration>2</duration>
        <voice>1</voice>
        <type>quarter</type>
        <stem>up</stem>
        <lyric number="1" default-x="-14.79" default-y="-48.01" relative-y="-30.00">
          <syllabic>single</syllabic>
          <text>1.내</text>
          </lyric>
        <lyric number="2" default-x="-16.10" default-y="-69.75" relative-y="-30.00">
          <syllabic>single</syllabic>
          <text>2.내</text>
          </lyric>
        <lyric number="3" default-x="-15.97" default-y="-91.48" relative-y="-30.00">
          <syllabic>single</syllabic>
          <text>3.이</text>
          </lyric>
        <lyric number="4" default-x="-16.25" default-y="-113.22" relative-y="-30.00">
          <syllabic>single</syllabic>
          <text>4.성</text>
          </lyric>
        <lyric number="5" default-x="-15.90" default-y="-134.96" relative-y="-30.00">
          <syllabic>single</syllabic>
          <text>5.하</text>
          </lyric>
        </note>
      <backup><duration>2</duration></backup><note default-x="106.75" default-y="-250.69">
        <pitch>
          <step>B</step>
          <octave>3</octave>
          </pitch>
        <duration>2</duration>
        <voice>2</voice>
        <type>quarter</type>
        <stem>down</stem>
        </note>
      </measure>
    <measure number="2" width="172.02">
      <note default-x="15.70" default-y="-30.00">
        <pitch>
          <step>G</step>
          <octave>4</octave>
          </pitch>
        <duration>2</duration>
        <voice>1</voice>
        <type>quarter</type>
        <stem>up</stem>
        <lyric number="1" default-x="6.50" default-y="-48.01" relative-y="-30.00">
          <syllabic>single</syllabic>
          <text>주</text>
          </lyric>
        <lyric number="2" default-x="6.50" default-y="-69.75" relative-y="-30.00">
          <syllabic>single</syllabic>
          <text>주</text>
          </lyric>
        <lyric number="3" default-x="6.50" default-y="-91.48" relative-y="-30.00">
          <syllabic>single</syllabic>
          <text>교</text>
          </lyric>
        <lyric number="4" default-x="6.50" default-y="-113.22" relative-y="-30.00">
          <syllabic>single</syllabic>
          <text>도</text>
          </lyric>
        <lyric number="5" default-x="6.50" default-y="-134.96" relative-y="-30.00">
          <syllabic>single</syllabic>
          <text>늘</text>
          </lyric>
        </note>
      <note default-x="46.89" default-y="-30.00">
        <pitch>
          <step>G</step>
          <octave>4</octave>
          </pitch>
        <duration>2</duration>
        <voice>1</voice>
        <type>quarter</type>
        <stem>up</stem>
        <lyric number="1" default-x="6.50" default-y="-48.01" relative-y="-30.00">
          <syllabic>single</syllabic>
          <text>의</text>
          </lyric>
        <lyric number="2" default-x="6.50" default-y="-69.75" relative-y="-30.00">
          <syllabic>single</syllabic>
          <text>의</text>
          </lyric>
        <lyric number="3" default-x="6.50" default-y="-91.48" relative-y="-30.00">
          <syllabic>single</syllabic>
          <text>회</text>
          </lyric>
        <lyric number="4" default-x="6.50" default-y="-113.22" relative-y="-30.00">
          <syllabic>single</syllabic>
          <text>의</text>
          </lyric>
        <lyric number="5" default-x="6.50" default-y="-134.96" relative-y="-30.00">
          <syllabic>single</syllabic>
          <text>의</text>
          </lyric>
        </note>
      <note default-x="78.08" default-y="-20.00">
        <pitch>
          <step>B</step>
          <octave>4</octave>
          </pitch>
        <duration>2</duration>
        <voice>1</voice>
        <type>quarter</type>
        <stem>up</stem>
        <lyric number="1" default-x="6.50" default-y="-48.01" relative-y="-30.00">
          <syllabic>single</syllabic>
          <text>나</text>
          </lyric>
        <lyric number="2" default-x="6.50" default-y="-69.75" relative-y="-30.00">
          <syllabic>single</syllabic>
          <text>교</text>
          </lyric>
        <lyric number="3" default-x="6.50" default-y="-91.48" relative-y="-30.00">
          <syllabic>single</syllabic>
          <text>위</text>
          </lyric>
        <lyric number="4" default-x="6.50" default-y="-113.22" relative-y="-30.00">
          <syllabic>single</syllabic>
          <text>교</text>
          </lyric>
        <lyric number="5" default-x="6.50" default-y="-134.96" relative-y="-30.00">
          <syllabic>single</syllabic>
          <text>영</text>
          </lyric>
        </note>
      <note default-x="109.27" default-y="-25.00">
        <pitch>
          <step>A</step>
          <octave>4</octave>
          </pitch>
        <duration>1</duration>
        <voice>1</voice>
        <type>eighth</type>
        <stem>up</stem>
        <beam number="1">begin</beam>
        <lyric number="1" default-x="6.50" default-y="-48.01" relative-y="-30.00">
          <syllabic>single</syllabic>
          <text>라</text>
          </lyric>
        <lyric number="2" default-x="6.50" default-y="-69.75" relative-y="-30.00">
          <syllabic>single</syllabic>
          <text>회</text>
          </lyric>
        <lyric number="3" default-x="6.50" default-y="-91.48" relative-y="-30.00">
          <syllabic>single</syllabic>
          <text>하</text>
          </lyric>
        <lyric number="4" default-x="6.50" default-y="-113.22" relative-y="-30.00">
          <syllabic>single</syllabic>
          <text>제</text>
          </lyric>
        <lyric number="5" default-x="6.50" default-y="-134.96" relative-y="-30.00">
          <syllabic>single</syllabic>
          <text>광</text>
          </lyric>
        </note>
      <note default-x="142.22" default-y="-30.00">
        <pitch>
          <step>G</step>
          <octave>4</octave>
          </pitch>
        <duration>1</duration>
        <voice>1</voice>
        <type>eighth</type>
        <stem>up</stem>
        <beam number="1">end</beam>
        </note>
      <backup><duration>8</duration></backup><note default-x="15.70" default-y="-240.69">
        <pitch>
          <step>D</step>
          <octave>4</octave>
          </pitch>
        <duration>2</duration>
        <voice>2</voice>
        <type>quarter</type>
        <stem>down</stem>
        </note>
      <note default-x="46.89" default-y="-240.69">
        <pitch>
          <step>D</step>
          <octave>4</octave>
          </pitch>
        <duration>2</duration>
        <voice>2</voice>
        <type>quarter</type>
        <stem>down</stem>
        </note>
      <note default-x="78.08" default-y="-240.69">
        <pitch>
          <step>D</step>
          <octave>4</octave>
          </pitch>
        <duration>2</duration>
        <voice>2</voice>
        <type>quarter</type>
        <stem>down</stem>
        </note>
      <note default-x="109.27" default-y="-240.69">
        <pitch>
          <step>D</step>
          <octave>4</octave>
          </pitch>
        <duration>1</duration>
        <voice>2</voice>
        <type>eighth</type>
        <stem>down</stem>
        <beam number="1">begin</beam>
        </note>
      <note default-x="142.22" default-y="-245.69">
        <pitch>
          <step>C</step>
          <alter>1</alter>
          <octave>4</octave>
          </pitch>
        <duration>1</duration>
        <voice>2</voice>
        <type>eighth</type>
        <accidental>sharp</accidental>
        <stem>down</stem>
        <beam number="1">end</beam>
        </note>
      </measure>
    <measure number="3" width="107.65">
      <note default-x="16.17" default-y="-25.00">
        <pitch>
          <step>A</step>
          <octave>4</octave>
          </pitch>
        <duration>6</duration>
        <voice>1</voice>
        <type>half</type>
        <dot/>
        <stem>up</stem>
        <lyric number="1" default-x="6.50" default-y="-48.01" relative-y="-30.00">
          <syllabic>single</syllabic>
          <text>와</text>
          </lyric>
        <lyric number="2" default-x="6.50" default-y="-69.75" relative-y="-30.00">
          <syllabic>single</syllabic>
          <text>는</text>
          </lyric>
        <lyric number="3" default-x="6.50" default-y="-91.48" relative-y="-30.00">
          <syllabic>single</syllabic>
          <text>여</text>
          </lyric>
        <lyric number="4" default-x="6.50" default-y="-113.22" relative-y="-30.00">
          <syllabic>single</syllabic>
          <text>와</text>
          </lyric>
        <lyric number="5" default-x="6.50" default-y="-134.96" relative-y="-30.00">
          <syllabic>single</syllabic>
          <text>과</text>
          </lyric>
        </note>
      <note default-x="60.49" default-y="-20.00">
        <pitch>
          <step>B</step>
          <octave>4</octave>
          </pitch>
        <duration>1</duration>
        <voice>1</voice>
        <type>eighth</type>
        <stem>up</stem>
        <beam number="1">begin</beam>
        <lyric number="1" default-x="6.50" default-y="-48.01" relative-y="-30.00">
          <syllabic>single</syllabic>
          <text>주</text>
          </lyric>
        <lyric number="2" default-x="6.50" default-y="-69.75" relative-y="-30.00">
          <syllabic>single</syllabic>
          <text>천</text>
          </lyric>
        <lyric number="3" default-x="6.50" default-y="-91.48" relative-y="-30.00">
          <syllabic>single</syllabic>
          <text>눈</text>
          </lyric>
        <lyric number="4" default-x="6.50" default-y="-113.22" relative-y="-30.00">
          <syllabic>single</syllabic>
          <text>교</text>
          </lyric>
        <lyric number="5" default-x="6.50" default-y="-134.96" relative-y="-30.00">
          <syllabic>single</syllabic>
          <text>베</text>
          </lyric>
        </note>
      <note default-x="77.86" default-y="-15.00">
        <pitch>
          <step>C</step>
          <octave>5</octave>
          </pitch>
        <duration>1</duration>
        <voice>1</voice>
        <type>eighth</type>
        <stem>up</stem>
        <beam number="1">end</beam>
        </note>
      <backup><duration>8</duration></backup><note default-x="16.17" default-y="-240.69">
        <pitch>
          <step>D</step>
          <octave>4</octave>
          </pitch>
        <duration>6</duration>
        <voice>2</voice>
        <type>half</type>
        <dot/>
        <stem>down</stem>
        </note>
      <note default-x="60.49" default-y="-240.69">
        <pitch>
          <step>D</step>
          <octave>4</octave>
          </pitch>
        <duration>2</duration>
        <voice>2</voice>
        <type>quarter</type>
        <stem>down</stem>
        </note>
      </measure>
    <measure number="4" width="179.79">
      <note default-x="16.50" default-y="-10.00">
        <pitch>
          <step>D</step>
          <octave>5</octave>
          </pitch>
        <duration>2</duration>
        <voice>1</voice>
        <type>quarter</type>
        <stem>up</stem>
        <lyric number="1" default-x="6.50" default-y="-48.01" relative-y="-30.00">
          <syllabic>single</syllabic>
          <text>계</text>
          </lyric>
        <lyric number="2" default-x="6.50" default-y="-69.75" relative-y="-30.00">
          <syllabic>single</syllabic>
          <text>성</text>
          </lyric>
        <lyric number="3" default-x="6.50" default-y="-91.48" relative-y="-30.00">
          <syllabic>single</syllabic>
          <text>물</text>
          </lyric>
        <lyric number="4" default-x="6.50" default-y="-113.22" relative-y="-30.00">
          <syllabic>single</syllabic>
          <text>회</text>
          </lyric>
        <lyric number="5" default-x="6.50" default-y="-134.96" relative-y="-30.00">
          <syllabic>single</syllabic>
          <text>푸</text>
          </lyric>
        </note>
      <note default-x="52.39" default-y="-15.00">
        <pitch>
          <step>C</step>
          <octave>5</octave>
          </pitch>
        <duration>1</duration>
        <voice>1</voice>
        <type>eighth</type>
        <stem>up</stem>
        <beam number="1">begin</beam>
        <lyric number="1" default-x="6.50" default-y="-48.01" relative-y="-30.00">
          <syllabic>single</syllabic>
          <text>신</text>
          </lyric>
        <lyric number="2" default-x="6.50" default-y="-69.75" relative-y="-30.00">
          <syllabic>single</syllabic>
          <text>과</text>
          </lyric>
        <lyric number="3" default-x="6.50" default-y="-91.48" relative-y="-30.00">
          <syllabic>single</syllabic>
          <text>과</text>
          </lyric>
        <lyric number="4" default-x="6.50" default-y="-113.22" relative-y="-30.00">
          <syllabic>single</syllabic>
          <text>의</text>
          </lyric>
        <lyric number="5" default-x="6.50" default-y="-134.96" relative-y="-30.00">
          <syllabic>single</syllabic>
          <text>신</text>
          </lyric>
        </note>
      <note default-x="74.82" default-y="-20.00">
        <pitch>
          <step>B</step>
          <octave>4</octave>
          </pitch>
        <duration>1</duration>
        <voice>1</voice>
        <type>eighth</type>
        <stem>up</stem>
        <beam number="1">end</beam>
        </note>
      <note default-x="97.25" default-y="-15.00">
        <pitch>
          <step>C</step>
          <octave>5</octave>
          </pitch>
        <duration>2</duration>
        <voice>1</voice>
        <type>quarter</type>
        <stem>up</stem>
        <lyric number="1" default-x="6.50" default-y="-48.01" relative-y="-30.00">
          <syllabic>single</syllabic>
          <text>성</text>
          </lyric>
        <lyric number="2" default-x="6.50" default-y="-69.75" relative-y="-30.00">
          <syllabic>single</syllabic>
          <text>같</text>
          </lyric>
        <lyric number="3" default-x="6.50" default-y="-91.48" relative-y="-30.00">
          <syllabic>single</syllabic>
          <text>기</text>
          </lyric>
        <lyric number="4" default-x="6.50" default-y="-113.22" relative-y="-30.00">
          <syllabic>single</syllabic>
          <text>위</text>
          </lyric>
        <lyric number="5" default-x="6.50" default-y="-134.96" relative-y="-30.00">
          <syllabic>single</syllabic>
          <text>은</text>
          </lyric>
        </note>
      <note default-x="142.10" default-y="-20.00">
        <pitch>
          <step>B</step>
          <octave>4</octave>
          </pitch>
        <duration>2</duration>
        <voice>1</voice>
        <type>quarter</type>
        <stem>up</stem>
        <lyric number="1" default-x="6.50" default-y="-48.01" relative-y="-30.00">
          <syllabic>single</syllabic>
          <text>전</text>
          </lyric>
        <lyric number="2" default-x="6.50" default-y="-69.75" relative-y="-30.00">
          <syllabic>single</syllabic>
          <text>아</text>
          </lyric>
        <lyric number="3" default-x="6.50" default-y="-91.48" relative-y="-30.00">
          <syllabic>single</syllabic>
          <text>도</text>
          </lyric>
        <lyric number="4" default-x="6.50" default-y="-113.22" relative-y="-30.00">
          <syllabic>single</syllabic>
          <text>로</text>
          </lyric>
        <lyric number="5" default-x="6.50" default-y="-134.96" relative-y="-30.00">
          <syllabic>single</syllabic>
          <text>혜</text>
          </lyric>
        </note>
      <backup><duration>8</duration></backup><note default-x="16.50" default-y="-225.69">
        <pitch>
          <step>G</step>
          <octave>4</octave>
          </pitch>
        <duration>2</duration>
        <voice>2</voice>
        <type>quarter</type>
        <stem>down</stem>
        </note>
      <note default-x="52.39" default-y="-230.69">
        <pitch>
          <step>F</step>
          <alter>1</alter>
          <octave>4</octave>
          </pitch>
        <duration>1</duration>
        <voice>2</voice>
        <type>eighth</type>
        <stem>down</stem>
        <beam number="1">begin</beam>
        </note>
      <note default-x="74.82" default-y="-225.69">
        <pitch>
          <step>G</step>
          <octave>4</octave>
          </pitch>
        <duration>1</duration>
        <voice>2</voice>
        <type>eighth</type>
        <stem>down</stem>
        <beam number="1">end</beam>
        </note>
      <note default-x="97.25" default-y="-235.69">
        <pitch>
          <step>E</step>
          <octave>4</octave>
          </pitch>
        <duration>1</duration>
        <voice>2</voice>
        <type>eighth</type>
        <stem>down</stem>
        <beam number="1">begin</beam>
        </note>
      <note default-x="119.68" default-y="-230.69">
        <pitch>
          <step>F</step>
          <alter>1</alter>
          <octave>4</octave>
          </pitch>
        <duration>1</duration>
        <voice>2</voice>
        <type>eighth</type>
        <stem>down</stem>
        <beam number="1">end</beam>
        </note>
      <note default-x="142.10" default-y="-225.69">
        <pitch>
          <step>G</step>
          <octave>4</octave>
          </pitch>
        <duration>2</duration>
        <voice>2</voice>
        <type>quarter</type>
        <stem>down</stem>
        </note>
      </measure>
    <measure number="5" width="93.23">
      <note default-x="16.50" default-y="-25.00">
        <pitch>
          <step>A</step>
          <octave>4</octave>
          </pitch>
        <duration>6</duration>
        <voice>1</voice>
        <type>half</type>
        <dot/>
        <stem>up</stem>
        <lyric number="1" default-x="6.50" default-y="-48.01" relative-y="-30.00">
          <syllabic>single</syllabic>
          <text>과</text>
          </lyric>
        <lyric number="2" default-x="6.50" default-y="-69.75" relative-y="-30.00">
          <syllabic>single</syllabic>
          <text>서</text>
          </lyric>
        <lyric number="3" default-x="6.50" default-y="-91.48" relative-y="-30.00">
          <syllabic>single</syllabic>
          <text>로</text>
          </lyric>
        <lyric number="4" default-x="6.50" default-y="-113.22" relative-y="-30.00">
          <syllabic>single</syllabic>
          <text>와</text>
          </lyric>
        <lyric number="5" default-x="6.50" default-y="-134.96" relative-y="-30.00">
          <syllabic>single</syllabic>
          <text>가</text>
          </lyric>
        </note>
      <note default-x="60.73" default-y="-10.00">
        <pitch>
          <step>D</step>
          <octave>5</octave>
          </pitch>
        <duration>2</duration>
        <voice>1</voice>
        <type>quarter</type>
        <stem>up</stem>
        <lyric number="1" default-x="6.50" default-y="-48.01" relative-y="-30.00">
          <syllabic>single</syllabic>
          <text>피</text>
          </lyric>
        <lyric number="2" default-x="6.50" default-y="-69.75" relative-y="-30.00">
          <syllabic>single</syllabic>
          <text>눈</text>
          </lyric>
        <lyric number="3" default-x="6.50" default-y="-91.48" relative-y="-30.00">
          <syllabic>single</syllabic>
          <text>내</text>
          </lyric>
        <lyric number="4" default-x="6.50" default-y="-113.22" relative-y="-30.00">
          <syllabic>single</syllabic>
          <text>구</text>
          </lyric>
        <lyric number="5" default-x="6.50" default-y="-134.96" relative-y="-30.00">
          <syllabic>single</syllabic>
          <text>진</text>
          </lyric>
        </note>
      <backup><duration>8</duration></backup><note default-x="16.50" default-y="-230.69">
        <pitch>
          <step>F</step>
          <alter>1</alter>
          <octave>4</octave>
          </pitch>
        <duration>6</duration>
        <voice>2</voice>
        <type>half</type>
        <dot/>
        <stem>down</stem>
        </note>
      <note default-x="60.73" default-y="-240.69">
        <pitch>
          <step>D</step>
          <octave>4</octave>
          </pitch>
        <duration>2</duration>
        <voice>2</voice>
        <type>quarter</type>
        <stem>down</stem>
        </note>
      </measure>
    <measure number="6" width="140.05">
      <note default-x="15.70" default-y="-20.00">
        <pitch>
          <step>B</step>
          <octave>4</octave>
          </pitch>
        <duration>2</duration>
        <voice>1</voice>
        <type>quarter</type>
        <stem>up</stem>
        <lyric number="1" default-x="6.50" default-y="-48.01" relative-y="-30.00">
          <syllabic>single</syllabic>
          <text>흘</text>
          </lyric>
        <lyric number="2" default-x="6.50" default-y="-69.75" relative-y="-30.00">
          <syllabic>single</syllabic>
          <text>동</text>
          </lyric>
        <lyric number="3" default-x="6.50" default-y="-91.48" relative-y="-30.00">
          <syllabic>single</syllabic>
          <text>생</text>
          </lyric>
        <lyric number="4" default-x="6.50" default-y="-113.22" relative-y="-30.00">
          <syllabic>single</syllabic>
          <text>주</text>
          </lyric>
        <lyric number="5" default-x="6.50" default-y="-134.96" relative-y="-30.00">
          <syllabic>single</syllabic>
          <text>리</text>
          </lyric>
        </note>
      <note default-x="46.22" default-y="-30.00">
        <pitch>
          <step>G</step>
          <octave>4</octave>
          </pitch>
        <duration>2</duration>
        <voice>1</voice>
        <type>quarter</type>
        <stem>up</stem>
        <lyric number="1" default-x="6.50" default-y="-48.01" relative-y="-30.00">
          <syllabic>single</syllabic>
          <text>려</text>
          </lyric>
        <lyric number="2" default-x="6.50" default-y="-69.75" relative-y="-30.00">
          <syllabic>single</syllabic>
          <text>자</text>
          </lyric>
        <lyric number="3" default-x="6.50" default-y="-91.48" relative-y="-30.00">
          <syllabic>single</syllabic>
          <text>명</text>
          </lyric>
        <lyric number="4" default-x="6.50" default-y="-113.22" relative-y="-30.00">
          <syllabic>single</syllabic>
          <text>와</text>
          </lyric>
        <lyric number="5" default-x="6.50" default-y="-134.96" relative-y="-30.00">
          <syllabic>single</syllabic>
          <text>와</text>
          </lyric>
        </note>
      <note default-x="76.74" default-y="-25.00">
        <pitch>
          <step>A</step>
          <octave>4</octave>
          </pitch>
        <duration>2</duration>
        <voice>1</voice>
        <type>quarter</type>
        <stem>up</stem>
        <lyric number="1" default-x="6.50" default-y="-48.01" relative-y="-30.00">
          <syllabic>single</syllabic>
          <text>사</text>
          </lyric>
        <lyric number="2" default-x="6.50" default-y="-69.75" relative-y="-30.00">
          <syllabic>single</syllabic>
          <text>같</text>
          </lyric>
        <lyric number="3" default-x="6.50" default-y="-91.48" relative-y="-30.00">
          <syllabic>single</syllabic>
          <text>다</text>
          </lyric>
        <lyric number="4" default-x="6.50" default-y="-113.22" relative-y="-30.00">
          <syllabic>single</syllabic>
          <text>맺</text>
          </lyric>
        <lyric number="5" default-x="6.50" default-y="-134.96" relative-y="-30.00">
          <syllabic>single</syllabic>
          <text>함</text>
          </lyric>
        </note>
      <note default-x="107.25" default-y="-45.00">
        <pitch>
          <step>D</step>
          <octave>4</octave>
          </pitch>
        <duration>2</duration>
        <voice>1</voice>
        <type>quarter</type>
        <stem>up</stem>
        <lyric number="1" default-x="6.50" default-y="-48.01" relative-y="-30.00">
          <syllabic>single</syllabic>
          <text>신</text>
          </lyric>
        <lyric number="2" default-x="6.50" default-y="-69.75" relative-y="-30.00">
          <syllabic>single</syllabic>
          <text>이</text>
          </lyric>
        <lyric number="3" default-x="6.50" default-y="-91.48" relative-y="-30.00">
          <syllabic>single</syllabic>
          <text>하</text>
          </lyric>
        <lyric number="4" default-x="6.50" default-y="-113.22" relative-y="-30.00">
          <syllabic>single</syllabic>
          <text>은</text>
          </lyric>
        <lyric number="5" default-x="6.50" default-y="-134.96" relative-y="-30.00">
          <syllabic>single</syllabic>
          <text>께</text>
          </lyric>
        </note>
      <backup><duration>8</duration></backup><note default-x="15.70" default-y="-240.69">
        <pitch>
          <step>D</step>
          <octave>4</octave>
          </pitch>
        <duration>2</duration>
        <voice>2</voice>
        <type>quarter</type>
        <stem>down</stem>
        </note>
      <note default-x="46.22" default-y="-240.69">
        <pitch>
          <step>D</step>
          <octave>4</octave>
          </pitch>
        <duration>2</duration>
        <voice>2</voice>
        <type>quarter</type>
        <stem>down</stem>
        </note>
      <note default-x="76.74" default-y="-240.69">
        <pitch>
          <step>D</step>
          <octave>4</octave>
          </pitch>
        <duration>2</duration>
        <voice>2</voice>
        <type>quarter</type>
        <stem>down</stem>
        </note>
      <note default-x="107.25" default-y="-240.69">
        <pitch>
          <step>D</step>
          <octave>4</octave>
          </pitch>
        <duration>2</duration>
        <voice>2</voice>
        <type>quarter</type>
        <stem>down</stem>
        </note>
      </measure>
    <measure number="7" width="140.00">
      <note default-x="15.84" default-y="-30.00">
        <pitch>
          <step>G</step>
          <octave>4</octave>
          </pitch>
        <duration>2</duration>
        <voice>1</voice>
        <type>quarter</type>
        <stem>up</stem>
        <lyric number="1" default-x="6.50" default-y="-48.01" relative-y="-30.00">
          <syllabic>single</syllabic>
          <text>교</text>
          </lyric>
        <lyric number="2" default-x="6.50" default-y="-69.75" relative-y="-30.00">
          <syllabic>single</syllabic>
          <text>아</text>
          </lyric>
        <lyric number="3" default-x="6.50" default-y="-91.48" relative-y="-30.00">
          <syllabic>single</syllabic>
          <text>기</text>
          </lyric>
        <lyric number="4" default-x="6.50" default-y="-113.22" relative-y="-30.00">
          <syllabic>single</syllabic>
          <text>언</text>
          </lyric>
        <lyric number="5" default-x="6.50" default-y="-134.96" relative-y="-30.00">
          <syllabic>single</syllabic>
          <text>영</text>
          </lyric>
        </note>
      <note default-x="46.40" default-y="-20.00">
        <pitch>
          <step>B</step>
          <octave>4</octave>
          </pitch>
        <duration>2</duration>
        <voice>1</voice>
        <type>quarter</type>
        <stem>up</stem>
        <lyric number="1" default-x="6.50" default-y="-48.01" relative-y="-30.00">
          <syllabic>single</syllabic>
          <text>회</text>
          </lyric>
        <lyric number="2" default-x="6.50" default-y="-69.75" relative-y="-30.00">
          <syllabic>single</syllabic>
          <text>끼</text>
          </lyric>
        <lyric number="3" default-x="6.50" default-y="-91.48" relative-y="-30.00">
          <syllabic>single</syllabic>
          <text>까</text>
          </lyric>
        <lyric number="4" default-x="6.50" default-y="-113.22" relative-y="-30.00">
          <syllabic>single</syllabic>
          <text>약</text>
          </lyric>
        <lyric number="5" default-x="6.50" default-y="-134.96" relative-y="-30.00">
          <syllabic>single</syllabic>
          <text>원</text>
          </lyric>
        </note>
      <note default-x="76.95" default-y="-10.00">
        <pitch>
          <step>D</step>
          <octave>5</octave>
          </pitch>
        <duration>2</duration>
        <voice>1</voice>
        <type>quarter</type>
        <stem>up</stem>
        <lyric number="1" default-x="6.50" default-y="-48.01" relative-y="-30.00">
          <syllabic>single</syllabic>
          <text>를</text>
          </lyric>
        <lyric number="2" default-x="6.50" default-y="-69.75" relative-y="-30.00">
          <syllabic>single</syllabic>
          <text>사</text>
          </lyric>
        <lyric number="3" default-x="6.50" default-y="-91.48" relative-y="-30.00">
          <syllabic>single</syllabic>
          <text>지</text>
          </lyric>
        <lyric number="4" default-x="6.50" default-y="-113.22" relative-y="-30.00">
          <syllabic>single</syllabic>
          <text>을</text>
          </lyric>
        <lyric number="5" default-x="6.50" default-y="-134.96" relative-y="-30.00">
          <syllabic>single</syllabic>
          <text>히</text>
          </lyric>
        </note>
      <note default-x="107.50" default-y="-10.00">
        <pitch>
          <step>D</step>
          <octave>5</octave>
          </pitch>
        <duration>2</duration>
        <voice>1</voice>
        <type>quarter</type>
        <stem>up</stem>
        <lyric number="1" default-x="6.50" default-y="-48.01" relative-y="-30.00">
          <syllabic>single</syllabic>
          <text>늘</text>
          </lyric>
        <lyric number="2" default-x="6.50" default-y="-69.75" relative-y="-30.00">
          <syllabic>single</syllabic>
          <text>늘</text>
          </lyric>
        <lyric number="3" default-x="6.50" default-y="-91.48" relative-y="-30.00">
          <syllabic>single</syllabic>
          <text>늘</text>
          </lyric>
        <lyric number="4" default-x="6.50" default-y="-113.22" relative-y="-30.00">
          <syllabic>single</syllabic>
          <text>늘</text>
          </lyric>
        <lyric number="5" default-x="6.50" default-y="-134.96" relative-y="-30.00">
          <syllabic>single</syllabic>
          <text>시</text>
          </lyric>
        </note>
      <backup><duration>8</duration></backup><note default-x="15.84" default-y="-240.69">
        <pitch>
          <step>D</step>
          <octave>4</octave>
          </pitch>
        <duration>2</duration>
        <voice>2</voice>
        <type>quarter</type>
        <stem>down</stem>
        </note>
      <note default-x="46.40" default-y="-225.69">
        <pitch>
          <step>G</step>
          <octave>4</octave>
          </pitch>
        <duration>2</duration>
        <voice>2</voice>
        <type>quarter</type>
        <stem>down</stem>
        </note>
      <note default-x="76.95" default-y="-230.69">
        <pitch>
          <step>F</step>
          <alter>1</alter>
          <octave>4</octave>
          </pitch>
        <duration>2</duration>
        <voice>2</voice>
        <type>quarter</type>
        <stem>down</stem>
        </note>
      <note default-x="107.50" default-y="-225.69">
        <pitch>
          <step>G</step>
          <octave>4</octave>
          </pitch>
        <duration>2</duration>
        <voice>2</voice>
        <type>quarter</type>
        <stem>down</stem>
        </note>
      </measure>
    <measure number="8" width="461.52">
      <print new-system="yes">
        <system-layout>
          <system-margins>
            <left-margin>0.00</left-margin>
            <right-margin>0.00</right-margin>
            </system-margins>
          <system-distance>150.00</system-distance>
          </system-layout>
        </print>
      <note default-x="81.12" default-y="-5.00">
        <pitch>
          <step>E</step>
          <octave>5</octave>
          </pitch>
        <duration>2</duration>
        <voice>1</voice>
        <type>quarter</type>
        <stem>up</stem>
        <lyric number="1" default-x="6.50" default-y="-48.01" relative-y="-30.00">
          <syllabic>single</syllabic>
          <text>사</text>
          </lyric>
        <lyric number="2" default-x="6.50" default-y="-69.75" relative-y="-30.00">
          <syllabic>single</syllabic>
          <text>보</text>
          </lyric>
        <lyric number="3" default-x="6.50" default-y="-91.48" relative-y="-30.00">
          <syllabic>single</syllabic>
          <text>봉</text>
          </lyric>
        <lyric number="4" default-x="6.50" default-y="-113.22" relative-y="-30.00">
          <syllabic>single</syllabic>
          <text>기</text>
          </lyric>
        <lyric number="5" default-x="6.50" default-y="-134.96" relative-y="-30.00">
          <syllabic>single</syllabic>
          <text>온</text>
          </lyric>
        </note>
      <note default-x="170.20" default-y="-10.00">
        <pitch>
          <step>D</step>
          <octave>5</octave>
          </pitch>
        <duration>1</duration>
        <voice>1</voice>
        <type>eighth</type>
        <stem>up</stem>
        <beam number="1">begin</beam>
        <lyric number="1" default-x="6.50" default-y="-48.01" relative-y="-30.00">
          <syllabic>single</syllabic>
          <text>랑</text>
          </lyric>
        <lyric number="2" default-x="6.50" default-y="-69.75" relative-y="-30.00">
          <syllabic>single</syllabic>
          <text>호</text>
          </lyric>
        <lyric number="3" default-x="6.50" default-y="-91.48" relative-y="-30.00">
          <syllabic>single</syllabic>
          <text>사</text>
          </lyric>
        <lyric number="4" default-x="6.50" default-y="-113.22" relative-y="-30.00">
          <syllabic>single</syllabic>
          <text>뻐</text>
          </lyric>
        <lyric number="5" default-x="6.50" default-y="-134.96" relative-y="-30.00">
          <syllabic>single</syllabic>
          <text>에</text>
          </lyric>
        </note>
      <note default-x="225.88" default-y="-15.00">
        <pitch>
          <step>C</step>
          <octave>5</octave>
          </pitch>
        <duration>1</duration>
        <voice>1</voice>
        <type>eighth</type>
        <stem>up</stem>
        <beam number="1">end</beam>
        </note>
      <note default-x="281.55" default-y="-20.00">
        <pitch>
          <step>B</step>
          <octave>4</octave>
          </pitch>
        <duration>2</duration>
        <voice>1</voice>
        <type>quarter</type>
        <stem>up</stem>
        <lyric number="1" default-x="6.50" default-y="-48.01" relative-y="-30.00">
          <syllabic>single</syllabic>
          <text>합</text>
          </lyric>
        <lyric number="2" default-x="6.50" default-y="-69.75" relative-y="-30.00">
          <syllabic>single</syllabic>
          <text>하</text>
          </lyric>
        <lyric number="3" default-x="6.50" default-y="-91.48" relative-y="-30.00">
          <syllabic>single</syllabic>
          <text>합</text>
          </lyric>
        <lyric number="4" default-x="6.50" default-y="-113.22" relative-y="-30.00">
          <syllabic>single</syllabic>
          <text>합</text>
          </lyric>
        <lyric number="5" default-x="6.50" default-y="-134.96" relative-y="-30.00">
          <syllabic>single</syllabic>
          <text>넘</text>
          </lyric>
        </note>
      <note default-x="370.64" default-y="-25.00">
        <pitch>
          <step>A</step>
          <octave>4</octave>
          </pitch>
        <duration>2</duration>
        <voice>1</voice>
        <type>quarter</type>
        <stem>up</stem>
        <lyric number="1" default-x="6.50" default-y="-48.01" relative-y="-30.00">
          <syllabic>single</syllabic>
          <text>니</text>
          </lyric>
        <lyric number="2" default-x="6.50" default-y="-69.75" relative-y="-30.00">
          <syllabic>single</syllabic>
          <text>시</text>
          </lyric>
        <lyric number="3" default-x="6.50" default-y="-91.48" relative-y="-30.00">
          <syllabic>single</syllabic>
          <text>니</text>
          </lyric>
        <lyric number="4" default-x="6.50" default-y="-113.22" relative-y="-30.00">
          <syllabic>single</syllabic>
          <text>니</text>
          </lyric>
        <lyric number="5" default-x="6.50" default-y="-134.96" relative-y="-30.00">
          <syllabic>single</syllabic>
          <text>치</text>
          </lyric>
        </note>
      <backup><duration>8</duration></backup><note default-x="81.12" default-y="-225.67">
        <pitch>
          <step>G</step>
          <octave>4</octave>
          </pitch>
        <duration>2</duration>
        <voice>2</voice>
        <type>quarter</type>
        <stem>down</stem>
        </note>
      <note default-x="170.20" default-y="-225.67">
        <pitch>
          <step>G</step>
          <octave>4</octave>
          </pitch>
        <duration>2</duration>
        <voice>2</voice>
        <type>quarter</type>
        <stem>down</stem>
        </note>
      <note default-x="281.55" default-y="-225.67">
        <pitch>
          <step>G</step>
          <octave>4</octave>
          </pitch>
        <duration>2</duration>
        <voice>2</voice>
        <type>quarter</type>
        <stem>down</stem>
        </note>
      <note default-x="370.64" default-y="-230.67">
        <pitch>
          <step>F</step>
          <alter>1</alter>
          <octave>4</octave>
          </pitch>
        <duration>2</duration>
        <voice>2</voice>
        <type>quarter</type>
        <stem>down</stem>
        </note>
      </measure>
    <measure number="9" width="243.19">
      <note default-x="15.63" default-y="-30.00">
        <pitch>
          <step>G</step>
          <octave>4</octave>
          </pitch>
        <duration>6</duration>
        <voice>1</voice>
        <type>half</type>
        <dot/>
        <stem>up</stem>
        <lyric number="1" default-x="6.50" default-y="-48.01" relative-y="-30.00">
          <syllabic>single</syllabic>
          <text>다</text>
          </lyric>
        <lyric number="2" default-x="6.50" default-y="-69.75" relative-y="-30.00">
          <syllabic>single</syllabic>
          <text>네</text>
          </lyric>
        <lyric number="3" default-x="6.50" default-y="-91.48" relative-y="-30.00">
          <syllabic>single</syllabic>
          <text>다</text>
          </lyric>
        <lyric number="4" default-x="6.50" default-y="-113.22" relative-y="-30.00">
          <syllabic>single</syllabic>
          <text>다</text>
          </lyric>
        <lyric number="5" default-x="6.50" default-y="-134.96" relative-y="-30.00">
          <syllabic>single</syllabic>
          <text>네</text>
          </lyric>
        </note>
      <barline location="right">
        <bar-style>light-light</bar-style>
        </barline>
      <backup><duration>6</duration></backup><note default-x="15.63" default-y="-225.67">
        <pitch>
          <step>G</step>
          <octave>4</octave>
          </pitch>
        <duration>6</duration>
        <voice>2</voice>
        <type>half</type>
        <dot/>
        <stem>down</stem>
        </note>
      </measure>
    <measure number="10" width="323.99">
      <note default-x="16.50" default-y="-30.00">
        <pitch>
          <step>G</step>
          <octave>4</octave>
          </pitch>
        <duration>4</duration>
        <voice>1</voice>
        <type>half</type>
        <stem>up</stem>
        <lyric number="5" default-x="6.50" default-y="-134.96" relative-y="-30.00">
          <syllabic>single</syllabic>
          <text>아</text>
          </lyric>
        </note>
      <note default-x="164.92" default-y="-30.00">
        <pitch>
          <step>G</step>
          <octave>4</octave>
          </pitch>
        <duration>4</duration>
        <voice>1</voice>
        <type>half</type>
        <stem>up</stem>
        <lyric number="5" default-x="6.50" default-y="-134.96" relative-y="-30.00">
          <syllabic>single</syllabic>
          <text>멘</text>
          </lyric>
        </note>
      <barline location="right">
        <bar-style>light-heavy</bar-style>
        </barline>
      <backup><duration>8</duration></backup><note default-x="16.50" default-y="-235.67">
        <pitch>
          <step>E</step>
          <octave>4</octave>
          </pitch>
        <duration>4</duration>
        <voice>2</voice>
        <type>half</type>
        <stem>down</stem>
        </note>
      <note default-x="164.92" default-y="-240.67">
        <pitch>
          <step>D</step>
          <octave>4</octave>
          </pitch>
        <duration>4</duration>
        <voice>2</voice>
        <type>half</type>
        <stem>down</stem>
        </note>
      </measure>
    </part>
  <part id="P3">
    <measure number="1" width="145.96">
      <print>
        <staff-layout number="1">
          <staff-distance>65.00</staff-distance>
          </staff-layout>
        </print>
      <attributes>
        <divisions>2</divisions>
        <key>
          <fifths>1</fifths>
          <mode>major</mode>
          </key>
        <time>
          <beats>4</beats>
          <beat-type>4</beat-type>
          </time>
        <clef>
          <sign>F</sign>
          <line>4</line>
          </clef>
        </attributes>
      <note default-x="106.75" default-y="-305.69">
        <pitch>
          <step>G</step>
          <octave>3</octave>
          </pitch>
        <duration>2</duration>
        <voice>1</voice>
        <type>quarter</type>
        <stem>up</stem>
        </note>
      <backup><duration>2</duration></backup><note default-x="106.75" default-y="-445.69">
        <pitch>
          <step>G</step>
          <octave>2</octave>
          </pitch>
        <duration>2</duration>
        <voice>2</voice>
        <type>quarter</type>
        <stem>down</stem>
        </note>
      </measure>
    <measure number="2" width="172.02">
      <note default-x="15.70" default-y="-305.69">
        <pitch>
          <step>G</step>
          <octave>3</octave>
          </pitch>
        <duration>2</duration>
        <voice>1</voice>
        <type>quarter</type>
        <stem>up</stem>
        </note>
      <note default-x="46.89" default-y="-295.69">
        <pitch>
          <step>B</step>
          <octave>3</octave>
          </pitch>
        <duration>2</duration>
        <voice>1</voice>
        <type>quarter</type>
        <stem>up</stem>
        </note>
      <note default-x="78.08" default-y="-305.69">
        <pitch>
          <step>G</step>
          <octave>3</octave>
          </pitch>
        <duration>2</duration>
        <voice>1</voice>
        <type>quarter</type>
        <stem>up</stem>
        </note>
      <note default-x="109.27" default-y="-300.69">
        <pitch>
          <step>A</step>
          <octave>3</octave>
          </pitch>
        <duration>2</duration>
        <voice>1</voice>
        <type>quarter</type>
        <stem>up</stem>
        </note>
      <backup><duration>8</duration></backup><note default-x="15.70" default-y="-435.69">
        <pitch>
          <step>B</step>
          <octave>2</octave>
          </pitch>
        <duration>2</duration>
        <voice>2</voice>
        <type>quarter</type>
        <stem>down</stem>
        </note>
      <note default-x="46.89" default-y="-445.69">
        <pitch>
          <step>G</step>
          <octave>2</octave>
          </pitch>
        <duration>2</duration>
        <voice>2</voice>
        <type>quarter</type>
        <stem>down</stem>
        </note>
      <note default-x="78.08" default-y="-410.69">
        <pitch>
          <step>G</step>
          <octave>3</octave>
          </pitch>
        <duration>2</duration>
        <voice>2</voice>
        <type>quarter</type>
        <stem>down</stem>
        </note>
      <note default-x="109.27" default-y="-415.69">
        <pitch>
          <step>F</step>
          <alter>1</alter>
          <octave>3</octave>
          </pitch>
        <duration>1</duration>
        <voice>2</voice>
        <type>eighth</type>
        <stem>down</stem>
        <beam number="1">begin</beam>
        </note>
      <note default-x="142.22" default-y="-420.69">
        <pitch>
          <step>E</step>
          <octave>3</octave>
          </pitch>
        <duration>1</duration>
        <voice>2</voice>
        <type>eighth</type>
        <stem>down</stem>
        <beam number="1">end</beam>
        </note>
      </measure>
    <measure number="3" width="107.65">
      <note default-x="16.17" default-y="-310.69">
        <pitch>
          <step>F</step>
          <alter>1</alter>
          <octave>3</octave>
          </pitch>
        <duration>6</duration>
        <voice>1</voice>
        <type>half</type>
        <dot/>
        <stem>up</stem>
        </note>
      <note default-x="60.49" default-y="-285.69">
        <pitch>
          <step>D</step>
          <octave>4</octave>
          </pitch>
        <duration>2</duration>
        <voice>1</voice>
        <type>quarter</type>
        <stem>up</stem>
        </note>
      <backup><duration>8</duration></backup><note default-x="16.17" default-y="-425.69">
        <pitch>
          <step>D</step>
          <octave>3</octave>
          </pitch>
        <duration>6</duration>
        <voice>2</voice>
        <type>half</type>
        <dot/>
        <stem>down</stem>
        </note>
      <note default-x="60.49" default-y="-410.69">
        <pitch>
          <step>G</step>
          <octave>3</octave>
          </pitch>
        <duration>1</duration>
        <voice>2</voice>
        <type>eighth</type>
        <stem>down</stem>
        <beam number="1">begin</beam>
        </note>
      <note default-x="77.86" default-y="-405.69">
        <pitch>
          <step>A</step>
          <octave>3</octave>
          </pitch>
        <duration>1</duration>
        <voice>2</voice>
        <type>eighth</type>
        <stem>down</stem>
        <beam number="1">end</beam>
        </note>
      </measure>
    <measure number="4" width="179.79">
      <note default-x="16.50" default-y="-285.69">
        <pitch>
          <step>D</step>
          <octave>4</octave>
          </pitch>
        <duration>2</duration>
        <voice>1</voice>
        <type>quarter</type>
        <stem>up</stem>
        </note>
      <note default-x="52.39" default-y="-285.69">
        <pitch>
          <step>D</step>
          <octave>4</octave>
          </pitch>
        <duration>2</duration>
        <voice>1</voice>
        <type>quarter</type>
        <stem>up</stem>
        </note>
      <note default-x="97.25" default-y="-290.69">
        <pitch>
          <step>C</step>
          <octave>4</octave>
          </pitch>
        <duration>1</duration>
        <voice>1</voice>
        <type>eighth</type>
        <stem>up</stem>
        <beam number="1">begin</beam>
        </note>
      <note default-x="119.68" default-y="-285.69">
        <pitch>
          <step>D</step>
          <octave>4</octave>
          </pitch>
        <duration>1</duration>
        <voice>1</voice>
        <type>eighth</type>
        <stem>up</stem>
        <beam number="1">end</beam>
        </note>
      <note default-x="142.10" default-y="-285.69">
        <pitch>
          <step>D</step>
          <octave>4</octave>
          </pitch>
        <duration>2</duration>
        <voice>1</voice>
        <type>quarter</type>
        <stem>up</stem>
        </note>
      <backup><duration>8</duration></backup><note default-x="16.50" default-y="-400.69">
        <pitch>
          <step>B</step>
          <octave>3</octave>
          </pitch>
        <duration>2</duration>
        <voice>2</voice>
        <type>quarter</type>
        <stem>down</stem>
        </note>
      <note default-x="52.39" default-y="-405.69">
        <pitch>
          <step>A</step>
          <octave>3</octave>
          </pitch>
        <duration>1</duration>
        <voice>2</voice>
        <type>eighth</type>
        <stem>down</stem>
        <beam number="1">begin</beam>
        </note>
      <note default-x="74.82" default-y="-410.69">
        <pitch>
          <step>G</step>
          <octave>3</octave>
          </pitch>
        <duration>1</duration>
        <voice>2</voice>
        <type>eighth</type>
        <stem>down</stem>
        <beam number="1">end</beam>
        </note>
      <note default-x="97.25" default-y="-405.69">
        <pitch>
          <step>A</step>
          <octave>3</octave>
          </pitch>
        <duration>2</duration>
        <voice>2</voice>
        <type>quarter</type>
        <stem>down</stem>
        </note>
      <note default-x="142.10" default-y="-410.69">
        <pitch>
          <step>G</step>
          <octave>3</octave>
          </pitch>
        <duration>2</duration>
        <voice>2</voice>
        <type>quarter</type>
        <stem>down</stem>
        </note>
      </measure>
    <measure number="5" width="93.23">
      <note default-x="16.50" default-y="-285.69">
        <pitch>
          <step>D</step>
          <octave>4</octave>
          </pitch>
        <duration>6</duration>
        <voice>1</voice>
        <type>half</type>
        <dot/>
        <stem>up</stem>
        </note>
      <note default-x="60.73" default-y="-300.69">
        <pitch>
          <step>A</step>
          <octave>3</octave>
          </pitch>
        <duration>2</duration>
        <voice>1</voice>
        <type>quarter</type>
        <stem>up</stem>
        </note>
      <backup><duration>8</duration></backup><note default-x="16.50" default-y="-425.69">
        <pitch>
          <step>D</step>
          <octave>3</octave>
          </pitch>
        <duration>6</duration>
        <voice>2</voice>
        <type>half</type>
        <dot/>
        <stem>down</stem>
        </note>
      <note default-x="60.73" default-y="-415.69">
        <pitch>
          <step>F</step>
          <alter>1</alter>
          <octave>3</octave>
          </pitch>
        <duration>2</duration>
        <voice>2</voice>
        <type>quarter</type>
        <stem>down</stem>
        </note>
      </measure>
    <measure number="6" width="140.05">
      <note default-x="15.70" default-y="-305.69">
        <pitch>
          <step>G</step>
          <octave>3</octave>
          </pitch>
        <duration>2</duration>
        <voice>1</voice>
        <type>quarter</type>
        <stem>up</stem>
        </note>
      <note default-x="46.22" default-y="-305.69">
        <pitch>
          <step>G</step>
          <octave>3</octave>
          </pitch>
        <duration>2</duration>
        <voice>1</voice>
        <type>quarter</type>
        <stem>up</stem>
        </note>
      <note default-x="76.74" default-y="-310.69">
        <pitch>
          <step>F</step>
          <alter>1</alter>
          <octave>3</octave>
          </pitch>
        <duration>2</duration>
        <voice>1</voice>
        <type>quarter</type>
        <stem>up</stem>
        </note>
      <note default-x="107.25" default-y="-300.69">
        <pitch>
          <step>A</step>
          <octave>3</octave>
          </pitch>
        <duration>2</duration>
        <voice>1</voice>
        <type>quarter</type>
        <stem>up</stem>
        </note>
      <backup><duration>8</duration></backup><note default-x="15.70" default-y="-410.69">
        <pitch>
          <step>G</step>
          <octave>3</octave>
          </pitch>
        <duration>2</duration>
        <voice>2</voice>
        <type>quarter</type>
        <stem>down</stem>
        </note>
      <note default-x="46.22" default-y="-435.69">
        <pitch>
          <step>B</step>
          <octave>2</octave>
          </pitch>
        <duration>2</duration>
        <voice>2</voice>
        <type>quarter</type>
        <stem>down</stem>
        </note>
      <note default-x="76.74" default-y="-425.69">
        <pitch>
          <step>D</step>
          <octave>3</octave>
          </pitch>
        <duration>2</duration>
        <voice>2</voice>
        <type>quarter</type>
        <stem>down</stem>
        </note>
      <note default-x="107.25" default-y="-415.69">
        <pitch>
          <step>F</step>
          <alter>1</alter>
          <octave>3</octave>
          </pitch>
        <duration>2</duration>
        <voice>2</voice>
        <type>quarter</type>
        <stem>down</stem>
        </note>
      </measure>
    <measure number="7" width="140.00">
      <note default-x="15.84" default-y="-295.69">
        <pitch>
          <step>B</step>
          <octave>3</octave>
          </pitch>
        <duration>2</duration>
        <voice>1</voice>
        <type>quarter</type>
        <stem>up</stem>
        </note>
      <note default-x="46.40" default-y="-305.69">
        <pitch>
          <step>G</step>
          <octave>3</octave>
          </pitch>
        <duration>2</duration>
        <voice>1</voice>
        <type>quarter</type>
        <stem>up</stem>
        </note>
      <note default-x="76.95" default-y="-300.69">
        <pitch>
          <step>A</step>
          <octave>3</octave>
          </pitch>
        <duration>2</duration>
        <voice>1</voice>
        <type>quarter</type>
        <stem>up</stem>
        </note>
      <note default-x="107.50" default-y="-285.69">
        <pitch>
          <step>D</step>
          <octave>4</octave>
          </pitch>
        <duration>2</duration>
        <voice>1</voice>
        <type>quarter</type>
        <stem>up</stem>
        </note>
      <backup><duration>8</duration></backup><note default-x="15.84" default-y="-410.69">
        <pitch>
          <step>G</step>
          <octave>3</octave>
          </pitch>
        <duration>2</duration>
        <voice>2</voice>
        <type>quarter</type>
        <stem>down</stem>
        </note>
      <note default-x="46.40" default-y="-420.69">
        <pitch>
          <step>E</step>
          <octave>3</octave>
          </pitch>
        <duration>2</duration>
        <voice>2</voice>
        <type>quarter</type>
        <stem>down</stem>
        </note>
      <note default-x="76.95" default-y="-425.69">
        <pitch>
          <step>D</step>
          <octave>3</octave>
          </pitch>
        <duration>2</duration>
        <voice>2</voice>
        <type>quarter</type>
        <stem>down</stem>
        </note>
      <note default-x="107.50" default-y="-435.69">
        <pitch>
          <step>B</step>
          <octave>2</octave>
          </pitch>
        <duration>2</duration>
        <voice>2</voice>
        <type>quarter</type>
        <stem>down</stem>
        </note>
      </measure>
    <measure number="8" width="461.52">
      <print new-system="yes">
        <staff-layout number="1">
          <staff-distance>65.00</staff-distance>
          </staff-layout>
        </print>
      <note default-x="81.12" default-y="-290.67">
        <pitch>
          <step>C</step>
          <octave>4</octave>
          </pitch>
        <duration>2</duration>
        <voice>1</voice>
        <type>quarter</type>
        <stem>up</stem>
        </note>
      <note default-x="170.20" default-y="-285.67">
        <pitch>
          <step>D</step>
          <octave>4</octave>
          </pitch>
        <duration>1</duration>
        <voice>1</voice>
        <type>eighth</type>
        <stem>up</stem>
        <beam number="1">begin</beam>
        </note>
      <note default-x="225.88" default-y="-280.67">
        <pitch>
          <step>E</step>
          <octave>4</octave>
          </pitch>
        <duration>1</duration>
        <voice>1</voice>
        <type>eighth</type>
        <stem>up</stem>
        <beam number="1">end</beam>
        </note>
      <note default-x="281.55" default-y="-285.67">
        <pitch>
          <step>D</step>
          <octave>4</octave>
          </pitch>
        <duration>2</duration>
        <voice>1</voice>
        <type>quarter</type>
        <stem>up</stem>
        </note>
      <note default-x="370.64" default-y="-290.67">
        <pitch>
          <step>C</step>
          <octave>4</octave>
          </pitch>
        <duration>2</duration>
        <voice>1</voice>
        <type>quarter</type>
        <stem>up</stem>
        </note>
      <backup><duration>8</duration></backup><note default-x="81.12" default-y="-430.67">
        <pitch>
          <step>C</step>
          <octave>3</octave>
          </pitch>
        <duration>2</duration>
        <voice>2</voice>
        <type>quarter</type>
        <stem>down</stem>
        </note>
      <note default-x="170.20" default-y="-435.67">
        <pitch>
          <step>B</step>
          <octave>2</octave>
          </pitch>
        <duration>1</duration>
        <voice>2</voice>
        <type>eighth</type>
        <stem>down</stem>
        <beam number="1">begin</beam>
        </note>
      <note default-x="225.88" default-y="-430.67">
        <pitch>
          <step>C</step>
          <octave>3</octave>
          </pitch>
        <duration>1</duration>
        <voice>2</voice>
        <type>eighth</type>
        <stem>down</stem>
        <beam number="1">end</beam>
        </note>
      <note default-x="281.55" default-y="-425.67">
        <pitch>
          <step>D</step>
          <octave>3</octave>
          </pitch>
        <duration>2</duration>
        <voice>2</voice>
        <type>quarter</type>
        <stem>down</stem>
        </note>
      <note default-x="370.64" default-y="-425.67">
        <pitch>
          <step>D</step>
          <octave>3</octave>
          </pitch>
        <duration>2</duration>
        <voice>2</voice>
        <type>quarter</type>
        <stem>down</stem>
        </note>
      </measure>
    <measure number="9" width="243.19">
      <note default-x="15.63" default-y="-295.67">
        <pitch>
          <step>B</step>
          <octave>3</octave>
          </pitch>
        <duration>6</duration>
        <voice>1</voice>
        <type>half</type>
        <dot/>
        <stem>up</stem>
        </note>
      <barline location="right">
        <bar-style>light-light</bar-style>
        </barline>
      <backup><duration>6</duration></backup><note default-x="15.63" default-y="-445.67">
        <pitch>
          <step>G</step>
          <octave>2</octave>
          </pitch>
        <duration>6</duration>
        <voice>2</voice>
        <type>half</type>
        <dot/>
        <stem>down</stem>
        </note>
      </measure>
    <measure number="10" width="323.99">
      <note default-x="16.50" default-y="-290.67">
        <pitch>
          <step>C</step>
          <octave>4</octave>
          </pitch>
        <duration>4</duration>
        <voice>1</voice>
        <type>half</type>
        <stem>up</stem>
        </note>
      <note default-x="164.92" default-y="-295.67">
        <pitch>
          <step>B</step>
          <octave>3</octave>
          </pitch>
        <duration>4</duration>
        <voice>1</voice>
        <type>half</type>
        <stem>up</stem>
        </note>
      <barline location="right">
        <bar-style>light-heavy</bar-style>
        </barline>
      <backup><duration>8</duration></backup><note default-x="16.50" default-y="-430.67">
        <pitch>
          <step>C</step>
          <octave>3</octave>
          </pitch>
        <duration>4</duration>
        <voice>2</voice>
        <type>half</type>
        <stem>down</stem>
        </note>
      <note default-x="164.92" default-y="-445.67">
        <pitch>
          <step>G</step>
          <octave>2</octave>
          </pitch>
        <duration>4</duration>
        <voice>2</voice>
        <type>half</type>
        <stem>down</stem>
        </note>
      </measure>
    </part>
  </score-partwise>