<?xml version="1.0" encoding="UTF-8"?><!DOCTYPE score-partwise PUBLIC "-//Recordare//DTD MusicXML 3.1 Partwise//EN" "http://www.musicxml.org/dtds/partwise.dtd"><score-partwise version="3.1">
  <movement-title>339장 내 주님 지신 십자가</movement-title>
  <identification>
    <creator type="composer">G.N.Allen</creator>
    <creator type="poet">T.Shepherd</creator>
    <encoding>
      <software>MuseScore 3.6.2</software>
      <encoding-date>2022-03-15</encoding-date>
      <supports element="accidental" type="yes"/>
      <supports element="beam" type="yes"/>
      <supports element="print" attribute="new-page" type="yes" value="yes"/>
      <supports element="print" attribute="new-system" type="yes" value="yes"/>
      <supports element="stem" type="yes"/>
      </encoding>
    </identification>
  <defaults>
    <scaling>
      <millimeters>6.99911</millimeters>
      <tenths>40</tenths>
      </scaling>
    <page-layout>
      <page-height>1697.36</page-height>
      <page-width>1200.15</page-width>
      <page-margins type="even">
        <left-margin>85.7252</left-margin>
        <right-margin>85.7252</right-margin>
        <top-margin>85.7252</top-margin>
        <bottom-margin>85.7252</bottom-margin>
        </page-margins>
      <page-margins type="odd">
        <left-margin>85.7252</left-margin>
        <right-margin>85.7252</right-margin>
        <top-margin>85.7252</top-margin>
        <bottom-margin>85.7252</bottom-margin>
        </page-margins>
      </page-layout>
    <word-font font-family="Edwin" font-size="10"/>
    <lyric-font font-family="Edwin" font-size="10"/>
    </defaults>
  <credit page="1">
    <credit-type>title</credit-type>
    <credit-words default-x="600.076" default-y="1611.63" justify="center" valign="top" font-size="22">339장 내 주님 지신 십자가</credit-words>
    </credit>
  <credit page="1">
    <credit-type>composer</credit-type>
    <credit-words default-x="1114.43" default-y="1511.63" justify="right" valign="bottom">G.N.Allen</credit-words>
    </credit>
  <credit page="1">
    <credit-type>lyricist</credit-type>
    <credit-words default-x="85.7252" default-y="1511.63" justify="left" valign="bottom">T.Shepherd</credit-words>
    </credit>
  <credit page="1">
    <credit-type>rights</credit-type>
    <credit-words default-x="600.076" default-y="85.7252" justify="center" valign="bottom" font-size="9">Copyright 2022 David Sung</credit-words>
    </credit>
  <part-list>
    <score-part id="P1">
      <part-name/>
      <score-instrument id="P1-I1">
        <instrument-name/>
        </score-instrument>
      <midi-device id="P1-I1" port="1"/>
      <midi-instrument id="P1-I1">
        <midi-channel>1</midi-channel>
        <midi-program>1</midi-program>
        <volume>78.7402</volume>
        <pan>0</pan>
        </midi-instrument>
      </score-part>
    <score-part id="P3">
      <part-name/>
      <score-instrument id="P3-I1">
        <instrument-name/>
        </score-instrument>
      <midi-device id="P3-I1" port="1"/>
      <midi-instrument id="P3-I1">
        <midi-channel>3</midi-channel>
        <midi-program>1</midi-program>
        <volume>78.7402</volume>
        <pan>0</pan>
        </midi-instrument>
      </score-part>
    </part-list>
  <part id="P1">
    <measure number="1" width="191.40">
      <print>
        <system-layout>
          <system-margins>
            <left-margin>50.00</left-margin>
            <right-margin>0.00</right-margin>
            </system-margins>
          <top-system-distance>170.00</top-system-distance>
          </system-layout>
        </print>
      <attributes>
        <divisions>2</divisions>
        <key>
          <fifths>-4</fifths>
          <mode>major</mode>
          </key>
        <time>
          <beats>6</beats>
          <beat-type>4</beat-type>
          </time>
        <clef>
          <sign>G</sign>
          <line>2</line>
          </clef>
        </attributes>
      <direction placement="above">
        <direction-type>
          <metronome parentheses="no" default-x="-41.18" relative-y="20.00">
            <beat-unit>half</beat-unit>
            <beat-unit-dot/>
            <per-minute>52</per-minute>
            </metronome>
          </direction-type>
        <sound tempo="156"/>
        </direction>
      <note default-x="135.11" default-y="-50.00">
        <pitch>
          <step>C</step>
          <octave>4</octave>
          </pitch>
        <duration>1</duration>
        <voice>1</voice>
        <type>eighth</type>
        <stem>up</stem>
        <beam number="1">begin</beam>
        <lyric number="1" default-x="-14.79" default-y="-51.60" relative-y="-30.00">
          <syllabic>single</syllabic>
          <text>1.내</text>
          </lyric>
        <lyric number="2" default-x="-16.10" default-y="-73.34" relative-y="-30.00">
          <syllabic>single</syllabic>
          <text>2.내</text>
          </lyric>
        <lyric number="3" default-x="-15.97" default-y="-95.08" relative-y="-30.00">
          <syllabic>single</syllabic>
          <text>3.저</text>
          </lyric>
        <lyric number="4" default-x="-16.25" default-y="-116.81" relative-y="-30.00">
          <syllabic>single</syllabic>
          <text>4.저</text>
          </lyric>
        <lyric number="5" default-x="-15.90" default-y="-138.55" relative-y="-30.00">
          <syllabic>single</syllabic>
          <text>5.그</text>
          </lyric>
        </note>
      <note default-x="161.60" default-y="-45.00">
        <pitch>
          <step>D</step>
          <alter>-1</alter>
          <octave>4</octave>
          </pitch>
        <duration>1</duration>
        <voice>1</voice>
        <type>eighth</type>
        <stem>up</stem>
        <beam number="1">end</beam>
        </note>
      <backup><duration>2</duration></backup><note default-x="135.11" default-y="-255.53">
        <pitch>
          <step>A</step>
          <alter>-1</alter>
          <octave>3</octave>
          </pitch>
        <duration>1</duration>
        <voice>2</voice>
        <type>eighth</type>
        <stem>down</stem>
        <beam number="1">begin</beam>
        </note>
      <note default-x="161.60" default-y="-250.53">
        <pitch>
          <step>B</step>
          <alter>-1</alter>
          <octave>3</octave>
          </pitch>
        <duration>1</duration>
        <voice>2</voice>
        <type>eighth</type>
        <stem>down</stem>
        <beam number="1">end</beam>
        </note>
      </measure>
    <measure number="2" width="154.34">
      <note default-x="16.50" default-y="-40.00">
        <pitch>
          <step>E</step>
          <alter>-1</alter>
          <octave>4</octave>
          </pitch>
        <duration>4</duration>
        <voice>1</voice>
        <type>half</type>
        <stem>up</stem>
        <lyric number="1" default-x="6.50" default-y="-51.60" relative-y="-30.00">
          <syllabic>single</syllabic>
          <text>주</text>
          </lyric>
        <lyric number="2" default-x="6.50" default-y="-73.34" relative-y="-30.00">
          <syllabic>single</syllabic>
          <text>몫</text>
          </lyric>
        <lyric number="3" default-x="6.50" default-y="-95.08" relative-y="-30.00">
          <syllabic>single</syllabic>
          <text>수</text>
          </lyric>
        <lyric number="4" default-x="6.50" default-y="-116.81" relative-y="-30.00">
          <syllabic>single</syllabic>
          <text>천</text>
          </lyric>
        <lyric number="5" default-x="6.50" default-y="-138.55" relative-y="-30.00">
          <syllabic>single</syllabic>
          <text>면</text>
          </lyric>
        </note>
      <note default-x="56.63" default-y="-40.00">
        <pitch>
          <step>E</step>
          <alter>-1</alter>
          <octave>4</octave>
          </pitch>
        <duration>2</duration>
        <voice>1</voice>
        <type>quarter</type>
        <stem>up</stem>
        <lyric number="1" default-x="6.50" default-y="-51.60" relative-y="-30.00">
          <syllabic>single</syllabic>
          <text>님</text>
          </lyric>
        <lyric number="2" default-x="6.50" default-y="-73.34" relative-y="-30.00">
          <syllabic>single</syllabic>
          <text>에</text>
          </lyric>
        <lyric number="3" default-x="6.50" default-y="-95.08" relative-y="-30.00">
          <syllabic>single</syllabic>
          <text>정</text>
          </lyric>
        <lyric number="4" default-x="6.50" default-y="-116.81" relative-y="-30.00">
          <syllabic>single</syllabic>
          <text>사</text>
          </lyric>
        <lyric number="5" default-x="6.50" default-y="-138.55" relative-y="-30.00">
          <syllabic>single</syllabic>
          <text>류</text>
          </lyric>
        </note>
      <note default-x="81.71" default-y="-25.00">
        <pitch>
          <step>A</step>
          <alter>-1</alter>
          <octave>4</octave>
          </pitch>
        <duration>4</duration>
        <voice>1</voice>
        <type>half</type>
        <stem>up</stem>
        <lyric number="1" default-x="6.50" default-y="-51.60" relative-y="-30.00">
          <syllabic>single</syllabic>
          <text>지</text>
          </lyric>
        <lyric number="2" default-x="6.50" default-y="-73.34" relative-y="-30.00">
          <syllabic>single</syllabic>
          <text>태</text>
          </lyric>
        <lyric number="3" default-x="6.50" default-y="-95.08" relative-y="-30.00">
          <syllabic>single</syllabic>
          <text>같</text>
          </lyric>
        <lyric number="4" default-x="6.50" default-y="-116.81" relative-y="-30.00">
          <syllabic>single</syllabic>
          <text>소</text>
          </lyric>
        <lyric number="5" default-x="6.50" default-y="-138.55" relative-y="-30.00">
          <syllabic>single</syllabic>
          <text>관</text>
          </lyric>
        </note>
      <note default-x="121.84" default-y="-15.00">
        <pitch>
          <step>C</step>
          <octave>5</octave>
          </pitch>
        <duration>2</duration>
        <voice>1</voice>
        <type>quarter</type>
        <stem>up</stem>
        <lyric number="1" default-x="6.50" default-y="-51.60" relative-y="-30.00">
          <syllabic>single</syllabic>
          <text>신</text>
          </lyric>
        <lyric number="2" default-x="6.50" default-y="-73.34" relative-y="-30.00">
          <syllabic>single</syllabic>
          <text>인</text>
          </lyric>
        <lyric number="3" default-x="6.50" default-y="-95.08" relative-y="-30.00">
          <syllabic>single</syllabic>
          <text>은</text>
          </lyric>
        <lyric number="4" default-x="6.50" default-y="-116.81" relative-y="-30.00">
          <syllabic>single</syllabic>
          <text>리</text>
          </lyric>
        <lyric number="5" default-x="6.50" default-y="-138.55" relative-y="-30.00">
          <syllabic>single</syllabic>
          <text>도</text>
          </lyric>
        </note>
      <backup><duration>12</duration></backup><note default-x="16.50" default-y="-245.53">
        <pitch>
          <step>C</step>
          <octave>4</octave>
          </pitch>
        <duration>4</duration>
        <voice>2</voice>
        <type>half</type>
        <stem>down</stem>
        </note>
      <note default-x="56.63" default-y="-245.53">
        <pitch>
          <step>C</step>
          <octave>4</octave>
          </pitch>
        <duration>2</duration>
        <voice>2</voice>
        <type>quarter</type>
        <stem>down</stem>
        </note>
      <note default-x="81.71" default-y="-245.53">
        <pitch>
          <step>C</step>
          <octave>4</octave>
          </pitch>
        <duration>4</duration>
        <voice>2</voice>
        <type>half</type>
        <stem>down</stem>
        </note>
      <note default-x="121.84" default-y="-235.53">
        <pitch>
          <step>E</step>
          <alter>-1</alter>
          <octave>4</octave>
          </pitch>
        <duration>2</duration>
        <voice>2</voice>
        <type>quarter</type>
        <stem>down</stem>
        </note>
      </measure>
    <measure number="3" width="189.60">
      <note default-x="15.70" default-y="-20.00">
        <pitch>
          <step>B</step>
          <alter>-1</alter>
          <octave>4</octave>
          </pitch>
        <duration>4</duration>
        <voice>1</voice>
        <type>half</type>
        <stem>up</stem>
        <lyric number="1" default-x="6.50" default-y="-51.60" relative-y="-30.00">
          <syllabic>single</syllabic>
          <text>십</text>
          </lyric>
        <lyric number="2" default-x="6.50" default-y="-73.34" relative-y="-30.00">
          <syllabic>single</syllabic>
          <text>십</text>
          </lyric>
        <lyric number="3" default-x="6.50" default-y="-95.08" relative-y="-30.00">
          <syllabic>single</syllabic>
          <text>길</text>
          </lyric>
        <lyric number="4" default-x="6.50" default-y="-116.81" relative-y="-30.00">
          <syllabic>single</syllabic>
          <text>높</text>
          </lyric>
        <lyric number="5" default-x="6.50" default-y="-138.55" relative-y="-30.00">
          <syllabic>single</syllabic>
          <text>귀</text>
          </lyric>
        </note>
      <note default-x="59.26" default-y="-25.00">
        <pitch>
          <step>A</step>
          <alter>-1</alter>
          <octave>4</octave>
          </pitch>
        <duration>2</duration>
        <voice>1</voice>
        <type>quarter</type>
        <stem>up</stem>
        <lyric number="1" default-x="6.50" default-y="-51.60" relative-y="-30.00">
          <syllabic>single</syllabic>
          <text>자</text>
          </lyric>
        <lyric number="2" default-x="6.50" default-y="-73.34" relative-y="-30.00">
          <syllabic>single</syllabic>
          <text>자</text>
          </lyric>
        <lyric number="3" default-x="6.50" default-y="-95.08" relative-y="-30.00">
          <syllabic>single</syllabic>
          <text>에</text>
          </lyric>
        <lyric number="4" default-x="6.50" default-y="-116.81" relative-y="-30.00">
          <syllabic>single</syllabic>
          <text>여</text>
          </lyric>
        <lyric number="5" default-x="6.50" default-y="-138.55" relative-y="-30.00">
          <syllabic>single</syllabic>
          <text>하</text>
          </lyric>
        </note>
      <note default-x="90.94" default-y="-35.00">
        <pitch>
          <step>F</step>
          <octave>4</octave>
          </pitch>
        <duration>1</duration>
        <voice>1</voice>
        <type>eighth</type>
        <stem>up</stem>
        <notations>
          <slur type="start" placement="above" number="1"/>
          </notations>
        <lyric number="1" default-x="6.50" default-y="-51.60" relative-y="-30.00">
          <syllabic>single</syllabic>
          <text>가</text>
          </lyric>
        <lyric number="2" default-x="6.50" default-y="-73.34" relative-y="-30.00">
          <syllabic>single</syllabic>
          <text>가</text>
          </lyric>
        <lyric number="3" default-x="6.50" default-y="-95.08" relative-y="-30.00">
          <syllabic>single</syllabic>
          <text>서</text>
          </lyric>
        <lyric number="4" default-x="6.50" default-y="-116.81" relative-y="-30.00">
          <syllabic>single</syllabic>
          <text>서</text>
          </lyric>
        <lyric number="5" default-x="6.50" default-y="-138.55" relative-y="-30.00">
          <syllabic>single</syllabic>
          <text>고</text>
          </lyric>
        </note>
      <note default-x="117.50" default-y="-25.00">
        <pitch>
          <step>A</step>
          <alter>-1</alter>
          <octave>4</octave>
          </pitch>
        <duration>3</duration>
        <voice>1</voice>
        <type>quarter</type>
        <dot/>
        <stem>up</stem>
        <notations>
          <slur type="stop" number="1"/>
          </notations>
        </note>
      <note default-x="156.12" default-y="-35.00">
        <pitch>
          <step>F</step>
          <octave>4</octave>
          </pitch>
        <duration>2</duration>
        <voice>1</voice>
        <type>quarter</type>
        <stem>up</stem>
        <lyric number="1" default-x="6.50" default-y="-51.60" relative-y="-30.00">
          <syllabic>single</syllabic>
          <text>우</text>
          </lyric>
        <lyric number="2" default-x="6.50" default-y="-73.34" relative-y="-30.00">
          <syllabic>single</syllabic>
          <text>늘</text>
          </lyric>
        <lyric number="3" default-x="6.50" default-y="-95.08" relative-y="-30.00">
          <syllabic>single</syllabic>
          <text>면</text>
          </lyric>
        <lyric number="4" default-x="6.50" default-y="-116.81" relative-y="-30.00">
          <syllabic>single</syllabic>
          <text>늘</text>
          </lyric>
        <lyric number="5" default-x="6.50" default-y="-138.55" relative-y="-30.00">
          <syllabic>single</syllabic>
          <text>부</text>
          </lyric>
        </note>
      <backup><duration>12</duration></backup><note default-x="15.70" default-y="-240.53">
        <pitch>
          <step>D</step>
          <alter>-1</alter>
          <octave>4</octave>
          </pitch>
        <duration>4</duration>
        <voice>2</voice>
        <type>half</type>
        <stem>down</stem>
        </note>
      <note default-x="59.26" default-y="-240.53">
        <pitch>
          <step>D</step>
          <alter>-1</alter>
          <octave>4</octave>
          </pitch>
        <duration>2</duration>
        <voice>2</voice>
        <type>quarter</type>
        <stem>down</stem>
        </note>
      <note default-x="90.94" default-y="-240.53">
        <pitch>
          <step>D</step>
          <alter>-1</alter>
          <octave>4</octave>
          </pitch>
        <duration>1</duration>
        <voice>2</voice>
        <type>eighth</type>
        <stem>down</stem>
        <notations>
          <slur type="start" placement="below" number="1"/>
          </notations>
        </note>
      <note default-x="117.50" default-y="-230.53">
        <pitch>
          <step>F</step>
          <octave>4</octave>
          </pitch>
        <duration>3</duration>
        <voice>2</voice>
        <type>quarter</type>
        <dot/>
        <stem>down</stem>
        <notations>
          <slur type="stop" number="1"/>
          </notations>
        </note>
      <note default-x="156.12" default-y="-240.53">
        <pitch>
          <step>D</step>
          <alter>-1</alter>
          <octave>4</octave>
          </pitch>
        <duration>2</duration>
        <voice>2</voice>
        <type>quarter</type>
        <stem>down</stem>
        </note>
      </measure>
    <measure number="4" width="153.61">
      <note default-x="16.50" default-y="-40.00">
        <pitch>
          <step>E</step>
          <alter>-1</alter>
          <octave>4</octave>
          </pitch>
        <duration>4</duration>
        <voice>1</voice>
        <type>half</type>
        <stem>up</stem>
        <lyric number="1" default-x="6.50" default-y="-51.60" relative-y="-30.00">
          <syllabic>single</syllabic>
          <text>리</text>
          </lyric>
        <lyric number="2" default-x="6.50" default-y="-73.34" relative-y="-30.00">
          <syllabic>single</syllabic>
          <text>지</text>
          </lyric>
        <lyric number="3" default-x="6.50" default-y="-95.08" relative-y="-30.00">
          <syllabic>single</syllabic>
          <text>류</text>
          </lyric>
        <lyric number="4" default-x="6.50" default-y="-116.81" relative-y="-30.00">
          <syllabic>single</syllabic>
          <text>찬</text>
          </lyric>
        <lyric number="5" default-x="6.50" default-y="-138.55" relative-y="-30.00">
          <syllabic>single</syllabic>
          <text>활</text>
          </lyric>
        </note>
      <note default-x="56.24" default-y="-40.00">
        <pitch>
          <step>E</step>
          <alter>-1</alter>
          <octave>4</octave>
          </pitch>
        <duration>2</duration>
        <voice>1</voice>
        <type>quarter</type>
        <stem>up</stem>
        <lyric number="1" default-x="6.50" default-y="-51.60" relative-y="-30.00">
          <syllabic>single</syllabic>
          <text>는</text>
          </lyric>
        <lyric number="2" default-x="6.50" default-y="-73.34" relative-y="-30.00">
          <syllabic>single</syllabic>
          <text>고</text>
          </lyric>
        <lyric number="3" default-x="6.50" default-y="-95.08" relative-y="-30.00">
          <syllabic>single</syllabic>
          <text>관</text>
          </lyric>
        <lyric number="4" default-x="6.50" default-y="-116.81" relative-y="-30.00">
          <syllabic>single</syllabic>
          <text>송</text>
          </lyric>
        <lyric number="5" default-x="6.50" default-y="-138.55" relative-y="-30.00">
          <syllabic>single</syllabic>
          <text>도</text>
          </lyric>
        </note>
      <note default-x="81.08" default-y="-25.00">
        <pitch>
          <step>A</step>
          <alter>-1</alter>
          <octave>4</octave>
          </pitch>
        <duration>4</duration>
        <voice>1</voice>
        <type>half</type>
        <stem>up</stem>
        <lyric number="1" default-x="6.50" default-y="-51.60" relative-y="-30.00">
          <syllabic>single</syllabic>
          <text>안</text>
          </lyric>
        <lyric number="2" default-x="6.50" default-y="-73.34" relative-y="-30.00">
          <syllabic>single</syllabic>
          <text>가</text>
          </lyric>
        <lyric number="3" default-x="6.50" default-y="-95.08" relative-y="-30.00">
          <syllabic>single</syllabic>
          <text>벗</text>
          </lyric>
        <lyric number="4" default-x="6.50" default-y="-116.81" relative-y="-30.00">
          <syllabic>single</syllabic>
          <text>할</text>
          </lyric>
        <lyric number="5" default-x="6.50" default-y="-138.55" relative-y="-30.00">
          <syllabic>single</syllabic>
          <text>귀</text>
          </lyric>
        </note>
      <note default-x="120.82" default-y="-15.00">
        <pitch>
          <step>C</step>
          <octave>5</octave>
          </pitch>
        <duration>2</duration>
        <voice>1</voice>
        <type>quarter</type>
        <stem>up</stem>
        <lyric number="1" default-x="6.50" default-y="-51.60" relative-y="-30.00">
          <syllabic>single</syllabic>
          <text>질</text>
          </lyric>
        <lyric number="2" default-x="6.50" default-y="-73.34" relative-y="-30.00">
          <syllabic>single</syllabic>
          <text>리</text>
          </lyric>
        <lyric number="3" default-x="6.50" default-y="-95.08" relative-y="-30.00">
          <syllabic>single</syllabic>
          <text>어</text>
          </lyric>
        <lyric number="4" default-x="6.50" default-y="-116.81" relative-y="-30.00">
          <syllabic>single</syllabic>
          <text>때</text>
          </lyric>
        <lyric number="5" default-x="6.50" default-y="-138.55" relative-y="-30.00">
          <syllabic>single</syllabic>
          <text>하</text>
          </lyric>
        </note>
      <backup><duration>12</duration></backup><note default-x="16.50" default-y="-245.53">
        <pitch>
          <step>C</step>
          <octave>4</octave>
          </pitch>
        <duration>4</duration>
        <voice>2</voice>
        <type>half</type>
        <stem>down</stem>
        </note>
      <note default-x="56.24" default-y="-245.53">
        <pitch>
          <step>C</step>
          <octave>4</octave>
          </pitch>
        <duration>2</duration>
        <voice>2</voice>
        <type>quarter</type>
        <stem>down</stem>
        </note>
      <note default-x="81.08" default-y="-235.53">
        <pitch>
          <step>E</step>
          <alter>-1</alter>
          <octave>4</octave>
          </pitch>
        <duration>4</duration>
        <voice>2</voice>
        <type>half</type>
        <stem>down</stem>
        </note>
      <note default-x="120.82" default-y="-235.53">
        <pitch>
          <step>E</step>
          <alter>-1</alter>
          <octave>4</octave>
          </pitch>
        <duration>2</duration>
        <voice>2</voice>
        <type>quarter</type>
        <stem>down</stem>
        </note>
      </measure>
    <measure number="5" width="137.83">
      <note default-x="16.28" default-y="-20.00">
        <pitch>
          <step>B</step>
          <alter>-1</alter>
          <octave>4</octave>
          </pitch>
        <duration>6</duration>
        <tie type="start"/>
        <voice>1</voice>
        <type>half</type>
        <dot/>
        <stem>up</stem>
        <notations>
          <tied type="start"/>
          </notations>
        <lyric number="1" default-x="6.50" default-y="-51.60" relative-y="-30.00">
          <syllabic>single</syllabic>
          <text>까</text>
          </lyric>
        <lyric number="2" default-x="6.50" default-y="-73.34" relative-y="-30.00">
          <syllabic>single</syllabic>
          <text>다</text>
          </lyric>
        <lyric number="3" default-x="6.50" default-y="-95.08" relative-y="-30.00">
          <syllabic>single</syllabic>
          <text>서</text>
          </lyric>
        <lyric number="4" default-x="6.50" default-y="-116.81" relative-y="-30.00">
          <syllabic>single</syllabic>
          <text>에</text>
          </lyric>
        <lyric number="5" default-x="6.50" default-y="-138.55" relative-y="-30.00">
          <syllabic>single</syllabic>
          <text>다</text>
          </lyric>
        </note>
      <note default-x="56.98" default-y="-20.00">
        <pitch>
          <step>B</step>
          <alter>-1</alter>
          <octave>4</octave>
          </pitch>
        <duration>4</duration>
        <tie type="stop"/>
        <voice>1</voice>
        <type>half</type>
        <stem>up</stem>
        <notations>
          <tied type="stop"/>
          </notations>
        </note>
      <note default-x="92.07" default-y="-15.00">
        <pitch>
          <step>C</step>
          <octave>5</octave>
          </pitch>
        <duration>1</duration>
        <voice>1</voice>
        <type>eighth</type>
        <stem>up</stem>
        <beam number="1">begin</beam>
        <lyric number="1" default-x="6.50" default-y="-51.60" relative-y="-30.00">
          <syllabic>single</syllabic>
          <text>뉘</text>
          </lyric>
        <lyric number="2" default-x="6.50" default-y="-73.34" relative-y="-30.00">
          <syllabic>single</syllabic>
          <text>그</text>
          </lyric>
        <lyric number="3" default-x="6.50" default-y="-95.08" relative-y="-30.00">
          <syllabic>single</syllabic>
          <text>주</text>
          </lyric>
        <lyric number="4" default-x="6.50" default-y="-116.81" relative-y="-30.00">
          <syllabic>single</syllabic>
          <text>그</text>
          </lyric>
        <lyric number="5" default-x="6.50" default-y="-138.55" relative-y="-30.00">
          <syllabic>single</syllabic>
          <text>저</text>
          </lyric>
        </note>
      <note default-x="108.03" default-y="-10.00">
        <pitch>
          <step>D</step>
          <alter>-1</alter>
          <octave>5</octave>
          </pitch>
        <duration>1</duration>
        <voice>1</voice>
        <type>eighth</type>
        <stem>up</stem>
        <beam number="1">end</beam>
        </note>
      <backup><duration>12</duration></backup><note default-x="16.28" default-y="-235.53">
        <pitch>
          <step>E</step>
          <alter>-1</alter>
          <octave>4</octave>
          </pitch>
        <duration>6</duration>
        <tie type="start"/>
        <voice>2</voice>
        <type>half</type>
        <dot/>
        <stem>down</stem>
        <notations>
          <tied type="start"/>
          </notations>
        </note>
      <note default-x="56.98" default-y="-235.53">
        <pitch>
          <step>E</step>
          <alter>-1</alter>
          <octave>4</octave>
          </pitch>
        <duration>4</duration>
        <tie type="stop"/>
        <voice>2</voice>
        <type>half</type>
        <stem>down</stem>
        <notations>
          <tied type="stop"/>
          </notations>
        </note>
      <note default-x="92.07" default-y="-235.53">
        <pitch>
          <step>E</step>
          <alter>-1</alter>
          <octave>4</octave>
          </pitch>
        <duration>2</duration>
        <voice>2</voice>
        <type>quarter</type>
        <stem>down</stem>
        </note>
      </measure>
    <measure number="6" width="151.93">
      <note default-x="16.50" default-y="-5.00">
        <pitch>
          <step>E</step>
          <alter>-1</alter>
          <octave>5</octave>
          </pitch>
        <duration>4</duration>
        <voice>1</voice>
        <type>half</type>
        <stem>up</stem>
        <lyric number="1" default-x="6.50" default-y="-51.60" relative-y="-30.00">
          <syllabic>single</syllabic>
          <text>게</text>
          </lyric>
        <lyric number="2" default-x="6.50" default-y="-73.34" relative-y="-30.00">
          <syllabic>single</syllabic>
          <text>면</text>
          </lyric>
        <lyric number="3" default-x="6.50" default-y="-95.08" relative-y="-30.00">
          <syllabic>single</syllabic>
          <text>예</text>
          </lyric>
        <lyric number="4" default-x="6.50" default-y="-116.81" relative-y="-30.00">
          <syllabic>single</syllabic>
          <text>좋</text>
          </lyric>
        <lyric number="5" default-x="6.50" default-y="-138.55" relative-y="-30.00">
          <syllabic>single</syllabic>
          <text>천</text>
          </lyric>
        </note>
      <note default-x="55.71" default-y="-15.00">
        <pitch>
          <step>C</step>
          <octave>5</octave>
          </pitch>
        <duration>2</duration>
        <voice>1</voice>
        <type>quarter</type>
        <stem>up</stem>
        <lyric number="1" default-x="6.50" default-y="-51.60" relative-y="-30.00">
          <syllabic>single</syllabic>
          <text>나</text>
          </lyric>
        <lyric number="2" default-x="6.50" default-y="-73.34" relative-y="-30.00">
          <syllabic>single</syllabic>
          <text>류</text>
          </lyric>
        <lyric number="3" default-x="6.50" default-y="-95.08" relative-y="-30.00">
          <syllabic>single</syllabic>
          <text>수</text>
          </lyric>
        <lyric number="4" default-x="6.50" default-y="-116.81" relative-y="-30.00">
          <syllabic>single</syllabic>
          <text>은</text>
          </lyric>
        <lyric number="5" default-x="6.50" default-y="-138.55" relative-y="-30.00">
          <syllabic>single</syllabic>
          <text>사</text>
          </lyric>
        </note>
      <note default-x="80.22" default-y="-25.00">
        <pitch>
          <step>A</step>
          <alter>-1</alter>
          <octave>4</octave>
          </pitch>
        <duration>4</duration>
        <voice>1</voice>
        <type>half</type>
        <stem>up</stem>
        <lyric number="1" default-x="6.50" default-y="-51.60" relative-y="-30.00">
          <syllabic>single</syllabic>
          <text>있</text>
          </lyric>
        <lyric number="2" default-x="6.50" default-y="-73.34" relative-y="-30.00">
          <syllabic>single</syllabic>
          <text>관</text>
          </lyric>
        <lyric number="3" default-x="6.50" default-y="-95.08" relative-y="-30.00">
          <syllabic>single</syllabic>
          <text>앞</text>
          </lyric>
        <lyric number="4" default-x="6.50" default-y="-116.81" relative-y="-30.00">
          <syllabic>single</syllabic>
          <text>노</text>
          </lyric>
        <lyric number="5" default-x="6.50" default-y="-138.55" relative-y="-30.00">
          <syllabic>single</syllabic>
          <text>내</text>
          </lyric>
        </note>
      <note default-x="119.43" default-y="-15.00">
        <pitch>
          <step>C</step>
          <octave>5</octave>
          </pitch>
        <duration>2</duration>
        <voice>1</voice>
        <type>quarter</type>
        <stem>up</stem>
        <lyric number="1" default-x="6.50" default-y="-51.60" relative-y="-30.00">
          <syllabic>single</syllabic>
          <text>는</text>
          </lyric>
        <lyric number="2" default-x="6.50" default-y="-73.34" relative-y="-30.00">
          <syllabic>single</syllabic>
          <text>을</text>
          </lyric>
        <lyric number="3" default-x="6.50" default-y="-95.08" relative-y="-30.00">
          <syllabic>single</syllabic>
          <text>에</text>
          </lyric>
        <lyric number="4" default-x="6.50" default-y="-116.81" relative-y="-30.00">
          <syllabic>single</syllabic>
          <text>래</text>
          </lyric>
        <lyric number="5" default-x="6.50" default-y="-138.55" relative-y="-30.00">
          <syllabic>single</syllabic>
          <text>려</text>
          </lyric>
        </note>
      <backup><duration>12</duration></backup><note default-x="16.50" default-y="-235.53">
        <pitch>
          <step>E</step>
          <alter>-1</alter>
          <octave>4</octave>
          </pitch>
        <duration>4</duration>
        <voice>2</voice>
        <type>half</type>
        <stem>down</stem>
        </note>
      <note default-x="55.71" default-y="-235.53">
        <pitch>
          <step>E</step>
          <alter>-1</alter>
          <octave>4</octave>
          </pitch>
        <duration>2</duration>
        <voice>2</voice>
        <type>quarter</type>
        <stem>down</stem>
        </note>
      <note default-x="80.22" default-y="-245.53">
        <pitch>
          <step>C</step>
          <octave>4</octave>
          </pitch>
        <duration>4</duration>
        <voice>2</voice>
        <type>half</type>
        <stem>down</stem>
        </note>
      <note default-x="119.43" default-y="-235.53">
        <pitch>
          <step>E</step>
          <alter>-1</alter>
          <octave>4</octave>
          </pitch>
        <duration>2</duration>
        <voice>2</voice>
        <type>quarter</type>
        <stem>down</stem>
        </note>
      </measure>
    <measure number="7" width="382.19">
      <print new-system="yes">
        <system-layout>
          <system-margins>
            <left-margin>0.00</left-margin>
            <right-margin>0.00</right-margin>
            </system-margins>
          <system-distance>150.00</system-distance>
          </system-layout>
        </print>
      <note default-x="109.48" default-y="-20.00">
        <pitch>
          <step>B</step>
          <alter>-1</alter>
          <octave>4</octave>
          </pitch>
        <duration>4</duration>
        <voice>1</voice>
        <type>half</type>
        <stem>up</stem>
        <lyric number="1" default-x="6.50" default-y="-48.01" relative-y="-30.00">
          <syllabic>single</syllabic>
          <text>십</text>
          </lyric>
        <lyric number="2" default-x="6.50" default-y="-69.75" relative-y="-30.00">
          <syllabic>single</syllabic>
          <text>쓰</text>
          </lyric>
        <lyric number="3" default-x="6.50" default-y="-91.48" relative-y="-30.00">
          <syllabic>single</syllabic>
          <text>바</text>
          </lyric>
        <lyric number="4" default-x="6.50" default-y="-113.22" relative-y="-30.00">
          <syllabic>single</syllabic>
          <text>곡</text>
          </lyric>
        <lyric number="5" default-x="6.50" default-y="-134.96" relative-y="-30.00">
          <syllabic>single</syllabic>
          <text>보</text>
          </lyric>
        </note>
      <note default-x="180.85" default-y="-25.00">
        <pitch>
          <step>A</step>
          <alter>-1</alter>
          <octave>4</octave>
          </pitch>
        <duration>2</duration>
        <voice>1</voice>
        <type>quarter</type>
        <stem>up</stem>
        <lyric number="1" default-x="6.50" default-y="-48.01" relative-y="-30.00">
          <syllabic>single</syllabic>
          <text>자</text>
          </lyric>
        <lyric number="2" default-x="6.50" default-y="-69.75" relative-y="-30.00">
          <syllabic>single</syllabic>
          <text>려</text>
          </lyric>
        <lyric number="3" default-x="6.50" default-y="-91.48" relative-y="-30.00">
          <syllabic>single</syllabic>
          <text>치</text>
          </lyric>
        <lyric number="4" default-x="6.50" default-y="-113.22" relative-y="-30.00">
          <syllabic>single</syllabic>
          <text>조</text>
          </lyric>
        <lyric number="5" default-x="6.50" default-y="-134.96" relative-y="-30.00">
          <syllabic>single</syllabic>
          <text>내</text>
          </lyric>
        </note>
      <note default-x="232.75" default-y="-35.00">
        <pitch>
          <step>F</step>
          <octave>4</octave>
          </pitch>
        <duration>1</duration>
        <voice>1</voice>
        <type>eighth</type>
        <stem>up</stem>
        <notations>
          <slur type="start" placement="above" number="1"/>
          </notations>
        <lyric number="1" default-x="6.50" default-y="-48.01" relative-y="-30.00">
          <syllabic>single</syllabic>
          <text>가</text>
          </lyric>
        <lyric number="2" default-x="6.50" default-y="-69.75" relative-y="-30.00">
          <syllabic>single</syllabic>
          <text>고</text>
          </lyric>
        <lyric number="3" default-x="6.50" default-y="-91.48" relative-y="-30.00">
          <syllabic>single</syllabic>
          <text>며</text>
          </lyric>
        <lyric number="4" default-x="6.50" default-y="-113.22" relative-y="-30.00">
          <syllabic>single</syllabic>
          <text>가</text>
          </lyric>
        <lyric number="5" default-x="6.50" default-y="-134.96" relative-y="-30.00">
          <syllabic>single</syllabic>
          <text>사</text>
          </lyric>
        </note>
      <note default-x="265.19" default-y="-25.00">
        <pitch>
          <step>A</step>
          <alter>-1</alter>
          <octave>4</octave>
          </pitch>
        <duration>3</duration>
        <voice>1</voice>
        <type>quarter</type>
        <dot/>
        <stem>up</stem>
        <notations>
          <slur type="stop" number="1"/>
          </notations>
        </note>
      <note default-x="328.48" default-y="-35.00">
        <pitch>
          <step>F</step>
          <octave>4</octave>
          </pitch>
        <duration>2</duration>
        <voice>1</voice>
        <type>quarter</type>
        <stem>up</stem>
        <lyric number="1" default-x="6.50" default-y="-48.01" relative-y="-30.00">
          <syllabic>single</syllabic>
          <text>내</text>
          </lyric>
        <lyric number="2" default-x="6.50" default-y="-69.75" relative-y="-30.00">
          <syllabic>single</syllabic>
          <text>저</text>
          </lyric>
        <lyric number="3" default-x="6.50" default-y="-91.48" relative-y="-30.00">
          <syllabic>single</syllabic>
          <text>늘</text>
          </lyric>
        <lyric number="4" default-x="6.50" default-y="-113.22" relative-y="-30.00">
          <syllabic>single</syllabic>
          <text>참</text>
          </lyric>
        <lyric number="5" default-x="6.50" default-y="-134.96" relative-y="-30.00">
          <syllabic>single</syllabic>
          <text>날</text>
          </lyric>
        </note>
      <backup><duration>12</duration></backup><note default-x="109.48" default-y="-236.96">
        <pitch>
          <step>D</step>
          <alter>-1</alter>
          <octave>4</octave>
          </pitch>
        <duration>4</duration>
        <voice>2</voice>
        <type>half</type>
        <stem>down</stem>
        </note>
      <note default-x="180.85" default-y="-236.96">
        <pitch>
          <step>D</step>
          <alter>-1</alter>
          <octave>4</octave>
          </pitch>
        <duration>2</duration>
        <voice>2</voice>
        <type>quarter</type>
        <stem>down</stem>
        </note>
      <note default-x="232.75" default-y="-236.96">
        <pitch>
          <step>D</step>
          <alter>-1</alter>
          <octave>4</octave>
          </pitch>
        <duration>1</duration>
        <voice>2</voice>
        <type>eighth</type>
        <stem>down</stem>
        <notations>
          <slur type="start" placement="below" number="1"/>
          </notations>
        </note>
      <note default-x="265.19" default-y="-226.96">
        <pitch>
          <step>F</step>
          <octave>4</octave>
          </pitch>
        <duration>3</duration>
        <voice>2</voice>
        <type>quarter</type>
        <dot/>
        <stem>down</stem>
        <notations>
          <slur type="stop" number="1"/>
          </notations>
        </note>
      <note default-x="328.48" default-y="-236.96">
        <pitch>
          <step>D</step>
          <alter>-1</alter>
          <octave>4</octave>
          </pitch>
        <duration>2</duration>
        <voice>2</voice>
        <type>quarter</type>
        <stem>down</stem>
        </note>
      </measure>
    <measure number="8" width="249.02">
      <note default-x="16.00" default-y="-40.00">
        <pitch>
          <step>E</step>
          <alter>-1</alter>
          <octave>4</octave>
          </pitch>
        <duration>4</duration>
        <voice>1</voice>
        <type>half</type>
        <stem>up</stem>
        <lyric number="1" default-x="6.50" default-y="-48.01" relative-y="-30.00">
          <syllabic>single</syllabic>
          <text>게</text>
          </lyric>
        <lyric number="2" default-x="6.50" default-y="-69.75" relative-y="-30.00">
          <syllabic>single</syllabic>
          <text>천</text>
          </lyric>
        <lyric number="3" default-x="6.50" default-y="-91.48" relative-y="-30.00">
          <syllabic>single</syllabic>
          <text>찬</text>
          </lyric>
        <lyric number="4" default-x="6.50" default-y="-113.22" relative-y="-30.00">
          <syllabic>single</syllabic>
          <text>아</text>
          </lyric>
        <lyric number="5" default-x="6.50" default-y="-134.96" relative-y="-30.00">
          <syllabic>single</syllabic>
          <text>영</text>
          </lyric>
        </note>
      <note default-x="87.14" default-y="-25.00">
        <pitch>
          <step>A</step>
          <alter>-1</alter>
          <octave>4</octave>
          </pitch>
        <duration>2</duration>
        <voice>1</voice>
        <type>quarter</type>
        <stem>up</stem>
        <lyric number="1" default-x="6.50" default-y="-48.01" relative-y="-30.00">
          <syllabic>single</syllabic>
          <text>도</text>
          </lyric>
        <lyric number="2" default-x="6.50" default-y="-69.75" relative-y="-30.00">
          <syllabic>single</syllabic>
          <text>국</text>
          </lyric>
        <lyric number="3" default-x="6.50" default-y="-91.48" relative-y="-30.00">
          <syllabic>single</syllabic>
          <text>송</text>
          </lyric>
        <lyric number="4" default-x="6.50" default-y="-113.22" relative-y="-30.00">
          <syllabic>single</syllabic>
          <text>름</text>
          </lyric>
        <lyric number="5" default-x="6.50" default-y="-134.96" relative-y="-30.00">
          <syllabic>single</syllabic>
          <text>접</text>
          </lyric>
        </note>
      <note default-x="131.61" default-y="-15.00">
        <pitch>
          <step>C</step>
          <octave>5</octave>
          </pitch>
        <duration>4</duration>
        <voice>1</voice>
        <type>half</type>
        <stem>up</stem>
        <lyric number="1" default-x="6.50" default-y="-48.01" relative-y="-30.00">
          <syllabic>single</syllabic>
          <text>있</text>
          </lyric>
        <lyric number="2" default-x="6.50" default-y="-69.75" relative-y="-30.00">
          <syllabic>single</syllabic>
          <text>가</text>
          </lyric>
        <lyric number="3" default-x="6.50" default-y="-91.48" relative-y="-30.00">
          <syllabic>single</syllabic>
          <text>하</text>
          </lyric>
        <lyric number="4" default-x="6.50" default-y="-113.22" relative-y="-30.00">
          <syllabic>single</syllabic>
          <text>답</text>
          </lyric>
        <lyric number="5" default-x="6.50" default-y="-134.96" relative-y="-30.00">
          <syllabic>single</syllabic>
          <text>하</text>
          </lyric>
        </note>
      <note default-x="202.75" default-y="-20.00">
        <pitch>
          <step>B</step>
          <alter>-1</alter>
          <octave>4</octave>
          </pitch>
        <duration>2</duration>
        <voice>1</voice>
        <type>quarter</type>
        <stem>up</stem>
        <lyric number="1" default-x="6.50" default-y="-48.01" relative-y="-30.00">
          <syllabic>single</syllabic>
          <text>도</text>
          </lyric>
        <lyric number="2" default-x="6.50" default-y="-69.75" relative-y="-30.00">
          <syllabic>single</syllabic>
          <text>겠</text>
          </lyric>
        <lyric number="3" default-x="6.50" default-y="-91.48" relative-y="-30.00">
          <syllabic>single</syllabic>
          <text>겠</text>
          </lyric>
        <lyric number="4" default-x="6.50" default-y="-113.22" relative-y="-30.00">
          <syllabic>single</syllabic>
          <text>도</text>
          </lyric>
        <lyric number="5" default-x="6.50" default-y="-134.96" relative-y="-30.00">
          <syllabic>single</syllabic>
          <text>소</text>
          </lyric>
        </note>
      <backup><duration>12</duration></backup><note default-x="16.00" default-y="-231.96">
        <pitch>
          <step>E</step>
          <alter>-1</alter>
          <octave>4</octave>
          </pitch>
        <duration>4</duration>
        <voice>2</voice>
        <type>half</type>
        <stem>down</stem>
        </note>
      <note default-x="87.14" default-y="-241.96">
        <pitch>
          <step>C</step>
          <octave>4</octave>
          </pitch>
        <duration>2</duration>
        <voice>2</voice>
        <type>quarter</type>
        <stem>down</stem>
        </note>
      <note default-x="131.61" default-y="-231.96">
        <pitch>
          <step>E</step>
          <alter>-1</alter>
          <octave>4</octave>
          </pitch>
        <duration>4</duration>
        <voice>2</voice>
        <type>half</type>
        <stem>down</stem>
        </note>
      <note default-x="202.75" default-y="-236.96">
        <pitch>
          <step>D</step>
          <alter>-1</alter>
          <octave>4</octave>
          </pitch>
        <duration>2</duration>
        <voice>2</voice>
        <type>quarter</type>
        <stem>down</stem>
        </note>
      </measure>
    <measure number="9" width="181.64">
      <note default-x="16.50" default-y="-25.00">
        <pitch>
          <step>A</step>
          <alter>-1</alter>
          <octave>4</octave>
          </pitch>
        <duration>6</duration>
        <tie type="start"/>
        <voice>1</voice>
        <type>half</type>
        <dot/>
        <stem>up</stem>
        <notations>
          <tied type="start"/>
          </notations>
        <lyric number="1" default-x="6.50" default-y="-48.01" relative-y="-30.00">
          <syllabic>single</syllabic>
          <text>다</text>
          </lyric>
        <lyric number="2" default-x="6.50" default-y="-69.75" relative-y="-30.00">
          <syllabic>single</syllabic>
          <text>네</text>
          </lyric>
        <lyric number="3" default-x="6.50" default-y="-91.48" relative-y="-30.00">
          <syllabic>single</syllabic>
          <text>네</text>
          </lyric>
        <lyric number="4" default-x="6.50" default-y="-113.22" relative-y="-30.00">
          <syllabic>single</syllabic>
          <text>다</text>
          </lyric>
        <lyric number="5" default-x="6.50" default-y="-134.96" relative-y="-30.00">
          <syllabic>single</syllabic>
          <text>서</text>
          </lyric>
        </note>
      <note default-x="107.20" default-y="-25.00">
        <pitch>
          <step>A</step>
          <alter>-1</alter>
          <octave>4</octave>
          </pitch>
        <duration>4</duration>
        <tie type="stop"/>
        <voice>1</voice>
        <type>half</type>
        <stem>up</stem>
        <notations>
          <tied type="stop"/>
          </notations>
        </note>
      <barline location="right">
        <bar-style>light-light</bar-style>
        </barline>
      <backup><duration>10</duration></backup><note default-x="16.50" default-y="-241.96">
        <pitch>
          <step>C</step>
          <octave>4</octave>
          </pitch>
        <duration>6</duration>
        <tie type="start"/>
        <voice>2</voice>
        <type>half</type>
        <dot/>
        <stem>down</stem>
        <notations>
          <tied type="start"/>
          </notations>
        </note>
      <note default-x="107.20" default-y="-241.96">
        <pitch>
          <step>C</step>
          <octave>4</octave>
          </pitch>
        <duration>4</duration>
        <tie type="stop"/>
        <voice>2</voice>
        <type>half</type>
        <stem>down</stem>
        <notations>
          <tied type="stop"/>
          </notations>
        </note>
      </measure>
    <measure number="10" width="215.85">
      <note default-x="15.84" default-y="-25.00">
        <pitch>
          <step>A</step>
          <alter>-1</alter>
          <octave>4</octave>
          </pitch>
        <duration>6</duration>
        <voice>1</voice>
        <type>half</type>
        <dot/>
        <stem>up</stem>
        <lyric number="5" default-x="6.50" default-y="-134.96" relative-y="-30.00">
          <syllabic>single</syllabic>
          <text>아</text>
          </lyric>
        </note>
      <note default-x="110.52" default-y="-25.00">
        <pitch>
          <step>A</step>
          <alter>-1</alter>
          <octave>4</octave>
          </pitch>
        <duration>6</duration>
        <voice>1</voice>
        <type>half</type>
        <dot/>
        <stem>up</stem>
        <lyric number="5" default-x="6.50" default-y="-134.96" relative-y="-30.00">
          <syllabic>single</syllabic>
          <text>멘</text>
          </lyric>
        </note>
      <barline location="right">
        <bar-style>light-heavy</bar-style>
        </barline>
      <backup><duration>12</duration></backup><note default-x="15.84" default-y="-236.96">
        <pitch>
          <step>D</step>
          <alter>-1</alter>
          <octave>4</octave>
          </pitch>
        <duration>6</duration>
        <voice>2</voice>
        <type>half</type>
        <dot/>
        <stem>down</stem>
        </note>
      <note default-x="110.52" default-y="-241.96">
        <pitch>
          <step>C</step>
          <octave>4</octave>
          </pitch>
        <duration>6</duration>
        <voice>2</voice>
        <type>half</type>
        <dot/>
        <stem>down</stem>
        </note>
      </measure>
    </part>
  <part id="P3">
    <measure number="1" width="191.40">
      <print>
        <staff-layout number="1">
          <staff-distance>65.00</staff-distance>
          </staff-layout>
        </print>
      <attributes>
        <divisions>2</divisions>
        <key>
          <fifths>-4</fifths>
          <mode>major</mode>
          </key>
        <time>
          <beats>6</beats>
          <beat-type>4</beat-type>
          </time>
        <clef>
          <sign>F</sign>
          <line>4</line>
          </clef>
        </attributes>
      <note default-x="135.11" default-y="-315.53">
        <pitch>
          <step>E</step>
          <alter>-1</alter>
          <octave>3</octave>
          </pitch>
        <duration>2</duration>
        <voice>1</voice>
        <type>quarter</type>
        <stem>up</stem>
        </note>
      <backup><duration>2</duration></backup><note default-x="135.11" default-y="-440.53">
        <pitch>
          <step>A</step>
          <alter>-1</alter>
          <octave>2</octave>
          </pitch>
        <duration>2</duration>
        <voice>2</voice>
        <type>quarter</type>
        <stem>down</stem>
        </note>
      </measure>
    <measure number="2" width="154.34">
      <note default-x="16.50" default-y="-300.53">
        <pitch>
          <step>A</step>
          <alter>-1</alter>
          <octave>3</octave>
          </pitch>
        <duration>4</duration>
        <voice>1</voice>
        <type>half</type>
        <stem>up</stem>
        </note>
      <note default-x="56.63" default-y="-300.53">
        <pitch>
          <step>A</step>
          <alter>-1</alter>
          <octave>3</octave>
          </pitch>
        <duration>2</duration>
        <voice>1</voice>
        <type>quarter</type>
        <stem>up</stem>
        </note>
      <note default-x="81.71" default-y="-315.53">
        <pitch>
          <step>E</step>
          <alter>-1</alter>
          <octave>3</octave>
          </pitch>
        <duration>4</duration>
        <voice>1</voice>
        <type>half</type>
        <stem>up</stem>
        </note>
      <note default-x="121.84" default-y="-300.53">
        <pitch>
          <step>A</step>
          <alter>-1</alter>
          <octave>3</octave>
          </pitch>
        <duration>2</duration>
        <voice>1</voice>
        <type>quarter</type>
        <stem>up</stem>
        </note>
      <backup><duration>12</duration></backup><note default-x="16.50" default-y="-440.53">
        <pitch>
          <step>A</step>
          <alter>-1</alter>
          <octave>2</octave>
          </pitch>
        <duration>4</duration>
        <voice>2</voice>
        <type>half</type>
        <stem>down</stem>
        </note>
      <note default-x="56.63" default-y="-440.53">
        <pitch>
          <step>A</step>
          <alter>-1</alter>
          <octave>2</octave>
          </pitch>
        <duration>2</duration>
        <voice>2</voice>
        <type>quarter</type>
        <stem>down</stem>
        </note>
      <note default-x="81.71" default-y="-440.53">
        <pitch>
          <step>A</step>
          <alter>-1</alter>
          <octave>2</octave>
          </pitch>
        <duration>4</duration>
        <voice>2</voice>
        <type>half</type>
        <stem>down</stem>
        </note>
      <note default-x="121.84" default-y="-440.53">
        <pitch>
          <step>A</step>
          <alter>-1</alter>
          <octave>2</octave>
          </pitch>
        <duration>2</duration>
        <voice>2</voice>
        <type>quarter</type>
        <stem>down</stem>
        </note>
      </measure>
    <measure number="3" width="189.60">
      <note default-x="15.70" default-y="-310.53">
        <pitch>
          <step>F</step>
          <octave>3</octave>
          </pitch>
        <duration>4</duration>
        <voice>1</voice>
        <type>half</type>
        <stem>up</stem>
        </note>
      <note default-x="59.26" default-y="-310.53">
        <pitch>
          <step>F</step>
          <octave>3</octave>
          </pitch>
        <duration>2</duration>
        <voice>1</voice>
        <type>quarter</type>
        <stem>up</stem>
        </note>
      <note default-x="90.94" default-y="-300.53">
        <pitch>
          <step>A</step>
          <alter>-1</alter>
          <octave>3</octave>
          </pitch>
        <duration>4</duration>
        <voice>1</voice>
        <type>half</type>
        <stem>up</stem>
        </note>
      <note default-x="156.12" default-y="-300.53">
        <pitch>
          <step>A</step>
          <alter>-1</alter>
          <octave>3</octave>
          </pitch>
        <duration>2</duration>
        <voice>1</voice>
        <type>quarter</type>
        <stem>up</stem>
        </note>
      <backup><duration>12</duration></backup><note default-x="15.70" default-y="-425.53">
        <pitch>
          <step>D</step>
          <alter>-1</alter>
          <octave>3</octave>
          </pitch>
        <duration>4</duration>
        <voice>2</voice>
        <type>half</type>
        <stem>down</stem>
        </note>
      <note default-x="59.26" default-y="-425.53">
        <pitch>
          <step>D</step>
          <alter>-1</alter>
          <octave>3</octave>
          </pitch>
        <duration>2</duration>
        <voice>2</voice>
        <type>quarter</type>
        <stem>down</stem>
        </note>
      <note default-x="90.94" default-y="-425.53">
        <pitch>
          <step>D</step>
          <alter>-1</alter>
          <octave>3</octave>
          </pitch>
        <duration>4</duration>
        <voice>2</voice>
        <type>half</type>
        <stem>down</stem>
        </note>
      <note default-x="156.12" default-y="-425.53">
        <pitch>
          <step>D</step>
          <alter>-1</alter>
          <octave>3</octave>
          </pitch>
        <duration>2</duration>
        <voice>2</voice>
        <type>quarter</type>
        <stem>down</stem>
        </note>
      </measure>
    <measure number="4" width="153.61">
      <note default-x="16.50" default-y="-300.53">
        <pitch>
          <step>A</step>
          <alter>-1</alter>
          <octave>3</octave>
          </pitch>
        <duration>4</duration>
        <voice>1</voice>
        <type>half</type>
        <stem>up</stem>
        </note>
      <note default-x="56.24" default-y="-300.53">
        <pitch>
          <step>A</step>
          <alter>-1</alter>
          <octave>3</octave>
          </pitch>
        <duration>2</duration>
        <voice>1</voice>
        <type>quarter</type>
        <stem>up</stem>
        </note>
      <note default-x="81.08" default-y="-300.53">
        <pitch>
          <step>A</step>
          <alter>-1</alter>
          <octave>3</octave>
          </pitch>
        <duration>4</duration>
        <voice>1</voice>
        <type>half</type>
        <stem>up</stem>
        </note>
      <note default-x="120.82" default-y="-300.53">
        <pitch>
          <step>A</step>
          <alter>-1</alter>
          <octave>3</octave>
          </pitch>
        <duration>2</duration>
        <voice>1</voice>
        <type>quarter</type>
        <stem>up</stem>
        </note>
      <backup><duration>12</duration></backup><note default-x="16.50" default-y="-440.53">
        <pitch>
          <step>A</step>
          <alter>-1</alter>
          <octave>2</octave>
          </pitch>
        <duration>4</duration>
        <voice>2</voice>
        <type>half</type>
        <stem>down</stem>
        </note>
      <note default-x="56.24" default-y="-440.53">
        <pitch>
          <step>A</step>
          <alter>-1</alter>
          <octave>2</octave>
          </pitch>
        <duration>2</duration>
        <voice>2</voice>
        <type>quarter</type>
        <stem>down</stem>
        </note>
      <note default-x="81.08" default-y="-430.53">
        <pitch>
          <step>C</step>
          <octave>3</octave>
          </pitch>
        <duration>4</duration>
        <voice>2</voice>
        <type>half</type>
        <stem>down</stem>
        </note>
      <note default-x="120.82" default-y="-440.53">
        <pitch>
          <step>A</step>
          <alter>-1</alter>
          <octave>2</octave>
          </pitch>
        <duration>2</duration>
        <voice>2</voice>
        <type>quarter</type>
        <stem>down</stem>
        </note>
      </measure>
    <measure number="5" width="137.83">
      <note default-x="16.28" default-y="-305.53">
        <pitch>
          <step>G</step>
          <octave>3</octave>
          </pitch>
        <duration>6</duration>
        <tie type="start"/>
        <voice>1</voice>
        <type>half</type>
        <dot/>
        <stem>up</stem>
        <notations>
          <tied type="start"/>
          </notations>
        </note>
      <note default-x="56.98" default-y="-305.53">
        <pitch>
          <step>G</step>
          <octave>3</octave>
          </pitch>
        <duration>4</duration>
        <tie type="stop"/>
        <voice>1</voice>
        <type>half</type>
        <stem>up</stem>
        <notations>
          <tied type="stop"/>
          </notations>
        </note>
      <note default-x="92.07" default-y="-300.53">
        <pitch>
          <step>A</step>
          <alter>-1</alter>
          <octave>3</octave>
          </pitch>
        <duration>1</duration>
        <voice>1</voice>
        <type>eighth</type>
        <stem>up</stem>
        <beam number="1">begin</beam>
        </note>
      <note default-x="108.03" default-y="-295.53">
        <pitch>
          <step>B</step>
          <alter>-1</alter>
          <octave>3</octave>
          </pitch>
        <duration>1</duration>
        <voice>1</voice>
        <type>eighth</type>
        <stem>up</stem>
        <beam number="1">end</beam>
        </note>
      <backup><duration>12</duration></backup><note default-x="16.28" default-y="-420.53">
        <pitch>
          <step>E</step>
          <alter>-1</alter>
          <octave>3</octave>
          </pitch>
        <duration>6</duration>
        <tie type="start"/>
        <voice>2</voice>
        <type>half</type>
        <dot/>
        <stem>down</stem>
        <notations>
          <tied type="start"/>
          </notations>
        </note>
      <note default-x="56.98" default-y="-420.53">
        <pitch>
          <step>E</step>
          <alter>-1</alter>
          <octave>3</octave>
          </pitch>
        <duration>4</duration>
        <tie type="stop"/>
        <voice>2</voice>
        <type>half</type>
        <stem>down</stem>
        <notations>
          <tied type="stop"/>
          </notations>
        </note>
      <note default-x="92.07" default-y="-405.53">
        <pitch>
          <step>A</step>
          <alter>-1</alter>
          <octave>3</octave>
          </pitch>
        <duration>2</duration>
        <voice>2</voice>
        <type>quarter</type>
        <stem>down</stem>
        </note>
      </measure>
    <measure number="6" width="151.93">
      <note default-x="16.50" default-y="-290.53">
        <pitch>
          <step>C</step>
          <octave>4</octave>
          </pitch>
        <duration>4</duration>
        <voice>1</voice>
        <type>half</type>
        <stem>up</stem>
        </note>
      <note default-x="55.71" default-y="-300.53">
        <pitch>
          <step>A</step>
          <alter>-1</alter>
          <octave>3</octave>
          </pitch>
        <duration>2</duration>
        <voice>1</voice>
        <type>quarter</type>
        <stem>up</stem>
        </note>
      <note default-x="80.22" default-y="-315.53">
        <pitch>
          <step>E</step>
          <alter>-1</alter>
          <octave>3</octave>
          </pitch>
        <duration>4</duration>
        <voice>1</voice>
        <type>half</type>
        <stem>up</stem>
        </note>
      <note default-x="119.43" default-y="-300.53">
        <pitch>
          <step>A</step>
          <alter>-1</alter>
          <octave>3</octave>
          </pitch>
        <duration>2</duration>
        <voice>1</voice>
        <type>quarter</type>
        <stem>up</stem>
        </note>
      <backup><duration>12</duration></backup><note default-x="16.50" default-y="-405.53">
        <pitch>
          <step>A</step>
          <alter>-1</alter>
          <octave>3</octave>
          </pitch>
        <duration>4</duration>
        <voice>2</voice>
        <type>half</type>
        <stem>down</stem>
        </note>
      <note default-x="55.71" default-y="-405.53">
        <pitch>
          <step>A</step>
          <alter>-1</alter>
          <octave>3</octave>
          </pitch>
        <duration>2</duration>
        <voice>2</voice>
        <type>quarter</type>
        <stem>down</stem>
        </note>
      <note default-x="80.22" default-y="-440.53">
        <pitch>
          <step>A</step>
          <alter>-1</alter>
          <octave>2</octave>
          </pitch>
        <duration>4</duration>
        <voice>2</voice>
        <type>half</type>
        <stem>down</stem>
        </note>
      <note default-x="119.43" default-y="-440.53">
        <pitch>
          <step>A</step>
          <alter>-1</alter>
          <octave>2</octave>
          </pitch>
        <duration>2</duration>
        <voice>2</voice>
        <type>quarter</type>
        <stem>down</stem>
        </note>
      </measure>
    <measure number="7" width="382.19">
      <print new-system="yes">
        <staff-layout number="1">
          <staff-distance>65.00</staff-distance>
          </staff-layout>
        </print>
      <note default-x="109.48" default-y="-306.96">
        <pitch>
          <step>F</step>
          <octave>3</octave>
          </pitch>
        <duration>4</duration>
        <voice>1</voice>
        <type>half</type>
        <stem>up</stem>
        </note>
      <note default-x="180.85" default-y="-306.96">
        <pitch>
          <step>F</step>
          <octave>3</octave>
          </pitch>
        <duration>2</duration>
        <voice>1</voice>
        <type>quarter</type>
        <stem>up</stem>
        </note>
      <note default-x="232.75" default-y="-296.96">
        <pitch>
          <step>A</step>
          <alter>-1</alter>
          <octave>3</octave>
          </pitch>
        <duration>4</duration>
        <voice>1</voice>
        <type>half</type>
        <stem>up</stem>
        </note>
      <note default-x="328.48" default-y="-296.96">
        <pitch>
          <step>A</step>
          <alter>-1</alter>
          <octave>3</octave>
          </pitch>
        <duration>2</duration>
        <voice>1</voice>
        <type>quarter</type>
        <stem>up</stem>
        </note>
      <backup><duration>12</duration></backup><note default-x="109.48" default-y="-421.96">
        <pitch>
          <step>D</step>
          <alter>-1</alter>
          <octave>3</octave>
          </pitch>
        <duration>4</duration>
        <voice>2</voice>
        <type>half</type>
        <stem>down</stem>
        </note>
      <note default-x="180.85" default-y="-421.96">
        <pitch>
          <step>D</step>
          <alter>-1</alter>
          <octave>3</octave>
          </pitch>
        <duration>2</duration>
        <voice>2</voice>
        <type>quarter</type>
        <stem>down</stem>
        </note>
      <note default-x="232.75" default-y="-421.96">
        <pitch>
          <step>D</step>
          <alter>-1</alter>
          <octave>3</octave>
          </pitch>
        <duration>4</duration>
        <voice>2</voice>
        <type>half</type>
        <stem>down</stem>
        </note>
      <note default-x="328.48" default-y="-421.96">
        <pitch>
          <step>D</step>
          <alter>-1</alter>
          <octave>3</octave>
          </pitch>
        <duration>2</duration>
        <voice>2</voice>
        <type>quarter</type>
        <stem>down</stem>
        </note>
      </measure>
    <measure number="8" width="249.02">
      <note default-x="16.00" default-y="-296.96">
        <pitch>
          <step>A</step>
          <alter>-1</alter>
          <octave>3</octave>
          </pitch>
        <duration>4</duration>
        <voice>1</voice>
        <type>half</type>
        <stem>up</stem>
        </note>
      <note default-x="87.14" default-y="-296.96">
        <pitch>
          <step>A</step>
          <alter>-1</alter>
          <octave>3</octave>
          </pitch>
        <duration>2</duration>
        <voice>1</voice>
        <type>quarter</type>
        <stem>up</stem>
        </note>
      <note default-x="131.61" default-y="-296.96">
        <pitch>
          <step>A</step>
          <alter>-1</alter>
          <octave>3</octave>
          </pitch>
        <duration>4</duration>
        <voice>1</voice>
        <type>half</type>
        <stem>up</stem>
        </note>
      <note default-x="202.75" default-y="-301.96">
        <pitch>
          <step>G</step>
          <octave>3</octave>
          </pitch>
        <duration>2</duration>
        <voice>1</voice>
        <type>quarter</type>
        <stem>up</stem>
        </note>
      <backup><duration>12</duration></backup><note default-x="16.00" default-y="-426.96">
        <pitch>
          <step>C</step>
          <octave>3</octave>
          </pitch>
        <duration>4</duration>
        <voice>2</voice>
        <type>half</type>
        <stem>down</stem>
        </note>
      <note default-x="87.14" default-y="-436.96">
        <pitch>
          <step>A</step>
          <alter>-1</alter>
          <octave>2</octave>
          </pitch>
        <duration>2</duration>
        <voice>2</voice>
        <type>quarter</type>
        <stem>down</stem>
        </note>
      <note default-x="131.61" default-y="-416.96">
        <pitch>
          <step>E</step>
          <alter>-1</alter>
          <octave>3</octave>
          </pitch>
        <duration>4</duration>
        <voice>2</voice>
        <type>half</type>
        <stem>down</stem>
        </note>
      <note default-x="202.75" default-y="-416.96">
        <pitch>
          <step>E</step>
          <alter>-1</alter>
          <octave>3</octave>
          </pitch>
        <duration>2</duration>
        <voice>2</voice>
        <type>quarter</type>
        <stem>down</stem>
        </note>
      </measure>
    <measure number="9" width="181.64">
      <note default-x="16.50" default-y="-296.96">
        <pitch>
          <step>A</step>
          <alter>-1</alter>
          <octave>3</octave>
          </pitch>
        <duration>6</duration>
        <tie type="start"/>
        <voice>1</voice>
        <type>half</type>
        <dot/>
        <stem>up</stem>
        <notations>
          <tied type="start"/>
          </notations>
        </note>
      <note default-x="107.20" default-y="-296.96">
        <pitch>
          <step>A</step>
          <alter>-1</alter>
          <octave>3</octave>
          </pitch>
        <duration>4</duration>
        <tie type="stop"/>
        <voice>1</voice>
        <type>half</type>
        <stem>up</stem>
        <notations>
          <tied type="stop"/>
          </notations>
        </note>
      <barline location="right">
        <bar-style>light-light</bar-style>
        </barline>
      <backup><duration>10</duration></backup><note default-x="16.50" default-y="-436.96">
        <pitch>
          <step>A</step>
          <alter>-1</alter>
          <octave>2</octave>
          </pitch>
        <duration>6</duration>
        <tie type="start"/>
        <voice>2</voice>
        <type>half</type>
        <dot/>
        <stem>down</stem>
        <notations>
          <tied type="start"/>
          </notations>
        </note>
      <note default-x="107.20" default-y="-436.96">
        <pitch>
          <step>A</step>
          <alter>-1</alter>
          <octave>2</octave>
          </pitch>
        <duration>4</duration>
        <tie type="stop"/>
        <voice>2</voice>
        <type>half</type>
        <stem>down</stem>
        <notations>
          <tied type="stop"/>
          </notations>
        </note>
      </measure>
    <measure number="10" width="215.85">
      <note default-x="15.84" default-y="-306.96">
        <pitch>
          <step>F</step>
          <octave>3</octave>
          </pitch>
        <duration>6</duration>
        <voice>1</voice>
        <type>half</type>
        <dot/>
        <stem>up</stem>
        </note>
      <note default-x="110.52" default-y="-311.96">
        <pitch>
          <step>E</step>
          <alter>-1</alter>
          <octave>3</octave>
          </pitch>
        <duration>6</duration>
        <voice>1</voice>
        <type>half</type>
        <dot/>
        <stem>up</stem>
        </note>
      <barline location="right">
        <bar-style>light-heavy</bar-style>
        </barline>
      <backup><duration>12</duration></backup><note default-x="15.84" default-y="-421.96">
        <pitch>
          <step>D</step>
          <alter>-1</alter>
          <octave>3</octave>
          </pitch>
        <duration>6</duration>
        <voice>2</voice>
        <type>half</type>
        <dot/>
        <stem>down</stem>
        </note>
      <note default-x="110.52" default-y="-436.96">
        <pitch>
          <step>A</step>
          <alter>-1</alter>
          <octave>2</octave>
          </pitch>
        <duration>6</duration>
        <voice>2</voice>
        <type>half</type>
        <dot/>
        <stem>down</stem>
        </note>
      </measure>
    </part>
  </score-partwise>