<?xml version="1.0" encoding="UTF-8"?><!DOCTYPE score-partwise PUBLIC "-//Recordare//DTD MusicXML 3.1 Partwise//EN" "http://www.musicxml.org/dtds/partwise.dtd"><score-partwise version="3.1">
  <movement-title>343장 시험 받을 때에</movement-title>
  <identification>
    <creator type="composer">S.Lane</creator>
    <creator type="poet">J.Montgomery</creator>
    <encoding>
      <software>MuseScore 3.6.2</software>
      <encoding-date>2022-03-15</encoding-date>
      <supports element="accidental" type="yes"/>
      <supports element="beam" type="yes"/>
      <supports element="print" attribute="new-page" type="yes" value="yes"/>
      <supports element="print" attribute="new-system" type="yes" value="yes"/>
      <supports element="stem" type="yes"/>
      </encoding>
    </identification>
  <defaults>
    <scaling>
      <millimeters>6.99911</millimeters>
      <tenths>40</tenths>
      </scaling>
    <page-layout>
      <page-height>1697.36</page-height>
      <page-width>1200.15</page-width>
      <page-margins type="even">
        <left-margin>85.7252</left-margin>
        <right-margin>85.7252</right-margin>
        <top-margin>85.7252</top-margin>
        <bottom-margin>85.7252</bottom-margin>
        </page-margins>
      <page-margins type="odd">
        <left-margin>85.7252</left-margin>
        <right-margin>85.7252</right-margin>
        <top-margin>85.7252</top-margin>
        <bottom-margin>85.7252</bottom-margin>
        </page-margins>
      </page-layout>
    <word-font font-family="Edwin" font-size="10"/>
    <lyric-font font-family="Edwin" font-size="10"/>
    </defaults>
  <credit page="1">
    <credit-type>title</credit-type>
    <credit-words default-x="600.076" default-y="1611.63" justify="center" valign="top" font-size="22">343장 시험 받을 때에</credit-words>
    </credit>
  <credit page="1">
    <credit-type>composer</credit-type>
    <credit-words default-x="1114.43" default-y="1511.63" justify="right" valign="bottom">S.Lane</credit-words>
    </credit>
  <credit page="1">
    <credit-type>lyricist</credit-type>
    <credit-words default-x="85.7252" default-y="1511.63" justify="left" valign="bottom">J.Montgomery</credit-words>
    </credit>
  <credit page="1">
    <credit-type>rights</credit-type>
    <credit-words default-x="600.076" default-y="85.7252" justify="center" valign="bottom" font-size="9">Copyright 2022 David Sung</credit-words>
    </credit>
  <part-list>
    <score-part id="P1">
      <part-name/>
      <score-instrument id="P1-I1">
        <instrument-name/>
        </score-instrument>
      <midi-device id="P1-I1" port="1"/>
      <midi-instrument id="P1-I1">
        <midi-channel>1</midi-channel>
        <midi-program>1</midi-program>
        <volume>78.7402</volume>
        <pan>0</pan>
        </midi-instrument>
      </score-part>
    <score-part id="P3">
      <part-name/>
      <score-instrument id="P3-I1">
        <instrument-name/>
        </score-instrument>
      <midi-device id="P3-I1" port="1"/>
      <midi-instrument id="P3-I1">
        <midi-channel>3</midi-channel>
        <midi-program>1</midi-program>
        <volume>78.7402</volume>
        <pan>0</pan>
        </midi-instrument>
      </score-part>
    </part-list>
  <part id="P1">
    <measure number="1" width="213.21">
      <print>
        <system-layout>
          <system-margins>
            <left-margin>50.00</left-margin>
            <right-margin>0.00</right-margin>
            </system-margins>
          <top-system-distance>170.00</top-system-distance>
          </system-layout>
        </print>
      <attributes>
        <divisions>1</divisions>
        <key>
          <fifths>0</fifths>
          <mode>major</mode></key>
        <time>
          <beats>4</beats>
          <beat-type>4</beat-type>
          </time>
        <clef>
          <sign>G</sign>
          <line>2</line>
          </clef>
        </attributes>
      <direction placement="above">
        <direction-type>
          <metronome parentheses="no" default-x="-41.18" relative-y="20.00">
            <beat-unit>quarter</beat-unit>
            <per-minute>100</per-minute>
            </metronome>
          </direction-type>
        <sound tempo="100"/>
        </direction>
      <note default-x="86.99" default-y="-40.00">
        <pitch>
          <step>E</step>
          <octave>4</octave>
          </pitch>
        <duration>1</duration>
        <voice>1</voice>
        <type>quarter</type>
        <stem>up</stem>
        <lyric number="1" default-x="-14.79" default-y="-48.00" relative-y="-30.00">
          <syllabic>single</syllabic>
          <text>1.시</text>
          </lyric>
        <lyric number="2" default-x="-16.10" default-y="-69.74" relative-y="-30.00">
          <syllabic>single</syllabic>
          <text>2.세</text>
          </lyric>
        <lyric number="3" default-x="-15.97" default-y="-91.48" relative-y="-30.00">
          <syllabic>single</syllabic>
          <text>3.주</text>
          </lyric>
        <lyric number="4" default-x="-16.25" default-y="-113.21" relative-y="-30.00">
          <syllabic>single</syllabic>
          <text>4.이</text>
          </lyric>
        </note>
      <note default-x="118.09" default-y="-40.00">
        <pitch>
          <step>E</step>
          <octave>4</octave>
          </pitch>
        <duration>1</duration>
        <voice>1</voice>
        <type>quarter</type>
        <stem>up</stem>
        <lyric number="1" default-x="6.50" default-y="-48.00" relative-y="-30.00">
          <syllabic>single</syllabic>
          <text>험</text>
          </lyric>
        <lyric number="2" default-x="6.50" default-y="-69.74" relative-y="-30.00">
          <syllabic>single</syllabic>
          <text>상</text>
          </lyric>
        <lyric number="3" default-x="6.50" default-y="-91.48" relative-y="-30.00">
          <syllabic>single</syllabic>
          <text>의</text>
          </lyric>
        <lyric number="4" default-x="6.50" default-y="-113.21" relative-y="-30.00">
          <syllabic>single</syllabic>
          <text>땅</text>
          </lyric>
        </note>
      <note default-x="149.20" default-y="-35.00">
        <pitch>
          <step>F</step>
          <octave>4</octave>
          </pitch>
        <duration>1</duration>
        <voice>1</voice>
        <type>quarter</type>
        <stem>up</stem>
        <lyric number="1" default-x="6.50" default-y="-48.00" relative-y="-30.00">
          <syllabic>single</syllabic>
          <text>받</text>
          </lyric>
        <lyric number="2" default-x="6.50" default-y="-69.74" relative-y="-30.00">
          <syllabic>single</syllabic>
          <text>부</text>
          </lyric>
        <lyric number="3" default-x="6.50" default-y="-91.48" relative-y="-30.00">
          <syllabic>single</syllabic>
          <text>자</text>
          </lyric>
        <lyric number="4" default-x="6.50" default-y="-113.21" relative-y="-30.00">
          <syllabic>single</syllabic>
          <text>위</text>
          </lyric>
        </note>
      <note default-x="180.30" default-y="-40.00">
        <pitch>
          <step>E</step>
          <octave>4</octave>
          </pitch>
        <duration>1</duration>
        <voice>1</voice>
        <type>quarter</type>
        <stem>up</stem>
        <lyric number="1" default-x="6.50" default-y="-48.00" relative-y="-30.00">
          <syllabic>single</syllabic>
          <text>을</text>
          </lyric>
        <lyric number="2" default-x="6.50" default-y="-69.74" relative-y="-30.00">
          <syllabic>single</syllabic>
          <text>귀</text>
          </lyric>
        <lyric number="3" default-x="6.50" default-y="-91.48" relative-y="-30.00">
          <syllabic>single</syllabic>
          <text>비</text>
          </lyric>
        <lyric number="4" default-x="6.50" default-y="-113.21" relative-y="-30.00">
          <syllabic>single</syllabic>
          <text>의</text>
          </lyric>
        </note>
      <backup><duration>4</duration></backup><note default-x="86.99" default-y="-220.29">
        <pitch>
          <step>C</step>
          <octave>4</octave>
          </pitch>
        <duration>1</duration>
        <voice>2</voice>
        <type>quarter</type>
        <stem>down</stem>
        </note>
      <note default-x="118.09" default-y="-220.29">
        <pitch>
          <step>C</step>
          <octave>4</octave>
          </pitch>
        <duration>1</duration>
        <voice>2</voice>
        <type>quarter</type>
        <stem>down</stem>
        </note>
      <note default-x="149.20" default-y="-220.29">
        <pitch>
          <step>C</step>
          <octave>4</octave>
          </pitch>
        <duration>1</duration>
        <voice>2</voice>
        <type>quarter</type>
        <stem>down</stem>
        </note>
      <note default-x="180.30" default-y="-210.29">
        <pitch>
          <step>E</step>
          <octave>4</octave>
          </pitch>
        <duration>1</duration>
        <voice>2</voice>
        <type>quarter</type>
        <stem>down</stem>
        </note>
      </measure>
    <measure number="2" width="94.12">
      <note default-x="20.96" default-y="-25.00">
        <pitch>
          <step>A</step>
          <octave>4</octave>
          </pitch>
        <duration>2</duration>
        <voice>1</voice>
        <type>half</type>
        <stem>up</stem>
        <lyric number="1" default-x="6.50" default-y="-48.00" relative-y="-30.00">
          <syllabic>single</syllabic>
          <text>때</text>
          </lyric>
        <lyric number="2" default-x="6.50" default-y="-69.74" relative-y="-30.00">
          <syllabic>single</syllabic>
          <text>영</text>
          </lyric>
        <lyric number="3" default-x="6.50" default-y="-91.48" relative-y="-30.00">
          <syllabic>single</syllabic>
          <text>하</text>
          </lyric>
        <lyric number="4" default-x="6.50" default-y="-113.21" relative-y="-30.00">
          <syllabic>single</syllabic>
          <text>삶</text>
          </lyric>
        </note>
      <note default-x="56.64" default-y="-30.00">
        <pitch>
          <step>G</step>
          <octave>4</octave>
          </pitch>
        <duration>2</duration>
        <voice>1</voice>
        <type>half</type>
        <stem>up</stem>
        <lyric number="1" default-x="6.50" default-y="-48.00" relative-y="-30.00">
          <syllabic>single</syllabic>
          <text>에</text>
          </lyric>
        <lyric number="2" default-x="6.50" default-y="-69.74" relative-y="-30.00">
          <syllabic>single</syllabic>
          <text>화</text>
          </lyric>
        <lyric number="3" default-x="6.50" default-y="-91.48" relative-y="-30.00">
          <syllabic>single</syllabic>
          <text>심</text>
          </lyric>
        <lyric number="4" default-x="6.50" default-y="-113.21" relative-y="-30.00">
          <syllabic>single</syllabic>
          <text>을</text>
          </lyric>
        </note>
      <backup><duration>4</duration></backup><note default-x="20.96" default-y="-215.29">
        <pitch>
          <step>D</step>
          <alter>1</alter>
          <octave>4</octave>
          </pitch>
        <duration>2</duration>
        <voice>2</voice>
        <type>half</type>
        <accidental>sharp</accidental>
        <stem>down</stem>
        </note>
      <note default-x="56.64" default-y="-210.29">
        <pitch>
          <step>E</step>
          <octave>4</octave>
          </pitch>
        <duration>2</duration>
        <voice>2</voice>
        <type>half</type>
        <stem>down</stem>
        </note>
      </measure>
    <measure number="3" width="140.62">
      <note default-x="15.70" default-y="-15.00">
        <pitch>
          <step>C</step>
          <octave>5</octave>
          </pitch>
        <duration>1</duration>
        <voice>1</voice>
        <type>quarter</type>
        <stem>up</stem>
        <lyric number="1" default-x="6.50" default-y="-48.00" relative-y="-30.00">
          <syllabic>single</syllabic>
          <text>나</text>
          </lyric>
        <lyric number="2" default-x="6.50" default-y="-69.74" relative-y="-30.00">
          <syllabic>single</syllabic>
          <text>나</text>
          </lyric>
        <lyric number="3" default-x="6.50" default-y="-91.48" relative-y="-30.00">
          <syllabic>single</syllabic>
          <text>내</text>
          </lyric>
        <lyric number="4" default-x="6.50" default-y="-113.21" relative-y="-30.00">
          <syllabic>single</syllabic>
          <text>모</text>
          </lyric>
        </note>
      <note default-x="46.41" default-y="-40.00">
        <pitch>
          <step>E</step>
          <octave>4</octave>
          </pitch>
        <duration>1</duration>
        <voice>1</voice>
        <type>quarter</type>
        <stem>up</stem>
        <lyric number="1" default-x="6.50" default-y="-48.00" relative-y="-30.00">
          <syllabic>single</syllabic>
          <text>를</text>
          </lyric>
        <lyric number="2" default-x="6.50" default-y="-69.74" relative-y="-30.00">
          <syllabic>single</syllabic>
          <text>를</text>
          </lyric>
        <lyric number="3" default-x="6.50" default-y="-91.48" relative-y="-30.00">
          <syllabic>single</syllabic>
          <text>게</text>
          </lyric>
        <lyric number="4" default-x="6.50" default-y="-113.21" relative-y="-30.00">
          <syllabic>single</syllabic>
          <text>두</text>
          </lyric>
        </note>
      <note default-x="77.12" default-y="-30.00">
        <pitch>
          <step>G</step>
          <octave>4</octave>
          </pitch>
        <duration>1</duration>
        <voice>1</voice>
        <type>quarter</type>
        <stem>up</stem>
        <lyric number="1" default-x="6.50" default-y="-48.00" relative-y="-30.00">
          <syllabic>single</syllabic>
          <text>도</text>
          </lyric>
        <lyric number="2" default-x="6.50" default-y="-69.74" relative-y="-30.00">
          <syllabic>single</syllabic>
          <text>얽</text>
          </lyric>
        <lyric number="3" default-x="6.50" default-y="-91.48" relative-y="-30.00">
          <syllabic>single</syllabic>
          <text>임</text>
          </lyric>
        <lyric number="4" default-x="6.50" default-y="-113.21" relative-y="-30.00">
          <syllabic>single</syllabic>
          <text>마</text>
          </lyric>
        </note>
      <note default-x="107.83" default-y="-45.00">
        <pitch>
          <step>D</step>
          <octave>4</octave>
          </pitch>
        <duration>1</duration>
        <voice>1</voice>
        <type>quarter</type>
        <stem>up</stem>
        <lyric number="1" default-x="6.50" default-y="-48.00" relative-y="-30.00">
          <syllabic>single</syllabic>
          <text>우</text>
          </lyric>
        <lyric number="2" default-x="6.50" default-y="-69.74" relative-y="-30.00">
          <syllabic>single</syllabic>
          <text>매</text>
          </lyric>
        <lyric number="3" default-x="6.50" default-y="-91.48" relative-y="-30.00">
          <syllabic>single</syllabic>
          <text>하</text>
          </lyric>
        <lyric number="4" default-x="6.50" default-y="-113.21" relative-y="-30.00">
          <syllabic>single</syllabic>
          <text>치</text>
          </lyric>
        </note>
      <backup><duration>4</duration></backup><note default-x="15.70" default-y="-210.29">
        <pitch>
          <step>E</step>
          <octave>4</octave>
          </pitch>
        <duration>1</duration>
        <voice>2</voice>
        <type>quarter</type>
        <stem>down</stem>
        </note>
      <note default-x="46.41" default-y="-220.29">
        <pitch>
          <step>C</step>
          <octave>4</octave>
          </pitch>
        <duration>1</duration>
        <voice>2</voice>
        <type>quarter</type>
        <stem>down</stem>
        </note>
      <note default-x="77.12" default-y="-225.29">
        <pitch>
          <step>B</step>
          <octave>3</octave>
          </pitch>
        <duration>1</duration>
        <voice>2</voice>
        <type>quarter</type>
        <stem>down</stem>
        </note>
      <note default-x="107.83" default-y="-225.29">
        <pitch>
          <step>B</step>
          <octave>3</octave>
          </pitch>
        <duration>1</duration>
        <voice>2</voice>
        <type>quarter</type>
        <stem>down</stem>
        </note>
      </measure>
    <measure number="4" width="65.36">
      <note default-x="16.50" default-y="-40.00">
        <pitch>
          <step>E</step>
          <octave>4</octave>
          </pitch>
        <duration>4</duration>
        <voice>1</voice>
        <type>whole</type>
        <lyric number="1" default-x="5.54" default-y="-48.00" relative-y="-30.00">
          <syllabic>single</syllabic>
          <text>사</text>
          </lyric>
        <lyric number="2" default-x="5.54" default-y="-69.74" relative-y="-30.00">
          <syllabic>single</syllabic>
          <text>고</text>
          </lyric>
        <lyric number="3" default-x="5.54" default-y="-91.48" relative-y="-30.00">
          <syllabic>single</syllabic>
          <text>사</text>
          </lyric>
        <lyric number="4" default-x="5.54" default-y="-113.21" relative-y="-30.00">
          <syllabic>single</syllabic>
          <text>고</text>
          </lyric>
        </note>
      <backup><duration>4</duration></backup><note default-x="16.50" default-y="-220.29">
        <pitch>
          <step>C</step>
          <octave>4</octave>
          </pitch>
        <duration>4</duration>
        <voice>2</voice>
        <type>whole</type>
        </note>
      </measure>
    <measure number="5" width="142.98">
      <note default-x="16.50" default-y="-40.00">
        <pitch>
          <step>E</step>
          <octave>4</octave>
          </pitch>
        <duration>1</duration>
        <voice>1</voice>
        <type>quarter</type>
        <stem>up</stem>
        <lyric number="1" default-x="6.50" default-y="-48.00" relative-y="-30.00">
          <syllabic>single</syllabic>
          <text>주</text>
          </lyric>
        <lyric number="2" default-x="6.50" default-y="-69.74" relative-y="-30.00">
          <syllabic>single</syllabic>
          <text>세</text>
          </lyric>
        <lyric number="3" default-x="6.50" default-y="-91.48" relative-y="-30.00">
          <syllabic>single</syllabic>
          <text>근</text>
          </lyric>
        <lyric number="4" default-x="6.50" default-y="-113.21" relative-y="-30.00">
          <syllabic>single</syllabic>
          <text>흙</text>
          </lyric>
        </note>
      <note default-x="47.67" default-y="-40.00">
        <pitch>
          <step>E</step>
          <octave>4</octave>
          </pitch>
        <duration>1</duration>
        <voice>1</voice>
        <type>quarter</type>
        <stem>up</stem>
        <lyric number="1" default-x="6.50" default-y="-48.00" relative-y="-30.00">
          <syllabic>single</syllabic>
          <text>를</text>
          </lyric>
        <lyric number="2" default-x="6.50" default-y="-69.74" relative-y="-30.00">
          <syllabic>single</syllabic>
          <text>상</text>
          </lyric>
        <lyric number="3" default-x="6.50" default-y="-91.48" relative-y="-30.00">
          <syllabic>single</syllabic>
          <text>심</text>
          </lyric>
        <lyric number="4" default-x="6.50" default-y="-113.21" relative-y="-30.00">
          <syllabic>single</syllabic>
          <text>과</text>
          </lyric>
        </note>
      <note default-x="78.84" default-y="-35.00">
        <pitch>
          <step>F</step>
          <octave>4</octave>
          </pitch>
        <duration>1</duration>
        <voice>1</voice>
        <type>quarter</type>
        <stem>up</stem>
        <lyric number="1" default-x="6.50" default-y="-48.00" relative-y="-30.00">
          <syllabic>single</syllabic>
          <text>떠</text>
          </lyric>
        <lyric number="2" default-x="6.50" default-y="-69.74" relative-y="-30.00">
          <syllabic>single</syllabic>
          <text>헛</text>
          </lyric>
        <lyric number="3" default-x="6.50" default-y="-91.48" relative-y="-30.00">
          <syllabic>single</syllabic>
          <text>걱</text>
          </lyric>
        <lyric number="4" default-x="6.50" default-y="-113.21" relative-y="-30.00">
          <syllabic>single</syllabic>
          <text>같</text>
          </lyric>
        </note>
      <note default-x="110.01" default-y="-40.00">
        <pitch>
          <step>E</step>
          <octave>4</octave>
          </pitch>
        <duration>1</duration>
        <voice>1</voice>
        <type>quarter</type>
        <stem>up</stem>
        <lyric number="1" default-x="6.50" default-y="-48.00" relative-y="-30.00">
          <syllabic>single</syllabic>
          <text>나</text>
          </lyric>
        <lyric number="2" default-x="6.50" default-y="-69.74" relative-y="-30.00">
          <syllabic>single</syllabic>
          <text>된</text>
          </lyric>
        <lyric number="3" default-x="6.50" default-y="-91.48" relative-y="-30.00">
          <syllabic>single</syllabic>
          <text>정</text>
          </lyric>
        <lyric number="4" default-x="6.50" default-y="-113.21" relative-y="-30.00">
          <syllabic>single</syllabic>
          <text>은</text>
          </lyric>
        </note>
      <backup><duration>4</duration></backup><note default-x="16.50" default-y="-220.29">
        <pitch>
          <step>C</step>
          <octave>4</octave>
          </pitch>
        <duration>1</duration>
        <voice>2</voice>
        <type>quarter</type>
        <stem>down</stem>
        </note>
      <note default-x="47.67" default-y="-220.29">
        <pitch>
          <step>C</step>
          <octave>4</octave>
          </pitch>
        <duration>1</duration>
        <voice>2</voice>
        <type>quarter</type>
        <stem>down</stem>
        </note>
      <note default-x="78.84" default-y="-220.29">
        <pitch>
          <step>C</step>
          <octave>4</octave>
          </pitch>
        <duration>1</duration>
        <voice>2</voice>
        <type>quarter</type>
        <stem>down</stem>
        </note>
      <note default-x="110.01" default-y="-220.29">
        <pitch>
          <step>C</step>
          <octave>4</octave>
          </pitch>
        <duration>1</duration>
        <voice>2</voice>
        <type>quarter</type>
        <stem>down</stem>
        </note>
      </measure>
    <measure number="6" width="87.97">
      <note default-x="15.93" default-y="-20.00">
        <pitch>
          <step>B</step>
          <octave>4</octave>
          </pitch>
        <duration>2</duration>
        <voice>1</voice>
        <type>half</type>
        <stem>up</stem>
        <lyric number="1" default-x="6.50" default-y="-48.00" relative-y="-30.00">
          <syllabic>single</syllabic>
          <text>가</text>
          </lyric>
        <lyric number="2" default-x="6.50" default-y="-69.74" relative-y="-30.00">
          <syllabic>single</syllabic>
          <text>재</text>
          </lyric>
        <lyric number="3" default-x="6.50" default-y="-91.48" relative-y="-30.00">
          <syllabic>single</syllabic>
          <text>고</text>
          </lyric>
        <lyric number="4" default-x="6.50" default-y="-113.21" relative-y="-30.00">
          <syllabic>single</syllabic>
          <text>육</text>
          </lyric>
        </note>
      <note default-x="51.05" default-y="-30.00">
        <pitch>
          <step>G</step>
          <octave>4</octave>
          </pitch>
        <duration>2</duration>
        <voice>1</voice>
        <type>half</type>
        <stem>up</stem>
        <lyric number="1" default-x="6.50" default-y="-48.00" relative-y="-30.00">
          <syllabic>single</syllabic>
          <text>지</text>
          </lyric>
        <lyric number="2" default-x="6.50" default-y="-69.74" relative-y="-30.00">
          <syllabic>single</syllabic>
          <text>물</text>
          </lyric>
        <lyric number="3" default-x="6.50" default-y="-91.48" relative-y="-30.00">
          <syllabic>single</syllabic>
          <text>통</text>
          </lyric>
        <lyric number="4" default-x="6.50" default-y="-113.21" relative-y="-30.00">
          <syllabic>single</syllabic>
          <text>신</text>
          </lyric>
        </note>
      <backup><duration>4</duration></backup><note default-x="15.93" default-y="-210.29">
        <pitch>
          <step>E</step>
          <octave>4</octave>
          </pitch>
        <duration>2</duration>
        <voice>2</voice>
        <type>half</type>
        <stem>down</stem>
        </note>
      <note default-x="51.05" default-y="-210.29">
        <pitch>
          <step>E</step>
          <octave>4</octave>
          </pitch>
        <duration>2</duration>
        <voice>2</voice>
        <type>half</type>
        <stem>down</stem>
        </note>
      </measure>
    <measure number="7" width="143.42">
      <note default-x="20.96" default-y="-35.00">
        <pitch>
          <step>F</step>
          <alter>1</alter>
          <octave>4</octave>
          </pitch>
        <duration>1</duration>
        <voice>1</voice>
        <type>quarter</type>
        <accidental>sharp</accidental>
        <stem>up</stem>
        <lyric number="1" default-x="6.50" default-y="-48.00" relative-y="-30.00">
          <syllabic>single</syllabic>
          <text>말</text>
          </lyric>
        <lyric number="2" default-x="6.50" default-y="-69.74" relative-y="-30.00">
          <syllabic>single</syllabic>
          <text>유</text>
          </lyric>
        <lyric number="3" default-x="6.50" default-y="-91.48" relative-y="-30.00">
          <syllabic>single</syllabic>
          <text>내</text>
          </lyric>
        <lyric number="4" default-x="6.50" default-y="-113.21" relative-y="-30.00">
          <syllabic>single</syllabic>
          <text>무</text>
          </lyric>
        </note>
      <note default-x="50.88" default-y="-20.00">
        <pitch>
          <step>B</step>
          <octave>4</octave>
          </pitch>
        <duration>1</duration>
        <voice>1</voice>
        <type>quarter</type>
        <stem>up</stem>
        <lyric number="1" default-x="6.50" default-y="-48.00" relative-y="-30.00">
          <syllabic>single</syllabic>
          <text>게</text>
          </lyric>
        <lyric number="2" default-x="6.50" default-y="-69.74" relative-y="-30.00">
          <syllabic>single</syllabic>
          <text>혹</text>
          </lyric>
        <lyric number="3" default-x="6.50" default-y="-91.48" relative-y="-30.00">
          <syllabic>single</syllabic>
          <text>가</text>
          </lyric>
        <lyric number="4" default-x="6.50" default-y="-113.21" relative-y="-30.00">
          <syllabic>single</syllabic>
          <text>너</text>
          </lyric>
        </note>
      <note default-x="80.80" default-y="-25.00">
        <pitch>
          <step>A</step>
          <octave>4</octave>
          </pitch>
        <duration>1</duration>
        <voice>1</voice>
        <type>quarter</type>
        <stem>up</stem>
        <lyric number="1" default-x="6.50" default-y="-48.00" relative-y="-30.00">
          <syllabic>single</syllabic>
          <text>하</text>
          </lyric>
        <lyric number="2" default-x="6.50" default-y="-69.74" relative-y="-30.00">
          <syllabic>single</syllabic>
          <text>할</text>
          </lyric>
        <lyric number="3" default-x="6.50" default-y="-91.48" relative-y="-30.00">
          <syllabic>single</syllabic>
          <text>당</text>
          </lyric>
        <lyric number="4" default-x="6.50" default-y="-113.21" relative-y="-30.00">
          <syllabic>single</syllabic>
          <text>질</text>
          </lyric>
        </note>
      <note default-x="110.72" default-y="-35.00">
        <pitch>
          <step>F</step>
          <alter>1</alter>
          <octave>4</octave>
          </pitch>
        <duration>1</duration>
        <voice>1</voice>
        <type>quarter</type>
        <stem>up</stem>
        <lyric number="1" default-x="6.50" default-y="-48.00" relative-y="-30.00">
          <syllabic>single</syllabic>
          <text>소</text>
          </lyric>
        <lyric number="2" default-x="6.50" default-y="-69.74" relative-y="-30.00">
          <syllabic>single</syllabic>
          <text>때</text>
          </lyric>
        <lyric number="3" default-x="6.50" default-y="-91.48" relative-y="-30.00">
          <syllabic>single</syllabic>
          <text>할</text>
          </lyric>
        <lyric number="4" default-x="6.50" default-y="-113.21" relative-y="-30.00">
          <syllabic>single</syllabic>
          <text>때</text>
          </lyric>
        </note>
      <backup><duration>4</duration></backup><note default-x="20.96" default-y="-215.29">
        <pitch>
          <step>D</step>
          <alter>1</alter>
          <octave>4</octave>
          </pitch>
        <duration>1</duration>
        <voice>2</voice>
        <type>quarter</type>
        <accidental>sharp</accidental>
        <stem>down</stem>
        </note>
      <note default-x="50.88" default-y="-215.29">
        <pitch>
          <step>D</step>
          <alter>1</alter>
          <octave>4</octave>
          </pitch>
        <duration>1</duration>
        <voice>2</voice>
        <type>quarter</type>
        <stem>down</stem>
        </note>
      <note default-x="80.80" default-y="-215.29">
        <pitch>
          <step>D</step>
          <alter>1</alter>
          <octave>4</octave>
          </pitch>
        <duration>1</duration>
        <voice>2</voice>
        <type>quarter</type>
        <stem>down</stem>
        </note>
      <note default-x="110.72" default-y="-215.29">
        <pitch>
          <step>D</step>
          <alter>1</alter>
          <octave>4</octave>
          </pitch>
        <duration>1</duration>
        <voice>2</voice>
        <type>quarter</type>
        <stem>down</stem>
        </note>
      </measure>
    <measure number="8" width="91.02">
      <note default-x="14.17" default-y="-30.00">
        <pitch>
          <step>G</step>
          <octave>4</octave>
          </pitch>
        <duration>4</duration>
        <voice>1</voice>
        <type>whole</type>
        <lyric number="1" default-x="5.54" default-y="-48.00" relative-y="-30.00">
          <syllabic>single</syllabic>
          <text>서</text>
          </lyric>
        <lyric number="2" default-x="5.54" default-y="-69.74" relative-y="-30.00">
          <syllabic>single</syllabic>
          <text>에</text>
          </lyric>
        <lyric number="3" default-x="5.54" default-y="-91.48" relative-y="-30.00">
          <syllabic>single</syllabic>
          <text>때</text>
          </lyric>
        <lyric number="4" default-x="5.54" default-y="-113.21" relative-y="-30.00">
          <syllabic>single</syllabic>
          <text>에</text>
          </lyric>
        </note>
      <backup><duration>4</duration></backup><note default-x="15.13" default-y="-210.29">
        <pitch>
          <step>E</step>
          <octave>4</octave>
          </pitch>
        <duration>2</duration>
        <voice>2</voice>
        <type>half</type>
        <stem>down</stem>
        <notations>
          <slur type="start" placement="below" number="1"/>
          </notations>
        </note>
      <note default-x="52.17" default-y="-205.29">
        <pitch>
          <step>F</step>
          <octave>4</octave>
          </pitch>
        <duration>2</duration>
        <voice>2</voice>
        <type>half</type>
        <accidental>natural</accidental>
        <stem>down</stem>
        <notations>
          <slur type="stop" number="1"/>
          </notations>
        </note>
      </measure>
    <measure number="9" width="178.36">
      <print new-system="yes">
        <system-layout>
          <system-margins>
            <left-margin>0.00</left-margin>
            <right-margin>0.00</right-margin>
            </system-margins>
          <system-distance>150.00</system-distance>
          </system-layout>
        </print>
      <note default-x="61.36" default-y="-30.00">
        <pitch>
          <step>G</step>
          <octave>4</octave>
          </pitch>
        <duration>1</duration>
        <voice>1</voice>
        <type>quarter</type>
        <stem>up</stem>
        <lyric number="1" default-x="6.50" default-y="-48.00" relative-y="-30.00">
          <syllabic>single</syllabic>
          <text>떨</text>
          </lyric>
        <lyric number="2" default-x="6.50" default-y="-69.74" relative-y="-30.00">
          <syllabic>single</syllabic>
          <text>겟</text>
          </lyric>
        <lyric number="3" default-x="6.50" default-y="-91.48" relative-y="-30.00">
          <syllabic>single</syllabic>
          <text>주</text>
          </lyric>
        <lyric number="4" default-x="6.50" default-y="-113.21" relative-y="-30.00">
          <syllabic>single</syllabic>
          <text>오</text>
          </lyric>
        </note>
      <note default-x="89.46" default-y="-20.00">
        <pitch>
          <step>B</step>
          <octave>4</octave>
          </pitch>
        <duration>1</duration>
        <voice>1</voice>
        <type>quarter</type>
        <stem>up</stem>
        <lyric number="1" default-x="6.50" default-y="-48.00" relative-y="-30.00">
          <syllabic>single</syllabic>
          <text>며</text>
          </lyric>
        <lyric number="2" default-x="6.50" default-y="-69.74" relative-y="-30.00">
          <syllabic>single</syllabic>
          <text>세</text>
          </lyric>
        <lyric number="3" default-x="6.50" default-y="-91.48" relative-y="-30.00">
          <syllabic>single</syllabic>
          <text>의</text>
          </lyric>
        <lyric number="4" default-x="6.50" default-y="-113.21" relative-y="-30.00">
          <syllabic>single</syllabic>
          <text>직</text>
          </lyric>
        </note>
      <note default-x="117.56" default-y="-25.00">
        <pitch>
          <step>A</step>
          <octave>4</octave>
          </pitch>
        <duration>1</duration>
        <voice>1</voice>
        <type>quarter</type>
        <stem>up</stem>
        <lyric number="1" default-x="6.50" default-y="-48.00" relative-y="-30.00">
          <syllabic>single</syllabic>
          <text>주</text>
          </lyric>
        <lyric number="2" default-x="6.50" default-y="-69.74" relative-y="-30.00">
          <syllabic>single</syllabic>
          <text>마</text>
          </lyric>
        <lyric number="3" default-x="6.50" default-y="-91.48" relative-y="-30.00">
          <syllabic>single</syllabic>
          <text>능</text>
          </lyric>
        <lyric number="4" default-x="6.50" default-y="-113.21" relative-y="-30.00">
          <syllabic>single</syllabic>
          <text>주</text>
          </lyric>
        </note>
      <note default-x="145.66" default-y="-30.00">
        <pitch>
          <step>G</step>
          <octave>4</octave>
          </pitch>
        <duration>1</duration>
        <voice>1</voice>
        <type>quarter</type>
        <stem>up</stem>
        <lyric number="1" default-x="6.50" default-y="-48.00" relative-y="-30.00">
          <syllabic>single</syllabic>
          <text>저</text>
          </lyric>
        <lyric number="2" default-x="6.50" default-y="-69.74" relative-y="-30.00">
          <syllabic>single</syllabic>
          <text>네</text>
          </lyric>
        <lyric number="3" default-x="6.50" default-y="-91.48" relative-y="-30.00">
          <syllabic>single</syllabic>
          <text>한</text>
          </lyric>
        <lyric number="4" default-x="6.50" default-y="-113.21" relative-y="-30.00">
          <syllabic>single</syllabic>
          <text>의</text>
          </lyric>
        </note>
      <backup><duration>4</duration></backup><note default-x="61.36" default-y="-208.93">
        <pitch>
          <step>F</step>
          <octave>4</octave>
          </pitch>
        <duration>1</duration>
        <voice>2</voice>
        <type>quarter</type>
        <stem>down</stem>
        </note>
      <note default-x="89.46" default-y="-208.93">
        <pitch>
          <step>F</step>
          <octave>4</octave>
          </pitch>
        <duration>1</duration>
        <voice>2</voice>
        <type>quarter</type>
        <stem>down</stem>
        </note>
      <note default-x="117.56" default-y="-208.93">
        <pitch>
          <step>F</step>
          <octave>4</octave>
          </pitch>
        <duration>1</duration>
        <voice>2</voice>
        <type>quarter</type>
        <stem>down</stem>
        </note>
      <note default-x="145.66" default-y="-208.93">
        <pitch>
          <step>F</step>
          <octave>4</octave>
          </pitch>
        <duration>1</duration>
        <voice>2</voice>
        <type>quarter</type>
        <stem>down</stem>
        </note>
      </measure>
    <measure number="10" width="93.41">
      <note default-x="15.90" default-y="-15.00">
        <pitch>
          <step>C</step>
          <octave>5</octave>
          </pitch>
        <duration>1</duration>
        <voice>1</voice>
        <type>quarter</type>
        <stem>up</stem>
        <notations>
          <slur type="start" placement="above" number="1"/>
          </notations>
        <lyric number="1" default-x="6.50" default-y="-48.00" relative-y="-30.00">
          <syllabic>single</syllabic>
          <text>할</text>
          </lyric>
        <lyric number="2" default-x="6.50" default-y="-69.74" relative-y="-30.00">
          <syllabic>single</syllabic>
          <text>피</text>
          </lyric>
        <lyric number="3" default-x="6.50" default-y="-91.48" relative-y="-30.00">
          <syllabic>single</syllabic>
          <text>손</text>
          </lyric>
        <lyric number="4" default-x="6.50" default-y="-113.21" relative-y="-30.00">
          <syllabic>single</syllabic>
          <text>은</text>
          </lyric>
        </note>
      <note default-x="36.93" default-y="-40.00">
        <pitch>
          <step>E</step>
          <octave>4</octave>
          </pitch>
        <duration>1</duration>
        <voice>1</voice>
        <type>quarter</type>
        <stem>up</stem>
        <notations>
          <slur type="stop" number="1"/>
          </notations>
        </note>
      <note default-x="57.96" default-y="-30.00">
        <pitch>
          <step>G</step>
          <octave>4</octave>
          </pitch>
        <duration>2</duration>
        <voice>1</voice>
        <type>half</type>
        <stem>up</stem>
        <lyric number="1" default-x="6.50" default-y="-48.00" relative-y="-30.00">
          <syllabic>single</syllabic>
          <text>때</text>
          </lyric>
        <lyric number="2" default-x="6.50" default-y="-69.74" relative-y="-30.00">
          <syllabic>single</syllabic>
          <text>땀</text>
          </lyric>
        <lyric number="3" default-x="6.50" default-y="-91.48" relative-y="-30.00">
          <syllabic>single</syllabic>
          <text>을</text>
          </lyric>
        <lyric number="4" default-x="6.50" default-y="-113.21" relative-y="-30.00">
          <syllabic>single</syllabic>
          <text>혜</text>
          </lyric>
        </note>
      <backup><duration>4</duration></backup><note default-x="15.90" default-y="-213.93">
        <pitch>
          <step>E</step>
          <octave>4</octave>
          </pitch>
        <duration>1</duration>
        <voice>2</voice>
        <type>quarter</type>
        <stem>down</stem>
        </note>
      <note default-x="36.93" default-y="-223.93">
        <pitch>
          <step>C</step>
          <octave>4</octave>
          </pitch>
        <duration>1</duration>
        <voice>2</voice>
        <type>quarter</type>
        <stem>down</stem>
        </note>
      <note default-x="57.96" default-y="-213.93">
        <pitch>
          <step>E</step>
          <octave>4</octave>
          </pitch>
        <duration>2</duration>
        <voice>2</voice>
        <type>half</type>
        <stem>down</stem>
        </note>
      </measure>
    <measure number="11" width="133.86">
      <note default-x="15.70" default-y="-30.00">
        <pitch>
          <step>G</step>
          <octave>4</octave>
          </pitch>
        <duration>1</duration>
        <voice>1</voice>
        <type>quarter</type>
        <stem>up</stem>
        <lyric number="1" default-x="6.50" default-y="-48.00" relative-y="-30.00">
          <syllabic>single</syllabic>
          <text>나</text>
          </lyric>
        <lyric number="2" default-x="6.50" default-y="-69.74" relative-y="-30.00">
          <syllabic>single</syllabic>
          <text>생</text>
          </lyric>
        <lyric number="3" default-x="6.50" default-y="-91.48" relative-y="-30.00">
          <syllabic>single</syllabic>
          <text>보</text>
          </lyric>
        <lyric number="4" default-x="6.50" default-y="-113.21" relative-y="-30.00">
          <syllabic>single</syllabic>
          <text>의</text>
          </lyric>
        </note>
      <note default-x="44.16" default-y="-20.00">
        <pitch>
          <step>B</step>
          <octave>4</octave>
          </pitch>
        <duration>1</duration>
        <voice>1</voice>
        <type>quarter</type>
        <stem>up</stem>
        <lyric number="1" default-x="6.50" default-y="-48.00" relative-y="-30.00">
          <syllabic>single</syllabic>
          <text>를</text>
          </lyric>
        <lyric number="2" default-x="6.50" default-y="-69.74" relative-y="-30.00">
          <syllabic>single</syllabic>
          <text>각</text>
          </lyric>
        <lyric number="3" default-x="6.50" default-y="-91.48" relative-y="-30.00">
          <syllabic>single</syllabic>
          <text>게</text>
          </lyric>
        <lyric number="4" default-x="6.50" default-y="-113.21" relative-y="-30.00">
          <syllabic>single</syllabic>
          <text>지</text>
          </lyric>
        </note>
      <note default-x="72.62" default-y="-25.00">
        <pitch>
          <step>A</step>
          <octave>4</octave>
          </pitch>
        <duration>1</duration>
        <voice>1</voice>
        <type>quarter</type>
        <stem>up</stem>
        <lyric number="1" default-x="6.50" default-y="-48.00" relative-y="-30.00">
          <syllabic>single</syllabic>
          <text>붙</text>
          </lyric>
        <lyric number="2" default-x="6.50" default-y="-69.74" relative-y="-30.00">
          <syllabic>single</syllabic>
          <text>케</text>
          </lyric>
        <lyric number="3" default-x="6.50" default-y="-91.48" relative-y="-30.00">
          <syllabic>single</syllabic>
          <text>하</text>
          </lyric>
        <lyric number="4" default-x="6.50" default-y="-113.21" relative-y="-30.00">
          <syllabic>single</syllabic>
          <text>하</text>
          </lyric>
        </note>
      <note default-x="101.07" default-y="-30.00">
        <pitch>
          <step>G</step>
          <octave>4</octave>
          </pitch>
        <duration>1</duration>
        <voice>1</voice>
        <type>quarter</type>
        <stem>up</stem>
        <lyric number="1" default-x="6.50" default-y="-48.00" relative-y="-30.00">
          <syllabic>single</syllabic>
          <text>드</text>
          </lyric>
        <lyric number="2" default-x="6.50" default-y="-69.74" relative-y="-30.00">
          <syllabic>single</syllabic>
          <text>하</text>
          </lyric>
        <lyric number="3" default-x="6.50" default-y="-91.48" relative-y="-30.00">
          <syllabic>single</syllabic>
          <text>시</text>
          </lyric>
        <lyric number="4" default-x="6.50" default-y="-113.21" relative-y="-30.00">
          <syllabic>single</syllabic>
          <text>리</text>
          </lyric>
        </note>
      <backup><duration>4</duration></backup><note default-x="15.70" default-y="-208.93">
        <pitch>
          <step>F</step>
          <octave>4</octave>
          </pitch>
        <duration>1</duration>
        <voice>2</voice>
        <type>quarter</type>
        <stem>down</stem>
        </note>
      <note default-x="44.16" default-y="-208.93">
        <pitch>
          <step>F</step>
          <octave>4</octave>
          </pitch>
        <duration>1</duration>
        <voice>2</voice>
        <type>quarter</type>
        <stem>down</stem>
        </note>
      <note default-x="72.62" default-y="-208.93">
        <pitch>
          <step>F</step>
          <octave>4</octave>
          </pitch>
        <duration>1</duration>
        <voice>2</voice>
        <type>quarter</type>
        <stem>down</stem>
        </note>
      <note default-x="101.07" default-y="-208.93">
        <pitch>
          <step>F</step>
          <octave>4</octave>
          </pitch>
        <duration>1</duration>
        <voice>2</voice>
        <type>quarter</type>
        <stem>down</stem>
        </note>
      </measure>
    <measure number="12" width="107.82">
      <note default-x="16.21" default-y="-15.00">
        <pitch>
          <step>C</step>
          <octave>5</octave>
          </pitch>
        <duration>1</duration>
        <voice>1</voice>
        <type>quarter</type>
        <stem>up</stem>
        <notations>
          <slur type="start" placement="above" number="1"/>
          </notations>
        <lyric number="1" default-x="6.50" default-y="-48.00" relative-y="-30.00">
          <syllabic>single</syllabic>
          <text>사</text>
          </lyric>
        <lyric number="2" default-x="6.50" default-y="-69.74" relative-y="-30.00">
          <syllabic>single</syllabic>
          <text>사</text>
          </lyric>
        <lyric number="3" default-x="6.50" default-y="-91.48" relative-y="-30.00">
          <syllabic>single</syllabic>
          <text>며</text>
          </lyric>
        <lyric number="4" default-x="6.50" default-y="-113.21" relative-y="-30.00">
          <syllabic>single</syllabic>
          <text>니</text>
          </lyric>
        </note>
      <note default-x="45.66" default-y="-25.00">
        <pitch>
          <step>A</step>
          <octave>4</octave>
          </pitch>
        <duration>1</duration>
        <voice>1</voice>
        <type>quarter</type>
        <stem>up</stem>
        </note>
      <note default-x="68.88" default-y="-30.00">
        <pitch>
          <step>G</step>
          <octave>4</octave>
          </pitch>
        <duration>2</duration>
        <voice>1</voice>
        <type>half</type>
        <stem>up</stem>
        <notations>
          <slur type="stop" number="1"/>
          </notations>
        </note>
      <backup><duration>4</duration></backup><note default-x="16.21" default-y="-213.93">
        <pitch>
          <step>E</step>
          <octave>4</octave>
          </pitch>
        <duration>1</duration>
        <voice>2</voice>
        <type>quarter</type>
        <stem>down</stem>
        </note>
      <note default-x="45.66" default-y="-218.93">
        <pitch>
          <step>D</step>
          <alter>1</alter>
          <octave>4</octave>
          </pitch>
        <duration>1</duration>
        <voice>2</voice>
        <type>quarter</type>
        <accidental>sharp</accidental>
        <stem>down</stem>
        </note>
      <note default-x="68.88" default-y="-213.93">
        <pitch>
          <step>E</step>
          <octave>4</octave>
          </pitch>
        <duration>2</duration>
        <voice>2</voice>
        <type>half</type>
        <stem>down</stem>
        </note>
      </measure>
    <measure number="13" width="143.15">
      <note default-x="16.50" default-y="-30.00">
        <pitch>
          <step>G</step>
          <octave>4</octave>
          </pitch>
        <duration>1</duration>
        <voice>1</voice>
        <type>quarter</type>
        <stem>up</stem>
        <lyric number="1" default-x="6.50" default-y="-48.00" relative-y="-30.00">
          <syllabic>single</syllabic>
          <text>넘</text>
          </lyric>
        <lyric number="2" default-x="6.50" default-y="-69.74" relative-y="-30.00">
          <syllabic>single</syllabic>
          <text>십</text>
          </lyric>
        <lyric number="3" default-x="6.50" default-y="-91.48" relative-y="-30.00">
          <syllabic>single</syllabic>
          <text>주</text>
          </lyric>
        <lyric number="4" default-x="6.50" default-y="-113.21" relative-y="-30.00">
          <syllabic>single</syllabic>
          <text>영</text>
          </lyric>
        </note>
      <note default-x="47.71" default-y="-5.00">
        <pitch>
          <step>E</step>
          <octave>5</octave>
          </pitch>
        <duration>1</duration>
        <voice>1</voice>
        <type>quarter</type>
        <stem>up</stem>
        <lyric number="1" default-x="6.50" default-y="-48.00" relative-y="-30.00">
          <syllabic>single</syllabic>
          <text>어</text>
          </lyric>
        <lyric number="2" default-x="6.50" default-y="-69.74" relative-y="-30.00">
          <syllabic>single</syllabic>
          <text>자</text>
          </lyric>
        <lyric number="3" default-x="6.50" default-y="-91.48" relative-y="-30.00">
          <syllabic>single</syllabic>
          <text>여</text>
          </lyric>
        <lyric number="4" default-x="6.50" default-y="-113.21" relative-y="-30.00">
          <syllabic>single</syllabic>
          <text>생</text>
          </lyric>
        </note>
      <note default-x="78.92" default-y="-10.00">
        <pitch>
          <step>D</step>
          <octave>5</octave>
          </pitch>
        <duration>1</duration>
        <voice>1</voice>
        <type>quarter</type>
        <stem>up</stem>
        <lyric number="1" default-x="6.50" default-y="-48.00" relative-y="-30.00">
          <syllabic>single</syllabic>
          <text>지</text>
          </lyric>
        <lyric number="2" default-x="6.50" default-y="-69.74" relative-y="-30.00">
          <syllabic>single</syllabic>
          <text>가</text>
          </lyric>
        <lyric number="3" default-x="6.50" default-y="-91.48" relative-y="-30.00">
          <syllabic>single</syllabic>
          <text>나</text>
          </lyric>
        <lyric number="4" default-x="6.50" default-y="-113.21" relative-y="-30.00">
          <syllabic>single</syllabic>
          <text>하</text>
          </lyric>
        </note>
      <note default-x="110.13" default-y="-15.00">
        <pitch>
          <step>C</step>
          <octave>5</octave>
          </pitch>
        <duration>1</duration>
        <voice>1</voice>
        <type>quarter</type>
        <stem>up</stem>
        <lyric number="1" default-x="6.50" default-y="-48.00" relative-y="-30.00">
          <syllabic>single</syllabic>
          <text>지</text>
          </lyric>
        <lyric number="2" default-x="6.50" default-y="-69.74" relative-y="-30.00">
          <syllabic>single</syllabic>
          <text>의</text>
          </lyric>
        <lyric number="3" default-x="6.50" default-y="-91.48" relative-y="-30.00">
          <syllabic>single</syllabic>
          <text>의</text>
          </lyric>
        <lyric number="4" default-x="6.50" default-y="-113.21" relative-y="-30.00">
          <syllabic>single</syllabic>
          <text>는</text>
          </lyric>
        </note>
      <backup><duration>4</duration></backup><note default-x="16.50" default-y="-213.93">
        <pitch>
          <step>E</step>
          <octave>4</octave>
          </pitch>
        <duration>1</duration>
        <voice>2</voice>
        <type>quarter</type>
        <stem>down</stem>
        </note>
      <note default-x="47.71" default-y="-203.93">
        <pitch>
          <step>G</step>
          <octave>4</octave>
          </pitch>
        <duration>1</duration>
        <voice>2</voice>
        <type>quarter</type>
        <stem>down</stem>
        </note>
      <note default-x="78.92" default-y="-203.93">
        <pitch>
          <step>G</step>
          <octave>4</octave>
          </pitch>
        <duration>1</duration>
        <voice>2</voice>
        <type>quarter</type>
        <stem>down</stem>
        </note>
      <note default-x="110.13" default-y="-203.93">
        <pitch>
          <step>G</step>
          <octave>4</octave>
          </pitch>
        <duration>1</duration>
        <voice>2</voice>
        <type>quarter</type>
        <stem>down</stem>
        </note>
      </measure>
    <measure number="14" width="81.86">
      <note default-x="15.78" default-y="-15.00">
        <pitch>
          <step>C</step>
          <octave>5</octave>
          </pitch>
        <duration>2</duration>
        <voice>1</voice>
        <type>half</type>
        <stem>up</stem>
        <lyric number="1" default-x="6.50" default-y="-48.00" relative-y="-30.00">
          <syllabic>single</syllabic>
          <text>않</text>
          </lyric>
        <lyric number="2" default-x="6.50" default-y="-69.74" relative-y="-30.00">
          <syllabic>single</syllabic>
          <text>주</text>
          </lyric>
        <lyric number="3" default-x="6.50" default-y="-91.48" relative-y="-30.00">
          <syllabic>single</syllabic>
          <text>근</text>
          </lyric>
        <lyric number="4" default-x="6.50" default-y="-113.21" relative-y="-30.00">
          <syllabic>single</syllabic>
          <text>곳</text>
          </lyric>
        </note>
      <note default-x="47.92" default-y="-25.00">
        <pitch>
          <step>A</step>
          <octave>4</octave>
          </pitch>
        <duration>2</duration>
        <voice>1</voice>
        <type>half</type>
        <stem>up</stem>
        <lyric number="1" default-x="6.50" default-y="-48.00" relative-y="-30.00">
          <syllabic>single</syllabic>
          <text>게</text>
          </lyric>
        <lyric number="2" default-x="6.50" default-y="-69.74" relative-y="-30.00">
          <syllabic>single</syllabic>
          <text>를</text>
          </lyric>
        <lyric number="3" default-x="6.50" default-y="-91.48" relative-y="-30.00">
          <syllabic>single</syllabic>
          <text>심</text>
          </lyric>
        <lyric number="4" default-x="6.50" default-y="-113.21" relative-y="-30.00">
          <syllabic>single</syllabic>
          <text>에</text>
          </lyric>
        </note>
      <backup><duration>4</duration></backup><note default-x="15.78" default-y="-208.93">
        <pitch>
          <step>F</step>
          <octave>4</octave>
          </pitch>
        <duration>2</duration>
        <voice>2</voice>
        <type>half</type>
        <stem>down</stem>
        </note>
      <note default-x="47.92" default-y="-208.93">
        <pitch>
          <step>F</step>
          <octave>4</octave>
          </pitch>
        <duration>2</duration>
        <voice>2</voice>
        <type>half</type>
        <stem>down</stem>
        </note>
      </measure>
    <measure number="15" width="134.07">
      <note default-x="16.50" default-y="-30.00">
        <pitch>
          <step>G</step>
          <octave>4</octave>
          </pitch>
        <duration>1</duration>
        <voice>1</voice>
        <type>quarter</type>
        <stem>up</stem>
        <lyric number="1" default-x="6.50" default-y="-48.00" relative-y="-30.00">
          <syllabic>single</syllabic>
          <text>지</text>
          </lyric>
        <lyric number="2" default-x="6.50" default-y="-69.74" relative-y="-30.00">
          <syllabic>single</syllabic>
          <text>보</text>
          </lyric>
        <lyric number="3" default-x="6.50" default-y="-91.48" relative-y="-30.00">
          <syllabic>single</syllabic>
          <text>맡</text>
          </lyric>
        <lyric number="4" default-x="6.50" default-y="-113.21" relative-y="-30.00">
          <syllabic>single</syllabic>
          <text>인</text>
          </lyric>
        </note>
      <note default-x="44.86" default-y="-30.00">
        <pitch>
          <step>G</step>
          <octave>4</octave>
          </pitch>
        <duration>1</duration>
        <voice>1</voice>
        <type>quarter</type>
        <stem>up</stem>
        <lyric number="1" default-x="6.50" default-y="-48.00" relative-y="-30.00">
          <syllabic>single</syllabic>
          <text>켜</text>
          </lyric>
        <lyric number="2" default-x="6.50" default-y="-69.74" relative-y="-30.00">
          <syllabic>single</syllabic>
          <text>게</text>
          </lyric>
        <lyric number="3" default-x="6.50" default-y="-91.48" relative-y="-30.00">
          <syllabic>single</syllabic>
          <text>아</text>
          </lyric>
        <lyric number="4" default-x="6.50" default-y="-113.21" relative-y="-30.00">
          <syllabic>single</syllabic>
          <text>도</text>
          </lyric>
        </note>
      <note default-x="73.21" default-y="-30.00">
        <pitch>
          <step>G</step>
          <octave>4</octave>
          </pitch>
        <duration>1</duration>
        <voice>1</voice>
        <type>quarter</type>
        <stem>up</stem>
        <lyric number="1" default-x="6.50" default-y="-48.00" relative-y="-30.00">
          <syllabic>single</syllabic>
          <text>주</text>
          </lyric>
        <lyric number="2" default-x="6.50" default-y="-69.74" relative-y="-30.00">
          <syllabic>single</syllabic>
          <text>하</text>
          </lyric>
        <lyric number="3" default-x="6.50" default-y="-91.48" relative-y="-30.00">
          <syllabic>single</syllabic>
          <text>주</text>
          </lyric>
        <lyric number="4" default-x="6.50" default-y="-113.21" relative-y="-30.00">
          <syllabic>single</syllabic>
          <text>하</text>
          </lyric>
        </note>
      <note default-x="101.57" default-y="-30.00">
        <pitch>
          <step>G</step>
          <octave>4</octave>
          </pitch>
        <duration>1</duration>
        <voice>1</voice>
        <type>quarter</type>
        <stem>up</stem>
        <lyric number="1" default-x="6.50" default-y="-48.00" relative-y="-30.00">
          <syllabic>single</syllabic>
          <text>소</text>
          </lyric>
        <lyric number="2" default-x="6.50" default-y="-69.74" relative-y="-30.00">
          <syllabic>single</syllabic>
          <text>소</text>
          </lyric>
        <lyric number="3" default-x="6.50" default-y="-91.48" relative-y="-30.00">
          <syllabic>single</syllabic>
          <text>소</text>
          </lyric>
        <lyric number="4" default-x="6.50" default-y="-113.21" relative-y="-30.00">
          <syllabic>single</syllabic>
          <text>소</text>
          </lyric>
        </note>
      <backup><duration>4</duration></backup><note default-x="16.50" default-y="-213.93">
        <pitch>
          <step>E</step>
          <octave>4</octave>
          </pitch>
        <duration>1</duration>
        <voice>2</voice>
        <type>quarter</type>
        <stem>down</stem>
        </note>
      <note default-x="44.86" default-y="-218.93">
        <pitch>
          <step>D</step>
          <octave>4</octave>
          </pitch>
        <duration>1</duration>
        <voice>2</voice>
        <type>quarter</type>
        <stem>down</stem>
        </note>
      <note default-x="73.21" default-y="-213.93">
        <pitch>
          <step>E</step>
          <octave>4</octave>
          </pitch>
        <duration>1</duration>
        <voice>2</voice>
        <type>quarter</type>
        <stem>down</stem>
        </note>
      <note default-x="101.57" default-y="-208.93">
        <pitch>
          <step>F</step>
          <octave>4</octave>
          </pitch>
        <duration>1</duration>
        <voice>2</voice>
        <type>quarter</type>
        <stem>down</stem>
        </note>
      </measure>
    <measure number="16" width="63.71">
      <note default-x="16.50" default-y="-30.00">
        <pitch>
          <step>G</step>
          <octave>4</octave>
          </pitch>
        <duration>4</duration>
        <voice>1</voice>
        <type>whole</type>
        <lyric number="1" default-x="5.54" default-y="-48.00" relative-y="-30.00">
          <syllabic>single</syllabic>
          <text>서</text>
          </lyric>
        <lyric number="2" default-x="5.54" default-y="-69.74" relative-y="-30.00">
          <syllabic>single</syllabic>
          <text>서</text>
          </lyric>
        <lyric number="3" default-x="5.54" default-y="-91.48" relative-y="-30.00">
          <syllabic>single</syllabic>
          <text>서</text>
          </lyric>
        <lyric number="4" default-x="5.54" default-y="-113.21" relative-y="-30.00">
          <syllabic>single</syllabic>
          <text>서</text>
          </lyric>
        </note>
      <barline location="right">
        <bar-style>light-light</bar-style>
        </barline>
      <backup><duration>4</duration></backup><note default-x="16.50" default-y="-213.93">
        <pitch>
          <step>E</step>
          <octave>4</octave>
          </pitch>
        <duration>4</duration>
        <voice>2</voice>
        <type>whole</type>
        </note>
      </measure>
    <measure number="17" width="92.46">
      <note default-x="16.50" default-y="-25.00">
        <pitch>
          <step>A</step>
          <octave>4</octave>
          </pitch>
        <duration>2</duration>
        <voice>1</voice>
        <type>half</type>
        <stem>up</stem>
        <lyric number="4" default-x="6.50" default-y="-113.21" relative-y="-30.00">
          <syllabic>single</syllabic>
          <text>아</text>
          </lyric>
        </note>
      <note default-x="49.16" default-y="-30.00">
        <pitch>
          <step>G</step>
          <octave>4</octave>
          </pitch>
        <duration>2</duration>
        <voice>1</voice>
        <type>half</type>
        <stem>up</stem>
        <lyric number="4" default-x="6.50" default-y="-113.21" relative-y="-30.00">
          <syllabic>single</syllabic>
          <text>멘</text>
          </lyric>
        </note>
      <barline location="right">
        <bar-style>light-heavy</bar-style>
        </barline>
      <backup><duration>4</duration></backup><note default-x="16.50" default-y="-208.93">
        <pitch>
          <step>F</step>
          <octave>4</octave>
          </pitch>
        <duration>2</duration>
        <voice>2</voice>
        <type>half</type>
        <stem>down</stem>
        </note>
      <note default-x="49.16" default-y="-213.93">
        <pitch>
          <step>E</step>
          <octave>4</octave>
          </pitch>
        <duration>2</duration>
        <voice>2</voice>
        <type>half</type>
        <stem>down</stem>
        </note>
      </measure>
    </part>
  <part id="P3">
    <measure number="1" width="213.21">
      <print>
        <staff-layout number="1">
          <staff-distance>65.00</staff-distance>
          </staff-layout>
        </print>
      <attributes>
        <divisions>1</divisions>
        <key>
          <fifths>0</fifths>
          </key>
        <time>
          <beats>4</beats>
          <beat-type>4</beat-type>
          </time>
        <clef>
          <sign>F</sign>
          <line>4</line>
          </clef>
        </attributes>
      <note default-x="86.99" default-y="-280.29">
        <pitch>
          <step>G</step>
          <octave>3</octave>
          </pitch>
        <duration>1</duration>
        <voice>1</voice>
        <type>quarter</type>
        <stem>up</stem>
        </note>
      <note default-x="118.09" default-y="-280.29">
        <pitch>
          <step>G</step>
          <octave>3</octave>
          </pitch>
        <duration>1</duration>
        <voice>1</voice>
        <type>quarter</type>
        <stem>up</stem>
        </note>
      <note default-x="149.20" default-y="-275.29">
        <pitch>
          <step>A</step>
          <octave>3</octave>
          </pitch>
        <duration>1</duration>
        <voice>1</voice>
        <type>quarter</type>
        <stem>up</stem>
        </note>
      <note default-x="180.30" default-y="-280.29">
        <pitch>
          <step>G</step>
          <octave>3</octave>
          </pitch>
        <duration>1</duration>
        <voice>1</voice>
        <type>quarter</type>
        <stem>up</stem>
        </note>
      <backup><duration>4</duration></backup><note default-x="86.99" default-y="-405.29">
        <pitch>
          <step>C</step>
          <octave>3</octave>
          </pitch>
        <duration>1</duration>
        <voice>2</voice>
        <type>quarter</type>
        <stem>down</stem>
        </note>
      <note default-x="118.09" default-y="-405.29">
        <pitch>
          <step>C</step>
          <octave>3</octave>
          </pitch>
        <duration>1</duration>
        <voice>2</voice>
        <type>quarter</type>
        <stem>down</stem>
        </note>
      <note default-x="149.20" default-y="-405.29">
        <pitch>
          <step>C</step>
          <octave>3</octave>
          </pitch>
        <duration>1</duration>
        <voice>2</voice>
        <type>quarter</type>
        <stem>down</stem>
        </note>
      <note default-x="180.30" default-y="-405.29">
        <pitch>
          <step>C</step>
          <octave>3</octave>
          </pitch>
        <duration>1</duration>
        <voice>2</voice>
        <type>quarter</type>
        <stem>down</stem>
        </note>
      </measure>
    <measure number="2" width="94.12">
      <note default-x="20.96" default-y="-285.29">
        <pitch>
          <step>F</step>
          <alter>1</alter>
          <octave>3</octave>
          </pitch>
        <duration>2</duration>
        <voice>1</voice>
        <type>half</type>
        <accidental>sharp</accidental>
        <stem>up</stem>
        </note>
      <note default-x="56.64" default-y="-280.29">
        <pitch>
          <step>G</step>
          <octave>3</octave>
          </pitch>
        <duration>2</duration>
        <voice>1</voice>
        <type>half</type>
        <stem>up</stem>
        </note>
      <backup><duration>4</duration></backup><note default-x="20.96" default-y="-405.29">
        <pitch>
          <step>C</step>
          <octave>3</octave>
          </pitch>
        <duration>2</duration>
        <voice>2</voice>
        <type>half</type>
        <stem>down</stem>
        </note>
      <note default-x="56.64" default-y="-405.29">
        <pitch>
          <step>C</step>
          <octave>3</octave>
          </pitch>
        <duration>2</duration>
        <voice>2</voice>
        <type>half</type>
        <stem>down</stem>
        </note>
      </measure>
    <measure number="3" width="140.62">
      <note default-x="15.70" default-y="-280.29">
        <pitch>
          <step>G</step>
          <octave>3</octave>
          </pitch>
        <duration>1</duration>
        <voice>1</voice>
        <type>quarter</type>
        <stem>up</stem>
        </note>
      <note default-x="46.41" default-y="-280.29">
        <pitch>
          <step>G</step>
          <octave>3</octave>
          </pitch>
        <duration>1</duration>
        <voice>1</voice>
        <type>quarter</type>
        <stem>up</stem>
        </note>
      <note default-x="77.12" default-y="-280.29">
        <pitch>
          <step>G</step>
          <octave>3</octave>
          </pitch>
        <duration>1</duration>
        <voice>1</voice>
        <type>quarter</type>
        <stem>up</stem>
        </note>
      <note default-x="107.83" default-y="-280.29">
        <pitch>
          <step>G</step>
          <octave>3</octave>
          </pitch>
        <duration>1</duration>
        <voice>1</voice>
        <type>quarter</type>
        <stem>up</stem>
        </note>
      <backup><duration>4</duration></backup><note default-x="15.70" default-y="-405.29">
        <pitch>
          <step>C</step>
          <octave>3</octave>
          </pitch>
        <duration>1</duration>
        <voice>2</voice>
        <type>quarter</type>
        <stem>down</stem>
        </note>
      <note default-x="46.41" default-y="-405.29">
        <pitch>
          <step>C</step>
          <octave>3</octave>
          </pitch>
        <duration>1</duration>
        <voice>2</voice>
        <type>quarter</type>
        <stem>down</stem>
        </note>
      <note default-x="77.12" default-y="-420.29">
        <pitch>
          <step>G</step>
          <octave>2</octave>
          </pitch>
        <duration>1</duration>
        <voice>2</voice>
        <type>quarter</type>
        <stem>down</stem>
        </note>
      <note default-x="107.83" default-y="-420.29">
        <pitch>
          <step>G</step>
          <octave>2</octave>
          </pitch>
        <duration>1</duration>
        <voice>2</voice>
        <type>quarter</type>
        <stem>down</stem>
        </note>
      </measure>
    <measure number="4" width="65.36">
      <note default-x="16.50" default-y="-280.29">
        <pitch>
          <step>G</step>
          <octave>3</octave>
          </pitch>
        <duration>4</duration>
        <voice>1</voice>
        <type>whole</type>
        </note>
      <backup><duration>4</duration></backup><note default-x="16.50" default-y="-405.29">
        <pitch>
          <step>C</step>
          <octave>3</octave>
          </pitch>
        <duration>4</duration>
        <voice>2</voice>
        <type>whole</type>
        </note>
      </measure>
    <measure number="5" width="142.98">
      <note default-x="16.50" default-y="-280.29">
        <pitch>
          <step>G</step>
          <octave>3</octave>
          </pitch>
        <duration>1</duration>
        <voice>1</voice>
        <type>quarter</type>
        <stem>up</stem>
        </note>
      <note default-x="47.67" default-y="-280.29">
        <pitch>
          <step>G</step>
          <octave>3</octave>
          </pitch>
        <duration>1</duration>
        <voice>1</voice>
        <type>quarter</type>
        <stem>up</stem>
        </note>
      <note default-x="78.84" default-y="-275.29">
        <pitch>
          <step>A</step>
          <octave>3</octave>
          </pitch>
        <duration>1</duration>
        <voice>1</voice>
        <type>quarter</type>
        <stem>up</stem>
        </note>
      <note default-x="110.01" default-y="-280.29">
        <pitch>
          <step>G</step>
          <octave>3</octave>
          </pitch>
        <duration>1</duration>
        <voice>1</voice>
        <type>quarter</type>
        <stem>up</stem>
        </note>
      <backup><duration>4</duration></backup><note default-x="16.50" default-y="-405.29">
        <pitch>
          <step>C</step>
          <octave>3</octave>
          </pitch>
        <duration>1</duration>
        <voice>2</voice>
        <type>quarter</type>
        <stem>down</stem>
        </note>
      <note default-x="47.67" default-y="-405.29">
        <pitch>
          <step>C</step>
          <octave>3</octave>
          </pitch>
        <duration>1</duration>
        <voice>2</voice>
        <type>quarter</type>
        <stem>down</stem>
        </note>
      <note default-x="78.84" default-y="-405.29">
        <pitch>
          <step>C</step>
          <octave>3</octave>
          </pitch>
        <duration>1</duration>
        <voice>2</voice>
        <type>quarter</type>
        <stem>down</stem>
        </note>
      <note default-x="110.01" default-y="-405.29">
        <pitch>
          <step>C</step>
          <octave>3</octave>
          </pitch>
        <duration>1</duration>
        <voice>2</voice>
        <type>quarter</type>
        <stem>down</stem>
        </note>
      </measure>
    <measure number="6" width="87.97">
      <note default-x="15.93" default-y="-280.29">
        <pitch>
          <step>G</step>
          <octave>3</octave>
          </pitch>
        <duration>2</duration>
        <voice>1</voice>
        <type>half</type>
        <stem>up</stem>
        </note>
      <note default-x="51.05" default-y="-270.29">
        <pitch>
          <step>B</step>
          <octave>3</octave>
          </pitch>
        <duration>2</duration>
        <voice>1</voice>
        <type>half</type>
        <stem>up</stem>
        </note>
      <backup><duration>4</duration></backup><note default-x="15.93" default-y="-410.29">
        <pitch>
          <step>B</step>
          <octave>2</octave>
          </pitch>
        <duration>2</duration>
        <voice>2</voice>
        <type>half</type>
        <stem>down</stem>
        </note>
      <note default-x="51.05" default-y="-410.29">
        <pitch>
          <step>B</step>
          <octave>2</octave>
          </pitch>
        <duration>2</duration>
        <voice>2</voice>
        <type>half</type>
        <stem>down</stem>
        </note>
      </measure>
    <measure number="7" width="143.42">
      <note default-x="20.96" default-y="-270.29">
        <pitch>
          <step>B</step>
          <octave>3</octave>
          </pitch>
        <duration>1</duration>
        <voice>1</voice>
        <type>quarter</type>
        <stem>up</stem>
        </note>
      <note default-x="50.88" default-y="-270.29">
        <pitch>
          <step>B</step>
          <octave>3</octave>
          </pitch>
        <duration>1</duration>
        <voice>1</voice>
        <type>quarter</type>
        <stem>up</stem>
        </note>
      <note default-x="80.80" default-y="-270.29">
        <pitch>
          <step>B</step>
          <octave>3</octave>
          </pitch>
        <duration>1</duration>
        <voice>1</voice>
        <type>quarter</type>
        <stem>up</stem>
        </note>
      <note default-x="110.72" default-y="-270.29">
        <pitch>
          <step>B</step>
          <octave>3</octave>
          </pitch>
        <duration>1</duration>
        <voice>1</voice>
        <type>quarter</type>
        <stem>up</stem>
        </note>
      <backup><duration>4</duration></backup><note default-x="20.96" default-y="-410.29">
        <pitch>
          <step>B</step>
          <octave>2</octave>
          </pitch>
        <duration>1</duration>
        <voice>2</voice>
        <type>quarter</type>
        <stem>down</stem>
        </note>
      <note default-x="50.88" default-y="-410.29">
        <pitch>
          <step>B</step>
          <octave>2</octave>
          </pitch>
        <duration>1</duration>
        <voice>2</voice>
        <type>quarter</type>
        <stem>down</stem>
        </note>
      <note default-x="80.80" default-y="-410.29">
        <pitch>
          <step>B</step>
          <octave>2</octave>
          </pitch>
        <duration>1</duration>
        <voice>2</voice>
        <type>quarter</type>
        <stem>down</stem>
        </note>
      <note default-x="110.72" default-y="-410.29">
        <pitch>
          <step>B</step>
          <octave>2</octave>
          </pitch>
        <duration>1</duration>
        <voice>2</voice>
        <type>quarter</type>
        <stem>down</stem>
        </note>
      </measure>
    <measure number="8" width="91.02">
      <note default-x="14.17" default-y="-270.29">
        <pitch>
          <step>B</step>
          <octave>3</octave>
          </pitch>
        <duration>4</duration>
        <voice>1</voice>
        <type>whole</type>
        </note>
      <backup><duration>4</duration></backup><note default-x="15.13" default-y="-395.29">
        <pitch>
          <step>E</step>
          <octave>3</octave>
          </pitch>
        <duration>2</duration>
        <voice>2</voice>
        <type>half</type>
        <stem>down</stem>
        <notations>
          <slur type="start" placement="below" number="1"/>
          </notations>
        </note>
      <note default-x="52.17" default-y="-385.29">
        <pitch>
          <step>G</step>
          <octave>3</octave>
          </pitch>
        <duration>2</duration>
        <voice>2</voice>
        <type>half</type>
        <stem>down</stem>
        <notations>
          <slur type="stop" number="1"/>
          </notations>
        </note>
      </measure>
    <measure number="9" width="178.36">
      <print new-system="yes">
        <staff-layout number="1">
          <staff-distance>65.00</staff-distance>
          </staff-layout>
        </print>
      <note default-x="61.36" default-y="-273.93">
        <pitch>
          <step>B</step>
          <octave>3</octave>
          </pitch>
        <duration>1</duration>
        <voice>1</voice>
        <type>quarter</type>
        <stem>up</stem>
        </note>
      <note default-x="89.46" default-y="-263.93">
        <pitch>
          <step>D</step>
          <octave>4</octave>
          </pitch>
        <duration>1</duration>
        <voice>1</voice>
        <type>quarter</type>
        <stem>up</stem>
        </note>
      <note default-x="117.56" default-y="-268.93">
        <pitch>
          <step>C</step>
          <octave>4</octave>
          </pitch>
        <duration>1</duration>
        <voice>1</voice>
        <type>quarter</type>
        <stem>up</stem>
        </note>
      <note default-x="145.66" default-y="-273.93">
        <pitch>
          <step>B</step>
          <octave>3</octave>
          </pitch>
        <duration>1</duration>
        <voice>1</voice>
        <type>quarter</type>
        <stem>up</stem>
        </note>
      <backup><duration>4</duration></backup><note default-x="61.36" default-y="-388.93">
        <pitch>
          <step>G</step>
          <octave>3</octave>
          </pitch>
        <duration>1</duration>
        <voice>2</voice>
        <type>quarter</type>
        <stem>down</stem>
        </note>
      <note default-x="89.46" default-y="-388.93">
        <pitch>
          <step>G</step>
          <octave>3</octave>
          </pitch>
        <duration>1</duration>
        <voice>2</voice>
        <type>quarter</type>
        <stem>down</stem>
        </note>
      <note default-x="117.56" default-y="-388.93">
        <pitch>
          <step>G</step>
          <octave>3</octave>
          </pitch>
        <duration>1</duration>
        <voice>2</voice>
        <type>quarter</type>
        <stem>down</stem>
        </note>
      <note default-x="145.66" default-y="-388.93">
        <pitch>
          <step>G</step>
          <octave>3</octave>
          </pitch>
        <duration>1</duration>
        <voice>2</voice>
        <type>quarter</type>
        <stem>down</stem>
        </note>
      </measure>
    <measure number="10" width="93.41">
      <note default-x="15.90" default-y="-283.93">
        <pitch>
          <step>G</step>
          <octave>3</octave>
          </pitch>
        <duration>2</duration>
        <voice>1</voice>
        <type>half</type>
        <stem>up</stem>
        </note>
      <note default-x="57.96" default-y="-268.93">
        <pitch>
          <step>C</step>
          <octave>4</octave>
          </pitch>
        <duration>2</duration>
        <voice>1</voice>
        <type>half</type>
        <stem>up</stem>
        </note>
      <backup><duration>4</duration></backup><note default-x="15.90" default-y="-408.93">
        <pitch>
          <step>C</step>
          <octave>3</octave>
          </pitch>
        <duration>2</duration>
        <voice>2</voice>
        <type>half</type>
        <stem>down</stem>
        </note>
      <note default-x="57.96" default-y="-408.93">
        <pitch>
          <step>C</step>
          <octave>3</octave>
          </pitch>
        <duration>2</duration>
        <voice>2</voice>
        <type>half</type>
        <stem>down</stem>
        </note>
      </measure>
    <measure number="11" width="133.86">
      <note default-x="15.70" default-y="-273.93">
        <pitch>
          <step>B</step>
          <octave>3</octave>
          </pitch>
        <duration>1</duration>
        <voice>1</voice>
        <type>quarter</type>
        <stem>up</stem>
        </note>
      <note default-x="44.16" default-y="-263.93">
        <pitch>
          <step>D</step>
          <octave>4</octave>
          </pitch>
        <duration>1</duration>
        <voice>1</voice>
        <type>quarter</type>
        <stem>up</stem>
        </note>
      <note default-x="72.62" default-y="-268.93">
        <pitch>
          <step>C</step>
          <octave>4</octave>
          </pitch>
        <duration>1</duration>
        <voice>1</voice>
        <type>quarter</type>
        <stem>up</stem>
        </note>
      <note default-x="101.07" default-y="-273.93">
        <pitch>
          <step>B</step>
          <octave>3</octave>
          </pitch>
        <duration>1</duration>
        <voice>1</voice>
        <type>quarter</type>
        <stem>up</stem>
        </note>
      <backup><duration>4</duration></backup><note default-x="15.70" default-y="-388.93">
        <pitch>
          <step>G</step>
          <octave>3</octave>
          </pitch>
        <duration>1</duration>
        <voice>2</voice>
        <type>quarter</type>
        <stem>down</stem>
        </note>
      <note default-x="44.16" default-y="-388.93">
        <pitch>
          <step>G</step>
          <octave>3</octave>
          </pitch>
        <duration>1</duration>
        <voice>2</voice>
        <type>quarter</type>
        <stem>down</stem>
        </note>
      <note default-x="72.62" default-y="-388.93">
        <pitch>
          <step>G</step>
          <octave>3</octave>
          </pitch>
        <duration>1</duration>
        <voice>2</voice>
        <type>quarter</type>
        <stem>down</stem>
        </note>
      <note default-x="101.07" default-y="-388.93">
        <pitch>
          <step>G</step>
          <octave>3</octave>
          </pitch>
        <duration>1</duration>
        <voice>2</voice>
        <type>quarter</type>
        <stem>down</stem>
        </note>
      </measure>
    <measure number="12" width="107.82">
      <note default-x="16.21" default-y="-283.93">
        <pitch>
          <step>G</step>
          <octave>3</octave>
          </pitch>
        <duration>1</duration>
        <voice>1</voice>
        <type>quarter</type>
        <stem>up</stem>
        <notations>
          <slur type="start" placement="above" number="1"/>
          </notations>
        </note>
      <note default-x="45.66" default-y="-288.93">
        <pitch>
          <step>F</step>
          <alter>1</alter>
          <octave>3</octave>
          </pitch>
        <duration>1</duration>
        <voice>1</voice>
        <type>quarter</type>
        <accidental>sharp</accidental>
        <stem>up</stem>
        </note>
      <note default-x="68.88" default-y="-283.93">
        <pitch>
          <step>G</step>
          <octave>3</octave>
          </pitch>
        <duration>2</duration>
        <voice>1</voice>
        <type>half</type>
        <stem>up</stem>
        <notations>
          <slur type="stop" number="1"/>
          </notations>
        </note>
      <backup><duration>4</duration></backup><note default-x="15.25" default-y="-408.93">
        <pitch>
          <step>C</step>
          <octave>3</octave>
          </pitch>
        <duration>4</duration>
        <voice>2</voice>
        <type>whole</type>
        </note>
      </measure>
    <measure number="13" width="143.15">
      <note default-x="16.50" default-y="-268.93">
        <pitch>
          <step>C</step>
          <octave>4</octave>
          </pitch>
        <duration>1</duration>
        <voice>1</voice>
        <type>quarter</type>
        <stem>up</stem>
        </note>
      <note default-x="47.71" default-y="-268.93">
        <pitch>
          <step>C</step>
          <octave>4</octave>
          </pitch>
        <duration>1</duration>
        <voice>1</voice>
        <type>quarter</type>
        <stem>up</stem>
        </note>
      <note default-x="78.92" default-y="-273.93">
        <pitch>
          <step>B</step>
          <octave>3</octave>
          </pitch>
        <duration>1</duration>
        <voice>1</voice>
        <type>quarter</type>
        <stem>up</stem>
        </note>
      <note default-x="110.13" default-y="-273.93">
        <pitch>
          <step>B</step>
          <alter>-1</alter>
          <octave>3</octave>
          </pitch>
        <duration>1</duration>
        <voice>1</voice>
        <type>quarter</type>
        <accidental>flat</accidental>
        <stem>up</stem>
        </note>
      <backup><duration>4</duration></backup><note default-x="16.50" default-y="-408.93">
        <pitch>
          <step>C</step>
          <octave>3</octave>
          </pitch>
        <duration>1</duration>
        <voice>2</voice>
        <type>quarter</type>
        <stem>down</stem>
        </note>
      <note default-x="47.71" default-y="-408.93">
        <pitch>
          <step>C</step>
          <octave>3</octave>
          </pitch>
        <duration>1</duration>
        <voice>2</voice>
        <type>quarter</type>
        <stem>down</stem>
        </note>
      <note default-x="78.92" default-y="-403.93">
        <pitch>
          <step>D</step>
          <octave>3</octave>
          </pitch>
        <duration>1</duration>
        <voice>2</voice>
        <type>quarter</type>
        <stem>down</stem>
        </note>
      <note default-x="110.13" default-y="-398.93">
        <pitch>
          <step>E</step>
          <octave>3</octave>
          </pitch>
        <duration>1</duration>
        <voice>2</voice>
        <type>quarter</type>
        <stem>down</stem>
        </note>
      </measure>
    <measure number="14" width="81.86">
      <note default-x="15.78" default-y="-278.93">
        <pitch>
          <step>A</step>
          <octave>3</octave>
          </pitch>
        <duration>2</duration>
        <voice>1</voice>
        <type>half</type>
        <stem>up</stem>
        </note>
      <note default-x="47.92" default-y="-268.93">
        <pitch>
          <step>C</step>
          <octave>4</octave>
          </pitch>
        <duration>2</duration>
        <voice>1</voice>
        <type>half</type>
        <stem>up</stem>
        </note>
      <backup><duration>4</duration></backup><note default-x="15.78" default-y="-393.93">
        <pitch>
          <step>F</step>
          <octave>3</octave>
          </pitch>
        <duration>2</duration>
        <voice>2</voice>
        <type>half</type>
        <stem>down</stem>
        </note>
      <note default-x="47.92" default-y="-393.93">
        <pitch>
          <step>F</step>
          <octave>3</octave>
          </pitch>
        <duration>2</duration>
        <voice>2</voice>
        <type>half</type>
        <stem>down</stem>
        </note>
      </measure>
    <measure number="15" width="134.07">
      <note default-x="16.50" default-y="-268.93">
        <pitch>
          <step>C</step>
          <octave>4</octave>
          </pitch>
        <duration>1</duration>
        <voice>1</voice>
        <type>quarter</type>
        <stem>up</stem>
        </note>
      <note default-x="44.86" default-y="-273.93">
        <pitch>
          <step>B</step>
          <octave>3</octave>
          </pitch>
        <duration>1</duration>
        <voice>1</voice>
        <type>quarter</type>
        <stem>up</stem>
        </note>
      <note default-x="73.21" default-y="-268.93">
        <pitch>
          <step>C</step>
          <octave>4</octave>
          </pitch>
        <duration>1</duration>
        <voice>1</voice>
        <type>quarter</type>
        <stem>up</stem>
        </note>
      <note default-x="101.57" default-y="-263.93">
        <pitch>
          <step>D</step>
          <octave>4</octave>
          </pitch>
        <duration>1</duration>
        <voice>1</voice>
        <type>quarter</type>
        <stem>up</stem>
        </note>
      <backup><duration>4</duration></backup><note default-x="16.50" default-y="-388.93">
        <pitch>
          <step>G</step>
          <octave>3</octave>
          </pitch>
        <duration>1</duration>
        <voice>2</voice>
        <type>quarter</type>
        <stem>down</stem>
        </note>
      <note default-x="44.86" default-y="-388.93">
        <pitch>
          <step>G</step>
          <octave>3</octave>
          </pitch>
        <duration>1</duration>
        <voice>2</voice>
        <type>quarter</type>
        <stem>down</stem>
        </note>
      <note default-x="73.21" default-y="-388.93">
        <pitch>
          <step>G</step>
          <octave>3</octave>
          </pitch>
        <duration>1</duration>
        <voice>2</voice>
        <type>quarter</type>
        <stem>down</stem>
        </note>
      <note default-x="101.57" default-y="-388.93">
        <pitch>
          <step>G</step>
          <octave>3</octave>
          </pitch>
        <duration>1</duration>
        <voice>2</voice>
        <type>quarter</type>
        <stem>down</stem>
        </note>
      </measure>
    <measure number="16" width="63.71">
      <note default-x="16.50" default-y="-268.93">
        <pitch>
          <step>C</step>
          <octave>4</octave>
          </pitch>
        <duration>4</duration>
        <voice>1</voice>
        <type>whole</type>
        </note>
      <barline location="right">
        <bar-style>light-light</bar-style>
        </barline>
      <backup><duration>4</duration></backup><note default-x="16.50" default-y="-408.93">
        <pitch>
          <step>C</step>
          <octave>3</octave>
          </pitch>
        <duration>4</duration>
        <voice>2</voice>
        <type>whole</type>
        </note>
      </measure>
    <measure number="17" width="92.46">
      <note default-x="16.50" default-y="-268.93">
        <pitch>
          <step>C</step>
          <octave>4</octave>
          </pitch>
        <duration>2</duration>
        <voice>1</voice>
        <type>half</type>
        <stem>up</stem>
        </note>
      <note default-x="49.16" default-y="-268.93">
        <pitch>
          <step>C</step>
          <octave>4</octave>
          </pitch>
        <duration>2</duration>
        <voice>1</voice>
        <type>half</type>
        <stem>up</stem>
        </note>
      <barline location="right">
        <bar-style>light-heavy</bar-style>
        </barline>
      <backup><duration>4</duration></backup><note default-x="16.50" default-y="-393.93">
        <pitch>
          <step>F</step>
          <octave>3</octave>
          </pitch>
        <duration>2</duration>
        <voice>2</voice>
        <type>half</type>
        <stem>down</stem>
        </note>
      <note default-x="49.16" default-y="-408.93">
        <pitch>
          <step>C</step>
          <octave>3</octave>
          </pitch>
        <duration>2</duration>
        <voice>2</voice>
        <type>half</type>
        <stem>down</stem>
        </note>
      </measure>
    </part>
  </score-partwise>