<?xml version="1.0" encoding="UTF-8"?><!DOCTYPE score-partwise PUBLIC "-//Recordare//DTD MusicXML 3.1 Partwise//EN" "http://www.musicxml.org/dtds/partwise.dtd"><score-partwise version="3.1">
  <movement-title>481장 때 저물어서 날이 어두니</movement-title>
  <identification>
    <creator type="composer">W.H.Monk</creator>
    <creator type="poet">H.F.Lyte</creator>
    <encoding>
      <software>MuseScore 3.6.2</software>
      <encoding-date>2022-03-15</encoding-date>
      <supports element="accidental" type="yes"/>
      <supports element="beam" type="yes"/>
      <supports element="print" attribute="new-page" type="yes" value="yes"/>
      <supports element="print" attribute="new-system" type="yes" value="yes"/>
      <supports element="stem" type="yes"/>
      </encoding>
    </identification>
  <defaults>
    <scaling>
      <millimeters>6.99911</millimeters>
      <tenths>40</tenths>
      </scaling>
    <page-layout>
      <page-height>1697.36</page-height>
      <page-width>1200.15</page-width>
      <page-margins type="even">
        <left-margin>85.7252</left-margin>
        <right-margin>85.7252</right-margin>
        <top-margin>85.7252</top-margin>
        <bottom-margin>85.7252</bottom-margin>
        </page-margins>
      <page-margins type="odd">
        <left-margin>85.7252</left-margin>
        <right-margin>85.7252</right-margin>
        <top-margin>85.7252</top-margin>
        <bottom-margin>85.7252</bottom-margin>
        </page-margins>
      </page-layout>
    <word-font font-family="Edwin" font-size="10"/>
    <lyric-font font-family="Edwin" font-size="10"/>
    </defaults>
  <credit page="1">
    <credit-type>title</credit-type>
    <credit-words default-x="600.075" default-y="1612.26" justify="center" valign="top" font-size="22">481장 때 저물어서 날이 어두니</credit-words>
    </credit>
  <credit page="1">
    <credit-type>composer</credit-type>
    <credit-words default-x="1114.42" default-y="1512.26" justify="right" valign="top">W.H.Monk</credit-words>
    </credit>
  <credit page="1">
    <credit-type>lyricist</credit-type>
    <credit-words default-x="85.7252" default-y="1512.26" justify="left" valign="top">H.F.Lyte</credit-words>
    </credit>
  <credit page="1">
    <credit-type>rights</credit-type>
    <credit-words default-x="600.075" default-y="85.7252" justify="center" valign="bottom">Copyright 2022 David Sung</credit-words>
    </credit>
  <part-list>
    <score-part id="P1">
      <part-name/>
      <score-instrument id="P1-I1">
        <instrument-name/>
        </score-instrument>
      <midi-device id="P1-I1" port="1"/>
      <midi-instrument id="P1-I1">
        <midi-channel>1</midi-channel>
        <midi-program>1</midi-program>
        <volume>78.7402</volume>
        <pan>0</pan>
        </midi-instrument>
      </score-part>
    <score-part id="P3">
      <part-name/>
      <score-instrument id="P3-I1">
        <instrument-name/>
        </score-instrument>
      <midi-device id="P3-I1" port="1"/>
      <midi-instrument id="P3-I1">
        <midi-channel>3</midi-channel>
        <midi-program>1</midi-program>
        <volume>78.7402</volume>
        <pan>0</pan>
        </midi-instrument>
      </score-part>
    </part-list>
  <part id="P1">
    <measure number="1" width="213.17">
      <print>
        <system-layout>
          <system-margins>
            <left-margin>50.00</left-margin>
            <right-margin>0.00</right-margin>
            </system-margins>
          <top-system-distance>170.00</top-system-distance>
          </system-layout>
        </print>
      <attributes>
        <divisions>2</divisions>
        <key>
          <fifths>-3</fifths>
          <mode>major</mode>
          </key>
        <time>
          <beats>4</beats>
          <beat-type>4</beat-type>
          </time>
        <clef>
          <sign>G</sign>
          <line>2</line>
          </clef>
        </attributes>
      <direction placement="above">
        <direction-type>
          <metronome parentheses="no" default-x="-37.68" relative-y="20.00">
            <beat-unit>quarter</beat-unit>
            <per-minute>96</per-minute>
            </metronome>
          </direction-type>
        <sound tempo="96"/>
        </direction>
      <note default-x="121.61" default-y="-30.00">
        <pitch>
          <step>G</step>
          <octave>4</octave>
          </pitch>
        <duration>4</duration>
        <voice>1</voice>
        <type>half</type>
        <stem>up</stem>
        <lyric number="1" default-x="-14.79" default-y="-48.00" relative-y="-30.00">
          <syllabic>single</syllabic>
          <text>1.때</text>
          </lyric>
        <lyric number="2" default-x="-16.10" default-y="-69.74" relative-y="-30.00">
          <syllabic>single</syllabic>
          <text>2.내</text>
          </lyric>
        <lyric number="3" default-x="-15.97" default-y="-91.48" relative-y="-30.00">
          <syllabic>single</syllabic>
          <text>3.주</text>
          </lyric>
        <lyric number="4" default-x="-16.25" default-y="-113.21" relative-y="-30.00">
          <syllabic>single</syllabic>
          <text>4.이</text>
          </lyric>
        </note>
      <note default-x="157.96" default-y="-30.00">
        <pitch>
          <step>G</step>
          <octave>4</octave>
          </pitch>
        <duration>2</duration>
        <voice>1</voice>
        <type>quarter</type>
        <stem>up</stem>
        <lyric number="1" default-x="6.50" default-y="-48.00" relative-y="-30.00">
          <syllabic>single</syllabic>
          <text>저</text>
          </lyric>
        <lyric number="2" default-x="6.50" default-y="-69.74" relative-y="-30.00">
          <syllabic>single</syllabic>
          <text>사</text>
          </lyric>
        <lyric number="3" default-x="6.50" default-y="-91.48" relative-y="-30.00">
          <syllabic>single</syllabic>
          <text>홀</text>
          </lyric>
        <lyric number="4" default-x="6.50" default-y="-113.21" relative-y="-30.00">
          <syllabic>single</syllabic>
          <text>육</text>
          </lyric>
        </note>
      <note default-x="180.67" default-y="-35.00">
        <pitch>
          <step>F</step>
          <octave>4</octave>
          </pitch>
        <duration>2</duration>
        <voice>1</voice>
        <type>quarter</type>
        <stem>up</stem>
        <lyric number="1" default-x="6.50" default-y="-48.00" relative-y="-30.00">
          <syllabic>single</syllabic>
          <text>물</text>
          </lyric>
        <lyric number="2" default-x="6.50" default-y="-69.74" relative-y="-30.00">
          <syllabic>single</syllabic>
          <text>는</text>
          </lyric>
        <lyric number="3" default-x="6.50" default-y="-91.48" relative-y="-30.00">
          <syllabic>single</syllabic>
          <text>로</text>
          </lyric>
        <lyric number="4" default-x="6.50" default-y="-113.21" relative-y="-30.00">
          <syllabic>single</syllabic>
          <text>신</text>
          </lyric>
        </note>
      <backup><duration>8</duration></backup><note default-x="121.61" default-y="-210.29">
        <pitch>
          <step>E</step>
          <alter>-1</alter>
          <octave>4</octave>
          </pitch>
        <duration>4</duration>
        <voice>2</voice>
        <type>half</type>
        <stem>down</stem>
        </note>
      <note default-x="157.96" default-y="-215.29">
        <pitch>
          <step>D</step>
          <octave>4</octave>
          </pitch>
        <duration>2</duration>
        <voice>2</voice>
        <type>quarter</type>
        <stem>down</stem>
        </note>
      <note default-x="180.67" default-y="-215.29">
        <pitch>
          <step>D</step>
          <octave>4</octave>
          </pitch>
        <duration>2</duration>
        <voice>2</voice>
        <type>quarter</type>
        <stem>down</stem>
        </note>
      </measure>
    <measure number="2" width="77.69">
      <note default-x="15.69" default-y="-40.00">
        <pitch>
          <step>E</step>
          <alter>-1</alter>
          <octave>4</octave>
          </pitch>
        <duration>4</duration>
        <voice>1</voice>
        <type>half</type>
        <stem>up</stem>
        <lyric number="1" default-x="6.50" default-y="-48.00" relative-y="-30.00">
          <syllabic>single</syllabic>
          <text>어</text>
          </lyric>
        <lyric number="2" default-x="6.50" default-y="-69.74" relative-y="-30.00">
          <syllabic>single</syllabic>
          <text>날</text>
          </lyric>
        <lyric number="3" default-x="6.50" default-y="-91.48" relative-y="-30.00">
          <syllabic>single</syllabic>
          <text>마</text>
          </lyric>
        <lyric number="4" default-x="6.50" default-y="-113.21" relative-y="-30.00">
          <syllabic>single</syllabic>
          <text>쇠</text>
          </lyric>
        </note>
      <note default-x="45.69" default-y="-20.00">
        <pitch>
          <step>B</step>
          <alter>-1</alter>
          <octave>4</octave>
          </pitch>
        <duration>4</duration>
        <voice>1</voice>
        <type>half</type>
        <stem>up</stem>
        <lyric number="1" default-x="6.50" default-y="-48.00" relative-y="-30.00">
          <syllabic>single</syllabic>
          <text>서</text>
          </lyric>
        <lyric number="2" default-x="6.50" default-y="-69.74" relative-y="-30.00">
          <syllabic>single</syllabic>
          <text>이</text>
          </lyric>
        <lyric number="3" default-x="6.50" default-y="-91.48" relative-y="-30.00">
          <syllabic>single</syllabic>
          <text>귀</text>
          </lyric>
        <lyric number="4" default-x="6.50" default-y="-113.21" relative-y="-30.00">
          <syllabic>single</syllabic>
          <text>해</text>
          </lyric>
        </note>
      <backup><duration>8</duration></backup><note default-x="15.69" default-y="-210.29">
        <pitch>
          <step>E</step>
          <alter>-1</alter>
          <octave>4</octave>
          </pitch>
        <duration>4</duration>
        <voice>2</voice>
        <type>half</type>
        <stem>down</stem>
        </note>
      <note default-x="45.69" default-y="-210.29">
        <pitch>
          <step>E</step>
          <alter>-1</alter>
          <octave>4</octave>
          </pitch>
        <duration>4</duration>
        <voice>2</voice>
        <type>half</type>
        <stem>down</stem>
        </note>
      </measure>
    <measure number="3" width="128.49">
      <note default-x="15.70" default-y="-15.00">
        <pitch>
          <step>C</step>
          <octave>5</octave>
          </pitch>
        <duration>2</duration>
        <voice>1</voice>
        <type>quarter</type>
        <stem>up</stem>
        <lyric number="1" default-x="6.50" default-y="-48.00" relative-y="-30.00">
          <syllabic>single</syllabic>
          <text>날</text>
          </lyric>
        <lyric number="2" default-x="6.50" default-y="-69.74" relative-y="-30.00">
          <syllabic>single</syllabic>
          <text>속</text>
          </lyric>
        <lyric number="3" default-x="6.50" default-y="-91.48" relative-y="-30.00">
          <syllabic>single</syllabic>
          <text>물</text>
          </lyric>
        <lyric number="4" default-x="6.50" default-y="-113.21" relative-y="-30.00">
          <syllabic>single</syllabic>
          <text>눈</text>
          </lyric>
        </note>
      <note default-x="42.47" default-y="-20.00">
        <pitch>
          <step>B</step>
          <alter>-1</alter>
          <octave>4</octave>
          </pitch>
        <duration>2</duration>
        <voice>1</voice>
        <type>quarter</type>
        <stem>up</stem>
        <lyric number="1" default-x="6.50" default-y="-48.00" relative-y="-30.00">
          <syllabic>single</syllabic>
          <text>이</text>
          </lyric>
        <lyric number="2" default-x="6.50" default-y="-69.74" relative-y="-30.00">
          <syllabic>single</syllabic>
          <text>히</text>
          </lyric>
        <lyric number="3" default-x="6.50" default-y="-91.48" relative-y="-30.00">
          <syllabic>single</syllabic>
          <text>리</text>
          </lyric>
        <lyric number="4" default-x="6.50" default-y="-113.21" relative-y="-30.00">
          <syllabic>single</syllabic>
          <text>을</text>
          </lyric>
        </note>
      <note default-x="69.23" default-y="-20.00">
        <pitch>
          <step>B</step>
          <alter>-1</alter>
          <octave>4</octave>
          </pitch>
        <duration>2</duration>
        <voice>1</voice>
        <type>quarter</type>
        <stem>up</stem>
        <lyric number="1" default-x="6.50" default-y="-48.00" relative-y="-30.00">
          <syllabic>single</syllabic>
          <text>어</text>
          </lyric>
        <lyric number="2" default-x="6.50" default-y="-69.74" relative-y="-30.00">
          <syllabic>single</syllabic>
          <text>지</text>
          </lyric>
        <lyric number="3" default-x="6.50" default-y="-91.48" relative-y="-30.00">
          <syllabic>single</syllabic>
          <text>치</text>
          </lyric>
        <lyric number="4" default-x="6.50" default-y="-113.21" relative-y="-30.00">
          <syllabic>single</syllabic>
          <text>감</text>
          </lyric>
        </note>
      <note default-x="95.99" default-y="-25.00">
        <pitch>
          <step>A</step>
          <alter>-1</alter>
          <octave>4</octave>
          </pitch>
        <duration>2</duration>
        <voice>1</voice>
        <type>quarter</type>
        <stem>up</stem>
        <lyric number="1" default-x="6.50" default-y="-48.00" relative-y="-30.00">
          <syllabic>single</syllabic>
          <text>두</text>
          </lyric>
        <lyric number="2" default-x="6.50" default-y="-69.74" relative-y="-30.00">
          <syllabic>single</syllabic>
          <text>나</text>
          </lyric>
        <lyric number="3" default-x="6.50" default-y="-91.48" relative-y="-30.00">
          <syllabic>single</syllabic>
          <text>시</text>
          </lyric>
        <lyric number="4" default-x="6.50" default-y="-113.21" relative-y="-30.00">
          <syllabic>single</syllabic>
          <text>을</text>
          </lyric>
        </note>
      <backup><duration>8</duration></backup><note default-x="15.70" default-y="-210.29">
        <pitch>
          <step>E</step>
          <alter>-1</alter>
          <octave>4</octave>
          </pitch>
        <duration>2</duration>
        <voice>2</voice>
        <type>quarter</type>
        <stem>down</stem>
        </note>
      <note default-x="42.47" default-y="-215.29">
        <pitch>
          <step>D</step>
          <octave>4</octave>
          </pitch>
        <duration>2</duration>
        <voice>2</voice>
        <type>quarter</type>
        <stem>down</stem>
        </note>
      <note default-x="69.23" default-y="-210.29">
        <pitch>
          <step>E</step>
          <alter>-1</alter>
          <octave>4</octave>
          </pitch>
        <duration>2</duration>
        <voice>2</voice>
        <type>quarter</type>
        <stem>down</stem>
        </note>
      <note default-x="95.99" default-y="-205.29">
        <pitch>
          <step>F</step>
          <octave>4</octave>
          </pitch>
        <duration>2</duration>
        <voice>2</voice>
        <type>quarter</type>
        <stem>down</stem>
        </note>
      </measure>
    <measure number="4" width="56.24">
      <note default-x="14.74" default-y="-30.00">
        <pitch>
          <step>G</step>
          <octave>4</octave>
          </pitch>
        <duration>8</duration>
        <voice>1</voice>
        <type>whole</type>
        <lyric number="1" default-x="5.54" default-y="-48.00" relative-y="-30.00">
          <syllabic>single</syllabic>
          <text>니</text>
          </lyric>
        <lyric number="2" default-x="5.54" default-y="-69.74" relative-y="-30.00">
          <syllabic>single</syllabic>
          <text>고</text>
          </lyric>
        <lyric number="3" default-x="5.54" default-y="-91.48" relative-y="-30.00">
          <syllabic>single</syllabic>
          <text>니</text>
          </lyric>
        <lyric number="4" default-x="5.54" default-y="-113.21" relative-y="-30.00">
          <syllabic>single</syllabic>
          <text>때</text>
          </lyric>
        </note>
      <backup><duration>8</duration></backup><note default-x="14.74" default-y="-210.29">
        <pitch>
          <step>E</step>
          <alter>-1</alter>
          <octave>4</octave>
          </pitch>
        <duration>8</duration>
        <voice>2</voice>
        <type>whole</type>
        </note>
      </measure>
    <measure number="5" width="116.21">
      <note default-x="15.70" default-y="-30.00">
        <pitch>
          <step>G</step>
          <octave>4</octave>
          </pitch>
        <duration>4</duration>
        <voice>1</voice>
        <type>half</type>
        <stem>up</stem>
        <lyric number="1" default-x="6.50" default-y="-48.00" relative-y="-30.00">
          <syllabic>single</syllabic>
          <text>구</text>
          </lyric>
        <lyric number="2" default-x="6.50" default-y="-69.74" relative-y="-30.00">
          <syllabic>single</syllabic>
          <text>이</text>
          </lyric>
        <lyric number="3" default-x="6.50" default-y="-91.48" relative-y="-30.00">
          <syllabic>single</syllabic>
          <text>언</text>
          </lyric>
        <lyric number="4" default-x="6.50" default-y="-113.21" relative-y="-30.00">
          <syllabic>single</syllabic>
          <text>십</text>
          </lyric>
        </note>
      <note default-x="60.83" default-y="-25.00">
        <pitch>
          <step>A</step>
          <alter>-1</alter>
          <octave>4</octave>
          </pitch>
        <duration>2</duration>
        <voice>1</voice>
        <type>quarter</type>
        <stem>up</stem>
        <lyric number="1" default-x="6.50" default-y="-48.00" relative-y="-30.00">
          <syllabic>single</syllabic>
          <text>주</text>
          </lyric>
        <lyric number="2" default-x="6.50" default-y="-69.74" relative-y="-30.00">
          <syllabic>single</syllabic>
          <text>세</text>
          </lyric>
        <lyric number="3" default-x="6.50" default-y="-91.48" relative-y="-30.00">
          <syllabic>single</syllabic>
          <text>제</text>
          </lyric>
        <lyric number="4" default-x="6.50" default-y="-113.21" relative-y="-30.00">
          <syllabic>single</syllabic>
          <text>자</text>
          </lyric>
        </note>
      <note default-x="83.39" default-y="-20.00">
        <pitch>
          <step>B</step>
          <alter>-1</alter>
          <octave>4</octave>
          </pitch>
        <duration>2</duration>
        <voice>1</voice>
        <type>quarter</type>
        <stem>up</stem>
        <lyric number="1" default-x="6.50" default-y="-48.00" relative-y="-30.00">
          <syllabic>single</syllabic>
          <text>여</text>
          </lyric>
        <lyric number="2" default-x="6.50" default-y="-69.74" relative-y="-30.00">
          <syllabic>single</syllabic>
          <text>상</text>
          </lyric>
        <lyric number="3" default-x="6.50" default-y="-91.48" relative-y="-30.00">
          <syllabic>single</syllabic>
          <text>나</text>
          </lyric>
        <lyric number="4" default-x="6.50" default-y="-113.21" relative-y="-30.00">
          <syllabic>single</syllabic>
          <text>가</text>
          </lyric>
        </note>
      <backup><duration>8</duration></backup><note default-x="15.70" default-y="-210.29">
        <pitch>
          <step>E</step>
          <alter>-1</alter>
          <octave>4</octave>
          </pitch>
        <duration>4</duration>
        <voice>2</voice>
        <type>half</type>
        <stem>down</stem>
        </note>
      <note default-x="60.83" default-y="-210.29">
        <pitch>
          <step>E</step>
          <alter>-1</alter>
          <octave>4</octave>
          </pitch>
        <duration>2</duration>
        <voice>2</voice>
        <type>quarter</type>
        <stem>down</stem>
        </note>
      <note default-x="83.39" default-y="-210.29">
        <pitch>
          <step>E</step>
          <alter>-1</alter>
          <octave>4</octave>
          </pitch>
        <duration>2</duration>
        <voice>2</voice>
        <type>quarter</type>
        <stem>down</stem>
        </note>
      </measure>
    <measure number="6" width="79.80">
      <note default-x="15.66" default-y="-15.00">
        <pitch>
          <step>C</step>
          <octave>5</octave>
          </pitch>
        <duration>4</duration>
        <voice>1</voice>
        <type>half</type>
        <stem>up</stem>
        <lyric number="1" default-x="6.50" default-y="-48.00" relative-y="-30.00">
          <syllabic>single</syllabic>
          <text>나</text>
          </lyric>
        <lyric number="2" default-x="6.50" default-y="-69.74" relative-y="-30.00">
          <syllabic>single</syllabic>
          <text>영</text>
          </lyric>
        <lyric number="3" default-x="6.50" default-y="-91.48" relative-y="-30.00">
          <syllabic>single</syllabic>
          <text>나</text>
          </lyric>
        <lyric number="4" default-x="6.50" default-y="-113.21" relative-y="-30.00">
          <syllabic>single</syllabic>
          <text>밝</text>
          </lyric>
        </note>
      <note default-x="46.83" default-y="-20.00">
        <pitch>
          <step>B</step>
          <alter>-1</alter>
          <octave>4</octave>
          </pitch>
        <duration>4</duration>
        <voice>1</voice>
        <type>half</type>
        <stem>up</stem>
        <lyric number="1" default-x="6.50" default-y="-48.00" relative-y="-30.00">
          <syllabic>single</syllabic>
          <text>와</text>
          </lyric>
        <lyric number="2" default-x="6.50" default-y="-69.74" relative-y="-30.00">
          <syllabic>single</syllabic>
          <text>광</text>
          </lyric>
        <lyric number="3" default-x="6.50" default-y="-91.48" relative-y="-30.00">
          <syllabic>single</syllabic>
          <text>와</text>
          </lyric>
        <lyric number="4" default-x="6.50" default-y="-113.21" relative-y="-30.00">
          <syllabic>single</syllabic>
          <text>히</text>
          </lyric>
        </note>
      <backup><duration>8</duration></backup><note default-x="15.66" default-y="-210.29">
        <pitch>
          <step>E</step>
          <alter>-1</alter>
          <octave>4</octave>
          </pitch>
        <duration>4</duration>
        <voice>2</voice>
        <type>half</type>
        <stem>down</stem>
        </note>
      <note default-x="46.83" default-y="-210.29">
        <pitch>
          <step>E</step>
          <alter>-1</alter>
          <octave>4</octave>
          </pitch>
        <duration>4</duration>
        <voice>2</voice>
        <type>half</type>
        <stem>down</stem>
        </note>
      </measure>
    <measure number="7" width="135.84">
      <note default-x="16.50" default-y="-25.00">
        <pitch>
          <step>A</step>
          <alter>-1</alter>
          <octave>4</octave>
          </pitch>
        <duration>2</duration>
        <voice>1</voice>
        <type>quarter</type>
        <stem>up</stem>
        <lyric number="1" default-x="6.50" default-y="-48.00" relative-y="-30.00">
          <syllabic>single</syllabic>
          <text>함</text>
          </lyric>
        <lyric number="2" default-x="6.50" default-y="-69.74" relative-y="-30.00">
          <syllabic>single</syllabic>
          <text>빨</text>
          </lyric>
        <lyric number="3" default-x="6.50" default-y="-91.48" relative-y="-30.00">
          <syllabic>single</syllabic>
          <text>함</text>
          </lyric>
        <lyric number="4" default-x="6.50" default-y="-113.21" relative-y="-30.00">
          <syllabic>single</syllabic>
          <text>보</text>
          </lyric>
        </note>
      <note default-x="45.45" default-y="-35.00">
        <pitch>
          <step>F</step>
          <octave>4</octave>
          </pitch>
        <duration>2</duration>
        <voice>1</voice>
        <type>quarter</type>
        <stem>up</stem>
        <lyric number="1" default-x="6.50" default-y="-48.00" relative-y="-30.00">
          <syllabic>single</syllabic>
          <text>께</text>
          </lyric>
        <lyric number="2" default-x="6.50" default-y="-69.74" relative-y="-30.00">
          <syllabic>single</syllabic>
          <text>리</text>
          </lyric>
        <lyric number="3" default-x="6.50" default-y="-91.48" relative-y="-30.00">
          <syllabic>single</syllabic>
          <text>께</text>
          </lyric>
        <lyric number="4" default-x="6.50" default-y="-113.21" relative-y="-30.00">
          <syllabic>single</syllabic>
          <text>여</text>
          </lyric>
        </note>
      <note default-x="74.39" default-y="-30.00">
        <pitch>
          <step>G</step>
          <octave>4</octave>
          </pitch>
        <duration>2</duration>
        <voice>1</voice>
        <type>quarter</type>
        <stem>up</stem>
        <lyric number="1" default-x="6.50" default-y="-48.00" relative-y="-30.00">
          <syllabic>single</syllabic>
          <text>하</text>
          </lyric>
        <lyric number="2" default-x="6.50" default-y="-69.74" relative-y="-30.00">
          <syllabic>single</syllabic>
          <text>지</text>
          </lyric>
        <lyric number="3" default-x="6.50" default-y="-91.48" relative-y="-30.00">
          <syllabic>single</syllabic>
          <text>하</text>
          </lyric>
        <lyric number="4" default-x="6.50" default-y="-113.21" relative-y="-30.00">
          <syllabic>single</syllabic>
          <text>주</text>
          </lyric>
        </note>
      <note default-x="103.34" default-y="-25.00">
        <pitch>
          <step>A</step>
          <octave>4</octave>
          </pitch>
        <duration>2</duration>
        <voice>1</voice>
        <type>quarter</type>
        <accidental>natural</accidental>
        <stem>up</stem>
        <lyric number="1" default-x="6.50" default-y="-48.00" relative-y="-30.00">
          <syllabic>single</syllabic>
          <text>소</text>
          </lyric>
        <lyric number="2" default-x="6.50" default-y="-69.74" relative-y="-30.00">
          <syllabic>single</syllabic>
          <text>나</text>
          </lyric>
        <lyric number="3" default-x="6.50" default-y="-91.48" relative-y="-30.00">
          <syllabic>single</syllabic>
          <text>소</text>
          </lyric>
        <lyric number="4" default-x="6.50" default-y="-113.21" relative-y="-30.00">
          <syllabic>single</syllabic>
          <text>소</text>
          </lyric>
        </note>
      <backup><duration>8</duration></backup><note default-x="16.50" default-y="-210.29">
        <pitch>
          <step>E</step>
          <alter>-1</alter>
          <octave>4</octave>
          </pitch>
        <duration>2</duration>
        <voice>2</voice>
        <type>quarter</type>
        <stem>down</stem>
        </note>
      <note default-x="45.45" default-y="-205.29">
        <pitch>
          <step>F</step>
          <octave>4</octave>
          </pitch>
        <duration>2</duration>
        <voice>2</voice>
        <type>quarter</type>
        <stem>down</stem>
        </note>
      <note default-x="74.39" default-y="-210.29">
        <pitch>
          <step>E</step>
          <alter>-1</alter>
          <octave>4</octave>
          </pitch>
        <duration>2</duration>
        <voice>2</voice>
        <type>quarter</type>
        <stem>down</stem>
        </note>
      <note default-x="103.34" default-y="-210.29">
        <pitch>
          <step>E</step>
          <alter>-1</alter>
          <octave>4</octave>
          </pitch>
        <duration>2</duration>
        <voice>2</voice>
        <type>quarter</type>
        <stem>down</stem>
        </note>
      </measure>
    <measure number="8" width="56.11">
      <note default-x="14.10" default-y="-20.00">
        <pitch>
          <step>B</step>
          <alter>-1</alter>
          <octave>4</octave>
          </pitch>
        <duration>8</duration>
        <voice>1</voice>
        <type>whole</type>
        <lyric number="1" default-x="7.46" default-y="-48.00" relative-y="-30.00">
          <syllabic>single</syllabic>
          <text>서</text>
          </lyric>
        <lyric number="2" default-x="7.46" default-y="-69.74" relative-y="-30.00">
          <syllabic>single</syllabic>
          <text>네</text>
          </lyric>
        <lyric number="3" default-x="7.46" default-y="-91.48" relative-y="-30.00">
          <syllabic>single</syllabic>
          <text>서</text>
          </lyric>
        <lyric number="4" default-x="7.46" default-y="-113.21" relative-y="-30.00">
          <syllabic>single</syllabic>
          <text>서</text>
          </lyric>
        </note>
      <backup><duration>8</duration></backup><note default-x="14.10" default-y="-215.29">
        <pitch>
          <step>D</step>
          <octave>4</octave>
          </pitch>
        <duration>8</duration>
        <voice>2</voice>
        <type>whole</type>
        </note>
      </measure>
    <measure number="9" width="115.14">
      <note default-x="15.70" default-y="-30.00">
        <pitch>
          <step>G</step>
          <octave>4</octave>
          </pitch>
        <duration>4</duration>
        <voice>1</voice>
        <type>half</type>
        <stem>up</stem>
        <lyric number="1" default-x="6.50" default-y="-48.00" relative-y="-30.00">
          <syllabic>single</syllabic>
          <text>내</text>
          </lyric>
        <lyric number="2" default-x="6.50" default-y="-69.74" relative-y="-30.00">
          <syllabic>single</syllabic>
          <text>이</text>
          </lyric>
        <lyric number="3" default-x="6.50" default-y="-91.48" relative-y="-30.00">
          <syllabic>single</syllabic>
          <text>주</text>
          </lyric>
        <lyric number="4" default-x="6.50" default-y="-113.21" relative-y="-30.00">
          <syllabic>single</syllabic>
          <text>내</text>
          </lyric>
        </note>
      <note default-x="60.33" default-y="-30.00">
        <pitch>
          <step>G</step>
          <octave>4</octave>
          </pitch>
        <duration>2</duration>
        <voice>1</voice>
        <type>quarter</type>
        <stem>up</stem>
        <lyric number="1" default-x="6.50" default-y="-48.00" relative-y="-30.00">
          <syllabic>single</syllabic>
          <text>친</text>
          </lyric>
        <lyric number="2" default-x="6.50" default-y="-69.74" relative-y="-30.00">
          <syllabic>single</syllabic>
          <text>천</text>
          </lyric>
        <lyric number="3" default-x="6.50" default-y="-91.48" relative-y="-30.00">
          <syllabic>single</syllabic>
          <text>같</text>
          </lyric>
        <lyric number="4" default-x="6.50" default-y="-113.21" relative-y="-30.00">
          <syllabic>single</syllabic>
          <text>모</text>
          </lyric>
        </note>
      <note default-x="82.64" default-y="-35.00">
        <pitch>
          <step>F</step>
          <octave>4</octave>
          </pitch>
        <duration>2</duration>
        <voice>1</voice>
        <type>quarter</type>
        <stem>up</stem>
        <lyric number="1" default-x="6.50" default-y="-48.00" relative-y="-30.00">
          <syllabic>single</syllabic>
          <text>구</text>
          </lyric>
        <lyric number="2" default-x="6.50" default-y="-69.74" relative-y="-30.00">
          <syllabic>single</syllabic>
          <text>지</text>
          </lyric>
        <lyric number="3" default-x="6.50" default-y="-91.48" relative-y="-30.00">
          <syllabic>single</syllabic>
          <text>이</text>
          </lyric>
        <lyric number="4" default-x="6.50" default-y="-113.21" relative-y="-30.00">
          <syllabic>single</syllabic>
          <text>든</text>
          </lyric>
        </note>
      <backup><duration>8</duration></backup><note default-x="15.70" default-y="-210.29">
        <pitch>
          <step>E</step>
          <alter>-1</alter>
          <octave>4</octave>
          </pitch>
        <duration>4</duration>
        <voice>2</voice>
        <type>half</type>
        <stem>down</stem>
        </note>
      <note default-x="60.33" default-y="-215.29">
        <pitch>
          <step>D</step>
          <octave>4</octave>
          </pitch>
        <duration>2</duration>
        <voice>2</voice>
        <type>quarter</type>
        <stem>down</stem>
        </note>
      <note default-x="82.64" default-y="-215.29">
        <pitch>
          <step>D</step>
          <octave>4</octave>
          </pitch>
        <duration>2</duration>
        <voice>2</voice>
        <type>quarter</type>
        <stem>down</stem>
        </note>
      </measure>
    <measure number="10" width="205.90">
      <print new-system="yes">
        <system-layout>
          <system-margins>
            <left-margin>-0.00</left-margin>
            <right-margin>0.00</right-margin>
            </system-margins>
          <system-distance>150.00</system-distance>
          </system-layout>
        </print>
      <note default-x="99.48" default-y="-40.00">
        <pitch>
          <step>E</step>
          <alter>-1</alter>
          <octave>4</octave>
          </pitch>
        <duration>4</duration>
        <voice>1</voice>
        <type>half</type>
        <stem>up</stem>
        <lyric number="1" default-x="6.50" default-y="-48.00" relative-y="-30.00">
          <syllabic>single</syllabic>
          <text>나</text>
          </lyric>
        <lyric number="2" default-x="6.50" default-y="-69.74" relative-y="-30.00">
          <syllabic>single</syllabic>
          <text>만</text>
          </lyric>
        <lyric number="3" default-x="6.50" default-y="-91.48" relative-y="-30.00">
          <syllabic>single</syllabic>
          <text>누</text>
          </lyric>
        <lyric number="4" default-x="6.50" default-y="-113.21" relative-y="-30.00">
          <syllabic>single</syllabic>
          <text>슬</text>
          </lyric>
        </note>
      <note default-x="145.98" default-y="-20.00">
        <pitch>
          <step>B</step>
          <alter>-1</alter>
          <octave>4</octave>
          </pitch>
        <duration>4</duration>
        <voice>1</voice>
        <type>half</type>
        <stem>up</stem>
        <lyric number="1" default-x="6.50" default-y="-48.00" relative-y="-30.00">
          <syllabic>single</syllabic>
          <text>를</text>
          </lyric>
        <lyric number="2" default-x="6.50" default-y="-69.74" relative-y="-30.00">
          <syllabic>single</syllabic>
          <text>물</text>
          </lyric>
        <lyric number="3" default-x="6.50" default-y="-91.48" relative-y="-30.00">
          <syllabic>single</syllabic>
          <text>가</text>
          </lyric>
        <lyric number="4" default-x="6.50" default-y="-113.21" relative-y="-30.00">
          <syllabic>single</syllabic>
          <text>픔</text>
          </lyric>
        </note>
      <backup><duration>8</duration></backup><note default-x="99.48" default-y="-210.18">
        <pitch>
          <step>E</step>
          <alter>-1</alter>
          <octave>4</octave>
          </pitch>
        <duration>4</duration>
        <voice>2</voice>
        <type>half</type>
        <stem>down</stem>
        </note>
      <note default-x="145.98" default-y="-210.18">
        <pitch>
          <step>E</step>
          <alter>-1</alter>
          <octave>4</octave>
          </pitch>
        <duration>4</duration>
        <voice>2</voice>
        <type>half</type>
        <stem>down</stem>
        </note>
      </measure>
    <measure number="11" width="176.82">
      <note default-x="16.50" default-y="-20.00">
        <pitch>
          <step>B</step>
          <alter>-1</alter>
          <octave>4</octave>
          </pitch>
        <duration>2</duration>
        <voice>1</voice>
        <type>quarter</type>
        <stem>up</stem>
        <lyric number="1" default-x="6.50" default-y="-48.00" relative-y="-30.00">
          <syllabic>single</syllabic>
          <text>위</text>
          </lyric>
        <lyric number="2" default-x="6.50" default-y="-69.74" relative-y="-30.00">
          <syllabic>single</syllabic>
          <text>모</text>
          </lyric>
        <lyric number="3" default-x="6.50" default-y="-91.48" relative-y="-30.00">
          <syllabic>single</syllabic>
          <text>보</text>
          </lyric>
        <lyric number="4" default-x="6.50" default-y="-113.21" relative-y="-30.00">
          <syllabic>single</syllabic>
          <text>위</text>
          </lyric>
        </note>
      <note default-x="52.90" default-y="-25.00">
        <pitch>
          <step>A</step>
          <alter>-1</alter>
          <octave>4</octave>
          </pitch>
        <duration>2</duration>
        <voice>1</voice>
        <type>quarter</type>
        <stem>up</stem>
        <lyric number="1" default-x="6.50" default-y="-48.00" relative-y="-30.00">
          <syllabic>single</syllabic>
          <text>로</text>
          </lyric>
        <lyric number="2" default-x="6.50" default-y="-69.74" relative-y="-30.00">
          <syllabic>single</syllabic>
          <text>두</text>
          </lyric>
        <lyric number="3" default-x="6.50" default-y="-91.48" relative-y="-30.00">
          <syllabic>single</syllabic>
          <text>호</text>
          </lyric>
        <lyric number="4" default-x="6.50" default-y="-113.21" relative-y="-30.00">
          <syllabic>single</syllabic>
          <text>로</text>
          </lyric>
        </note>
      <note default-x="102.21" default-y="-25.00">
        <pitch>
          <step>A</step>
          <alter>-1</alter>
          <octave>4</octave>
          </pitch>
        <duration>2</duration>
        <voice>1</voice>
        <type>quarter</type>
        <stem>up</stem>
        <lyric number="1" default-x="6.50" default-y="-48.00" relative-y="-30.00">
          <syllabic>single</syllabic>
          <text>못</text>
          </lyric>
        <lyric number="2" default-x="6.50" default-y="-69.74" relative-y="-30.00">
          <syllabic>single</syllabic>
          <text>변</text>
          </lyric>
        <lyric number="3" default-x="6.50" default-y="-91.48" relative-y="-30.00">
          <syllabic>single</syllabic>
          <text>하</text>
          </lyric>
        <lyric number="4" default-x="6.50" default-y="-113.21" relative-y="-30.00">
          <syllabic>single</syllabic>
          <text>하</text>
          </lyric>
        </note>
      <note default-x="138.61" default-y="-30.00">
        <pitch>
          <step>G</step>
          <octave>4</octave>
          </pitch>
        <duration>2</duration>
        <voice>1</voice>
        <type>quarter</type>
        <stem>up</stem>
        <lyric number="1" default-x="6.50" default-y="-48.00" relative-y="-30.00">
          <syllabic>single</syllabic>
          <text>할</text>
          </lyric>
        <lyric number="2" default-x="6.50" default-y="-69.74" relative-y="-30.00">
          <syllabic>single</syllabic>
          <text>하</text>
          </lyric>
        <lyric number="3" default-x="6.50" default-y="-91.48" relative-y="-30.00">
          <syllabic>single</syllabic>
          <text>리</text>
          </lyric>
        <lyric number="4" default-x="6.50" default-y="-113.21" relative-y="-30.00">
          <syllabic>single</syllabic>
          <text>시</text>
          </lyric>
        </note>
      <backup><duration>8</duration></backup><note default-x="16.50" default-y="-210.18">
        <pitch>
          <step>E</step>
          <alter>-1</alter>
          <octave>4</octave>
          </pitch>
        <duration>2</duration>
        <voice>2</voice>
        <type>quarter</type>
        <stem>down</stem>
        </note>
      <note default-x="52.90" default-y="-210.18">
        <pitch>
          <step>E</step>
          <alter>-1</alter>
          <octave>4</octave>
          </pitch>
        <duration>2</duration>
        <voice>2</voice>
        <type>quarter</type>
        <stem>down</stem>
        </note>
      <note default-x="102.21" default-y="-210.18">
        <pitch>
          <step>E</step>
          <octave>4</octave>
          </pitch>
        <duration>2</duration>
        <voice>2</voice>
        <type>quarter</type>
        <accidental>natural</accidental>
        <stem>down</stem>
        </note>
      <note default-x="138.61" default-y="-210.18">
        <pitch>
          <step>E</step>
          <octave>4</octave>
          </pitch>
        <duration>2</duration>
        <voice>2</voice>
        <type>quarter</type>
        <stem>down</stem>
        </note>
      </measure>
    <measure number="12" width="76.14">
      <note default-x="15.32" default-y="-35.00">
        <pitch>
          <step>F</step>
          <octave>4</octave>
          </pitch>
        <duration>8</duration>
        <voice>1</voice>
        <type>whole</type>
        <lyric number="1" default-x="5.54" default-y="-48.00" relative-y="-30.00">
          <syllabic>single</syllabic>
          <text>때</text>
          </lyric>
        <lyric number="2" default-x="5.54" default-y="-69.74" relative-y="-30.00">
          <syllabic>single</syllabic>
          <text>나</text>
          </lyric>
        <lyric number="3" default-x="5.54" default-y="-91.48" relative-y="-30.00">
          <syllabic>single</syllabic>
          <text>까</text>
          </lyric>
        <lyric number="4" default-x="5.54" default-y="-113.21" relative-y="-30.00">
          <syllabic>single</syllabic>
          <text>고</text>
          </lyric>
        </note>
      <backup><duration>8</duration></backup><note default-x="15.32" default-y="-205.18">
        <pitch>
          <step>F</step>
          <octave>4</octave>
          </pitch>
        <duration>8</duration>
        <voice>2</voice>
        <type>whole</type>
        </note>
      </measure>
    <measure number="13" width="125.00">
      <note default-x="16.21" default-y="-35.00">
        <pitch>
          <step>F</step>
          <octave>4</octave>
          </pitch>
        <duration>4</duration>
        <voice>1</voice>
        <type>half</type>
        <stem>up</stem>
        <lyric number="1" default-x="6.50" default-y="-48.00" relative-y="-30.00">
          <syllabic>single</syllabic>
          <text>날</text>
          </lyric>
        <lyric number="2" default-x="6.50" default-y="-69.74" relative-y="-30.00">
          <syllabic>single</syllabic>
          <text>변</text>
          </lyric>
        <lyric number="3" default-x="6.50" default-y="-91.48" relative-y="-30.00">
          <syllabic>single</syllabic>
          <text>사</text>
          </lyric>
        <lyric number="4" default-x="6.50" default-y="-113.21" relative-y="-30.00">
          <syllabic>single</syllabic>
          <text>생</text>
          </lyric>
        </note>
      <note default-x="63.16" default-y="-30.00">
        <pitch>
          <step>G</step>
          <octave>4</octave>
          </pitch>
        <duration>2</duration>
        <voice>1</voice>
        <type>quarter</type>
        <stem>up</stem>
        <lyric number="1" default-x="6.50" default-y="-48.00" relative-y="-30.00">
          <syllabic>single</syllabic>
          <text>돕</text>
          </lyric>
        <lyric number="2" default-x="6.50" default-y="-69.74" relative-y="-30.00">
          <syllabic>single</syllabic>
          <text>찮</text>
          </lyric>
        <lyric number="3" default-x="6.50" default-y="-91.48" relative-y="-30.00">
          <syllabic>single</syllabic>
          <text>랑</text>
          </lyric>
        <lyric number="4" default-x="6.50" default-y="-113.21" relative-y="-30.00">
          <syllabic>single</syllabic>
          <text>명</text>
          </lyric>
        </note>
      <note default-x="92.50" default-y="-25.00">
        <pitch>
          <step>A</step>
          <alter>-1</alter>
          <octave>4</octave>
          </pitch>
        <duration>2</duration>
        <voice>1</voice>
        <type>quarter</type>
        <stem>up</stem>
        <lyric number="1" default-x="6.50" default-y="-48.00" relative-y="-30.00">
          <syllabic>single</syllabic>
          <text>는</text>
          </lyric>
        <lyric number="2" default-x="6.50" default-y="-69.74" relative-y="-30.00">
          <syllabic>single</syllabic>
          <text>는</text>
          </lyric>
        <lyric number="3" default-x="6.50" default-y="-91.48" relative-y="-30.00">
          <syllabic>single</syllabic>
          <text>의</text>
          </lyric>
        <lyric number="4" default-x="6.50" default-y="-113.21" relative-y="-30.00">
          <syllabic>single</syllabic>
          <text>의</text>
          </lyric>
        </note>
      <backup><duration>8</duration></backup><note default-x="16.21" default-y="-215.18">
        <pitch>
          <step>D</step>
          <octave>4</octave>
          </pitch>
        <duration>4</duration>
        <voice>2</voice>
        <type>half</type>
        <stem>down</stem>
        </note>
      <note default-x="63.16" default-y="-210.18">
        <pitch>
          <step>E</step>
          <alter>-1</alter>
          <octave>4</octave>
          </pitch>
        <duration>2</duration>
        <voice>2</voice>
        <type>quarter</type>
        <stem>down</stem>
        </note>
      <note default-x="92.50" default-y="-215.18">
        <pitch>
          <step>D</step>
          <octave>4</octave>
          </pitch>
        <duration>2</duration>
        <voice>2</voice>
        <type>quarter</type>
        <stem>down</stem>
        </note>
      </measure>
    <measure number="14" width="145.50">
      <note default-x="15.70" default-y="-30.00">
        <pitch>
          <step>G</step>
          <octave>4</octave>
          </pitch>
        <duration>2</duration>
        <voice>1</voice>
        <type>quarter</type>
        <stem>up</stem>
        <lyric number="1" default-x="6.50" default-y="-48.00" relative-y="-30.00">
          <syllabic>single</syllabic>
          <text>주</text>
          </lyric>
        <lyric number="2" default-x="6.50" default-y="-69.74" relative-y="-30.00">
          <syllabic>single</syllabic>
          <text>주</text>
          </lyric>
        <lyric number="3" default-x="6.50" default-y="-91.48" relative-y="-30.00">
          <syllabic>single</syllabic>
          <text>주</text>
          </lyric>
        <lyric number="4" default-x="6.50" default-y="-113.21" relative-y="-30.00">
          <syllabic>single</syllabic>
          <text>주</text>
          </lyric>
        </note>
      <note default-x="47.70" default-y="-35.00">
        <pitch>
          <step>F</step>
          <octave>4</octave>
          </pitch>
        <duration>2</duration>
        <voice>1</voice>
        <type>quarter</type>
        <stem>up</stem>
        <lyric number="1" default-x="6.50" default-y="-48.00" relative-y="-30.00">
          <syllabic>single</syllabic>
          <text>여</text>
          </lyric>
        <lyric number="2" default-x="6.50" default-y="-69.74" relative-y="-30.00">
          <syllabic>single</syllabic>
          <text>여</text>
          </lyric>
        <lyric number="3" default-x="6.50" default-y="-91.48" relative-y="-30.00">
          <syllabic>single</syllabic>
          <text>여</text>
          </lyric>
        <lyric number="4" default-x="6.50" default-y="-113.21" relative-y="-30.00">
          <syllabic>single</syllabic>
          <text>여</text>
          </lyric>
        </note>
      <note default-x="79.70" default-y="-40.00">
        <pitch>
          <step>E</step>
          <alter>-1</alter>
          <octave>4</octave>
          </pitch>
        <duration>2</duration>
        <voice>1</voice>
        <type>quarter</type>
        <stem>up</stem>
        <lyric number="1" default-x="6.50" default-y="-48.00" relative-y="-30.00">
          <syllabic>single</syllabic>
          <text>함</text>
          </lyric>
        <lyric number="2" default-x="6.50" default-y="-69.74" relative-y="-30.00">
          <syllabic>single</syllabic>
          <text>함</text>
          </lyric>
        <lyric number="3" default-x="6.50" default-y="-91.48" relative-y="-30.00">
          <syllabic>single</syllabic>
          <text>함</text>
          </lyric>
        <lyric number="4" default-x="6.50" default-y="-113.21" relative-y="-30.00">
          <syllabic>single</syllabic>
          <text>함</text>
          </lyric>
        </note>
      <note default-x="111.70" default-y="-25.00">
        <pitch>
          <step>A</step>
          <alter>-1</alter>
          <octave>4</octave>
          </pitch>
        <duration>2</duration>
        <voice>1</voice>
        <type>quarter</type>
        <stem>up</stem>
        <lyric number="1" default-x="6.50" default-y="-48.00" relative-y="-30.00">
          <syllabic>single</syllabic>
          <text>께</text>
          </lyric>
        <lyric number="2" default-x="6.50" default-y="-69.74" relative-y="-30.00">
          <syllabic>single</syllabic>
          <text>께</text>
          </lyric>
        <lyric number="3" default-x="6.50" default-y="-91.48" relative-y="-30.00">
          <syllabic>single</syllabic>
          <text>께</text>
          </lyric>
        <lyric number="4" default-x="6.50" default-y="-113.21" relative-y="-30.00">
          <syllabic>single</syllabic>
          <text>께</text>
          </lyric>
        </note>
      <backup><duration>8</duration></backup><note default-x="15.70" default-y="-210.18">
        <pitch>
          <step>E</step>
          <alter>-1</alter>
          <octave>4</octave>
          </pitch>
        <duration>2</duration>
        <voice>2</voice>
        <type>quarter</type>
        <stem>down</stem>
        </note>
      <note default-x="47.70" default-y="-215.18">
        <pitch>
          <step>D</step>
          <octave>4</octave>
          </pitch>
        <duration>2</duration>
        <voice>2</voice>
        <type>quarter</type>
        <stem>down</stem>
        </note>
      <note default-x="79.70" default-y="-210.18">
        <pitch>
          <step>E</step>
          <alter>-1</alter>
          <octave>4</octave>
          </pitch>
        <duration>2</duration>
        <voice>2</voice>
        <type>quarter</type>
        <stem>down</stem>
        </note>
      <note default-x="111.70" default-y="-205.18">
        <pitch>
          <step>F</step>
          <octave>4</octave>
          </pitch>
        <duration>2</duration>
        <voice>2</voice>
        <type>quarter</type>
        <stem>down</stem>
        </note>
      </measure>
    <measure number="15" width="114.10">
      <note default-x="16.00" default-y="-30.00">
        <pitch>
          <step>G</step>
          <octave>4</octave>
          </pitch>
        <duration>4</duration>
        <voice>1</voice>
        <type>half</type>
        <stem>up</stem>
        <lyric number="1" default-x="6.50" default-y="-48.00" relative-y="-30.00">
          <syllabic>single</syllabic>
          <text>하</text>
          </lyric>
        <lyric number="2" default-x="6.50" default-y="-69.74" relative-y="-30.00">
          <syllabic>single</syllabic>
          <text>하</text>
          </lyric>
        <lyric number="3" default-x="6.50" default-y="-91.48" relative-y="-30.00">
          <syllabic>single</syllabic>
          <text>하</text>
          </lyric>
        <lyric number="4" default-x="6.50" default-y="-113.21" relative-y="-30.00">
          <syllabic>single</syllabic>
          <text>하</text>
          </lyric>
        </note>
      <note default-x="58.03" default-y="-35.00">
        <pitch>
          <step>F</step>
          <octave>4</octave>
          </pitch>
        <duration>4</duration>
        <voice>1</voice>
        <type>half</type>
        <stem>up</stem>
        <lyric number="1" default-x="6.50" default-y="-48.00" relative-y="-30.00">
          <syllabic>single</syllabic>
          <text>소</text>
          </lyric>
        <lyric number="2" default-x="6.50" default-y="-69.74" relative-y="-30.00">
          <syllabic>single</syllabic>
          <text>소</text>
          </lyric>
        <lyric number="3" default-x="6.50" default-y="-91.48" relative-y="-30.00">
          <syllabic>single</syllabic>
          <text>소</text>
          </lyric>
        <lyric number="4" default-x="6.50" default-y="-113.21" relative-y="-30.00">
          <syllabic>single</syllabic>
          <text>소</text>
          </lyric>
        </note>
      <backup><duration>8</duration></backup><note default-x="16.00" default-y="-210.18">
        <pitch>
          <step>E</step>
          <alter>-1</alter>
          <octave>4</octave>
          </pitch>
        <duration>4</duration>
        <voice>2</voice>
        <type>half</type>
        <stem>down</stem>
        </note>
      <note default-x="58.03" default-y="-215.18">
        <pitch>
          <step>D</step>
          <octave>4</octave>
          </pitch>
        <duration>4</duration>
        <voice>2</voice>
        <type>half</type>
        <stem>down</stem>
        </note>
      </measure>
    <measure number="16" width="78.31">
      <note default-x="14.10" default-y="-40.00">
        <pitch>
          <step>E</step>
          <alter>-1</alter>
          <octave>4</octave>
          </pitch>
        <duration>8</duration>
        <voice>1</voice>
        <type>whole</type>
        <lyric number="1" default-x="5.54" default-y="-48.00" relative-y="-30.00">
          <syllabic>single</syllabic>
          <text>서</text>
          </lyric>
        <lyric number="2" default-x="5.54" default-y="-69.74" relative-y="-30.00">
          <syllabic>single</syllabic>
          <text>서</text>
          </lyric>
        <lyric number="3" default-x="5.54" default-y="-91.48" relative-y="-30.00">
          <syllabic>single</syllabic>
          <text>서</text>
          </lyric>
        <lyric number="4" default-x="5.54" default-y="-113.21" relative-y="-30.00">
          <syllabic>single</syllabic>
          <text>서</text>
          </lyric>
        </note>
      <barline location="right">
        <bar-style>light-light</bar-style>
        </barline>
      <backup><duration>8</duration></backup><note default-x="14.10" default-y="-210.18">
        <pitch>
          <step>E</step>
          <alter>-1</alter>
          <octave>4</octave>
          </pitch>
        <duration>8</duration>
        <voice>2</voice>
        <type>whole</type>
        </note>
      </measure>
    <measure number="17" width="106.93">
      <note default-x="16.50" default-y="-25.00">
        <pitch>
          <step>A</step>
          <alter>-1</alter>
          <octave>4</octave>
          </pitch>
        <duration>4</duration>
        <voice>1</voice>
        <type>half</type>
        <stem>up</stem>
        <lyric number="4" default-x="6.50" default-y="-113.21" relative-y="-30.00">
          <syllabic>single</syllabic>
          <text>아</text>
          </lyric>
        </note>
      <note default-x="56.39" default-y="-30.00">
        <pitch>
          <step>G</step>
          <octave>4</octave>
          </pitch>
        <duration>4</duration>
        <voice>1</voice>
        <type>half</type>
        <stem>up</stem>
        <lyric number="4" default-x="6.50" default-y="-113.21" relative-y="-30.00">
          <syllabic>single</syllabic>
          <text>멘</text>
          </lyric>
        </note>
      <barline location="right">
        <bar-style>light-heavy</bar-style>
        </barline>
      <backup><duration>8</duration></backup><note default-x="16.50" default-y="-210.18">
        <pitch>
          <step>E</step>
          <alter>-1</alter>
          <octave>4</octave>
          </pitch>
        <duration>4</duration>
        <voice>2</voice>
        <type>half</type>
        <stem>down</stem>
        </note>
      <note default-x="56.39" default-y="-210.18">
        <pitch>
          <step>E</step>
          <alter>-1</alter>
          <octave>4</octave>
          </pitch>
        <duration>4</duration>
        <voice>2</voice>
        <type>half</type>
        <stem>down</stem>
        </note>
      </measure>
    </part>
  <part id="P3">
    <measure number="1" width="213.17">
      <print>
        <staff-layout number="1">
          <staff-distance>65.00</staff-distance>
          </staff-layout>
        </print>
      <attributes>
        <divisions>2</divisions>
        <key>
          <fifths>-3</fifths>
          <mode>major</mode>
          </key>
        <time>
          <beats>4</beats>
          <beat-type>4</beat-type>
          </time>
        <clef>
          <sign>F</sign>
          <line>4</line>
          </clef>
        </attributes>
      <note default-x="121.61" default-y="-270.29">
        <pitch>
          <step>B</step>
          <alter>-1</alter>
          <octave>3</octave>
          </pitch>
        <duration>4</duration>
        <voice>1</voice>
        <type>half</type>
        <stem>up</stem>
        </note>
      <note default-x="157.96" default-y="-270.29">
        <pitch>
          <step>B</step>
          <alter>-1</alter>
          <octave>3</octave>
          </pitch>
        <duration>2</duration>
        <voice>1</voice>
        <type>quarter</type>
        <stem>up</stem>
        </note>
      <note default-x="180.67" default-y="-275.29">
        <pitch>
          <step>A</step>
          <alter>-1</alter>
          <octave>3</octave>
          </pitch>
        <duration>2</duration>
        <voice>1</voice>
        <type>quarter</type>
        <stem>up</stem>
        </note>
      <backup><duration>8</duration></backup><note default-x="121.61" default-y="-395.29">
        <pitch>
          <step>E</step>
          <alter>-1</alter>
          <octave>3</octave>
          </pitch>
        <duration>4</duration>
        <voice>2</voice>
        <type>half</type>
        <stem>down</stem>
        </note>
      <note default-x="157.96" default-y="-410.29">
        <pitch>
          <step>B</step>
          <alter>-1</alter>
          <octave>2</octave>
          </pitch>
        <duration>2</duration>
        <voice>2</voice>
        <type>quarter</type>
        <stem>down</stem>
        </note>
      <note default-x="180.67" default-y="-410.29">
        <pitch>
          <step>B</step>
          <alter>-1</alter>
          <octave>2</octave>
          </pitch>
        <duration>2</duration>
        <voice>2</voice>
        <type>quarter</type>
        <stem>down</stem>
        </note>
      </measure>
    <measure number="2" width="77.69">
      <note default-x="15.69" default-y="-280.29">
        <pitch>
          <step>G</step>
          <octave>3</octave>
          </pitch>
        <duration>4</duration>
        <voice>1</voice>
        <type>half</type>
        <stem>up</stem>
        </note>
      <note default-x="45.69" default-y="-290.29">
        <pitch>
          <step>E</step>
          <alter>-1</alter>
          <octave>3</octave>
          </pitch>
        <duration>4</duration>
        <voice>1</voice>
        <type>half</type>
        <stem>up</stem>
        </note>
      <backup><duration>8</duration></backup><note default-x="15.69" default-y="-405.29">
        <pitch>
          <step>C</step>
          <octave>3</octave>
          </pitch>
        <duration>4</duration>
        <voice>2</voice>
        <type>half</type>
        <stem>down</stem>
        </note>
      <note default-x="45.69" default-y="-420.29">
        <pitch>
          <step>G</step>
          <octave>2</octave>
          </pitch>
        <duration>4</duration>
        <voice>2</voice>
        <type>half</type>
        <stem>down</stem>
        </note>
      </measure>
    <measure number="3" width="128.49">
      <note default-x="15.70" default-y="-290.29">
        <pitch>
          <step>E</step>
          <alter>-1</alter>
          <octave>3</octave>
          </pitch>
        <duration>2</duration>
        <voice>1</voice>
        <type>quarter</type>
        <stem>up</stem>
        </note>
      <note default-x="42.47" default-y="-270.29">
        <pitch>
          <step>B</step>
          <alter>-1</alter>
          <octave>3</octave>
          </pitch>
        <duration>2</duration>
        <voice>1</voice>
        <type>quarter</type>
        <stem>up</stem>
        </note>
      <note default-x="69.23" default-y="-270.29">
        <pitch>
          <step>B</step>
          <alter>-1</alter>
          <octave>3</octave>
          </pitch>
        <duration>2</duration>
        <voice>1</voice>
        <type>quarter</type>
        <stem>up</stem>
        </note>
      <note default-x="95.99" default-y="-270.29">
        <pitch>
          <step>B</step>
          <alter>-1</alter>
          <octave>3</octave>
          </pitch>
        <duration>2</duration>
        <voice>1</voice>
        <type>quarter</type>
        <stem>up</stem>
        </note>
      <backup><duration>8</duration></backup><note default-x="15.70" default-y="-415.29">
        <pitch>
          <step>A</step>
          <alter>-1</alter>
          <octave>2</octave>
          </pitch>
        <duration>2</duration>
        <voice>2</voice>
        <type>quarter</type>
        <stem>down</stem>
        </note>
      <note default-x="42.47" default-y="-410.29">
        <pitch>
          <step>B</step>
          <alter>-1</alter>
          <octave>2</octave>
          </pitch>
        <duration>2</duration>
        <voice>2</voice>
        <type>quarter</type>
        <stem>down</stem>
        </note>
      <note default-x="69.23" default-y="-405.29">
        <pitch>
          <step>C</step>
          <octave>3</octave>
          </pitch>
        <duration>2</duration>
        <voice>2</voice>
        <type>quarter</type>
        <stem>down</stem>
        </note>
      <note default-x="95.99" default-y="-400.29">
        <pitch>
          <step>D</step>
          <octave>3</octave>
          </pitch>
        <duration>2</duration>
        <voice>2</voice>
        <type>quarter</type>
        <stem>down</stem>
        </note>
      </measure>
    <measure number="4" width="56.24">
      <note default-x="14.74" default-y="-270.29">
        <pitch>
          <step>B</step>
          <alter>-1</alter>
          <octave>3</octave>
          </pitch>
        <duration>8</duration>
        <voice>1</voice>
        <type>whole</type>
        </note>
      <backup><duration>8</duration></backup><note default-x="14.74" default-y="-395.29">
        <pitch>
          <step>E</step>
          <alter>-1</alter>
          <octave>3</octave>
          </pitch>
        <duration>8</duration>
        <voice>2</voice>
        <type>whole</type>
        </note>
      </measure>
    <measure number="5" width="116.21">
      <note default-x="15.70" default-y="-270.29">
        <pitch>
          <step>B</step>
          <alter>-1</alter>
          <octave>3</octave>
          </pitch>
        <duration>4</duration>
        <voice>1</voice>
        <type>half</type>
        <stem>up</stem>
        </note>
      <note default-x="60.83" default-y="-275.29">
        <pitch>
          <step>A</step>
          <alter>-1</alter>
          <octave>3</octave>
          </pitch>
        <duration>2</duration>
        <voice>1</voice>
        <type>quarter</type>
        <stem>up</stem>
        </note>
      <note default-x="83.39" default-y="-280.29">
        <pitch>
          <step>G</step>
          <octave>3</octave>
          </pitch>
        <duration>2</duration>
        <voice>1</voice>
        <type>quarter</type>
        <stem>up</stem>
        </note>
      <backup><duration>8</duration></backup><note default-x="15.70" default-y="-395.29">
        <pitch>
          <step>E</step>
          <alter>-1</alter>
          <octave>3</octave>
          </pitch>
        <duration>2</duration>
        <voice>2</voice>
        <type>quarter</type>
        <stem>down</stem>
        </note>
      <note default-x="38.26" default-y="-400.29">
        <pitch>
          <step>D</step>
          <octave>3</octave>
          </pitch>
        <duration>2</duration>
        <voice>2</voice>
        <type>quarter</type>
        <stem>down</stem>
        </note>
      <note default-x="60.83" default-y="-405.29">
        <pitch>
          <step>C</step>
          <octave>3</octave>
          </pitch>
        <duration>2</duration>
        <voice>2</voice>
        <type>quarter</type>
        <stem>down</stem>
        </note>
      <note default-x="83.39" default-y="-410.29">
        <pitch>
          <step>B</step>
          <alter>-1</alter>
          <octave>2</octave>
          </pitch>
        <duration>2</duration>
        <voice>2</voice>
        <type>quarter</type>
        <stem>down</stem>
        </note>
      </measure>
    <measure number="6" width="79.80">
      <note default-x="15.66" default-y="-275.29">
        <pitch>
          <step>A</step>
          <alter>-1</alter>
          <octave>3</octave>
          </pitch>
        <duration>4</duration>
        <voice>1</voice>
        <type>half</type>
        <stem>up</stem>
        </note>
      <note default-x="46.83" default-y="-280.29">
        <pitch>
          <step>G</step>
          <octave>3</octave>
          </pitch>
        <duration>4</duration>
        <voice>1</voice>
        <type>half</type>
        <stem>up</stem>
        </note>
      <backup><duration>8</duration></backup><note default-x="15.66" default-y="-415.29">
        <pitch>
          <step>A</step>
          <alter>-1</alter>
          <octave>2</octave>
          </pitch>
        <duration>4</duration>
        <voice>2</voice>
        <type>half</type>
        <stem>down</stem>
        </note>
      <note default-x="46.83" default-y="-395.29">
        <pitch>
          <step>E</step>
          <alter>-1</alter>
          <octave>3</octave>
          </pitch>
        <duration>4</duration>
        <voice>2</voice>
        <type>half</type>
        <stem>down</stem>
        </note>
      </measure>
    <measure number="7" width="135.84">
      <note default-x="16.50" default-y="-265.29">
        <pitch>
          <step>C</step>
          <octave>4</octave>
          </pitch>
        <duration>2</duration>
        <voice>1</voice>
        <type>quarter</type>
        <stem>up</stem>
        </note>
      <note default-x="45.45" default-y="-270.29">
        <pitch>
          <step>B</step>
          <alter>-1</alter>
          <octave>3</octave>
          </pitch>
        <duration>2</duration>
        <voice>1</voice>
        <type>quarter</type>
        <stem>up</stem>
        </note>
      <note default-x="74.39" default-y="-270.29">
        <pitch>
          <step>B</step>
          <alter>-1</alter>
          <octave>3</octave>
          </pitch>
        <duration>2</duration>
        <voice>1</voice>
        <type>quarter</type>
        <stem>up</stem>
        </note>
      <note default-x="103.34" default-y="-290.29">
        <pitch>
          <step>E</step>
          <alter>-1</alter>
          <octave>3</octave>
          </pitch>
        <duration>2</duration>
        <voice>1</voice>
        <type>quarter</type>
        <stem>up</stem>
        </note>
      <backup><duration>8</duration></backup><note default-x="16.50" default-y="-390.29">
        <pitch>
          <step>F</step>
          <octave>3</octave>
          </pitch>
        <duration>2</duration>
        <voice>2</voice>
        <type>quarter</type>
        <stem>down</stem>
        </note>
      <note default-x="45.45" default-y="-400.29">
        <pitch>
          <step>D</step>
          <octave>3</octave>
          </pitch>
        <duration>2</duration>
        <voice>2</voice>
        <type>quarter</type>
        <stem>down</stem>
        </note>
      <note default-x="74.39" default-y="-395.29">
        <pitch>
          <step>E</step>
          <alter>-1</alter>
          <octave>3</octave>
          </pitch>
        <duration>2</duration>
        <voice>2</voice>
        <type>quarter</type>
        <stem>down</stem>
        </note>
      <note default-x="103.34" default-y="-405.29">
        <pitch>
          <step>C</step>
          <octave>3</octave>
          </pitch>
        <duration>2</duration>
        <voice>2</voice>
        <type>quarter</type>
        <stem>down</stem>
        </note>
      </measure>
    <measure number="8" width="56.11">
      <note default-x="14.10" default-y="-285.29">
        <pitch>
          <step>F</step>
          <octave>3</octave>
          </pitch>
        <duration>8</duration>
        <voice>1</voice>
        <type>whole</type>
        </note>
      <backup><duration>8</duration></backup><note default-x="14.10" default-y="-410.29">
        <pitch>
          <step>B</step>
          <alter>-1</alter>
          <octave>2</octave>
          </pitch>
        <duration>8</duration>
        <voice>2</voice>
        <type>whole</type>
        </note>
      </measure>
    <measure number="9" width="115.14">
      <note default-x="15.70" default-y="-280.29">
        <pitch>
          <step>G</step>
          <octave>3</octave>
          </pitch>
        <duration>2</duration>
        <voice>1</voice>
        <type>quarter</type>
        <stem>up</stem>
        </note>
      <note default-x="38.02" default-y="-275.29">
        <pitch>
          <step>A</step>
          <alter>-1</alter>
          <octave>3</octave>
          </pitch>
        <duration>2</duration>
        <voice>1</voice>
        <type>quarter</type>
        <stem>up</stem>
        </note>
      <note default-x="60.33" default-y="-270.29">
        <pitch>
          <step>B</step>
          <alter>-1</alter>
          <octave>3</octave>
          </pitch>
        <duration>2</duration>
        <voice>1</voice>
        <type>quarter</type>
        <stem>up</stem>
        </note>
      <note default-x="82.64" default-y="-275.29">
        <pitch>
          <step>A</step>
          <alter>-1</alter>
          <octave>3</octave>
          </pitch>
        <duration>2</duration>
        <voice>1</voice>
        <type>quarter</type>
        <stem>up</stem>
        </note>
      <backup><duration>8</duration></backup><note default-x="15.70" default-y="-395.29">
        <pitch>
          <step>E</step>
          <alter>-1</alter>
          <octave>3</octave>
          </pitch>
        <duration>4</duration>
        <voice>2</voice>
        <type>half</type>
        <stem>down</stem>
        </note>
      <note default-x="60.33" default-y="-410.29">
        <pitch>
          <step>B</step>
          <alter>-1</alter>
          <octave>2</octave>
          </pitch>
        <duration>2</duration>
        <voice>2</voice>
        <type>quarter</type>
        <stem>down</stem>
        </note>
      <note default-x="82.64" default-y="-410.29">
        <pitch>
          <step>B</step>
          <alter>-1</alter>
          <octave>2</octave>
          </pitch>
        <duration>2</duration>
        <voice>2</voice>
        <type>quarter</type>
        <stem>down</stem>
        </note>
      </measure>
    <measure number="10" width="205.90">
      <print new-system="yes">
        <staff-layout number="1">
          <staff-distance>65.00</staff-distance>
          </staff-layout>
        </print>
      <note default-x="99.48" default-y="-280.18">
        <pitch>
          <step>G</step>
          <octave>3</octave>
          </pitch>
        <duration>4</duration>
        <voice>1</voice>
        <type>half</type>
        <stem>up</stem>
        </note>
      <note default-x="145.98" default-y="-255.18">
        <pitch>
          <step>E</step>
          <alter>-1</alter>
          <octave>4</octave>
          </pitch>
        <duration>2</duration>
        <voice>1</voice>
        <type>quarter</type>
        <stem>up</stem>
        </note>
      <note default-x="175.04" default-y="-260.18">
        <pitch>
          <step>D</step>
          <octave>4</octave>
          </pitch>
        <duration>2</duration>
        <voice>1</voice>
        <type>quarter</type>
        <stem>up</stem>
        </note>
      <backup><duration>8</duration></backup><note default-x="99.48" default-y="-405.18">
        <pitch>
          <step>C</step>
          <octave>3</octave>
          </pitch>
        <duration>4</duration>
        <voice>2</voice>
        <type>half</type>
        <stem>down</stem>
        </note>
      <note default-x="145.98" default-y="-420.18">
        <pitch>
          <step>G</step>
          <octave>2</octave>
          </pitch>
        <duration>4</duration>
        <voice>2</voice>
        <type>half</type>
        <stem>down</stem>
        </note>
      </measure>
    <measure number="11" width="176.82">
      <note default-x="16.50" default-y="-265.18">
        <pitch>
          <step>C</step>
          <octave>4</octave>
          </pitch>
        <duration>2</duration>
        <voice>1</voice>
        <type>quarter</type>
        <stem>up</stem>
        </note>
      <note default-x="52.90" default-y="-265.18">
        <pitch>
          <step>C</step>
          <octave>4</octave>
          </pitch>
        <duration>2</duration>
        <voice>1</voice>
        <type>quarter</type>
        <stem>up</stem>
        </note>
      <note default-x="102.21" default-y="-265.18">
        <pitch>
          <step>C</step>
          <octave>4</octave>
          </pitch>
        <duration>2</duration>
        <voice>1</voice>
        <type>quarter</type>
        <stem>up</stem>
        </note>
      <note default-x="138.61" default-y="-270.18">
        <pitch>
          <step>B</step>
          <alter>-1</alter>
          <octave>3</octave>
          </pitch>
        <duration>2</duration>
        <voice>1</voice>
        <type>quarter</type>
        <stem>up</stem>
        </note>
      <backup><duration>8</duration></backup><note default-x="16.50" default-y="-415.18">
        <pitch>
          <step>A</step>
          <alter>-1</alter>
          <octave>2</octave>
          </pitch>
        <duration>3</duration>
        <voice>2</voice>
        <type>quarter</type>
        <dot/>
        <stem>down</stem>
        </note>
      <note default-x="75.66" default-y="-410.18">
        <pitch>
          <step>B</step>
          <alter>-1</alter>
          <octave>2</octave>
          </pitch>
        <duration>1</duration>
        <voice>2</voice>
        <type>eighth</type>
        <stem>down</stem>
        </note>
      <note default-x="102.21" default-y="-405.18">
        <pitch>
          <step>C</step>
          <octave>3</octave>
          </pitch>
        <duration>2</duration>
        <voice>2</voice>
        <type>quarter</type>
        <stem>down</stem>
        </note>
      <note default-x="138.61" default-y="-405.18">
        <pitch>
          <step>C</step>
          <octave>3</octave>
          </pitch>
        <duration>2</duration>
        <voice>2</voice>
        <type>quarter</type>
        <stem>down</stem>
        </note>
      </measure>
    <measure number="12" width="76.14">
      <note default-x="15.32" default-y="-275.18">
        <pitch>
          <step>A</step>
          <alter>-1</alter>
          <octave>3</octave>
          </pitch>
        <duration>8</duration>
        <voice>1</voice>
        <type>whole</type>
        </note>
      <backup><duration>8</duration></backup><note default-x="15.32" default-y="-390.18">
        <pitch>
          <step>F</step>
          <octave>3</octave>
          </pitch>
        <duration>8</duration>
        <voice>2</voice>
        <type>whole</type>
        </note>
      </measure>
    <measure number="13" width="125.00">
      <note default-x="16.21" default-y="-270.18">
        <pitch>
          <step>B</step>
          <alter>-1</alter>
          <octave>3</octave>
          </pitch>
        <duration>4</duration>
        <voice>1</voice>
        <type>half</type>
        <stem>up</stem>
        </note>
      <note default-x="63.16" default-y="-270.18">
        <pitch>
          <step>B</step>
          <alter>-1</alter>
          <octave>3</octave>
          </pitch>
        <duration>2</duration>
        <voice>1</voice>
        <type>quarter</type>
        <stem>up</stem>
        </note>
      <note default-x="92.50" default-y="-270.18">
        <pitch>
          <step>B</step>
          <alter>-1</alter>
          <octave>3</octave>
          </pitch>
        <duration>2</duration>
        <voice>1</voice>
        <type>quarter</type>
        <stem>up</stem>
        </note>
      <backup><duration>8</duration></backup><note default-x="16.21" default-y="-380.18">
        <pitch>
          <step>A</step>
          <alter>-1</alter>
          <octave>3</octave>
          </pitch>
        <duration>4</duration>
        <voice>2</voice>
        <type>half</type>
        <stem>down</stem>
        </note>
      <note default-x="63.16" default-y="-385.18">
        <pitch>
          <step>G</step>
          <octave>3</octave>
          </pitch>
        <duration>2</duration>
        <voice>2</voice>
        <type>quarter</type>
        <stem>down</stem>
        </note>
      <note default-x="92.50" default-y="-390.18">
        <pitch>
          <step>F</step>
          <octave>3</octave>
          </pitch>
        <duration>2</duration>
        <voice>2</voice>
        <type>quarter</type>
        <stem>down</stem>
        </note>
      </measure>
    <measure number="14" width="145.50">
      <note default-x="15.70" default-y="-270.18">
        <pitch>
          <step>B</step>
          <alter>-1</alter>
          <octave>3</octave>
          </pitch>
        <duration>2</duration>
        <voice>1</voice>
        <type>quarter</type>
        <stem>up</stem>
        </note>
      <note default-x="47.70" default-y="-275.18">
        <pitch>
          <step>A</step>
          <alter>-1</alter>
          <octave>3</octave>
          </pitch>
        <duration>2</duration>
        <voice>1</voice>
        <type>quarter</type>
        <stem>up</stem>
        </note>
      <note default-x="79.70" default-y="-280.18">
        <pitch>
          <step>G</step>
          <octave>3</octave>
          </pitch>
        <duration>2</duration>
        <voice>1</voice>
        <type>quarter</type>
        <stem>up</stem>
        </note>
      <note default-x="111.70" default-y="-265.18">
        <pitch>
          <step>C</step>
          <octave>4</octave>
          </pitch>
        <duration>2</duration>
        <voice>1</voice>
        <type>quarter</type>
        <stem>up</stem>
        </note>
      <backup><duration>8</duration></backup><note default-x="15.70" default-y="-395.18">
        <pitch>
          <step>E</step>
          <alter>-1</alter>
          <octave>3</octave>
          </pitch>
        <duration>2</duration>
        <voice>2</voice>
        <type>quarter</type>
        <stem>down</stem>
        </note>
      <note default-x="47.70" default-y="-410.18">
        <pitch>
          <step>B</step>
          <alter>-1</alter>
          <octave>2</octave>
          </pitch>
        <duration>2</duration>
        <voice>2</voice>
        <type>quarter</type>
        <stem>down</stem>
        </note>
      <note default-x="79.70" default-y="-405.18">
        <pitch>
          <step>C</step>
          <octave>3</octave>
          </pitch>
        <duration>2</duration>
        <voice>2</voice>
        <type>quarter</type>
        <stem>down</stem>
        </note>
      <note default-x="111.70" default-y="-415.18">
        <pitch>
          <step>A</step>
          <alter>-1</alter>
          <octave>2</octave>
          </pitch>
        <duration>2</duration>
        <voice>2</voice>
        <type>quarter</type>
        <stem>down</stem>
        </note>
      </measure>
    <measure number="15" width="114.10">
      <note default-x="16.00" default-y="-270.18">
        <pitch>
          <step>B</step>
          <alter>-1</alter>
          <octave>3</octave>
          </pitch>
        <duration>6</duration>
        <voice>1</voice>
        <type>half</type>
        <dot/>
        <stem>up</stem>
        </note>
      <note default-x="84.31" default-y="-275.18">
        <pitch>
          <step>A</step>
          <alter>-1</alter>
          <octave>3</octave>
          </pitch>
        <duration>2</duration>
        <voice>1</voice>
        <type>quarter</type>
        <stem>up</stem>
        </note>
      <backup><duration>8</duration></backup><note default-x="16.00" default-y="-410.18">
        <pitch>
          <step>B</step>
          <alter>-1</alter>
          <octave>2</octave>
          </pitch>
        <duration>4</duration>
        <voice>2</voice>
        <type>half</type>
        <stem>down</stem>
        </note>
      <note default-x="58.03" default-y="-410.18">
        <pitch>
          <step>B</step>
          <alter>-1</alter>
          <octave>2</octave>
          </pitch>
        <duration>4</duration>
        <voice>2</voice>
        <type>half</type>
        <stem>down</stem>
        </note>
      </measure>
    <measure number="16" width="78.31">
      <note default-x="14.10" default-y="-280.18">
        <pitch>
          <step>G</step>
          <octave>3</octave>
          </pitch>
        <duration>8</duration>
        <voice>1</voice>
        <type>whole</type>
        </note>
      <barline location="right">
        <bar-style>light-light</bar-style>
        </barline>
      <backup><duration>8</duration></backup><note default-x="14.10" default-y="-395.18">
        <pitch>
          <step>E</step>
          <alter>-1</alter>
          <octave>3</octave>
          </pitch>
        <duration>8</duration>
        <voice>2</voice>
        <type>whole</type>
        </note>
      </measure>
    <measure number="17" width="106.93">
      <note default-x="16.50" default-y="-265.18">
        <pitch>
          <step>C</step>
          <octave>4</octave>
          </pitch>
        <duration>4</duration>
        <voice>1</voice>
        <type>half</type>
        <stem>up</stem>
        </note>
      <note default-x="56.39" default-y="-270.18">
        <pitch>
          <step>B</step>
          <alter>-1</alter>
          <octave>3</octave>
          </pitch>
        <duration>4</duration>
        <voice>1</voice>
        <type>half</type>
        <stem>up</stem>
        </note>
      <barline location="right">
        <bar-style>light-heavy</bar-style>
        </barline>
      <backup><duration>8</duration></backup><note default-x="16.50" default-y="-415.18">
        <pitch>
          <step>A</step>
          <alter>-1</alter>
          <octave>2</octave>
          </pitch>
        <duration>4</duration>
        <voice>2</voice>
        <type>half</type>
        <stem>down</stem>
        </note>
      <note default-x="56.39" default-y="-395.18">
        <pitch>
          <step>E</step>
          <alter>-1</alter>
          <octave>3</octave>
          </pitch>
        <duration>4</duration>
        <voice>2</voice>
        <type>half</type>
        <stem>down</stem>
        </note>
      </measure>
    </part>
  </score-partwise>