<?xml version="1.0" encoding="UTF-8"?><!DOCTYPE score-partwise PUBLIC "-//Recordare//DTD MusicXML 3.1 Partwise//EN" "http://www.musicxml.org/dtds/partwise.dtd"><score-partwise version="3.1">
  <movement-title>514장 먼동 튼다 일어나라</movement-title>
  <identification>
    <creator type="composer">박영주</creator>
    <creator type="poet">오병학</creator>
    <encoding>
      <software>MuseScore 3.6.2</software>
      <encoding-date>2022-03-15</encoding-date>
      <supports element="accidental" type="yes"/>
      <supports element="beam" type="yes"/>
      <supports element="print" attribute="new-page" type="yes" value="yes"/>
      <supports element="print" attribute="new-system" type="yes" value="yes"/>
      <supports element="stem" type="yes"/>
      </encoding>
    </identification>
  <defaults>
    <scaling>
      <millimeters>6.99911</millimeters>
      <tenths>40</tenths>
      </scaling>
    <page-layout>
      <page-height>1697.36</page-height>
      <page-width>1200.15</page-width>
      <page-margins type="even">
        <left-margin>85.7252</left-margin>
        <right-margin>85.7252</right-margin>
        <top-margin>85.7252</top-margin>
        <bottom-margin>85.7252</bottom-margin>
        </page-margins>
      <page-margins type="odd">
        <left-margin>85.7252</left-margin>
        <right-margin>85.7252</right-margin>
        <top-margin>85.7252</top-margin>
        <bottom-margin>85.7252</bottom-margin>
        </page-margins>
      </page-layout>
    <word-font font-family="Edwin" font-size="10"/>
    <lyric-font font-family="Edwin" font-size="10"/>
    </defaults>
  <credit page="1">
    <credit-type>title</credit-type>
    <credit-words default-x="600.076" default-y="1611.63" justify="center" valign="top" font-size="22">514장 먼동 튼다 일어나라</credit-words>
    </credit>
  <credit page="1">
    <credit-type>composer</credit-type>
    <credit-words default-x="1114.43" default-y="1511.63" justify="right" valign="bottom">박영주</credit-words>
    </credit>
  <credit page="1">
    <credit-type>lyricist</credit-type>
    <credit-words default-x="85.7252" default-y="1511.63" justify="left" valign="bottom">오병학</credit-words>
    </credit>
  <credit page="1">
    <credit-type>rights</credit-type>
    <credit-words default-x="600.076" default-y="85.7252" justify="center" valign="bottom" font-size="9">Copyright 2022 David Sung</credit-words>
    </credit>
  <credit page="2">
    <credit-type>rights</credit-type>
    <credit-words default-x="600.076" default-y="85.7252" justify="center" valign="bottom" font-size="9">Copyright 2022 David Sung</credit-words>
    </credit>
  <part-list>
    <score-part id="P1">
      <part-name/>
      <score-instrument id="P1-I1">
        <instrument-name/>
        </score-instrument>
      <midi-device id="P1-I1" port="1"/>
      <midi-instrument id="P1-I1">
        <midi-channel>1</midi-channel>
        <midi-program>1</midi-program>
        <volume>78.7402</volume>
        <pan>0</pan>
        </midi-instrument>
      </score-part>
    <score-part id="P3">
      <part-name/>
      <score-instrument id="P3-I1">
        <instrument-name/>
        </score-instrument>
      <midi-device id="P3-I1" port="1"/>
      <midi-instrument id="P3-I1">
        <midi-channel>3</midi-channel>
        <midi-program>1</midi-program>
        <volume>78.7402</volume>
        <pan>0</pan>
        </midi-instrument>
      </score-part>
    </part-list>
  <part id="P1">
    <measure number="1" width="265.33">
      <print>
        <system-layout>
          <system-margins>
            <left-margin>50.00</left-margin>
            <right-margin>0.00</right-margin>
            </system-margins>
          <top-system-distance>170.00</top-system-distance>
          </system-layout>
        </print>
      <attributes>
        <divisions>2</divisions>
        <key>
          <fifths>-4</fifths>
          <mode>major</mode>
          </key>
        <time>
          <beats>3</beats>
          <beat-type>4</beat-type>
          </time>
        <clef>
          <sign>G</sign>
          <line>2</line>
          </clef>
        </attributes>
      <direction placement="above">
        <direction-type>
          <metronome parentheses="no" default-x="-41.18" relative-y="20.00">
            <beat-unit>quarter</beat-unit>
            <per-minute>92</per-minute>
            </metronome>
          </direction-type>
        <sound tempo="92"/>
        </direction>
      <note default-x="135.11" default-y="-40.00">
        <pitch>
          <step>E</step>
          <alter>-1</alter>
          <octave>4</octave>
          </pitch>
        <duration>1</duration>
        <voice>1</voice>
        <type>eighth</type>
        <stem>up</stem>
        <lyric number="1" default-x="-14.79" default-y="-48.00" relative-y="-30.00">
          <syllabic>single</syllabic>
          <text>1.먼</text>
          </lyric>
        <lyric number="2" default-x="-16.10" default-y="-69.74" relative-y="-30.00">
          <syllabic>single</syllabic>
          <text>2.우</text>
          </lyric>
        <lyric number="3" default-x="-15.97" default-y="-91.48" relative-y="-30.00">
          <syllabic>single</syllabic>
          <text>3.비</text>
          </lyric>
        </note>
      <note default-x="161.66" default-y="-40.00">
        <pitch>
          <step>E</step>
          <alter>-1</alter>
          <octave>4</octave>
          </pitch>
        <duration>1</duration>
        <voice>1</voice>
        <type>eighth</type>
        <stem>up</stem>
        <lyric number="1" default-x="6.50" default-y="-48.00" relative-y="-30.00">
          <syllabic>single</syllabic>
          <text>동</text>
          </lyric>
        <lyric number="2" default-x="6.50" default-y="-69.74" relative-y="-30.00">
          <syllabic>single</syllabic>
          <text>리</text>
          </lyric>
        <lyric number="3" default-x="6.50" default-y="-91.48" relative-y="-30.00">
          <syllabic>single</syllabic>
          <text>바</text>
          </lyric>
        </note>
      <note default-x="188.22" default-y="-25.00">
        <pitch>
          <step>A</step>
          <alter>-1</alter>
          <octave>4</octave>
          </pitch>
        <duration>2</duration>
        <voice>1</voice>
        <type>quarter</type>
        <stem>up</stem>
        <lyric number="1" default-x="6.50" default-y="-48.00" relative-y="-30.00">
          <syllabic>single</syllabic>
          <text>튼</text>
          </lyric>
        <lyric number="2" default-x="6.50" default-y="-69.74" relative-y="-30.00">
          <syllabic>single</syllabic>
          <text>주</text>
          </lyric>
        <lyric number="3" default-x="6.50" default-y="-91.48" relative-y="-30.00">
          <syllabic>single</syllabic>
          <text>람</text>
          </lyric>
        </note>
      <note default-x="225.88" default-y="-25.00">
        <pitch>
          <step>A</step>
          <alter>-1</alter>
          <octave>4</octave>
          </pitch>
        <duration>2</duration>
        <voice>1</voice>
        <type>quarter</type>
        <stem>up</stem>
        <lyric number="1" default-x="6.50" default-y="-48.00" relative-y="-30.00">
          <syllabic>single</syllabic>
          <text>다</text>
          </lyric>
        <lyric number="2" default-x="6.50" default-y="-69.74" relative-y="-30.00">
          <syllabic>single</syllabic>
          <text>님</text>
          </lyric>
        <lyric number="3" default-x="6.50" default-y="-91.48" relative-y="-30.00">
          <syllabic>single</syllabic>
          <text>이</text>
          </lyric>
        </note>
      <backup><duration>6</duration></backup><note default-x="135.11" default-y="-198.44">
        <pitch>
          <step>C</step>
          <octave>4</octave>
          </pitch>
        <duration>1</duration>
        <voice>2</voice>
        <type>eighth</type>
        <stem>down</stem>
        </note>
      <note default-x="161.66" default-y="-198.44">
        <pitch>
          <step>C</step>
          <octave>4</octave>
          </pitch>
        <duration>1</duration>
        <voice>2</voice>
        <type>eighth</type>
        <stem>down</stem>
        </note>
      <note default-x="188.22" default-y="-188.44">
        <pitch>
          <step>E</step>
          <alter>-1</alter>
          <octave>4</octave>
          </pitch>
        <duration>2</duration>
        <voice>2</voice>
        <type>quarter</type>
        <stem>down</stem>
        </note>
      <note default-x="225.88" default-y="-188.44">
        <pitch>
          <step>E</step>
          <alter>-1</alter>
          <octave>4</octave>
          </pitch>
        <duration>2</duration>
        <voice>2</voice>
        <type>quarter</type>
        <stem>down</stem>
        </note>
      </measure>
    <measure number="2" width="144.13">
      <note default-x="15.70" default-y="-15.00">
        <pitch>
          <step>C</step>
          <octave>5</octave>
          </pitch>
        <duration>1</duration>
        <voice>1</voice>
        <type>eighth</type>
        <stem>up</stem>
        <lyric number="1" default-x="6.50" default-y="-48.00" relative-y="-30.00">
          <syllabic>single</syllabic>
          <text>일</text>
          </lyric>
        <lyric number="2" default-x="6.50" default-y="-69.74" relative-y="-30.00">
          <syllabic>single</syllabic>
          <text>추</text>
          </lyric>
        <lyric number="3" default-x="6.50" default-y="-91.48" relative-y="-30.00">
          <syllabic>single</syllabic>
          <text>몰</text>
          </lyric>
        </note>
      <note default-x="42.26" default-y="-15.00">
        <pitch>
          <step>C</step>
          <octave>5</octave>
          </pitch>
        <duration>1</duration>
        <voice>1</voice>
        <type>eighth</type>
        <stem>up</stem>
        <lyric number="1" default-x="6.50" default-y="-48.00" relative-y="-30.00">
          <syllabic>single</syllabic>
          <text>어</text>
          </lyric>
        <lyric number="2" default-x="6.50" default-y="-69.74" relative-y="-30.00">
          <syllabic>single</syllabic>
          <text>수</text>
          </lyric>
        <lyric number="3" default-x="6.50" default-y="-91.48" relative-y="-30.00">
          <syllabic>single</syllabic>
          <text>아</text>
          </lyric>
        </note>
      <note default-x="68.82" default-y="-20.00">
        <pitch>
          <step>B</step>
          <alter>-1</alter>
          <octave>4</octave>
          </pitch>
        <duration>2</duration>
        <voice>1</voice>
        <type>quarter</type>
        <stem>up</stem>
        <lyric number="1" default-x="6.50" default-y="-48.00" relative-y="-30.00">
          <syllabic>single</syllabic>
          <text>나</text>
          </lyric>
        <lyric number="2" default-x="6.50" default-y="-69.74" relative-y="-30.00">
          <syllabic>single</syllabic>
          <text>때</text>
          </lyric>
        <lyric number="3" default-x="6.50" default-y="-91.48" relative-y="-30.00">
          <syllabic>single</syllabic>
          <text>쳐</text>
          </lyric>
        </note>
      <note default-x="105.57" default-y="-25.00">
        <pitch>
          <step>A</step>
          <alter>-1</alter>
          <octave>4</octave>
          </pitch>
        <duration>2</duration>
        <voice>1</voice>
        <type>quarter</type>
        <stem>up</stem>
        <lyric number="1" default-x="6.50" default-y="-48.00" relative-y="-30.00">
          <syllabic>single</syllabic>
          <text>라</text>
          </lyric>
        <lyric number="2" default-x="6.50" default-y="-69.74" relative-y="-30.00">
          <syllabic>single</syllabic>
          <text>에</text>
          </lyric>
        <lyric number="3" default-x="6.50" default-y="-91.48" relative-y="-30.00">
          <syllabic>single</syllabic>
          <text>도</text>
          </lyric>
        </note>
      <backup><duration>6</duration></backup><note default-x="15.70" default-y="-188.44">
        <pitch>
          <step>E</step>
          <alter>-1</alter>
          <octave>4</octave>
          </pitch>
        <duration>1</duration>
        <voice>2</voice>
        <type>eighth</type>
        <stem>down</stem>
        </note>
      <note default-x="42.26" default-y="-188.44">
        <pitch>
          <step>E</step>
          <alter>-1</alter>
          <octave>4</octave>
          </pitch>
        <duration>1</duration>
        <voice>2</voice>
        <type>eighth</type>
        <stem>down</stem>
        </note>
      <note default-x="68.82" default-y="-188.44">
        <pitch>
          <step>E</step>
          <alter>-1</alter>
          <octave>4</octave>
          </pitch>
        <duration>2</duration>
        <voice>2</voice>
        <type>quarter</type>
        <stem>down</stem>
        </note>
      <note default-x="105.57" default-y="-188.44">
        <pitch>
          <step>E</step>
          <alter>-1</alter>
          <octave>4</octave>
          </pitch>
        <duration>2</duration>
        <voice>2</voice>
        <type>quarter</type>
        <stem>down</stem>
        </note>
      </measure>
    <measure number="3" width="160.83">
      <note default-x="18.04" default-y="-20.00">
        <pitch>
          <step>B</step>
          <alter>-1</alter>
          <octave>4</octave>
          </pitch>
        <duration>3</duration>
        <voice>1</voice>
        <type>quarter</type>
        <dot/>
        <stem>up</stem>
        <lyric number="1" default-x="6.50" default-y="-48.00" relative-y="-30.00">
          <syllabic>single</syllabic>
          <text>복</text>
          </lyric>
        <lyric number="2" default-x="6.50" default-y="-69.74" relative-y="-30.00">
          <syllabic>single</syllabic>
          <text>일</text>
          </lyric>
        <lyric number="3" default-x="6.50" default-y="-91.48" relative-y="-30.00">
          <syllabic>single</syllabic>
          <text>힘</text>
          </lyric>
        </note>
      <note default-x="66.36" default-y="-25.00">
        <pitch>
          <step>A</step>
          <alter>-1</alter>
          <octave>4</octave>
          </pitch>
        <duration>1</duration>
        <voice>1</voice>
        <type>eighth</type>
        <stem>up</stem>
        <lyric number="1" default-x="6.50" default-y="-48.00" relative-y="-30.00">
          <syllabic>single</syllabic>
          <text>음</text>
          </lyric>
        <lyric number="2" default-x="6.50" default-y="-69.74" relative-y="-30.00">
          <syllabic>single</syllabic>
          <text>꾼</text>
          </lyric>
        <lyric number="3" default-x="6.50" default-y="-91.48" relative-y="-30.00">
          <syllabic>single</syllabic>
          <text>써</text>
          </lyric>
        </note>
      <note default-x="92.91" default-y="-30.00">
        <pitch>
          <step>G</step>
          <octave>4</octave>
          </pitch>
        <duration>1</duration>
        <voice>1</voice>
        <type>eighth</type>
        <stem>up</stem>
        <lyric number="1" default-x="6.50" default-y="-48.00" relative-y="-30.00">
          <syllabic>single</syllabic>
          <text>전</text>
          </lyric>
        <lyric number="2" default-x="6.50" default-y="-69.74" relative-y="-30.00">
          <syllabic>single</syllabic>
          <text>부</text>
          </lyric>
        <lyric number="3" default-x="6.50" default-y="-91.48" relative-y="-30.00">
          <syllabic>single</syllabic>
          <text>일</text>
          </lyric>
        </note>
      <note default-x="119.47" default-y="-35.00">
        <pitch>
          <step>F</step>
          <octave>4</octave>
          </pitch>
        <duration>1</duration>
        <voice>1</voice>
        <type>eighth</type>
        <stem>up</stem>
        <lyric number="1" default-x="6.50" default-y="-48.00" relative-y="-30.00">
          <syllabic>single</syllabic>
          <text>하</text>
          </lyric>
        <lyric number="2" default-x="6.50" default-y="-69.74" relative-y="-30.00">
          <syllabic>single</syllabic>
          <text>른</text>
          </lyric>
        <lyric number="3" default-x="6.50" default-y="-91.48" relative-y="-30.00">
          <syllabic>single</syllabic>
          <text>하</text>
          </lyric>
        </note>
      <backup><duration>6</duration></backup><note default-x="18.04" default-y="-193.44">
        <pitch>
          <step>D</step>
          <octave>4</octave>
          </pitch>
        <duration>3</duration>
        <voice>2</voice>
        <type>quarter</type>
        <dot/>
        <accidental>natural</accidental>
        <stem>down</stem>
        </note>
      <note default-x="66.36" default-y="-193.44">
        <pitch>
          <step>D</step>
          <octave>4</octave>
          </pitch>
        <duration>1</duration>
        <voice>2</voice>
        <type>eighth</type>
        <stem>down</stem>
        </note>
      <note default-x="92.91" default-y="-188.44">
        <pitch>
          <step>E</step>
          <alter>-1</alter>
          <octave>4</octave>
          </pitch>
        <duration>1</duration>
        <voice>2</voice>
        <type>eighth</type>
        <stem>down</stem>
        </note>
      <note default-x="119.47" default-y="-193.44">
        <pitch>
          <step>D</step>
          <octave>4</octave>
          </pitch>
        <duration>1</duration>
        <voice>2</voice>
        <type>eighth</type>
        <stem>down</stem>
        </note>
      </measure>
    <measure number="4" width="119.05">
      <note default-x="16.14" default-y="-40.00">
        <pitch>
          <step>E</step>
          <alter>-1</alter>
          <octave>4</octave>
          </pitch>
        <duration>6</duration>
        <voice>1</voice>
        <type>half</type>
        <dot/>
        <stem>up</stem>
        <lyric number="1" default-x="6.50" default-y="-48.00" relative-y="-30.00">
          <syllabic>single</syllabic>
          <text>자</text>
          </lyric>
        <lyric number="2" default-x="6.50" default-y="-69.74" relative-y="-30.00">
          <syllabic>single</syllabic>
          <text>다</text>
          </lyric>
        <lyric number="3" default-x="6.50" default-y="-91.48" relative-y="-30.00">
          <syllabic>single</syllabic>
          <text>자</text>
          </lyric>
        </note>
      <backup><duration>6</duration></backup><note default-x="16.14" default-y="-188.44">
        <pitch>
          <step>E</step>
          <alter>-1</alter>
          <octave>4</octave>
          </pitch>
        <duration>6</duration>
        <voice>2</voice>
        <type>half</type>
        <dot/>
        <stem>down</stem>
        </note>
      </measure>
    <measure number="5" width="145.31">
      <note default-x="16.50" default-y="-25.00">
        <pitch>
          <step>A</step>
          <alter>-1</alter>
          <octave>4</octave>
          </pitch>
        <duration>1</duration>
        <voice>1</voice>
        <type>eighth</type>
        <stem>up</stem>
        <lyric number="1" default-x="6.50" default-y="-48.00" relative-y="-30.00">
          <syllabic>single</syllabic>
          <text>논</text>
          </lyric>
        <lyric number="2" default-x="6.50" default-y="-69.74" relative-y="-30.00">
          <syllabic>single</syllabic>
          <text>어</text>
          </lyric>
        <lyric number="3" default-x="6.50" default-y="-91.48" relative-y="-30.00">
          <syllabic>single</syllabic>
          <text>고</text>
          </lyric>
        </note>
      <note default-x="43.06" default-y="-25.00">
        <pitch>
          <step>A</step>
          <alter>-1</alter>
          <octave>4</octave>
          </pitch>
        <duration>1</duration>
        <voice>1</voice>
        <type>eighth</type>
        <stem>up</stem>
        <lyric number="1" default-x="6.50" default-y="-48.00" relative-y="-30.00">
          <syllabic>single</syllabic>
          <text>과</text>
          </lyric>
        <lyric number="2" default-x="6.50" default-y="-69.74" relative-y="-30.00">
          <syllabic>single</syllabic>
          <text>서</text>
          </lyric>
        <lyric number="3" default-x="6.50" default-y="-91.48" relative-y="-30.00">
          <syllabic>single</syllabic>
          <text>단</text>
          </lyric>
        </note>
      <note default-x="69.61" default-y="-25.00">
        <pitch>
          <step>A</step>
          <alter>-1</alter>
          <octave>4</octave>
          </pitch>
        <duration>2</duration>
        <voice>1</voice>
        <type>quarter</type>
        <stem>up</stem>
        <lyric number="1" default-x="6.50" default-y="-48.00" relative-y="-30.00">
          <syllabic>single</syllabic>
          <text>밭</text>
          </lyric>
        <lyric number="2" default-x="6.50" default-y="-69.74" relative-y="-30.00">
          <syllabic>single</syllabic>
          <text>어</text>
          </lyric>
        <lyric number="3" default-x="6.50" default-y="-91.48" relative-y="-30.00">
          <syllabic>single</syllabic>
          <text>하</text>
          </lyric>
        </note>
      <note default-x="106.56" default-y="-20.00">
        <pitch>
          <step>B</step>
          <alter>-1</alter>
          <octave>4</octave>
          </pitch>
        <duration>2</duration>
        <voice>1</voice>
        <type>quarter</type>
        <stem>up</stem>
        <lyric number="1" default-x="6.50" default-y="-48.00" relative-y="-30.00">
          <syllabic>single</syllabic>
          <text>에</text>
          </lyric>
        <lyric number="2" default-x="6.50" default-y="-69.74" relative-y="-30.00">
          <syllabic>single</syllabic>
          <text>서</text>
          </lyric>
        <lyric number="3" default-x="6.50" default-y="-91.48" relative-y="-30.00">
          <syllabic>single</syllabic>
          <text>고</text>
          </lyric>
        </note>
      <backup><duration>6</duration></backup><note default-x="16.50" default-y="-198.44">
        <pitch>
          <step>C</step>
          <octave>4</octave>
          </pitch>
        <duration>1</duration>
        <voice>2</voice>
        <type>eighth</type>
        <stem>down</stem>
        </note>
      <note default-x="43.06" default-y="-198.44">
        <pitch>
          <step>C</step>
          <octave>4</octave>
          </pitch>
        <duration>1</duration>
        <voice>2</voice>
        <type>eighth</type>
        <stem>down</stem>
        </note>
      <note default-x="69.61" default-y="-188.44">
        <pitch>
          <step>E</step>
          <alter>-1</alter>
          <octave>4</octave>
          </pitch>
        <duration>2</duration>
        <voice>2</voice>
        <type>quarter</type>
        <stem>down</stem>
        </note>
      <note default-x="106.56" default-y="-188.44">
        <pitch>
          <step>E</step>
          <alter>-1</alter>
          <octave>4</octave>
          </pitch>
        <duration>2</duration>
        <voice>2</voice>
        <type>quarter</type>
        <stem>down</stem>
        </note>
      </measure>
    <measure number="6" width="144.06">
      <note default-x="15.66" default-y="-15.00">
        <pitch>
          <step>C</step>
          <octave>5</octave>
          </pitch>
        <duration>1</duration>
        <voice>1</voice>
        <type>eighth</type>
        <stem>up</stem>
        <lyric number="1" default-x="6.50" default-y="-48.00" relative-y="-30.00">
          <syllabic>single</syllabic>
          <text>씨</text>
          </lyric>
        <lyric number="2" default-x="6.50" default-y="-69.74" relative-y="-30.00">
          <syllabic>single</syllabic>
          <text>나</text>
          </lyric>
        <lyric number="3" default-x="6.50" default-y="-91.48" relative-y="-30.00">
          <syllabic>single</syllabic>
          <text>외</text>
          </lyric>
        </note>
      <note default-x="42.22" default-y="-15.00">
        <pitch>
          <step>C</step>
          <octave>5</octave>
          </pitch>
        <duration>1</duration>
        <voice>1</voice>
        <type>eighth</type>
        <stem>up</stem>
        <lyric number="1" default-x="6.50" default-y="-48.00" relative-y="-30.00">
          <syllabic>single</syllabic>
          <text>뿌</text>
          </lyric>
        <lyric number="2" default-x="6.50" default-y="-69.74" relative-y="-30.00">
          <syllabic>single</syllabic>
          <text>오</text>
          </lyric>
        <lyric number="3" default-x="6.50" default-y="-91.48" relative-y="-30.00">
          <syllabic>single</syllabic>
          <text>로</text>
          </lyric>
        </note>
      <note default-x="68.78" default-y="-15.00">
        <pitch>
          <step>C</step>
          <octave>5</octave>
          </pitch>
        <duration>2</duration>
        <voice>1</voice>
        <type>quarter</type>
        <stem>up</stem>
        <lyric number="1" default-x="6.50" default-y="-48.00" relative-y="-30.00">
          <syllabic>single</syllabic>
          <text>리</text>
          </lyric>
        <lyric number="2" default-x="6.50" default-y="-69.74" relative-y="-30.00">
          <syllabic>single</syllabic>
          <text>라</text>
          </lyric>
        <lyric number="3" default-x="6.50" default-y="-91.48" relative-y="-30.00">
          <syllabic>single</syllabic>
          <text>워</text>
          </lyric>
        </note>
      <note default-x="105.52" default-y="-20.00">
        <pitch>
          <step>B</step>
          <alter>-1</alter>
          <octave>4</octave>
          </pitch>
        <duration>2</duration>
        <voice>1</voice>
        <type>quarter</type>
        <stem>up</stem>
        <lyric number="1" default-x="6.50" default-y="-48.00" relative-y="-30.00">
          <syllabic>single</syllabic>
          <text>듯</text>
          </lyric>
        <lyric number="2" default-x="6.50" default-y="-69.74" relative-y="-30.00">
          <syllabic>single</syllabic>
          <text>고</text>
          </lyric>
        <lyric number="3" default-x="6.50" default-y="-91.48" relative-y="-30.00">
          <syllabic>single</syllabic>
          <text>도</text>
          </lyric>
        </note>
      <backup><duration>6</duration></backup><note default-x="15.66" default-y="-188.44">
        <pitch>
          <step>E</step>
          <alter>-1</alter>
          <octave>4</octave>
          </pitch>
        <duration>1</duration>
        <voice>2</voice>
        <type>eighth</type>
        <stem>down</stem>
        </note>
      <note default-x="42.22" default-y="-188.44">
        <pitch>
          <step>E</step>
          <alter>-1</alter>
          <octave>4</octave>
          </pitch>
        <duration>1</duration>
        <voice>2</voice>
        <type>eighth</type>
        <stem>down</stem>
        </note>
      <note default-x="68.78" default-y="-183.44">
        <pitch>
          <step>F</step>
          <octave>4</octave>
          </pitch>
        <duration>2</duration>
        <voice>2</voice>
        <type>quarter</type>
        <stem>down</stem>
        </note>
      <note default-x="105.52" default-y="-183.44">
        <pitch>
          <step>F</step>
          <octave>4</octave>
          </pitch>
        <duration>2</duration>
        <voice>2</voice>
        <type>quarter</type>
        <stem>down</stem>
        </note>
      </measure>
    <measure number="7" width="247.50">
      <print new-system="yes">
        <system-layout>
          <system-margins>
            <left-margin>0.00</left-margin>
            <right-margin>0.00</right-margin>
            </system-margins>
          <system-distance>150.00</system-distance>
          </system-layout>
        </print>
      <note default-x="109.48" default-y="-25.00">
        <pitch>
          <step>A</step>
          <alter>-1</alter>
          <octave>4</octave>
          </pitch>
        <duration>1</duration>
        <voice>1</voice>
        <type>eighth</type>
        <stem>up</stem>
        <lyric number="1" default-x="6.50" default-y="-51.76" relative-y="-30.00">
          <syllabic>single</syllabic>
          <text>복</text>
          </lyric>
        <lyric number="2" default-x="6.50" default-y="-73.50" relative-y="-30.00">
          <syllabic>single</syllabic>
          <text>일</text>
          </lyric>
        <lyric number="3" default-x="6.50" default-y="-95.23" relative-y="-30.00">
          <syllabic>single</syllabic>
          <text>힘</text>
          </lyric>
        </note>
      <note default-x="136.03" default-y="-40.00">
        <pitch>
          <step>E</step>
          <alter>-1</alter>
          <octave>4</octave>
          </pitch>
        <duration>1</duration>
        <voice>1</voice>
        <type>eighth</type>
        <stem>up</stem>
        <lyric number="1" default-x="6.50" default-y="-51.76" relative-y="-30.00">
          <syllabic>single</syllabic>
          <text>음</text>
          </lyric>
        <lyric number="2" default-x="6.50" default-y="-73.50" relative-y="-30.00">
          <syllabic>single</syllabic>
          <text>꾼</text>
          </lyric>
        <lyric number="3" default-x="6.50" default-y="-95.23" relative-y="-30.00">
          <syllabic>single</syllabic>
          <text>써</text>
          </lyric>
        </note>
      <note default-x="162.59" default-y="-15.00">
        <pitch>
          <step>C</step>
          <octave>5</octave>
          </pitch>
        <duration>2</duration>
        <voice>1</voice>
        <type>quarter</type>
        <stem>up</stem>
        <lyric number="1" default-x="6.50" default-y="-51.76" relative-y="-30.00">
          <syllabic>single</syllabic>
          <text>전</text>
          </lyric>
        <lyric number="2" default-x="6.50" default-y="-73.50" relative-y="-30.00">
          <syllabic>single</syllabic>
          <text>부</text>
          </lyric>
        <lyric number="3" default-x="6.50" default-y="-95.23" relative-y="-30.00">
          <syllabic>single</syllabic>
          <text>일</text>
          </lyric>
        </note>
      <note default-x="204.15" default-y="-20.00">
        <pitch>
          <step>B</step>
          <alter>-1</alter>
          <octave>4</octave>
          </pitch>
        <duration>2</duration>
        <voice>1</voice>
        <type>quarter</type>
        <stem>up</stem>
        <lyric number="1" default-x="6.50" default-y="-51.76" relative-y="-30.00">
          <syllabic>single</syllabic>
          <text>하</text>
          </lyric>
        <lyric number="2" default-x="6.50" default-y="-73.50" relative-y="-30.00">
          <syllabic>single</syllabic>
          <text>른</text>
          </lyric>
        <lyric number="3" default-x="6.50" default-y="-95.23" relative-y="-30.00">
          <syllabic>single</syllabic>
          <text>하</text>
          </lyric>
        </note>
      <backup><duration>6</duration></backup><note default-x="109.48" default-y="-199.57">
        <pitch>
          <step>E</step>
          <alter>-1</alter>
          <octave>4</octave>
          </pitch>
        <duration>1</duration>
        <voice>2</voice>
        <type>eighth</type>
        <stem>down</stem>
        </note>
      <note default-x="136.03" default-y="-209.57">
        <pitch>
          <step>C</step>
          <octave>4</octave>
          </pitch>
        <duration>1</duration>
        <voice>2</voice>
        <type>eighth</type>
        <stem>down</stem>
        </note>
      <note default-x="162.59" default-y="-199.57">
        <pitch>
          <step>E</step>
          <alter>-1</alter>
          <octave>4</octave>
          </pitch>
        <duration>2</duration>
        <voice>2</voice>
        <type>quarter</type>
        <stem>down</stem>
        </note>
      <note default-x="204.15" default-y="-204.57">
        <pitch>
          <step>D</step>
          <alter>-1</alter>
          <octave>4</octave>
          </pitch>
        <duration>2</duration>
        <voice>2</voice>
        <type>quarter</type>
        <stem>down</stem>
        </note>
      </measure>
    <measure number="8" width="76.55">
      <note default-x="16.50" default-y="-25.00">
        <pitch>
          <step>A</step>
          <alter>-1</alter>
          <octave>4</octave>
          </pitch>
        <duration>6</duration>
        <voice>1</voice>
        <type>half</type>
        <dot/>
        <stem>up</stem>
        <lyric number="1" default-x="6.50" default-y="-51.76" relative-y="-30.00">
          <syllabic>single</syllabic>
          <text>자</text>
          </lyric>
        <lyric number="2" default-x="6.50" default-y="-73.50" relative-y="-30.00">
          <syllabic>single</syllabic>
          <text>다</text>
          </lyric>
        <lyric number="3" default-x="6.50" default-y="-95.23" relative-y="-30.00">
          <syllabic>single</syllabic>
          <text>자</text>
          </lyric>
        </note>
      <backup><duration>6</duration></backup><note default-x="16.50" default-y="-209.57">
        <pitch>
          <step>C</step>
          <octave>4</octave>
          </pitch>
        <duration>6</duration>
        <voice>2</voice>
        <type>half</type>
        <dot/>
        <stem>down</stem>
        </note>
      </measure>
    <measure number="9" width="167.66">
      <note default-x="16.00" default-y="-20.00">
        <pitch>
          <step>B</step>
          <alter>-1</alter>
          <octave>4</octave>
          </pitch>
        <duration>3</duration>
        <voice>1</voice>
        <type>quarter</type>
        <dot/>
        <stem>up</stem>
        <lyric number="1" default-x="6.50" default-y="-51.76" relative-y="-30.00">
          <syllabic>single</syllabic>
          <text>하</text>
          </lyric>
        <lyric number="2" default-x="6.50" default-y="-73.50" relative-y="-30.00">
          <syllabic>single</syllabic>
          <text>때</text>
          </lyric>
        <lyric number="3" default-x="6.50" default-y="-95.23" relative-y="-30.00">
          <syllabic>single</syllabic>
          <text>이</text>
          </lyric>
        </note>
      <note default-x="70.47" default-y="-20.00">
        <pitch>
          <step>B</step>
          <alter>-1</alter>
          <octave>4</octave>
          </pitch>
        <duration>1</duration>
        <voice>1</voice>
        <type>eighth</type>
        <stem>up</stem>
        <lyric number="1" default-x="6.50" default-y="-51.76" relative-y="-30.00">
          <syllabic>single</syllabic>
          <text>나</text>
          </lyric>
        <lyric number="2" default-x="6.50" default-y="-73.50" relative-y="-30.00">
          <syllabic>single</syllabic>
          <text>잃</text>
          </lyric>
        <lyric number="3" default-x="6.50" default-y="-95.23" relative-y="-30.00">
          <syllabic>single</syllabic>
          <text>땅</text>
          </lyric>
        </note>
      <note default-x="98.38" default-y="-20.00">
        <pitch>
          <step>B</step>
          <alter>-1</alter>
          <octave>4</octave>
          </pitch>
        <duration>1</duration>
        <voice>1</voice>
        <type>eighth</type>
        <stem>up</stem>
        <lyric number="1" default-x="6.50" default-y="-51.76" relative-y="-30.00">
          <syllabic>single</syllabic>
          <text>님</text>
          </lyric>
        <lyric number="2" default-x="6.50" default-y="-73.50" relative-y="-30.00">
          <syllabic>single</syllabic>
          <text>으</text>
          </lyric>
        <lyric number="3" default-x="6.50" default-y="-95.23" relative-y="-30.00">
          <syllabic>single</syllabic>
          <text>위</text>
          </lyric>
        </note>
      <note default-x="126.30" default-y="-20.00">
        <pitch>
          <step>B</step>
          <alter>-1</alter>
          <octave>4</octave>
          </pitch>
        <duration>1</duration>
        <voice>1</voice>
        <type>eighth</type>
        <stem>up</stem>
        <lyric number="1" default-x="6.50" default-y="-51.76" relative-y="-30.00">
          <syllabic>single</syllabic>
          <text>이</text>
          </lyric>
        <lyric number="2" default-x="6.50" default-y="-73.50" relative-y="-30.00">
          <syllabic>single</syllabic>
          <text>면</text>
          </lyric>
        <lyric number="3" default-x="6.50" default-y="-95.23" relative-y="-30.00">
          <syllabic>single</syllabic>
          <text>에</text>
          </lyric>
        </note>
      <backup><duration>6</duration></backup><note default-x="16.00" default-y="-199.57">
        <pitch>
          <step>E</step>
          <alter>-1</alter>
          <octave>4</octave>
          </pitch>
        <duration>3</duration>
        <voice>2</voice>
        <type>quarter</type>
        <dot/>
        <stem>down</stem>
        </note>
      <note default-x="70.47" default-y="-199.57">
        <pitch>
          <step>E</step>
          <alter>-1</alter>
          <octave>4</octave>
          </pitch>
        <duration>1</duration>
        <voice>2</voice>
        <type>eighth</type>
        <stem>down</stem>
        </note>
      <note default-x="98.38" default-y="-199.57">
        <pitch>
          <step>E</step>
          <alter>-1</alter>
          <octave>4</octave>
          </pitch>
        <duration>1</duration>
        <voice>2</voice>
        <type>eighth</type>
        <stem>down</stem>
        </note>
      <note default-x="126.30" default-y="-199.57">
        <pitch>
          <step>E</step>
          <alter>-1</alter>
          <octave>4</octave>
          </pitch>
        <duration>1</duration>
        <voice>2</voice>
        <type>eighth</type>
        <stem>down</stem>
        </note>
      </measure>
    <measure number="10" width="154.19">
      <note default-x="16.50" default-y="-25.00">
        <pitch>
          <step>A</step>
          <alter>-1</alter>
          <octave>4</octave>
          </pitch>
        <duration>1</duration>
        <voice>1</voice>
        <type>eighth</type>
        <stem>up</stem>
        <lyric number="1" default-x="6.50" default-y="-51.76" relative-y="-30.00">
          <syllabic>single</syllabic>
          <text>주</text>
          </lyric>
        <lyric number="2" default-x="6.50" default-y="-73.50" relative-y="-30.00">
          <syllabic>single</syllabic>
          <text>어</text>
          </lyric>
        <lyric number="3" default-x="6.50" default-y="-95.23" relative-y="-30.00">
          <syllabic>single</syllabic>
          <text>하</text>
          </lyric>
        </note>
      <note default-x="43.06" default-y="-20.00">
        <pitch>
          <step>B</step>
          <alter>-1</alter>
          <octave>4</octave>
          </pitch>
        <duration>1</duration>
        <voice>1</voice>
        <type>eighth</type>
        <stem>up</stem>
        <lyric number="1" default-x="6.50" default-y="-51.76" relative-y="-30.00">
          <syllabic>single</syllabic>
          <text>신</text>
          </lyric>
        <lyric number="2" default-x="6.50" default-y="-73.50" relative-y="-30.00">
          <syllabic>single</syllabic>
          <text>찌</text>
          </lyric>
        <lyric number="3" default-x="6.50" default-y="-95.23" relative-y="-30.00">
          <syllabic>single</syllabic>
          <text>늘</text>
          </lyric>
        </note>
      <note default-x="69.61" default-y="-15.00">
        <pitch>
          <step>C</step>
          <octave>5</octave>
          </pitch>
        <duration>2</duration>
        <voice>1</voice>
        <type>quarter</type>
        <stem>up</stem>
        <lyric number="1" default-x="6.50" default-y="-51.76" relative-y="-30.00">
          <syllabic>single</syllabic>
          <text>말</text>
          </lyric>
        <lyric number="2" default-x="6.50" default-y="-73.50" relative-y="-30.00">
          <syllabic>single</syllabic>
          <text>하</text>
          </lyric>
        <lyric number="3" default-x="6.50" default-y="-95.23" relative-y="-30.00">
          <syllabic>single</syllabic>
          <text>나</text>
          </lyric>
        </note>
      <note default-x="111.00" default-y="-15.00">
        <pitch>
          <step>C</step>
          <octave>5</octave>
          </pitch>
        <duration>2</duration>
        <voice>1</voice>
        <type>quarter</type>
        <stem>up</stem>
        <lyric number="1" default-x="6.50" default-y="-51.76" relative-y="-30.00">
          <syllabic>single</syllabic>
          <text>씀</text>
          </lyric>
        <lyric number="2" default-x="6.50" default-y="-73.50" relative-y="-30.00">
          <syllabic>single</syllabic>
          <text>나</text>
          </lyric>
        <lyric number="3" default-x="6.50" default-y="-95.23" relative-y="-30.00">
          <syllabic>single</syllabic>
          <text>라</text>
          </lyric>
        </note>
      <backup><duration>6</duration></backup><note default-x="16.50" default-y="-209.57">
        <pitch>
          <step>C</step>
          <octave>4</octave>
          </pitch>
        <duration>1</duration>
        <voice>2</voice>
        <type>eighth</type>
        <stem>down</stem>
        </note>
      <note default-x="43.06" default-y="-204.57">
        <pitch>
          <step>D</step>
          <alter>-1</alter>
          <octave>4</octave>
          </pitch>
        <duration>1</duration>
        <voice>2</voice>
        <type>eighth</type>
        <stem>down</stem>
        </note>
      <note default-x="69.61" default-y="-199.57">
        <pitch>
          <step>E</step>
          <alter>-1</alter>
          <octave>4</octave>
          </pitch>
        <duration>2</duration>
        <voice>2</voice>
        <type>quarter</type>
        <stem>down</stem>
        </note>
      <note default-x="111.00" default-y="-199.57">
        <pitch>
          <step>E</step>
          <alter>-1</alter>
          <octave>4</octave>
          </pitch>
        <duration>2</duration>
        <voice>2</voice>
        <type>quarter</type>
        <stem>down</stem>
        </note>
      </measure>
    <measure number="11" width="153.33">
      <note default-x="15.40" default-y="-10.00">
        <pitch>
          <step>D</step>
          <alter>-1</alter>
          <octave>5</octave>
          </pitch>
        <duration>1</duration>
        <voice>1</voice>
        <type>eighth</type>
        <stem>up</stem>
        <lyric number="1" default-x="6.50" default-y="-51.76" relative-y="-30.00">
          <syllabic>single</syllabic>
          <text>심</text>
          </lyric>
        <lyric number="2" default-x="6.50" default-y="-73.50" relative-y="-30.00">
          <syllabic>single</syllabic>
          <text>세</text>
          </lyric>
        <lyric number="3" default-x="6.50" default-y="-95.23" relative-y="-30.00">
          <syllabic>single</syllabic>
          <text>이</text>
          </lyric>
        </note>
      <note default-x="41.96" default-y="-10.00">
        <pitch>
          <step>D</step>
          <alter>-1</alter>
          <octave>5</octave>
          </pitch>
        <duration>1</duration>
        <voice>1</voice>
        <type>eighth</type>
        <stem>up</stem>
        <lyric number="1" default-x="6.50" default-y="-51.76" relative-y="-30.00">
          <syllabic>single</syllabic>
          <text>어</text>
          </lyric>
        <lyric number="2" default-x="6.50" default-y="-73.50" relative-y="-30.00">
          <syllabic>single</syllabic>
          <text>상</text>
          </lyric>
        <lyric number="3" default-x="6.50" default-y="-95.23" relative-y="-30.00">
          <syllabic>single</syllabic>
          <text>루</text>
          </lyric>
        </note>
      <note default-x="68.51" default-y="-15.00">
        <pitch>
          <step>C</step>
          <octave>5</octave>
          </pitch>
        <duration>2</duration>
        <voice>1</voice>
        <type>quarter</type>
        <stem>up</stem>
        <lyric number="1" default-x="6.50" default-y="-51.76" relative-y="-30.00">
          <syllabic>single</syllabic>
          <text>가</text>
          </lyric>
        <lyric number="2" default-x="6.50" default-y="-73.50" relative-y="-30.00">
          <syllabic>single</syllabic>
          <text>사</text>
          </lyric>
        <lyric number="3" default-x="6.50" default-y="-95.23" relative-y="-30.00">
          <syllabic>single</syllabic>
          <text>어</text>
          </lyric>
        </note>
      <note default-x="110.02" default-y="-20.00">
        <pitch>
          <step>B</step>
          <alter>-1</alter>
          <octave>4</octave>
          </pitch>
        <duration>2</duration>
        <voice>1</voice>
        <type>quarter</type>
        <stem>up</stem>
        <lyric number="1" default-x="6.50" default-y="-51.76" relative-y="-30.00">
          <syllabic>single</syllabic>
          <text>꾸</text>
          </lyric>
        <lyric number="2" default-x="6.50" default-y="-73.50" relative-y="-30.00">
          <syllabic>single</syllabic>
          <text>람</text>
          </lyric>
        <lyric number="3" default-x="6.50" default-y="-95.23" relative-y="-30.00">
          <syllabic>single</syllabic>
          <text>질</text>
          </lyric>
        </note>
      <backup><duration>6</duration></backup><note default-x="15.40" default-y="-194.57">
        <pitch>
          <step>F</step>
          <octave>4</octave>
          </pitch>
        <duration>1</duration>
        <voice>2</voice>
        <type>eighth</type>
        <stem>down</stem>
        </note>
      <note default-x="41.96" default-y="-194.57">
        <pitch>
          <step>F</step>
          <octave>4</octave>
          </pitch>
        <duration>1</duration>
        <voice>2</voice>
        <type>eighth</type>
        <stem>down</stem>
        </note>
      <note default-x="68.51" default-y="-194.57">
        <pitch>
          <step>F</step>
          <octave>4</octave>
          </pitch>
        <duration>2</duration>
        <voice>2</voice>
        <type>quarter</type>
        <stem>down</stem>
        </note>
      <note default-x="110.02" default-y="-184.57">
        <pitch>
          <step>A</step>
          <alter>-1</alter>
          <octave>4</octave>
          </pitch>
        <duration>2</duration>
        <voice>2</voice>
        <type>quarter</type>
        <stem>down</stem>
        </note>
      </measure>
    <measure number="12" width="75.75">
      <note default-x="15.70" default-y="-5.00">
        <pitch>
          <step>E</step>
          <alter>-1</alter>
          <octave>5</octave>
          </pitch>
        <duration>6</duration>
        <voice>1</voice>
        <type>half</type>
        <dot/>
        <stem>up</stem>
        <lyric number="1" default-x="6.50" default-y="-51.76" relative-y="-30.00">
          <syllabic>single</syllabic>
          <text>면</text>
          </lyric>
        <lyric number="2" default-x="6.50" default-y="-73.50" relative-y="-30.00">
          <syllabic>single</syllabic>
          <text>들</text>
          </lyric>
        <lyric number="3" default-x="6.50" default-y="-95.23" relative-y="-30.00">
          <syllabic>single</syllabic>
          <text>때</text>
          </lyric>
        </note>
      <backup><duration>6</duration></backup><note default-x="15.70" default-y="-189.57">
        <pitch>
          <step>G</step>
          <octave>4</octave>
          </pitch>
        <duration>6</duration>
        <voice>2</voice>
        <type>half</type>
        <dot/>
        <stem>down</stem>
        </note>
      </measure>
    <measure number="13" width="153.73">
      <note default-x="16.08" default-y="-15.00">
        <pitch>
          <step>C</step>
          <octave>5</octave>
          </pitch>
        <duration>1</duration>
        <voice>1</voice>
        <type>eighth</type>
        <stem>up</stem>
        <lyric number="1" default-x="6.50" default-y="-51.76" relative-y="-30.00">
          <syllabic>single</syllabic>
          <text>귀</text>
          </lyric>
        <lyric number="2" default-x="6.50" default-y="-73.50" relative-y="-30.00">
          <syllabic>single</syllabic>
          <text>살</text>
          </lyric>
        <lyric number="3" default-x="6.50" default-y="-95.23" relative-y="-30.00">
          <syllabic>single</syllabic>
          <text>할</text>
          </lyric>
        </note>
      <note default-x="42.63" default-y="-20.00">
        <pitch>
          <step>B</step>
          <alter>-1</alter>
          <octave>4</octave>
          </pitch>
        <duration>1</duration>
        <voice>1</voice>
        <type>eighth</type>
        <stem>up</stem>
        <lyric number="1" default-x="6.50" default-y="-51.76" relative-y="-30.00">
          <syllabic>single</syllabic>
          <text>한</text>
          </lyric>
        <lyric number="2" default-x="6.50" default-y="-73.50" relative-y="-30.00">
          <syllabic>single</syllabic>
          <text>려</text>
          </lyric>
        <lyric number="3" default-x="6.50" default-y="-95.23" relative-y="-30.00">
          <syllabic>single</syllabic>
          <text>렐</text>
          </lyric>
        </note>
      <note default-x="69.19" default-y="-25.00">
        <pitch>
          <step>A</step>
          <alter>-1</alter>
          <octave>4</octave>
          </pitch>
        <duration>2</duration>
        <voice>1</voice>
        <type>quarter</type>
        <stem>up</stem>
        <lyric number="1" default-x="6.50" default-y="-51.76" relative-y="-30.00">
          <syllabic>single</syllabic>
          <text>생</text>
          </lyric>
        <lyric number="2" default-x="6.50" default-y="-73.50" relative-y="-30.00">
          <syllabic>single</syllabic>
          <text>달</text>
          </lyric>
        <lyric number="3" default-x="6.50" default-y="-95.23" relative-y="-30.00">
          <syllabic>single</syllabic>
          <text>루</text>
          </lyric>
        </note>
      <note default-x="110.56" default-y="-15.00">
        <pitch>
          <step>C</step>
          <octave>5</octave>
          </pitch>
        <duration>2</duration>
        <voice>1</voice>
        <type>quarter</type>
        <stem>up</stem>
        <lyric number="1" default-x="6.50" default-y="-51.76" relative-y="-30.00">
          <syllabic>single</syllabic>
          <text>명</text>
          </lyric>
        <lyric number="2" default-x="6.50" default-y="-73.50" relative-y="-30.00">
          <syllabic>single</syllabic>
          <text>라</text>
          </lyric>
        <lyric number="3" default-x="6.50" default-y="-95.23" relative-y="-30.00">
          <syllabic>single</syllabic>
          <text>야</text>
          </lyric>
        </note>
      <backup><duration>6</duration></backup><note default-x="16.08" default-y="-199.57">
        <pitch>
          <step>E</step>
          <alter>-1</alter>
          <octave>4</octave>
          </pitch>
        <duration>1</duration>
        <voice>2</voice>
        <type>eighth</type>
        <stem>down</stem>
        </note>
      <note default-x="42.63" default-y="-204.57">
        <pitch>
          <step>D</step>
          <alter>-1</alter>
          <octave>4</octave>
          </pitch>
        <duration>1</duration>
        <voice>2</voice>
        <type>eighth</type>
        <stem>down</stem>
        </note>
      <note default-x="69.19" default-y="-209.57">
        <pitch>
          <step>C</step>
          <octave>4</octave>
          </pitch>
        <duration>2</duration>
        <voice>2</voice>
        <type>quarter</type>
        <stem>down</stem>
        </note>
      <note default-x="110.56" default-y="-194.57">
        <pitch>
          <step>F</step>
          <octave>4</octave>
          </pitch>
        <duration>2</duration>
        <voice>2</voice>
        <type>quarter</type>
        <stem>down</stem>
        </note>
      </measure>
    <measure number="14" width="423.32">
      <print new-system="yes">
        <system-layout>
          <system-margins>
            <left-margin>0.00</left-margin>
            <right-margin>0.00</right-margin>
            </system-margins>
          <top-system-distance>70.00</top-system-distance>
          </system-layout>
        </print>
      <note default-x="109.48" default-y="-5.00">
        <pitch>
          <step>E</step>
          <alter>-1</alter>
          <octave>5</octave>
          </pitch>
        <duration>1</duration>
        <voice>1</voice>
        <type>eighth</type>
        <stem>up</stem>
        <lyric number="1" default-x="6.50" default-y="-51.75" relative-y="-30.00">
          <syllabic>single</syllabic>
          <text>풍</text>
          </lyric>
        <lyric number="2" default-x="6.50" default-y="-73.49" relative-y="-30.00">
          <syllabic>single</syllabic>
          <text>애</text>
          </lyric>
        <lyric number="3" default-x="6.50" default-y="-95.23" relative-y="-30.00">
          <syllabic>single</syllabic>
          <text>소</text>
          </lyric>
        </note>
      <note default-x="169.49" default-y="-10.00">
        <pitch>
          <step>D</step>
          <alter>-1</alter>
          <octave>5</octave>
          </pitch>
        <duration>1</duration>
        <voice>1</voice>
        <type>eighth</type>
        <stem>up</stem>
        <lyric number="1" default-x="6.50" default-y="-51.75" relative-y="-30.00">
          <syllabic>single</syllabic>
          <text>성</text>
          </lyric>
        <lyric number="2" default-x="6.50" default-y="-73.49" relative-y="-30.00">
          <syllabic>single</syllabic>
          <text>타</text>
          </lyric>
        <lyric number="3" default-x="6.50" default-y="-95.23" relative-y="-30.00">
          <syllabic>single</syllabic>
          <text>리</text>
          </lyric>
        </note>
      <note default-x="229.50" default-y="-15.00">
        <pitch>
          <step>C</step>
          <octave>5</octave>
          </pitch>
        <duration>2</duration>
        <voice>1</voice>
        <type>quarter</type>
        <stem>up</stem>
        <lyric number="1" default-x="6.50" default-y="-51.75" relative-y="-30.00">
          <syllabic>single</syllabic>
          <text>하</text>
          </lyric>
        <lyric number="2" default-x="6.50" default-y="-73.49" relative-y="-30.00">
          <syllabic>single</syllabic>
          <text>도</text>
          </lyric>
        <lyric number="3" default-x="6.50" default-y="-95.23" relative-y="-30.00">
          <syllabic>single</syllabic>
          <text>높</text>
          </lyric>
        </note>
      <note default-x="325.51" default-y="-25.00">
        <pitch>
          <step>A</step>
          <alter>-1</alter>
          <octave>4</octave>
          </pitch>
        <duration>2</duration>
        <voice>1</voice>
        <type>quarter</type>
        <stem>up</stem>
        <lyric number="1" default-x="6.50" default-y="-51.75" relative-y="-30.00">
          <syllabic>single</syllabic>
          <text>게</text>
          </lyric>
        <lyric number="2" default-x="6.50" default-y="-73.49" relative-y="-30.00">
          <syllabic>single</syllabic>
          <text>록</text>
          </lyric>
        <lyric number="3" default-x="6.50" default-y="-95.23" relative-y="-30.00">
          <syllabic>single</syllabic>
          <text>여</text>
          </lyric>
        </note>
      <backup><duration>6</duration></backup><note default-x="109.48" default-y="-184.53">
        <pitch>
          <step>G</step>
          <octave>4</octave>
          </pitch>
        <duration>1</duration>
        <voice>2</voice>
        <type>eighth</type>
        <stem>down</stem>
        </note>
      <note default-x="169.49" default-y="-194.53">
        <pitch>
          <step>E</step>
          <alter>-1</alter>
          <octave>4</octave>
          </pitch>
        <duration>1</duration>
        <voice>2</voice>
        <type>eighth</type>
        <stem>down</stem>
        </note>
      <note default-x="229.50" default-y="-194.53">
        <pitch>
          <step>E</step>
          <alter>-1</alter>
          <octave>4</octave>
          </pitch>
        <duration>2</duration>
        <voice>2</voice>
        <type>quarter</type>
        <stem>down</stem>
        </note>
      <note default-x="325.51" default-y="-194.53">
        <pitch>
          <step>E</step>
          <alter>-1</alter>
          <octave>4</octave>
          </pitch>
        <duration>2</duration>
        <voice>2</voice>
        <type>quarter</type>
        <stem>down</stem>
        </note>
      </measure>
    <measure number="15" width="343.82">
      <note default-x="16.00" default-y="-20.00">
        <pitch>
          <step>B</step>
          <alter>-1</alter>
          <octave>4</octave>
          </pitch>
        <duration>3</duration>
        <voice>1</voice>
        <type>quarter</type>
        <dot/>
        <stem>up</stem>
        <lyric number="1" default-x="6.50" default-y="-51.75" relative-y="-30.00">
          <syllabic>single</syllabic>
          <text>거</text>
          </lyric>
        <lyric number="2" default-x="6.50" default-y="-73.49" relative-y="-30.00">
          <syllabic>single</syllabic>
          <text>소</text>
          </lyric>
        <lyric number="3" default-x="6.50" default-y="-95.23" relative-y="-30.00">
          <syllabic>single</syllabic>
          <text>찬</text>
          </lyric>
        </note>
      <note default-x="144.47" default-y="-40.00">
        <pitch>
          <step>E</step>
          <alter>-1</alter>
          <octave>4</octave>
          </pitch>
        <duration>1</duration>
        <voice>1</voice>
        <type>eighth</type>
        <stem>up</stem>
        <lyric number="1" default-x="6.50" default-y="-51.75" relative-y="-30.00">
          <syllabic>single</syllabic>
          <text>두</text>
          </lyric>
        <lyric number="2" default-x="6.50" default-y="-73.49" relative-y="-30.00">
          <syllabic>single</syllabic>
          <text>리</text>
          </lyric>
        <lyric number="3" default-x="6.50" default-y="-95.23" relative-y="-30.00">
          <syllabic>single</syllabic>
          <text>양</text>
          </lyric>
        </note>
      <note default-x="210.32" default-y="-15.00">
        <pitch>
          <step>C</step>
          <octave>5</octave>
          </pitch>
        <duration>1</duration>
        <voice>1</voice>
        <type>eighth</type>
        <stem>up</stem>
        <lyric number="1" default-x="6.50" default-y="-51.75" relative-y="-30.00">
          <syllabic>single</syllabic>
          <text>게</text>
          </lyric>
        <lyric number="2" default-x="6.50" default-y="-73.49" relative-y="-30.00">
          <syllabic>single</syllabic>
          <text>치</text>
          </lyric>
        <lyric number="3" default-x="6.50" default-y="-95.23" relative-y="-30.00">
          <syllabic>single</syllabic>
          <text>하</text>
          </lyric>
        </note>
      <note default-x="276.17" default-y="-20.00">
        <pitch>
          <step>B</step>
          <alter>-1</alter>
          <octave>4</octave>
          </pitch>
        <duration>1</duration>
        <voice>1</voice>
        <type>eighth</type>
        <stem>up</stem>
        <lyric number="1" default-x="6.50" default-y="-51.75" relative-y="-30.00">
          <syllabic>single</syllabic>
          <text>되</text>
          </lyric>
        <lyric number="2" default-x="6.50" default-y="-73.49" relative-y="-30.00">
          <syllabic>single</syllabic>
          <text>누</text>
          </lyric>
        <lyric number="3" default-x="6.50" default-y="-95.23" relative-y="-30.00">
          <syllabic>single</syllabic>
          <text>리</text>
          </lyric>
        </note>
      <backup><duration>6</duration></backup><note default-x="16.00" default-y="-194.53">
        <pitch>
          <step>E</step>
          <alter>-1</alter>
          <octave>4</octave>
          </pitch>
        <duration>3</duration>
        <voice>2</voice>
        <type>quarter</type>
        <dot/>
        <stem>down</stem>
        </note>
      <note default-x="144.47" default-y="-194.53">
        <pitch>
          <step>E</step>
          <alter>-1</alter>
          <octave>4</octave>
          </pitch>
        <duration>1</duration>
        <voice>2</voice>
        <type>eighth</type>
        <stem>down</stem>
        </note>
      <note default-x="210.32" default-y="-194.53">
        <pitch>
          <step>E</step>
          <alter>-1</alter>
          <octave>4</octave>
          </pitch>
        <duration>1</duration>
        <voice>2</voice>
        <type>eighth</type>
        <stem>down</stem>
        </note>
      <note default-x="276.17" default-y="-199.53">
        <pitch>
          <step>D</step>
          <alter>-1</alter>
          <octave>4</octave>
          </pitch>
        <duration>1</duration>
        <voice>2</voice>
        <type>eighth</type>
        <stem>down</stem>
        </note>
      </measure>
    <measure number="16" width="261.56">
      <note default-x="16.50" default-y="-25.00">
        <pitch>
          <step>A</step>
          <alter>-1</alter>
          <octave>4</octave>
          </pitch>
        <duration>6</duration>
        <voice>1</voice>
        <type>half</type>
        <dot/>
        <stem>up</stem>
        <lyric number="1" default-x="6.50" default-y="-51.75" relative-y="-30.00">
          <syllabic>single</syllabic>
          <text>리</text>
          </lyric>
        <lyric number="2" default-x="6.50" default-y="-73.49" relative-y="-30.00">
          <syllabic>single</syllabic>
          <text>나</text>
          </lyric>
        <lyric number="3" default-x="6.50" default-y="-95.23" relative-y="-30.00">
          <syllabic>single</syllabic>
          <text>라</text>
          </lyric>
        </note>
      <barline location="right">
        <bar-style>light-heavy</bar-style>
        </barline>
      <backup><duration>6</duration></backup><note default-x="16.50" default-y="-204.53">
        <pitch>
          <step>C</step>
          <octave>4</octave>
          </pitch>
        <duration>6</duration>
        <voice>2</voice>
        <type>half</type>
        <dot/>
        <stem>down</stem>
        </note>
      </measure>
    </part>
  <part id="P3">
    <measure number="1" width="265.33">
      <print>
        <staff-layout number="1">
          <staff-distance>65.00</staff-distance>
          </staff-layout>
        </print>
      <attributes>
        <divisions>2</divisions>
        <key>
          <fifths>-4</fifths>
          <mode>major</mode>
          </key>
        <time>
          <beats>3</beats>
          <beat-type>4</beat-type>
          </time>
        <clef>
          <sign>F</sign>
          <line>4</line>
          </clef>
        </attributes>
      <note default-x="135.11" default-y="-253.44">
        <pitch>
          <step>A</step>
          <alter>-1</alter>
          <octave>3</octave>
          </pitch>
        <duration>1</duration>
        <voice>1</voice>
        <type>eighth</type>
        <stem>up</stem>
        </note>
      <note default-x="161.66" default-y="-253.44">
        <pitch>
          <step>A</step>
          <alter>-1</alter>
          <octave>3</octave>
          </pitch>
        <duration>1</duration>
        <voice>1</voice>
        <type>eighth</type>
        <stem>up</stem>
        </note>
      <note default-x="188.22" default-y="-243.44">
        <pitch>
          <step>C</step>
          <octave>4</octave>
          </pitch>
        <duration>2</duration>
        <voice>1</voice>
        <type>quarter</type>
        <stem>up</stem>
        </note>
      <note default-x="225.88" default-y="-243.44">
        <pitch>
          <step>C</step>
          <octave>4</octave>
          </pitch>
        <duration>2</duration>
        <voice>1</voice>
        <type>quarter</type>
        <stem>up</stem>
        </note>
      <backup><duration>6</duration></backup><note default-x="135.11" default-y="-393.44">
        <pitch>
          <step>A</step>
          <alter>-1</alter>
          <octave>2</octave>
          </pitch>
        <duration>1</duration>
        <voice>2</voice>
        <type>eighth</type>
        <stem>down</stem>
        </note>
      <note default-x="161.66" default-y="-393.44">
        <pitch>
          <step>A</step>
          <alter>-1</alter>
          <octave>2</octave>
          </pitch>
        <duration>1</duration>
        <voice>2</voice>
        <type>eighth</type>
        <stem>down</stem>
        </note>
      <note default-x="188.22" default-y="-393.44">
        <pitch>
          <step>A</step>
          <alter>-1</alter>
          <octave>2</octave>
          </pitch>
        <duration>2</duration>
        <voice>2</voice>
        <type>quarter</type>
        <stem>down</stem>
        </note>
      <note default-x="225.88" default-y="-393.44">
        <pitch>
          <step>A</step>
          <alter>-1</alter>
          <octave>2</octave>
          </pitch>
        <duration>2</duration>
        <voice>2</voice>
        <type>quarter</type>
        <stem>down</stem>
        </note>
      </measure>
    <measure number="2" width="144.13">
      <note default-x="15.70" default-y="-253.44">
        <pitch>
          <step>A</step>
          <alter>-1</alter>
          <octave>3</octave>
          </pitch>
        <duration>1</duration>
        <voice>1</voice>
        <type>eighth</type>
        <stem>up</stem>
        </note>
      <note default-x="42.26" default-y="-253.44">
        <pitch>
          <step>A</step>
          <alter>-1</alter>
          <octave>3</octave>
          </pitch>
        <duration>1</duration>
        <voice>1</voice>
        <type>eighth</type>
        <stem>up</stem>
        </note>
      <note default-x="68.82" default-y="-258.44">
        <pitch>
          <step>G</step>
          <octave>3</octave>
          </pitch>
        <duration>2</duration>
        <voice>1</voice>
        <type>quarter</type>
        <stem>up</stem>
        </note>
      <note default-x="105.57" default-y="-268.44">
        <pitch>
          <step>E</step>
          <alter>-1</alter>
          <octave>3</octave>
          </pitch>
        <duration>2</duration>
        <voice>1</voice>
        <type>quarter</type>
        <stem>up</stem>
        </note>
      <backup><duration>6</duration></backup><note default-x="15.70" default-y="-393.44">
        <pitch>
          <step>A</step>
          <alter>-1</alter>
          <octave>2</octave>
          </pitch>
        <duration>1</duration>
        <voice>2</voice>
        <type>eighth</type>
        <stem>down</stem>
        </note>
      <note default-x="42.26" default-y="-393.44">
        <pitch>
          <step>A</step>
          <alter>-1</alter>
          <octave>2</octave>
          </pitch>
        <duration>1</duration>
        <voice>2</voice>
        <type>eighth</type>
        <stem>down</stem>
        </note>
      <note default-x="68.82" default-y="-388.44">
        <pitch>
          <step>B</step>
          <alter>-1</alter>
          <octave>2</octave>
          </pitch>
        <duration>2</duration>
        <voice>2</voice>
        <type>quarter</type>
        <stem>down</stem>
        </note>
      <note default-x="105.57" default-y="-383.44">
        <pitch>
          <step>C</step>
          <octave>3</octave>
          </pitch>
        <duration>2</duration>
        <voice>2</voice>
        <type>quarter</type>
        <stem>down</stem>
        </note>
      </measure>
    <measure number="3" width="160.83">
      <note default-x="18.04" default-y="-248.44">
        <pitch>
          <step>B</step>
          <alter>-1</alter>
          <octave>3</octave>
          </pitch>
        <duration>3</duration>
        <voice>1</voice>
        <type>quarter</type>
        <dot/>
        <stem>up</stem>
        </note>
      <note default-x="66.36" default-y="-248.44">
        <pitch>
          <step>B</step>
          <alter>-1</alter>
          <octave>3</octave>
          </pitch>
        <duration>1</duration>
        <voice>1</voice>
        <type>eighth</type>
        <stem>up</stem>
        </note>
      <note default-x="92.91" default-y="-248.44">
        <pitch>
          <step>B</step>
          <alter>-1</alter>
          <octave>3</octave>
          </pitch>
        <duration>1</duration>
        <voice>1</voice>
        <type>eighth</type>
        <stem>up</stem>
        </note>
      <note default-x="119.47" default-y="-253.44">
        <pitch>
          <step>A</step>
          <alter>-1</alter>
          <octave>3</octave>
          </pitch>
        <duration>1</duration>
        <voice>1</voice>
        <type>eighth</type>
        <stem>up</stem>
        </note>
      <backup><duration>6</duration></backup><note default-x="18.04" default-y="-388.44">
        <pitch>
          <step>B</step>
          <alter>-1</alter>
          <octave>2</octave>
          </pitch>
        <duration>3</duration>
        <voice>2</voice>
        <type>quarter</type>
        <dot/>
        <stem>down</stem>
        </note>
      <note default-x="66.36" default-y="-388.44">
        <pitch>
          <step>B</step>
          <alter>-1</alter>
          <octave>2</octave>
          </pitch>
        <duration>1</duration>
        <voice>2</voice>
        <type>eighth</type>
        <stem>down</stem>
        </note>
      <note default-x="92.91" default-y="-388.44">
        <pitch>
          <step>B</step>
          <alter>-1</alter>
          <octave>2</octave>
          </pitch>
        <duration>1</duration>
        <voice>2</voice>
        <type>eighth</type>
        <stem>down</stem>
        </note>
      <note default-x="119.47" default-y="-388.44">
        <pitch>
          <step>B</step>
          <alter>-1</alter>
          <octave>2</octave>
          </pitch>
        <duration>1</duration>
        <voice>2</voice>
        <type>eighth</type>
        <stem>down</stem>
        </note>
      </measure>
    <measure number="4" width="119.05">
      <note default-x="16.14" default-y="-258.44">
        <pitch>
          <step>G</step>
          <octave>3</octave>
          </pitch>
        <duration>6</duration>
        <voice>1</voice>
        <type>half</type>
        <dot/>
        <stem>up</stem>
        </note>
      <backup><duration>6</duration></backup><note default-x="16.14" default-y="-373.44">
        <pitch>
          <step>E</step>
          <alter>-1</alter>
          <octave>3</octave>
          </pitch>
        <duration>3</duration>
        <voice>2</voice>
        <type>quarter</type>
        <dot/>
        <stem>down</stem>
        <notations>
          <slur type="start" placement="below" number="1"/>
          </notations>
        </note>
      <note default-x="52.24" default-y="-378.44">
        <pitch>
          <step>D</step>
          <alter>-1</alter>
          <octave>3</octave>
          </pitch>
        <duration>1</duration>
        <voice>2</voice>
        <type>eighth</type>
        <stem>down</stem>
        </note>
      <note default-x="70.74" default-y="-383.44">
        <pitch>
          <step>C</step>
          <octave>3</octave>
          </pitch>
        <duration>1</duration>
        <voice>2</voice>
        <type>eighth</type>
        <stem>down</stem>
        <beam number="1">begin</beam>
        </note>
      <note default-x="89.25" default-y="-388.44">
        <pitch>
          <step>B</step>
          <alter>-1</alter>
          <octave>2</octave>
          </pitch>
        <duration>1</duration>
        <voice>2</voice>
        <type>eighth</type>
        <stem>down</stem>
        <beam number="1">end</beam>
        <notations>
          <slur type="stop" number="1"/>
          </notations>
        </note>
      </measure>
    <measure number="5" width="145.31">
      <note default-x="16.50" default-y="-253.44">
        <pitch>
          <step>A</step>
          <alter>-1</alter>
          <octave>3</octave>
          </pitch>
        <duration>1</duration>
        <voice>1</voice>
        <type>eighth</type>
        <stem>up</stem>
        </note>
      <note default-x="43.06" default-y="-253.44">
        <pitch>
          <step>A</step>
          <alter>-1</alter>
          <octave>3</octave>
          </pitch>
        <duration>1</duration>
        <voice>1</voice>
        <type>eighth</type>
        <stem>up</stem>
        </note>
      <note default-x="69.61" default-y="-253.44">
        <pitch>
          <step>A</step>
          <alter>-1</alter>
          <octave>3</octave>
          </pitch>
        <duration>2</duration>
        <voice>1</voice>
        <type>quarter</type>
        <stem>up</stem>
        </note>
      <note default-x="106.56" default-y="-258.44">
        <pitch>
          <step>G</step>
          <octave>3</octave>
          </pitch>
        <duration>2</duration>
        <voice>1</voice>
        <type>quarter</type>
        <stem>up</stem>
        </note>
      <backup><duration>6</duration></backup><note default-x="16.50" default-y="-393.44">
        <pitch>
          <step>A</step>
          <alter>-1</alter>
          <octave>2</octave>
          </pitch>
        <duration>1</duration>
        <voice>2</voice>
        <type>eighth</type>
        <stem>down</stem>
        </note>
      <note default-x="43.06" default-y="-393.44">
        <pitch>
          <step>A</step>
          <alter>-1</alter>
          <octave>2</octave>
          </pitch>
        <duration>1</duration>
        <voice>2</voice>
        <type>eighth</type>
        <stem>down</stem>
        </note>
      <note default-x="69.61" default-y="-383.44">
        <pitch>
          <step>C</step>
          <octave>3</octave>
          </pitch>
        <duration>2</duration>
        <voice>2</voice>
        <type>quarter</type>
        <stem>down</stem>
        </note>
      <note default-x="106.56" default-y="-373.44">
        <pitch>
          <step>E</step>
          <alter>-1</alter>
          <octave>3</octave>
          </pitch>
        <duration>2</duration>
        <voice>2</voice>
        <type>quarter</type>
        <stem>down</stem>
        </note>
      </measure>
    <measure number="6" width="144.06">
      <note default-x="15.66" default-y="-253.44">
        <pitch>
          <step>A</step>
          <alter>-1</alter>
          <octave>3</octave>
          </pitch>
        <duration>1</duration>
        <voice>1</voice>
        <type>eighth</type>
        <stem>up</stem>
        </note>
      <note default-x="42.22" default-y="-253.44">
        <pitch>
          <step>A</step>
          <alter>-1</alter>
          <octave>3</octave>
          </pitch>
        <duration>1</duration>
        <voice>1</voice>
        <type>eighth</type>
        <stem>up</stem>
        </note>
      <note default-x="68.78" default-y="-253.44">
        <pitch>
          <step>A</step>
          <alter>-1</alter>
          <octave>3</octave>
          </pitch>
        <duration>2</duration>
        <voice>1</voice>
        <type>quarter</type>
        <stem>up</stem>
        </note>
      <note default-x="105.52" default-y="-238.44">
        <pitch>
          <step>D</step>
          <alter>-1</alter>
          <octave>4</octave>
          </pitch>
        <duration>2</duration>
        <voice>1</voice>
        <type>quarter</type>
        <stem>up</stem>
        </note>
      <backup><duration>6</duration></backup><note default-x="15.66" default-y="-358.44">
        <pitch>
          <step>A</step>
          <alter>-1</alter>
          <octave>3</octave>
          </pitch>
        <duration>1</duration>
        <voice>2</voice>
        <type>eighth</type>
        <stem>down</stem>
        </note>
      <note default-x="42.22" default-y="-358.44">
        <pitch>
          <step>A</step>
          <alter>-1</alter>
          <octave>3</octave>
          </pitch>
        <duration>1</duration>
        <voice>2</voice>
        <type>eighth</type>
        <stem>down</stem>
        </note>
      <note default-x="68.78" default-y="-368.44">
        <pitch>
          <step>F</step>
          <octave>3</octave>
          </pitch>
        <duration>2</duration>
        <voice>2</voice>
        <type>quarter</type>
        <stem>down</stem>
        </note>
      <note default-x="105.52" default-y="-378.44">
        <pitch>
          <step>D</step>
          <alter>-1</alter>
          <octave>3</octave>
          </pitch>
        <duration>2</duration>
        <voice>2</voice>
        <type>quarter</type>
        <stem>down</stem>
        </note>
      </measure>
    <measure number="7" width="247.50">
      <print new-system="yes">
        <staff-layout number="1">
          <staff-distance>65.00</staff-distance>
          </staff-layout>
        </print>
      <note default-x="109.48" default-y="-254.57">
        <pitch>
          <step>C</step>
          <octave>4</octave>
          </pitch>
        <duration>1</duration>
        <voice>1</voice>
        <type>eighth</type>
        <stem>up</stem>
        </note>
      <note default-x="136.03" default-y="-264.57">
        <pitch>
          <step>A</step>
          <alter>-1</alter>
          <octave>3</octave>
          </pitch>
        <duration>1</duration>
        <voice>1</voice>
        <type>eighth</type>
        <stem>up</stem>
        </note>
      <note default-x="162.59" default-y="-264.57">
        <pitch>
          <step>A</step>
          <alter>-1</alter>
          <octave>3</octave>
          </pitch>
        <duration>2</duration>
        <voice>1</voice>
        <type>quarter</type>
        <stem>up</stem>
        </note>
      <note default-x="204.15" default-y="-269.57">
        <pitch>
          <step>G</step>
          <octave>3</octave>
          </pitch>
        <duration>2</duration>
        <voice>1</voice>
        <type>quarter</type>
        <stem>up</stem>
        </note>
      <backup><duration>6</duration></backup><note default-x="109.48" default-y="-384.57">
        <pitch>
          <step>E</step>
          <alter>-1</alter>
          <octave>3</octave>
          </pitch>
        <duration>1</duration>
        <voice>2</voice>
        <type>eighth</type>
        <stem>down</stem>
        </note>
      <note default-x="136.03" default-y="-384.57">
        <pitch>
          <step>E</step>
          <alter>-1</alter>
          <octave>3</octave>
          </pitch>
        <duration>1</duration>
        <voice>2</voice>
        <type>eighth</type>
        <stem>down</stem>
        </note>
      <note default-x="162.59" default-y="-384.57">
        <pitch>
          <step>E</step>
          <alter>-1</alter>
          <octave>3</octave>
          </pitch>
        <duration>2</duration>
        <voice>2</voice>
        <type>quarter</type>
        <stem>down</stem>
        </note>
      <note default-x="204.15" default-y="-384.57">
        <pitch>
          <step>E</step>
          <alter>-1</alter>
          <octave>3</octave>
          </pitch>
        <duration>2</duration>
        <voice>2</voice>
        <type>quarter</type>
        <stem>down</stem>
        </note>
      </measure>
    <measure number="8" width="76.55">
      <note default-x="16.50" default-y="-264.57">
        <pitch>
          <step>A</step>
          <alter>-1</alter>
          <octave>3</octave>
          </pitch>
        <duration>6</duration>
        <voice>1</voice>
        <type>half</type>
        <dot/>
        <stem>up</stem>
        </note>
      <backup><duration>6</duration></backup><note default-x="16.50" default-y="-404.57">
        <pitch>
          <step>A</step>
          <alter>-1</alter>
          <octave>2</octave>
          </pitch>
        <duration>6</duration>
        <voice>2</voice>
        <type>half</type>
        <dot/>
        <stem>down</stem>
        </note>
      </measure>
    <measure number="9" width="167.66">
      <note default-x="16.00" default-y="-269.57">
        <pitch>
          <step>G</step>
          <octave>3</octave>
          </pitch>
        <duration>3</duration>
        <voice>1</voice>
        <type>quarter</type>
        <dot/>
        <stem>up</stem>
        </note>
      <note default-x="70.47" default-y="-269.57">
        <pitch>
          <step>G</step>
          <octave>3</octave>
          </pitch>
        <duration>1</duration>
        <voice>1</voice>
        <type>eighth</type>
        <stem>up</stem>
        </note>
      <note default-x="98.38" default-y="-269.57">
        <pitch>
          <step>G</step>
          <octave>3</octave>
          </pitch>
        <duration>1</duration>
        <voice>1</voice>
        <type>eighth</type>
        <stem>up</stem>
        </note>
      <note default-x="126.30" default-y="-269.57">
        <pitch>
          <step>G</step>
          <octave>3</octave>
          </pitch>
        <duration>1</duration>
        <voice>1</voice>
        <type>eighth</type>
        <stem>up</stem>
        </note>
      <backup><duration>6</duration></backup><note default-x="16.00" default-y="-384.57">
        <pitch>
          <step>E</step>
          <alter>-1</alter>
          <octave>3</octave>
          </pitch>
        <duration>3</duration>
        <voice>2</voice>
        <type>quarter</type>
        <dot/>
        <stem>down</stem>
        </note>
      <note default-x="70.47" default-y="-384.57">
        <pitch>
          <step>E</step>
          <alter>-1</alter>
          <octave>3</octave>
          </pitch>
        <duration>1</duration>
        <voice>2</voice>
        <type>eighth</type>
        <stem>down</stem>
        </note>
      <note default-x="98.38" default-y="-384.57">
        <pitch>
          <step>E</step>
          <alter>-1</alter>
          <octave>3</octave>
          </pitch>
        <duration>1</duration>
        <voice>2</voice>
        <type>eighth</type>
        <stem>down</stem>
        </note>
      <note default-x="126.30" default-y="-384.57">
        <pitch>
          <step>E</step>
          <alter>-1</alter>
          <octave>3</octave>
          </pitch>
        <duration>1</duration>
        <voice>2</voice>
        <type>eighth</type>
        <stem>down</stem>
        </note>
      </measure>
    <measure number="10" width="154.19">
      <note default-x="16.50" default-y="-264.57">
        <pitch>
          <step>A</step>
          <alter>-1</alter>
          <octave>3</octave>
          </pitch>
        <duration>1</duration>
        <voice>1</voice>
        <type>eighth</type>
        <stem>up</stem>
        </note>
      <note default-x="43.06" default-y="-264.57">
        <pitch>
          <step>A</step>
          <alter>-1</alter>
          <octave>3</octave>
          </pitch>
        <duration>1</duration>
        <voice>1</voice>
        <type>eighth</type>
        <stem>up</stem>
        </note>
      <note default-x="69.61" default-y="-264.57">
        <pitch>
          <step>A</step>
          <alter>-1</alter>
          <octave>3</octave>
          </pitch>
        <duration>2</duration>
        <voice>1</voice>
        <type>quarter</type>
        <stem>up</stem>
        </note>
      <note default-x="111.00" default-y="-264.57">
        <pitch>
          <step>A</step>
          <alter>-1</alter>
          <octave>3</octave>
          </pitch>
        <duration>2</duration>
        <voice>1</voice>
        <type>quarter</type>
        <stem>up</stem>
        </note>
      <backup><duration>6</duration></backup><note default-x="16.50" default-y="-404.57">
        <pitch>
          <step>A</step>
          <alter>-1</alter>
          <octave>2</octave>
          </pitch>
        <duration>1</duration>
        <voice>2</voice>
        <type>eighth</type>
        <stem>down</stem>
        </note>
      <note default-x="43.06" default-y="-404.57">
        <pitch>
          <step>A</step>
          <alter>-1</alter>
          <octave>2</octave>
          </pitch>
        <duration>1</duration>
        <voice>2</voice>
        <type>eighth</type>
        <stem>down</stem>
        </note>
      <note default-x="69.61" default-y="-404.57">
        <pitch>
          <step>A</step>
          <alter>-1</alter>
          <octave>2</octave>
          </pitch>
        <duration>2</duration>
        <voice>2</voice>
        <type>quarter</type>
        <stem>down</stem>
        </note>
      <note default-x="111.00" default-y="-404.57">
        <pitch>
          <step>A</step>
          <alter>-1</alter>
          <octave>2</octave>
          </pitch>
        <duration>2</duration>
        <voice>2</voice>
        <type>quarter</type>
        <stem>down</stem>
        </note>
      </measure>
    <measure number="11" width="153.33">
      <note default-x="15.40" default-y="-264.57">
        <pitch>
          <step>A</step>
          <alter>-1</alter>
          <octave>3</octave>
          </pitch>
        <duration>1</duration>
        <voice>1</voice>
        <type>eighth</type>
        <stem>up</stem>
        </note>
      <note default-x="41.96" default-y="-264.57">
        <pitch>
          <step>A</step>
          <alter>-1</alter>
          <octave>3</octave>
          </pitch>
        <duration>1</duration>
        <voice>1</voice>
        <type>eighth</type>
        <stem>up</stem>
        </note>
      <note default-x="68.51" default-y="-264.57">
        <pitch>
          <step>A</step>
          <octave>3</octave>
          </pitch>
        <duration>2</duration>
        <voice>1</voice>
        <type>quarter</type>
        <accidental>natural</accidental>
        <stem>up</stem>
        </note>
      <note default-x="110.02" default-y="-259.57">
        <pitch>
          <step>B</step>
          <alter>-1</alter>
          <octave>3</octave>
          </pitch>
        <duration>2</duration>
        <voice>1</voice>
        <type>quarter</type>
        <stem>up</stem>
        </note>
      <backup><duration>6</duration></backup><note default-x="15.40" default-y="-389.57">
        <pitch>
          <step>D</step>
          <alter>-1</alter>
          <octave>3</octave>
          </pitch>
        <duration>1</duration>
        <voice>2</voice>
        <type>eighth</type>
        <stem>down</stem>
        </note>
      <note default-x="41.96" default-y="-389.57">
        <pitch>
          <step>D</step>
          <alter>-1</alter>
          <octave>3</octave>
          </pitch>
        <duration>1</duration>
        <voice>2</voice>
        <type>eighth</type>
        <stem>down</stem>
        </note>
      <note default-x="68.51" default-y="-379.57">
        <pitch>
          <step>F</step>
          <octave>3</octave>
          </pitch>
        <duration>2</duration>
        <voice>2</voice>
        <type>quarter</type>
        <stem>down</stem>
        </note>
      <note default-x="110.02" default-y="-379.57">
        <pitch>
          <step>F</step>
          <octave>3</octave>
          </pitch>
        <duration>2</duration>
        <voice>2</voice>
        <type>quarter</type>
        <stem>down</stem>
        </note>
      </measure>
    <measure number="12" width="75.75">
      <note default-x="15.70" default-y="-259.57">
        <pitch>
          <step>B</step>
          <alter>-1</alter>
          <octave>3</octave>
          </pitch>
        <duration>6</duration>
        <voice>1</voice>
        <type>half</type>
        <dot/>
        <stem>up</stem>
        </note>
      <backup><duration>6</duration></backup><note default-x="15.70" default-y="-384.57">
        <pitch>
          <step>E</step>
          <alter>-1</alter>
          <octave>3</octave>
          </pitch>
        <duration>6</duration>
        <voice>2</voice>
        <type>half</type>
        <dot/>
        <stem>down</stem>
        </note>
      </measure>
    <measure number="13" width="153.73">
      <note default-x="16.08" default-y="-264.57">
        <pitch>
          <step>A</step>
          <alter>-1</alter>
          <octave>3</octave>
          </pitch>
        <duration>1</duration>
        <voice>1</voice>
        <type>eighth</type>
        <stem>up</stem>
        </note>
      <note default-x="42.63" default-y="-264.57">
        <pitch>
          <step>A</step>
          <alter>-1</alter>
          <octave>3</octave>
          </pitch>
        <duration>1</duration>
        <voice>1</voice>
        <type>eighth</type>
        <stem>up</stem>
        </note>
      <note default-x="69.19" default-y="-264.57">
        <pitch>
          <step>A</step>
          <alter>-1</alter>
          <octave>3</octave>
          </pitch>
        <duration>2</duration>
        <voice>1</voice>
        <type>quarter</type>
        <stem>up</stem>
        </note>
      <note default-x="110.56" default-y="-264.57">
        <pitch>
          <step>A</step>
          <alter>-1</alter>
          <octave>3</octave>
          </pitch>
        <duration>2</duration>
        <voice>1</voice>
        <type>quarter</type>
        <stem>up</stem>
        </note>
      <backup><duration>6</duration></backup><note default-x="16.08" default-y="-404.57">
        <pitch>
          <step>A</step>
          <alter>-1</alter>
          <octave>2</octave>
          </pitch>
        <duration>1</duration>
        <voice>2</voice>
        <type>eighth</type>
        <stem>down</stem>
        </note>
      <note default-x="42.63" default-y="-404.57">
        <pitch>
          <step>A</step>
          <alter>-1</alter>
          <octave>2</octave>
          </pitch>
        <duration>1</duration>
        <voice>2</voice>
        <type>eighth</type>
        <stem>down</stem>
        </note>
      <note default-x="69.19" default-y="-404.57">
        <pitch>
          <step>A</step>
          <alter>-1</alter>
          <octave>2</octave>
          </pitch>
        <duration>2</duration>
        <voice>2</voice>
        <type>quarter</type>
        <stem>down</stem>
        </note>
      <note default-x="110.56" default-y="-379.57">
        <pitch>
          <step>F</step>
          <octave>3</octave>
          </pitch>
        <duration>2</duration>
        <voice>2</voice>
        <type>quarter</type>
        <stem>down</stem>
        </note>
      </measure>
    <measure number="14" width="423.32">
      <print new-system="yes">
        <staff-layout number="1">
          <staff-distance>65.00</staff-distance>
          </staff-layout>
        </print>
      <note default-x="109.48" default-y="-254.53">
        <pitch>
          <step>B</step>
          <alter>-1</alter>
          <octave>3</octave>
          </pitch>
        <duration>1</duration>
        <voice>1</voice>
        <type>eighth</type>
        <stem>up</stem>
        </note>
      <note default-x="169.49" default-y="-264.53">
        <pitch>
          <step>G</step>
          <octave>3</octave>
          </pitch>
        <duration>1</duration>
        <voice>1</voice>
        <type>eighth</type>
        <stem>up</stem>
        </note>
      <note default-x="229.50" default-y="-259.53">
        <pitch>
          <step>A</step>
          <alter>-1</alter>
          <octave>3</octave>
          </pitch>
        <duration>2</duration>
        <voice>1</voice>
        <type>quarter</type>
        <stem>up</stem>
        </note>
      <note default-x="325.51" default-y="-259.53">
        <pitch>
          <step>A</step>
          <alter>-1</alter>
          <octave>3</octave>
          </pitch>
        <duration>2</duration>
        <voice>1</voice>
        <type>quarter</type>
        <stem>up</stem>
        </note>
      <backup><duration>6</duration></backup><note default-x="109.48" default-y="-379.53">
        <pitch>
          <step>E</step>
          <alter>-1</alter>
          <octave>3</octave>
          </pitch>
        <duration>1</duration>
        <voice>2</voice>
        <type>eighth</type>
        <stem>down</stem>
        </note>
      <note default-x="169.49" default-y="-379.53">
        <pitch>
          <step>E</step>
          <alter>-1</alter>
          <octave>3</octave>
          </pitch>
        <duration>1</duration>
        <voice>2</voice>
        <type>eighth</type>
        <stem>down</stem>
        </note>
      <note default-x="229.50" default-y="-399.53">
        <pitch>
          <step>A</step>
          <alter>-1</alter>
          <octave>2</octave>
          </pitch>
        <duration>2</duration>
        <voice>2</voice>
        <type>quarter</type>
        <stem>down</stem>
        </note>
      <note default-x="325.51" default-y="-389.53">
        <pitch>
          <step>C</step>
          <octave>3</octave>
          </pitch>
        <duration>2</duration>
        <voice>2</voice>
        <type>quarter</type>
        <stem>down</stem>
        </note>
      </measure>
    <measure number="15" width="343.82">
      <note default-x="16.00" default-y="-264.53">
        <pitch>
          <step>G</step>
          <octave>3</octave>
          </pitch>
        <duration>3</duration>
        <voice>1</voice>
        <type>quarter</type>
        <dot/>
        <stem>up</stem>
        </note>
      <note default-x="144.47" default-y="-264.53">
        <pitch>
          <step>G</step>
          <octave>3</octave>
          </pitch>
        <duration>1</duration>
        <voice>1</voice>
        <type>eighth</type>
        <stem>up</stem>
        </note>
      <note default-x="210.32" default-y="-259.53">
        <pitch>
          <step>A</step>
          <alter>-1</alter>
          <octave>3</octave>
          </pitch>
        <duration>1</duration>
        <voice>1</voice>
        <type>eighth</type>
        <stem>up</stem>
        </note>
      <note default-x="276.17" default-y="-264.53">
        <pitch>
          <step>G</step>
          <octave>3</octave>
          </pitch>
        <duration>1</duration>
        <voice>1</voice>
        <type>eighth</type>
        <stem>up</stem>
        </note>
      <backup><duration>6</duration></backup><note default-x="16.00" default-y="-379.53">
        <pitch>
          <step>E</step>
          <alter>-1</alter>
          <octave>3</octave>
          </pitch>
        <duration>3</duration>
        <voice>2</voice>
        <type>quarter</type>
        <dot/>
        <stem>down</stem>
        </note>
      <note default-x="144.47" default-y="-379.53">
        <pitch>
          <step>E</step>
          <alter>-1</alter>
          <octave>3</octave>
          </pitch>
        <duration>1</duration>
        <voice>2</voice>
        <type>eighth</type>
        <stem>down</stem>
        </note>
      <note default-x="210.32" default-y="-379.53">
        <pitch>
          <step>E</step>
          <alter>-1</alter>
          <octave>3</octave>
          </pitch>
        <duration>1</duration>
        <voice>2</voice>
        <type>eighth</type>
        <stem>down</stem>
        </note>
      <note default-x="276.17" default-y="-379.53">
        <pitch>
          <step>E</step>
          <alter>-1</alter>
          <octave>3</octave>
          </pitch>
        <duration>1</duration>
        <voice>2</voice>
        <type>eighth</type>
        <stem>down</stem>
        </note>
      </measure>
    <measure number="16" width="261.56">
      <note default-x="16.50" default-y="-259.53">
        <pitch>
          <step>A</step>
          <alter>-1</alter>
          <octave>3</octave>
          </pitch>
        <duration>6</duration>
        <voice>1</voice>
        <type>half</type>
        <dot/>
        <stem>up</stem>
        </note>
      <barline location="right">
        <bar-style>light-heavy</bar-style>
        </barline>
      <backup><duration>6</duration></backup><note default-x="16.50" default-y="-399.53">
        <pitch>
          <step>A</step>
          <alter>-1</alter>
          <octave>2</octave>
          </pitch>
        <duration>6</duration>
        <voice>2</voice>
        <type>half</type>
        <dot/>
        <stem>down</stem>
        </note>
      </measure>
    </part>
  </score-partwise>